<svg width="300" height="400" viewBox="0 0 300 400" fill="none" xmlns="http://www.w3.org/2000/svg">
<rect x="5" y="5" width="290" height="390" rx="25" fill="#FDD7E9" stroke="#793958" stroke-width="10"/>
<path d="M141 179H219L205 238L141 221V179Z" fill="#1E1E1E"/>
<path d="M177.191 190.852L192.085 182L202.5 253.5L174 285L177.191 190.852Z" fill="#F7DFEA"/>
<path d="M128.5 153L141 179L126 219.5L114.5 185L128.5 153Z" fill="#1E1E1E"/>
<path d="M132 162L227 158L202 210.5L160.5 234L132 162Z" fill="#F6DFEA"/>
<path d="M201.596 246.5H204L203 249L202 250L201.596 246.5Z" fill="#8F5671"/>
<path d="M159.5 294L175 246V390H137L159.5 294Z" fill="#AB728D"/>
<path d="M172.5 281.5L204 246.5L220.5 390H167.5L172.5 281.5Z" fill="#AB728D"/>
<path d="M94.8183 77.6839L140.471 57.8101L157 74.2657L109.791 102.198L94.8183 77.6839Z" fill="#EBBAD1"/>
<path d="M131.5 133L200.5 130.5L171.5 173L146.5 160.5L113 176.5L131.5 133Z" fill="#1E1E1E"/>
<path d="M203 125.051L236.5 163.5L209.5 186L171.5 163.5L203 125.051Z" fill="#1E1E1E"/>
<path d="M229.5 162.5L242 188.5L210 225.5L208 185.449L229.5 162.5Z" fill="#1E1E1E"/>
<path d="M190 153L202.5 179L187.5 219.5L176 185L190 153Z" fill="#1E1E1E"/>
<path d="M210.5 114L242 128.5L217 163.5L188.5 131L210.5 114Z" fill="#1E1E1E"/>
<path d="M10 82.5L79.5 79L127 86.5L181.5 82.5L121 91.5L61 86.5L10 95.5V82.5Z" fill="#4E3B3B"/>
<path d="M69.8988 110.18L93.2729 101.471L103.185 112.011L79.4661 125.291L69.8988 110.18Z" fill="#EBBAD1"/>
<path d="M90.4234 83.42L119.831 73.1059L141.126 70.0701L164.035 61.4727L139.156 72.8664L112.798 78.5162L91.9959 88.6942L90.4234 83.42Z" fill="#4E3B3B"/>
<path d="M32.2 84.7445L64.7307 98.6398L84.5289 113.067L110.348 123.338L80.5641 114.209L54.4546 98.215L29 91.2242L32.2 84.7445Z" fill="#4E3B3B"/>
<path d="M52.5 90L85 99.5L87.5 120L51 115.5L52.5 90Z" fill="#F0CADC"/>
<path d="M85.1781 48L132.37 65.1L136 102L83 93.9L85.1781 48Z" fill="#F0CADC"/>
<path d="M39.0841 366C39.9693 366 40.7929 366 41.5546 366C42.3164 366 43.1399 366 44.0252 366C44.0252 365.094 44.0252 364.271 44.0252 363.529C44.0252 362.788 44.0252 361.965 44.0252 361.059C43.1399 361.059 42.3164 361.059 41.5546 361.059C40.7929 361.059 39.9693 361.059 39.0841 361.059C39.0841 361.965 39.0841 362.788 39.0841 363.529C39.0841 364.271 39.0841 365.094 39.0841 366ZM39.0841 366C39.9693 366 40.7929 366 41.5546 366C42.3164 366 43.1399 366 44.0252 366C44.0252 365.094 44.0252 364.271 44.0252 363.529C44.0252 362.788 44.0252 361.965 44.0252 361.059C43.1399 361.059 42.3164 361.059 41.5546 361.059C40.7929 361.059 39.9693 361.059 39.0841 361.059C39.0841 361.965 39.0841 362.788 39.0841 363.529C39.0841 364.271 39.0841 365.094 39.0841 366ZM39.0841 366C39.9693 366 40.7929 366 41.5546 366C42.3164 366 43.1399 366 44.0252 366C44.0252 365.094 44.0252 364.271 44.0252 363.529C44.0252 362.788 44.0252 361.965 44.0252 361.059C43.1399 361.059 42.3164 361.059 41.5546 361.059C40.7929 361.059 39.9693 361.059 39.0841 361.059C39.0841 361.965 39.0841 362.788 39.0841 363.529C39.0841 364.271 39.0841 365.094 39.0841 366ZM39.0841 366C39.9693 366 40.7929 366 41.5546 366C42.3164 366 43.1399 366 44.0252 366C44.0252 365.094 44.0252 364.271 44.0252 363.529C44.0252 362.788 44.0252 361.965 44.0252 361.059C43.1399 361.059 42.3164 361.059 41.5546 361.059C40.7929 361.059 39.9693 361.059 39.0841 361.059C39.0841 361.965 39.0841 362.788 39.0841 363.529C39.0841 364.271 39.0841 365.094 39.0841 366ZM39.0841 366C39.9693 366 40.7929 366 41.5546 366C42.3164 366 43.1399 366 44.0252 366C44.0252 365.094 44.0252 364.271 44.0252 363.529C44.0252 362.788 44.0252 361.965 44.0252 361.059C43.1399 361.059 42.3164 361.059 41.5546 361.059C40.7929 361.059 39.9693 361.059 39.0841 361.059C39.0841 361.965 39.0841 362.788 39.0841 363.529C39.0841 364.271 39.0841 365.094 39.0841 366ZM39.0841 366C39.9693 366 40.7929 366 41.5546 366C42.3164 366 43.1399 366 44.0252 366C44.0252 365.094 44.0252 364.271 44.0252 363.529C44.0252 362.788 44.0252 361.965 44.0252 361.059C43.1399 361.059 42.3164 361.059 41.5546 361.059C40.7929 361.059 39.9693 361.059 39.0841 361.059C39.0841 361.965 39.0841 362.788 39.0841 363.529C39.0841 364.271 39.0841 365.094 39.0841 366ZM39.0841 366C39.9693 366 40.7929 366 41.5546 366C42.3164 366 43.1399 366 44.0252 366C44.0252 365.094 44.0252 364.271 44.0252 363.529C44.0252 362.788 44.0252 361.965 44.0252 361.059C43.1399 361.059 42.3164 361.059 41.5546 361.059C40.7929 361.059 39.9693 361.059 39.0841 361.059C39.0841 361.965 39.0841 362.788 39.0841 363.529C39.0841 364.271 39.0841 365.094 39.0841 366ZM39.0841 366C39.9693 366 40.7929 366 41.5546 366C42.3164 366 43.1399 366 44.0252 366C44.0252 365.094 44.0252 364.271 44.0252 363.529C44.0252 362.788 44.0252 361.965 44.0252 361.059C43.1399 361.059 42.3164 361.059 41.5546 361.059C40.7929 361.059 39.9693 361.059 39.0841 361.059C39.0841 361.965 39.0841 362.788 39.0841 363.529C39.0841 364.271 39.0841 365.094 39.0841 366ZM39.0841 366C39.9693 366 40.7929 366 41.5546 366C42.3164 366 43.1399 366 44.0252 366C44.0252 365.094 44.0252 364.271 44.0252 363.529C44.0252 362.788 44.0252 361.965 44.0252 361.059C43.1399 361.059 42.3164 361.059 41.5546 361.059C40.7929 361.059 39.9693 361.059 39.0841 361.059C39.0841 361.965 39.0841 362.788 39.0841 363.529C39.0841 364.271 39.0841 365.094 39.0841 366ZM44.0252 366C44.9105 366 45.7341 366 46.4958 366C47.2576 366 48.0811 366 48.9664 366C48.9664 365.094 48.9664 364.271 48.9664 363.529C48.9664 362.788 48.9664 361.965 48.9664 361.059C48.0811 361.059 47.2576 361.059 46.4958 361.059C45.7341 361.059 44.9105 361.059 44.0252 361.059C44.0252 361.965 44.0252 362.788 44.0252 363.529C44.0252 364.271 44.0252 365.094 44.0252 366ZM44.0252 366C44.9105 366 45.7341 366 46.4958 366C47.2576 366 48.0811 366 48.9664 366C48.9664 365.094 48.9664 364.271 48.9664 363.529C48.9664 362.788 48.9664 361.965 48.9664 361.059C48.0811 361.059 47.2576 361.059 46.4958 361.059C45.7341 361.059 44.9105 361.059 44.0252 361.059C44.0252 361.965 44.0252 362.788 44.0252 363.529C44.0252 364.271 44.0252 365.094 44.0252 366ZM44.0252 366C44.9105 366 45.7341 366 46.4958 366C47.2576 366 48.0811 366 48.9664 366C48.9664 365.094 48.9664 364.271 48.9664 363.529C48.9664 362.788 48.9664 361.965 48.9664 361.059C48.0811 361.059 47.2576 361.059 46.4958 361.059C45.7341 361.059 44.9105 361.059 44.0252 361.059C44.0252 361.965 44.0252 362.788 44.0252 363.529C44.0252 364.271 44.0252 365.094 44.0252 366ZM44.0252 366C44.9105 366 45.7341 366 46.4958 366C47.2576 366 48.0811 366 48.9664 366C48.9664 365.094 48.9664 364.271 48.9664 363.529C48.9664 362.788 48.9664 361.965 48.9664 361.059C48.0811 361.059 47.2576 361.059 46.4958 361.059C45.7341 361.059 44.9105 361.059 44.0252 361.059C44.0252 361.965 44.0252 362.788 44.0252 363.529C44.0252 364.271 44.0252 365.094 44.0252 366ZM44.0252 366C44.9105 366 45.7341 366 46.4958 366C47.2576 366 48.0811 366 48.9664 366C48.9664 365.094 48.9664 364.271 48.9664 363.529C48.9664 362.788 48.9664 361.965 48.9664 361.059C48.0811 361.059 47.2576 361.059 46.4958 361.059C45.7341 361.059 44.9105 361.059 44.0252 361.059C44.0252 361.965 44.0252 362.788 44.0252 363.529C44.0252 364.271 44.0252 365.094 44.0252 366ZM44.0252 366C44.9105 366 45.7341 366 46.4958 366C47.2576 366 48.0811 366 48.9664 366C48.9664 365.094 48.9664 364.271 48.9664 363.529C48.9664 362.788 48.9664 361.965 48.9664 361.059C48.0811 361.059 47.2576 361.059 46.4958 361.059C45.7341 361.059 44.9105 361.059 44.0252 361.059C44.0252 361.965 44.0252 362.788 44.0252 363.529C44.0252 364.271 44.0252 365.094 44.0252 366ZM44.0252 366C44.9105 366 45.7341 366 46.4958 366C47.2576 366 48.0811 366 48.9664 366C48.9664 365.094 48.9664 364.271 48.9664 363.529C48.9664 362.788 48.9664 361.965 48.9664 361.059C48.0811 361.059 47.2576 361.059 46.4958 361.059C45.7341 361.059 44.9105 361.059 44.0252 361.059C44.0252 361.965 44.0252 362.788 44.0252 363.529C44.0252 364.271 44.0252 365.094 44.0252 366ZM44.0252 366C44.9105 366 45.7341 366 46.4958 366C47.2576 366 48.0811 366 48.9664 366C48.9664 365.094 48.9664 364.271 48.9664 363.529C48.9664 362.788 48.9664 361.965 48.9664 361.059C48.0811 361.059 47.2576 361.059 46.4958 361.059C45.7341 361.059 44.9105 361.059 44.0252 361.059C44.0252 361.965 44.0252 362.788 44.0252 363.529C44.0252 364.271 44.0252 365.094 44.0252 366ZM44.0252 366C44.9105 366 45.7341 366 46.4958 366C47.2576 366 48.0811 366 48.9664 366C48.9664 365.094 48.9664 364.271 48.9664 363.529C48.9664 362.788 48.9664 361.965 48.9664 361.059C48.0811 361.059 47.2576 361.059 46.4958 361.059C45.7341 361.059 44.9105 361.059 44.0252 361.059C44.0252 361.965 44.0252 362.788 44.0252 363.529C44.0252 364.271 44.0252 365.094 44.0252 366ZM48.9664 366C49.8517 366 50.6752 366 51.437 366C52.1988 366 53.0223 366 53.9076 366C53.9076 365.094 53.9076 364.271 53.9076 363.529C53.9076 362.788 53.9076 361.965 53.9076 361.059C53.0223 361.059 52.1988 361.059 51.437 361.059C50.6752 361.059 49.8517 361.059 48.9664 361.059C48.9664 361.965 48.9664 362.788 48.9664 363.529C48.9664 364.271 48.9664 365.094 48.9664 366ZM48.9664 366C49.8517 366 50.6752 366 51.437 366C52.1988 366 53.0223 366 53.9076 366C53.9076 365.094 53.9076 364.271 53.9076 363.529C53.9076 362.788 53.9076 361.965 53.9076 361.059C53.0223 361.059 52.1988 361.059 51.437 361.059C50.6752 361.059 49.8517 361.059 48.9664 361.059C48.9664 361.965 48.9664 362.788 48.9664 363.529C48.9664 364.271 48.9664 365.094 48.9664 366ZM48.9664 366C49.8517 366 50.6752 366 51.437 366C52.1988 366 53.0223 366 53.9076 366C53.9076 365.094 53.9076 364.271 53.9076 363.529C53.9076 362.788 53.9076 361.965 53.9076 361.059C53.0223 361.059 52.1988 361.059 51.437 361.059C50.6752 361.059 49.8517 361.059 48.9664 361.059C48.9664 361.965 48.9664 362.788 48.9664 363.529C48.9664 364.271 48.9664 365.094 48.9664 366ZM48.9664 366C49.8517 366 50.6752 366 51.437 366C52.1988 366 53.0223 366 53.9076 366C53.9076 365.094 53.9076 364.271 53.9076 363.529C53.9076 362.788 53.9076 361.965 53.9076 361.059C53.0223 361.059 52.1988 361.059 51.437 361.059C50.6752 361.059 49.8517 361.059 48.9664 361.059C48.9664 361.965 48.9664 362.788 48.9664 363.529C48.9664 364.271 48.9664 365.094 48.9664 366ZM48.9664 366C49.8517 366 50.6752 366 51.437 366C52.1988 366 53.0223 366 53.9076 366C53.9076 365.094 53.9076 364.271 53.9076 363.529C53.9076 362.788 53.9076 361.965 53.9076 361.059C53.0223 361.059 52.1988 361.059 51.437 361.059C50.6752 361.059 49.8517 361.059 48.9664 361.059C48.9664 361.965 48.9664 362.788 48.9664 363.529C48.9664 364.271 48.9664 365.094 48.9664 366ZM48.9664 366C49.8517 366 50.6752 366 51.437 366C52.1988 366 53.0223 366 53.9076 366C53.9076 365.094 53.9076 364.271 53.9076 363.529C53.9076 362.788 53.9076 361.965 53.9076 361.059C53.0223 361.059 52.1988 361.059 51.437 361.059C50.6752 361.059 49.8517 361.059 48.9664 361.059C48.9664 361.965 48.9664 362.788 48.9664 363.529C48.9664 364.271 48.9664 365.094 48.9664 366ZM48.9664 366C49.8517 366 50.6752 366 51.437 366C52.1988 366 53.0223 366 53.9076 366C53.9076 365.094 53.9076 364.271 53.9076 363.529C53.9076 362.788 53.9076 361.965 53.9076 361.059C53.0223 361.059 52.1988 361.059 51.437 361.059C50.6752 361.059 49.8517 361.059 48.9664 361.059C48.9664 361.965 48.9664 362.788 48.9664 363.529C48.9664 364.271 48.9664 365.094 48.9664 366ZM48.9664 366C49.8517 366 50.6752 366 51.437 366C52.1988 366 53.0223 366 53.9076 366C53.9076 365.094 53.9076 364.271 53.9076 363.529C53.9076 362.788 53.9076 361.965 53.9076 361.059C53.0223 361.059 52.1988 361.059 51.437 361.059C50.6752 361.059 49.8517 361.059 48.9664 361.059C48.9664 361.965 48.9664 362.788 48.9664 363.529C48.9664 364.271 48.9664 365.094 48.9664 366ZM48.9664 366C49.8517 366 50.6752 366 51.437 366C52.1988 366 53.0223 366 53.9076 366C53.9076 365.094 53.9076 364.271 53.9076 363.529C53.9076 362.788 53.9076 361.965 53.9076 361.059C53.0223 361.059 52.1988 361.059 51.437 361.059C50.6752 361.059 49.8517 361.059 48.9664 361.059C48.9664 361.965 48.9664 362.788 48.9664 363.529C48.9664 364.271 48.9664 365.094 48.9664 366ZM34.1429 361.059C35.0282 361.059 35.8517 361.059 36.6135 361.059C37.3752 361.059 38.1988 361.059 39.0841 361.059C39.0841 360.153 39.0841 359.329 39.0841 358.588C39.0841 357.847 39.0841 357.024 39.0841 356.118C38.1988 356.118 37.3752 356.118 36.6135 356.118C35.8517 356.118 35.0282 356.118 34.1429 356.118C34.1429 357.024 34.1429 357.847 34.1429 358.588C34.1429 359.329 34.1429 360.153 34.1429 361.059ZM34.1429 361.059C35.0282 361.059 35.8517 361.059 36.6135 361.059C37.3752 361.059 38.1988 361.059 39.0841 361.059C39.0841 360.153 39.0841 359.329 39.0841 358.588C39.0841 357.847 39.0841 357.024 39.0841 356.118C38.1988 356.118 37.3752 356.118 36.6135 356.118C35.8517 356.118 35.0282 356.118 34.1429 356.118C34.1429 357.024 34.1429 357.847 34.1429 358.588C34.1429 359.329 34.1429 360.153 34.1429 361.059ZM34.1429 361.059C35.0282 361.059 35.8517 361.059 36.6135 361.059C37.3752 361.059 38.1988 361.059 39.0841 361.059C39.0841 360.153 39.0841 359.329 39.0841 358.588C39.0841 357.847 39.0841 357.024 39.0841 356.118C38.1988 356.118 37.3752 356.118 36.6135 356.118C35.8517 356.118 35.0282 356.118 34.1429 356.118C34.1429 357.024 34.1429 357.847 34.1429 358.588C34.1429 359.329 34.1429 360.153 34.1429 361.059ZM34.1429 361.059C35.0282 361.059 35.8517 361.059 36.6135 361.059C37.3752 361.059 38.1988 361.059 39.0841 361.059C39.0841 360.153 39.0841 359.329 39.0841 358.588C39.0841 357.847 39.0841 357.024 39.0841 356.118C38.1988 356.118 37.3752 356.118 36.6135 356.118C35.8517 356.118 35.0282 356.118 34.1429 356.118C34.1429 357.024 34.1429 357.847 34.1429 358.588C34.1429 359.329 34.1429 360.153 34.1429 361.059ZM34.1429 361.059C35.0282 361.059 35.8517 361.059 36.6135 361.059C37.3752 361.059 38.1988 361.059 39.0841 361.059C39.0841 360.153 39.0841 359.329 39.0841 358.588C39.0841 357.847 39.0841 357.024 39.0841 356.118C38.1988 356.118 37.3752 356.118 36.6135 356.118C35.8517 356.118 35.0282 356.118 34.1429 356.118C34.1429 357.024 34.1429 357.847 34.1429 358.588C34.1429 359.329 34.1429 360.153 34.1429 361.059ZM34.1429 361.059C35.0282 361.059 35.8517 361.059 36.6135 361.059C37.3752 361.059 38.1988 361.059 39.0841 361.059C39.0841 360.153 39.0841 359.329 39.0841 358.588C39.0841 357.847 39.0841 357.024 39.0841 356.118C38.1988 356.118 37.3752 356.118 36.6135 356.118C35.8517 356.118 35.0282 356.118 34.1429 356.118C34.1429 357.024 34.1429 357.847 34.1429 358.588C34.1429 359.329 34.1429 360.153 34.1429 361.059ZM34.1429 361.059C35.0282 361.059 35.8517 361.059 36.6135 361.059C37.3752 361.059 38.1988 361.059 39.0841 361.059C39.0841 360.153 39.0841 359.329 39.0841 358.588C39.0841 357.847 39.0841 357.024 39.0841 356.118C38.1988 356.118 37.3752 356.118 36.6135 356.118C35.8517 356.118 35.0282 356.118 34.1429 356.118C34.1429 357.024 34.1429 357.847 34.1429 358.588C34.1429 359.329 34.1429 360.153 34.1429 361.059ZM34.1429 361.059C35.0282 361.059 35.8517 361.059 36.6135 361.059C37.3752 361.059 38.1988 361.059 39.0841 361.059C39.0841 360.153 39.0841 359.329 39.0841 358.588C39.0841 357.847 39.0841 357.024 39.0841 356.118C38.1988 356.118 37.3752 356.118 36.6135 356.118C35.8517 356.118 35.0282 356.118 34.1429 356.118C34.1429 357.024 34.1429 357.847 34.1429 358.588C34.1429 359.329 34.1429 360.153 34.1429 361.059ZM34.1429 361.059C35.0282 361.059 35.8517 361.059 36.6135 361.059C37.3752 361.059 38.1988 361.059 39.0841 361.059C39.0841 360.153 39.0841 359.329 39.0841 358.588C39.0841 357.847 39.0841 357.024 39.0841 356.118C38.1988 356.118 37.3752 356.118 36.6135 356.118C35.8517 356.118 35.0282 356.118 34.1429 356.118C34.1429 357.024 34.1429 357.847 34.1429 358.588C34.1429 359.329 34.1429 360.153 34.1429 361.059ZM53.9076 361.059C54.7929 361.059 55.6164 361.059 56.3782 361.059C57.1399 361.059 57.9635 361.059 58.8488 361.059C58.8488 360.153 58.8488 359.329 58.8488 358.588C58.8488 357.847 58.8488 357.024 58.8488 356.118C57.9635 356.118 57.1399 356.118 56.3782 356.118C55.6164 356.118 54.7929 356.118 53.9076 356.118C53.9076 357.024 53.9076 357.847 53.9076 358.588C53.9076 359.329 53.9076 360.153 53.9076 361.059ZM53.9076 361.059C54.7929 361.059 55.6164 361.059 56.3782 361.059C57.1399 361.059 57.9635 361.059 58.8488 361.059C58.8488 360.153 58.8488 359.329 58.8488 358.588C58.8488 357.847 58.8488 357.024 58.8488 356.118C57.9635 356.118 57.1399 356.118 56.3782 356.118C55.6164 356.118 54.7929 356.118 53.9076 356.118C53.9076 357.024 53.9076 357.847 53.9076 358.588C53.9076 359.329 53.9076 360.153 53.9076 361.059ZM53.9076 361.059C54.7929 361.059 55.6164 361.059 56.3782 361.059C57.1399 361.059 57.9635 361.059 58.8488 361.059C58.8488 360.153 58.8488 359.329 58.8488 358.588C58.8488 357.847 58.8488 357.024 58.8488 356.118C57.9635 356.118 57.1399 356.118 56.3782 356.118C55.6164 356.118 54.7929 356.118 53.9076 356.118C53.9076 357.024 53.9076 357.847 53.9076 358.588C53.9076 359.329 53.9076 360.153 53.9076 361.059ZM53.9076 361.059C54.7929 361.059 55.6164 361.059 56.3782 361.059C57.1399 361.059 57.9635 361.059 58.8488 361.059C58.8488 360.153 58.8488 359.329 58.8488 358.588C58.8488 357.847 58.8488 357.024 58.8488 356.118C57.9635 356.118 57.1399 356.118 56.3782 356.118C55.6164 356.118 54.7929 356.118 53.9076 356.118C53.9076 357.024 53.9076 357.847 53.9076 358.588C53.9076 359.329 53.9076 360.153 53.9076 361.059ZM53.9076 361.059C54.7929 361.059 55.6164 361.059 56.3782 361.059C57.1399 361.059 57.9635 361.059 58.8488 361.059C58.8488 360.153 58.8488 359.329 58.8488 358.588C58.8488 357.847 58.8488 357.024 58.8488 356.118C57.9635 356.118 57.1399 356.118 56.3782 356.118C55.6164 356.118 54.7929 356.118 53.9076 356.118C53.9076 357.024 53.9076 357.847 53.9076 358.588C53.9076 359.329 53.9076 360.153 53.9076 361.059ZM53.9076 361.059C54.7929 361.059 55.6164 361.059 56.3782 361.059C57.1399 361.059 57.9635 361.059 58.8488 361.059C58.8488 360.153 58.8488 359.329 58.8488 358.588C58.8488 357.847 58.8488 357.024 58.8488 356.118C57.9635 356.118 57.1399 356.118 56.3782 356.118C55.6164 356.118 54.7929 356.118 53.9076 356.118C53.9076 357.024 53.9076 357.847 53.9076 358.588C53.9076 359.329 53.9076 360.153 53.9076 361.059ZM53.9076 361.059C54.7929 361.059 55.6164 361.059 56.3782 361.059C57.1399 361.059 57.9635 361.059 58.8488 361.059C58.8488 360.153 58.8488 359.329 58.8488 358.588C58.8488 357.847 58.8488 357.024 58.8488 356.118C57.9635 356.118 57.1399 356.118 56.3782 356.118C55.6164 356.118 54.7929 356.118 53.9076 356.118C53.9076 357.024 53.9076 357.847 53.9076 358.588C53.9076 359.329 53.9076 360.153 53.9076 361.059ZM53.9076 361.059C54.7929 361.059 55.6164 361.059 56.3782 361.059C57.1399 361.059 57.9635 361.059 58.8488 361.059C58.8488 360.153 58.8488 359.329 58.8488 358.588C58.8488 357.847 58.8488 357.024 58.8488 356.118C57.9635 356.118 57.1399 356.118 56.3782 356.118C55.6164 356.118 54.7929 356.118 53.9076 356.118C53.9076 357.024 53.9076 357.847 53.9076 358.588C53.9076 359.329 53.9076 360.153 53.9076 361.059ZM53.9076 361.059C54.7929 361.059 55.6164 361.059 56.3782 361.059C57.1399 361.059 57.9635 361.059 58.8488 361.059C58.8488 360.153 58.8488 359.329 58.8488 358.588C58.8488 357.847 58.8488 357.024 58.8488 356.118C57.9635 356.118 57.1399 356.118 56.3782 356.118C55.6164 356.118 54.7929 356.118 53.9076 356.118C53.9076 357.024 53.9076 357.847 53.9076 358.588C53.9076 359.329 53.9076 360.153 53.9076 361.059ZM34.1429 356.118C35.0282 356.118 35.8517 356.118 36.6135 356.118C37.3752 356.118 38.1988 356.118 39.0841 356.118C39.0841 355.212 39.0841 354.388 39.0841 353.647C39.0841 352.906 39.0841 352.082 39.0841 351.176C38.1988 351.176 37.3752 351.176 36.6135 351.176C35.8517 351.176 35.0282 351.176 34.1429 351.176C34.1429 352.082 34.1429 352.906 34.1429 353.647C34.1429 354.388 34.1429 355.212 34.1429 356.118ZM34.1429 356.118C35.0282 356.118 35.8517 356.118 36.6135 356.118C37.3752 356.118 38.1988 356.118 39.0841 356.118C39.0841 355.212 39.0841 354.388 39.0841 353.647C39.0841 352.906 39.0841 352.082 39.0841 351.176C38.1988 351.176 37.3752 351.176 36.6135 351.176C35.8517 351.176 35.0282 351.176 34.1429 351.176C34.1429 352.082 34.1429 352.906 34.1429 353.647C34.1429 354.388 34.1429 355.212 34.1429 356.118ZM34.1429 356.118C35.0282 356.118 35.8517 356.118 36.6135 356.118C37.3752 356.118 38.1988 356.118 39.0841 356.118C39.0841 355.212 39.0841 354.388 39.0841 353.647C39.0841 352.906 39.0841 352.082 39.0841 351.176C38.1988 351.176 37.3752 351.176 36.6135 351.176C35.8517 351.176 35.0282 351.176 34.1429 351.176C34.1429 352.082 34.1429 352.906 34.1429 353.647C34.1429 354.388 34.1429 355.212 34.1429 356.118ZM34.1429 356.118C35.0282 356.118 35.8517 356.118 36.6135 356.118C37.3752 356.118 38.1988 356.118 39.0841 356.118C39.0841 355.212 39.0841 354.388 39.0841 353.647C39.0841 352.906 39.0841 352.082 39.0841 351.176C38.1988 351.176 37.3752 351.176 36.6135 351.176C35.8517 351.176 35.0282 351.176 34.1429 351.176C34.1429 352.082 34.1429 352.906 34.1429 353.647C34.1429 354.388 34.1429 355.212 34.1429 356.118ZM34.1429 356.118C35.0282 356.118 35.8517 356.118 36.6135 356.118C37.3752 356.118 38.1988 356.118 39.0841 356.118C39.0841 355.212 39.0841 354.388 39.0841 353.647C39.0841 352.906 39.0841 352.082 39.0841 351.176C38.1988 351.176 37.3752 351.176 36.6135 351.176C35.8517 351.176 35.0282 351.176 34.1429 351.176C34.1429 352.082 34.1429 352.906 34.1429 353.647C34.1429 354.388 34.1429 355.212 34.1429 356.118ZM34.1429 356.118C35.0282 356.118 35.8517 356.118 36.6135 356.118C37.3752 356.118 38.1988 356.118 39.0841 356.118C39.0841 355.212 39.0841 354.388 39.0841 353.647C39.0841 352.906 39.0841 352.082 39.0841 351.176C38.1988 351.176 37.3752 351.176 36.6135 351.176C35.8517 351.176 35.0282 351.176 34.1429 351.176C34.1429 352.082 34.1429 352.906 34.1429 353.647C34.1429 354.388 34.1429 355.212 34.1429 356.118ZM34.1429 356.118C35.0282 356.118 35.8517 356.118 36.6135 356.118C37.3752 356.118 38.1988 356.118 39.0841 356.118C39.0841 355.212 39.0841 354.388 39.0841 353.647C39.0841 352.906 39.0841 352.082 39.0841 351.176C38.1988 351.176 37.3752 351.176 36.6135 351.176C35.8517 351.176 35.0282 351.176 34.1429 351.176C34.1429 352.082 34.1429 352.906 34.1429 353.647C34.1429 354.388 34.1429 355.212 34.1429 356.118ZM34.1429 356.118C35.0282 356.118 35.8517 356.118 36.6135 356.118C37.3752 356.118 38.1988 356.118 39.0841 356.118C39.0841 355.212 39.0841 354.388 39.0841 353.647C39.0841 352.906 39.0841 352.082 39.0841 351.176C38.1988 351.176 37.3752 351.176 36.6135 351.176C35.8517 351.176 35.0282 351.176 34.1429 351.176C34.1429 352.082 34.1429 352.906 34.1429 353.647C34.1429 354.388 34.1429 355.212 34.1429 356.118ZM34.1429 356.118C35.0282 356.118 35.8517 356.118 36.6135 356.118C37.3752 356.118 38.1988 356.118 39.0841 356.118C39.0841 355.212 39.0841 354.388 39.0841 353.647C39.0841 352.906 39.0841 352.082 39.0841 351.176C38.1988 351.176 37.3752 351.176 36.6135 351.176C35.8517 351.176 35.0282 351.176 34.1429 351.176C34.1429 352.082 34.1429 352.906 34.1429 353.647C34.1429 354.388 34.1429 355.212 34.1429 356.118ZM53.9076 356.118C54.7929 356.118 55.6164 356.118 56.3782 356.118C57.1399 356.118 57.9635 356.118 58.8488 356.118C58.8488 355.212 58.8488 354.388 58.8488 353.647C58.8488 352.906 58.8488 352.082 58.8488 351.176C57.9635 351.176 57.1399 351.176 56.3782 351.176C55.6164 351.176 54.7929 351.176 53.9076 351.176C53.9076 352.082 53.9076 352.906 53.9076 353.647C53.9076 354.388 53.9076 355.212 53.9076 356.118ZM53.9076 356.118C54.7929 356.118 55.6164 356.118 56.3782 356.118C57.1399 356.118 57.9635 356.118 58.8488 356.118C58.8488 355.212 58.8488 354.388 58.8488 353.647C58.8488 352.906 58.8488 352.082 58.8488 351.176C57.9635 351.176 57.1399 351.176 56.3782 351.176C55.6164 351.176 54.7929 351.176 53.9076 351.176C53.9076 352.082 53.9076 352.906 53.9076 353.647C53.9076 354.388 53.9076 355.212 53.9076 356.118ZM53.9076 356.118C54.7929 356.118 55.6164 356.118 56.3782 356.118C57.1399 356.118 57.9635 356.118 58.8488 356.118C58.8488 355.212 58.8488 354.388 58.8488 353.647C58.8488 352.906 58.8488 352.082 58.8488 351.176C57.9635 351.176 57.1399 351.176 56.3782 351.176C55.6164 351.176 54.7929 351.176 53.9076 351.176C53.9076 352.082 53.9076 352.906 53.9076 353.647C53.9076 354.388 53.9076 355.212 53.9076 356.118ZM53.9076 356.118C54.7929 356.118 55.6164 356.118 56.3782 356.118C57.1399 356.118 57.9635 356.118 58.8488 356.118C58.8488 355.212 58.8488 354.388 58.8488 353.647C58.8488 352.906 58.8488 352.082 58.8488 351.176C57.9635 351.176 57.1399 351.176 56.3782 351.176C55.6164 351.176 54.7929 351.176 53.9076 351.176C53.9076 352.082 53.9076 352.906 53.9076 353.647C53.9076 354.388 53.9076 355.212 53.9076 356.118ZM53.9076 356.118C54.7929 356.118 55.6164 356.118 56.3782 356.118C57.1399 356.118 57.9635 356.118 58.8488 356.118C58.8488 355.212 58.8488 354.388 58.8488 353.647C58.8488 352.906 58.8488 352.082 58.8488 351.176C57.9635 351.176 57.1399 351.176 56.3782 351.176C55.6164 351.176 54.7929 351.176 53.9076 351.176C53.9076 352.082 53.9076 352.906 53.9076 353.647C53.9076 354.388 53.9076 355.212 53.9076 356.118ZM53.9076 356.118C54.7929 356.118 55.6164 356.118 56.3782 356.118C57.1399 356.118 57.9635 356.118 58.8488 356.118C58.8488 355.212 58.8488 354.388 58.8488 353.647C58.8488 352.906 58.8488 352.082 58.8488 351.176C57.9635 351.176 57.1399 351.176 56.3782 351.176C55.6164 351.176 54.7929 351.176 53.9076 351.176C53.9076 352.082 53.9076 352.906 53.9076 353.647C53.9076 354.388 53.9076 355.212 53.9076 356.118ZM53.9076 356.118C54.7929 356.118 55.6164 356.118 56.3782 356.118C57.1399 356.118 57.9635 356.118 58.8488 356.118C58.8488 355.212 58.8488 354.388 58.8488 353.647C58.8488 352.906 58.8488 352.082 58.8488 351.176C57.9635 351.176 57.1399 351.176 56.3782 351.176C55.6164 351.176 54.7929 351.176 53.9076 351.176C53.9076 352.082 53.9076 352.906 53.9076 353.647C53.9076 354.388 53.9076 355.212 53.9076 356.118ZM53.9076 356.118C54.7929 356.118 55.6164 356.118 56.3782 356.118C57.1399 356.118 57.9635 356.118 58.8488 356.118C58.8488 355.212 58.8488 354.388 58.8488 353.647C58.8488 352.906 58.8488 352.082 58.8488 351.176C57.9635 351.176 57.1399 351.176 56.3782 351.176C55.6164 351.176 54.7929 351.176 53.9076 351.176C53.9076 352.082 53.9076 352.906 53.9076 353.647C53.9076 354.388 53.9076 355.212 53.9076 356.118ZM53.9076 356.118C54.7929 356.118 55.6164 356.118 56.3782 356.118C57.1399 356.118 57.9635 356.118 58.8488 356.118C58.8488 355.212 58.8488 354.388 58.8488 353.647C58.8488 352.906 58.8488 352.082 58.8488 351.176C57.9635 351.176 57.1399 351.176 56.3782 351.176C55.6164 351.176 54.7929 351.176 53.9076 351.176C53.9076 352.082 53.9076 352.906 53.9076 353.647C53.9076 354.388 53.9076 355.212 53.9076 356.118ZM53.9076 351.176C54.7929 351.176 55.6164 351.176 56.3782 351.176C57.1399 351.176 57.9635 351.176 58.8488 351.176C58.8488 350.271 58.8488 349.447 58.8488 348.706C58.8488 347.965 58.8488 347.141 58.8488 346.235C57.9635 346.235 57.1399 346.235 56.3782 346.235C55.6164 346.235 54.7929 346.235 53.9076 346.235C53.9076 347.141 53.9076 347.965 53.9076 348.706C53.9076 349.447 53.9076 350.271 53.9076 351.176ZM53.9076 351.176C54.7929 351.176 55.6164 351.176 56.3782 351.176C57.1399 351.176 57.9635 351.176 58.8488 351.176C58.8488 350.271 58.8488 349.447 58.8488 348.706C58.8488 347.965 58.8488 347.141 58.8488 346.235C57.9635 346.235 57.1399 346.235 56.3782 346.235C55.6164 346.235 54.7929 346.235 53.9076 346.235C53.9076 347.141 53.9076 347.965 53.9076 348.706C53.9076 349.447 53.9076 350.271 53.9076 351.176ZM53.9076 351.176C54.7929 351.176 55.6164 351.176 56.3782 351.176C57.1399 351.176 57.9635 351.176 58.8488 351.176C58.8488 350.271 58.8488 349.447 58.8488 348.706C58.8488 347.965 58.8488 347.141 58.8488 346.235C57.9635 346.235 57.1399 346.235 56.3782 346.235C55.6164 346.235 54.7929 346.235 53.9076 346.235C53.9076 347.141 53.9076 347.965 53.9076 348.706C53.9076 349.447 53.9076 350.271 53.9076 351.176ZM53.9076 351.176C54.7929 351.176 55.6164 351.176 56.3782 351.176C57.1399 351.176 57.9635 351.176 58.8488 351.176C58.8488 350.271 58.8488 349.447 58.8488 348.706C58.8488 347.965 58.8488 347.141 58.8488 346.235C57.9635 346.235 57.1399 346.235 56.3782 346.235C55.6164 346.235 54.7929 346.235 53.9076 346.235C53.9076 347.141 53.9076 347.965 53.9076 348.706C53.9076 349.447 53.9076 350.271 53.9076 351.176ZM53.9076 351.176C54.7929 351.176 55.6164 351.176 56.3782 351.176C57.1399 351.176 57.9635 351.176 58.8488 351.176C58.8488 350.271 58.8488 349.447 58.8488 348.706C58.8488 347.965 58.8488 347.141 58.8488 346.235C57.9635 346.235 57.1399 346.235 56.3782 346.235C55.6164 346.235 54.7929 346.235 53.9076 346.235C53.9076 347.141 53.9076 347.965 53.9076 348.706C53.9076 349.447 53.9076 350.271 53.9076 351.176ZM53.9076 351.176C54.7929 351.176 55.6164 351.176 56.3782 351.176C57.1399 351.176 57.9635 351.176 58.8488 351.176C58.8488 350.271 58.8488 349.447 58.8488 348.706C58.8488 347.965 58.8488 347.141 58.8488 346.235C57.9635 346.235 57.1399 346.235 56.3782 346.235C55.6164 346.235 54.7929 346.235 53.9076 346.235C53.9076 347.141 53.9076 347.965 53.9076 348.706C53.9076 349.447 53.9076 350.271 53.9076 351.176ZM53.9076 351.176C54.7929 351.176 55.6164 351.176 56.3782 351.176C57.1399 351.176 57.9635 351.176 58.8488 351.176C58.8488 350.271 58.8488 349.447 58.8488 348.706C58.8488 347.965 58.8488 347.141 58.8488 346.235C57.9635 346.235 57.1399 346.235 56.3782 346.235C55.6164 346.235 54.7929 346.235 53.9076 346.235C53.9076 347.141 53.9076 347.965 53.9076 348.706C53.9076 349.447 53.9076 350.271 53.9076 351.176ZM53.9076 351.176C54.7929 351.176 55.6164 351.176 56.3782 351.176C57.1399 351.176 57.9635 351.176 58.8488 351.176C58.8488 350.271 58.8488 349.447 58.8488 348.706C58.8488 347.965 58.8488 347.141 58.8488 346.235C57.9635 346.235 57.1399 346.235 56.3782 346.235C55.6164 346.235 54.7929 346.235 53.9076 346.235C53.9076 347.141 53.9076 347.965 53.9076 348.706C53.9076 349.447 53.9076 350.271 53.9076 351.176ZM53.9076 351.176C54.7929 351.176 55.6164 351.176 56.3782 351.176C57.1399 351.176 57.9635 351.176 58.8488 351.176C58.8488 350.271 58.8488 349.447 58.8488 348.706C58.8488 347.965 58.8488 347.141 58.8488 346.235C57.9635 346.235 57.1399 346.235 56.3782 346.235C55.6164 346.235 54.7929 346.235 53.9076 346.235C53.9076 347.141 53.9076 347.965 53.9076 348.706C53.9076 349.447 53.9076 350.271 53.9076 351.176ZM53.9076 346.235C54.7929 346.235 55.6164 346.235 56.3782 346.235C57.1399 346.235 57.9635 346.235 58.8488 346.235C58.8488 345.329 58.8488 344.506 58.8488 343.765C58.8488 343.024 58.8488 342.2 58.8488 341.294C57.9635 341.294 57.1399 341.294 56.3782 341.294C55.6164 341.294 54.7929 341.294 53.9076 341.294C53.9076 342.2 53.9076 343.024 53.9076 343.765C53.9076 344.506 53.9076 345.329 53.9076 346.235ZM53.9076 346.235C54.7929 346.235 55.6164 346.235 56.3782 346.235C57.1399 346.235 57.9635 346.235 58.8488 346.235C58.8488 345.329 58.8488 344.506 58.8488 343.765C58.8488 343.024 58.8488 342.2 58.8488 341.294C57.9635 341.294 57.1399 341.294 56.3782 341.294C55.6164 341.294 54.7929 341.294 53.9076 341.294C53.9076 342.2 53.9076 343.024 53.9076 343.765C53.9076 344.506 53.9076 345.329 53.9076 346.235ZM53.9076 346.235C54.7929 346.235 55.6164 346.235 56.3782 346.235C57.1399 346.235 57.9635 346.235 58.8488 346.235C58.8488 345.329 58.8488 344.506 58.8488 343.765C58.8488 343.024 58.8488 342.2 58.8488 341.294C57.9635 341.294 57.1399 341.294 56.3782 341.294C55.6164 341.294 54.7929 341.294 53.9076 341.294C53.9076 342.2 53.9076 343.024 53.9076 343.765C53.9076 344.506 53.9076 345.329 53.9076 346.235ZM53.9076 346.235C54.7929 346.235 55.6164 346.235 56.3782 346.235C57.1399 346.235 57.9635 346.235 58.8488 346.235C58.8488 345.329 58.8488 344.506 58.8488 343.765C58.8488 343.024 58.8488 342.2 58.8488 341.294C57.9635 341.294 57.1399 341.294 56.3782 341.294C55.6164 341.294 54.7929 341.294 53.9076 341.294C53.9076 342.2 53.9076 343.024 53.9076 343.765C53.9076 344.506 53.9076 345.329 53.9076 346.235ZM53.9076 346.235C54.7929 346.235 55.6164 346.235 56.3782 346.235C57.1399 346.235 57.9635 346.235 58.8488 346.235C58.8488 345.329 58.8488 344.506 58.8488 343.765C58.8488 343.024 58.8488 342.2 58.8488 341.294C57.9635 341.294 57.1399 341.294 56.3782 341.294C55.6164 341.294 54.7929 341.294 53.9076 341.294C53.9076 342.2 53.9076 343.024 53.9076 343.765C53.9076 344.506 53.9076 345.329 53.9076 346.235ZM53.9076 346.235C54.7929 346.235 55.6164 346.235 56.3782 346.235C57.1399 346.235 57.9635 346.235 58.8488 346.235C58.8488 345.329 58.8488 344.506 58.8488 343.765C58.8488 343.024 58.8488 342.2 58.8488 341.294C57.9635 341.294 57.1399 341.294 56.3782 341.294C55.6164 341.294 54.7929 341.294 53.9076 341.294C53.9076 342.2 53.9076 343.024 53.9076 343.765C53.9076 344.506 53.9076 345.329 53.9076 346.235ZM53.9076 346.235C54.7929 346.235 55.6164 346.235 56.3782 346.235C57.1399 346.235 57.9635 346.235 58.8488 346.235C58.8488 345.329 58.8488 344.506 58.8488 343.765C58.8488 343.024 58.8488 342.2 58.8488 341.294C57.9635 341.294 57.1399 341.294 56.3782 341.294C55.6164 341.294 54.7929 341.294 53.9076 341.294C53.9076 342.2 53.9076 343.024 53.9076 343.765C53.9076 344.506 53.9076 345.329 53.9076 346.235ZM53.9076 346.235C54.7929 346.235 55.6164 346.235 56.3782 346.235C57.1399 346.235 57.9635 346.235 58.8488 346.235C58.8488 345.329 58.8488 344.506 58.8488 343.765C58.8488 343.024 58.8488 342.2 58.8488 341.294C57.9635 341.294 57.1399 341.294 56.3782 341.294C55.6164 341.294 54.7929 341.294 53.9076 341.294C53.9076 342.2 53.9076 343.024 53.9076 343.765C53.9076 344.506 53.9076 345.329 53.9076 346.235ZM53.9076 346.235C54.7929 346.235 55.6164 346.235 56.3782 346.235C57.1399 346.235 57.9635 346.235 58.8488 346.235C58.8488 345.329 58.8488 344.506 58.8488 343.765C58.8488 343.024 58.8488 342.2 58.8488 341.294C57.9635 341.294 57.1399 341.294 56.3782 341.294C55.6164 341.294 54.7929 341.294 53.9076 341.294C53.9076 342.2 53.9076 343.024 53.9076 343.765C53.9076 344.506 53.9076 345.329 53.9076 346.235ZM34.1429 341.294C35.0282 341.294 35.8517 341.294 36.6135 341.294C37.3752 341.294 38.1988 341.294 39.0841 341.294C39.0841 340.388 39.0841 339.565 39.0841 338.824C39.0841 338.082 39.0841 337.259 39.0841 336.353C38.1988 336.353 37.3752 336.353 36.6135 336.353C35.8517 336.353 35.0282 336.353 34.1429 336.353C34.1429 337.259 34.1429 338.082 34.1429 338.824C34.1429 339.565 34.1429 340.388 34.1429 341.294ZM34.1429 341.294C35.0282 341.294 35.8517 341.294 36.6135 341.294C37.3752 341.294 38.1988 341.294 39.0841 341.294C39.0841 340.388 39.0841 339.565 39.0841 338.824C39.0841 338.082 39.0841 337.259 39.0841 336.353C38.1988 336.353 37.3752 336.353 36.6135 336.353C35.8517 336.353 35.0282 336.353 34.1429 336.353C34.1429 337.259 34.1429 338.082 34.1429 338.824C34.1429 339.565 34.1429 340.388 34.1429 341.294ZM34.1429 341.294C35.0282 341.294 35.8517 341.294 36.6135 341.294C37.3752 341.294 38.1988 341.294 39.0841 341.294C39.0841 340.388 39.0841 339.565 39.0841 338.824C39.0841 338.082 39.0841 337.259 39.0841 336.353C38.1988 336.353 37.3752 336.353 36.6135 336.353C35.8517 336.353 35.0282 336.353 34.1429 336.353C34.1429 337.259 34.1429 338.082 34.1429 338.824C34.1429 339.565 34.1429 340.388 34.1429 341.294ZM34.1429 341.294C35.0282 341.294 35.8517 341.294 36.6135 341.294C37.3752 341.294 38.1988 341.294 39.0841 341.294C39.0841 340.388 39.0841 339.565 39.0841 338.824C39.0841 338.082 39.0841 337.259 39.0841 336.353C38.1988 336.353 37.3752 336.353 36.6135 336.353C35.8517 336.353 35.0282 336.353 34.1429 336.353C34.1429 337.259 34.1429 338.082 34.1429 338.824C34.1429 339.565 34.1429 340.388 34.1429 341.294ZM34.1429 341.294C35.0282 341.294 35.8517 341.294 36.6135 341.294C37.3752 341.294 38.1988 341.294 39.0841 341.294C39.0841 340.388 39.0841 339.565 39.0841 338.824C39.0841 338.082 39.0841 337.259 39.0841 336.353C38.1988 336.353 37.3752 336.353 36.6135 336.353C35.8517 336.353 35.0282 336.353 34.1429 336.353C34.1429 337.259 34.1429 338.082 34.1429 338.824C34.1429 339.565 34.1429 340.388 34.1429 341.294ZM34.1429 341.294C35.0282 341.294 35.8517 341.294 36.6135 341.294C37.3752 341.294 38.1988 341.294 39.0841 341.294C39.0841 340.388 39.0841 339.565 39.0841 338.824C39.0841 338.082 39.0841 337.259 39.0841 336.353C38.1988 336.353 37.3752 336.353 36.6135 336.353C35.8517 336.353 35.0282 336.353 34.1429 336.353C34.1429 337.259 34.1429 338.082 34.1429 338.824C34.1429 339.565 34.1429 340.388 34.1429 341.294ZM34.1429 341.294C35.0282 341.294 35.8517 341.294 36.6135 341.294C37.3752 341.294 38.1988 341.294 39.0841 341.294C39.0841 340.388 39.0841 339.565 39.0841 338.824C39.0841 338.082 39.0841 337.259 39.0841 336.353C38.1988 336.353 37.3752 336.353 36.6135 336.353C35.8517 336.353 35.0282 336.353 34.1429 336.353C34.1429 337.259 34.1429 338.082 34.1429 338.824C34.1429 339.565 34.1429 340.388 34.1429 341.294ZM34.1429 341.294C35.0282 341.294 35.8517 341.294 36.6135 341.294C37.3752 341.294 38.1988 341.294 39.0841 341.294C39.0841 340.388 39.0841 339.565 39.0841 338.824C39.0841 338.082 39.0841 337.259 39.0841 336.353C38.1988 336.353 37.3752 336.353 36.6135 336.353C35.8517 336.353 35.0282 336.353 34.1429 336.353C34.1429 337.259 34.1429 338.082 34.1429 338.824C34.1429 339.565 34.1429 340.388 34.1429 341.294ZM34.1429 341.294C35.0282 341.294 35.8517 341.294 36.6135 341.294C37.3752 341.294 38.1988 341.294 39.0841 341.294C39.0841 340.388 39.0841 339.565 39.0841 338.824C39.0841 338.082 39.0841 337.259 39.0841 336.353C38.1988 336.353 37.3752 336.353 36.6135 336.353C35.8517 336.353 35.0282 336.353 34.1429 336.353C34.1429 337.259 34.1429 338.082 34.1429 338.824C34.1429 339.565 34.1429 340.388 34.1429 341.294ZM53.9076 341.294C54.7929 341.294 55.6164 341.294 56.3782 341.294C57.1399 341.294 57.9635 341.294 58.8488 341.294C58.8488 340.388 58.8488 339.565 58.8488 338.824C58.8488 338.082 58.8488 337.259 58.8488 336.353C57.9635 336.353 57.1399 336.353 56.3782 336.353C55.6164 336.353 54.7929 336.353 53.9076 336.353C53.9076 337.259 53.9076 338.082 53.9076 338.824C53.9076 339.565 53.9076 340.388 53.9076 341.294ZM53.9076 341.294C54.7929 341.294 55.6164 341.294 56.3782 341.294C57.1399 341.294 57.9635 341.294 58.8488 341.294C58.8488 340.388 58.8488 339.565 58.8488 338.824C58.8488 338.082 58.8488 337.259 58.8488 336.353C57.9635 336.353 57.1399 336.353 56.3782 336.353C55.6164 336.353 54.7929 336.353 53.9076 336.353C53.9076 337.259 53.9076 338.082 53.9076 338.824C53.9076 339.565 53.9076 340.388 53.9076 341.294ZM53.9076 341.294C54.7929 341.294 55.6164 341.294 56.3782 341.294C57.1399 341.294 57.9635 341.294 58.8488 341.294C58.8488 340.388 58.8488 339.565 58.8488 338.824C58.8488 338.082 58.8488 337.259 58.8488 336.353C57.9635 336.353 57.1399 336.353 56.3782 336.353C55.6164 336.353 54.7929 336.353 53.9076 336.353C53.9076 337.259 53.9076 338.082 53.9076 338.824C53.9076 339.565 53.9076 340.388 53.9076 341.294ZM53.9076 341.294C54.7929 341.294 55.6164 341.294 56.3782 341.294C57.1399 341.294 57.9635 341.294 58.8488 341.294C58.8488 340.388 58.8488 339.565 58.8488 338.824C58.8488 338.082 58.8488 337.259 58.8488 336.353C57.9635 336.353 57.1399 336.353 56.3782 336.353C55.6164 336.353 54.7929 336.353 53.9076 336.353C53.9076 337.259 53.9076 338.082 53.9076 338.824C53.9076 339.565 53.9076 340.388 53.9076 341.294ZM53.9076 341.294C54.7929 341.294 55.6164 341.294 56.3782 341.294C57.1399 341.294 57.9635 341.294 58.8488 341.294C58.8488 340.388 58.8488 339.565 58.8488 338.824C58.8488 338.082 58.8488 337.259 58.8488 336.353C57.9635 336.353 57.1399 336.353 56.3782 336.353C55.6164 336.353 54.7929 336.353 53.9076 336.353C53.9076 337.259 53.9076 338.082 53.9076 338.824C53.9076 339.565 53.9076 340.388 53.9076 341.294ZM53.9076 341.294C54.7929 341.294 55.6164 341.294 56.3782 341.294C57.1399 341.294 57.9635 341.294 58.8488 341.294C58.8488 340.388 58.8488 339.565 58.8488 338.824C58.8488 338.082 58.8488 337.259 58.8488 336.353C57.9635 336.353 57.1399 336.353 56.3782 336.353C55.6164 336.353 54.7929 336.353 53.9076 336.353C53.9076 337.259 53.9076 338.082 53.9076 338.824C53.9076 339.565 53.9076 340.388 53.9076 341.294ZM53.9076 341.294C54.7929 341.294 55.6164 341.294 56.3782 341.294C57.1399 341.294 57.9635 341.294 58.8488 341.294C58.8488 340.388 58.8488 339.565 58.8488 338.824C58.8488 338.082 58.8488 337.259 58.8488 336.353C57.9635 336.353 57.1399 336.353 56.3782 336.353C55.6164 336.353 54.7929 336.353 53.9076 336.353C53.9076 337.259 53.9076 338.082 53.9076 338.824C53.9076 339.565 53.9076 340.388 53.9076 341.294ZM53.9076 341.294C54.7929 341.294 55.6164 341.294 56.3782 341.294C57.1399 341.294 57.9635 341.294 58.8488 341.294C58.8488 340.388 58.8488 339.565 58.8488 338.824C58.8488 338.082 58.8488 337.259 58.8488 336.353C57.9635 336.353 57.1399 336.353 56.3782 336.353C55.6164 336.353 54.7929 336.353 53.9076 336.353C53.9076 337.259 53.9076 338.082 53.9076 338.824C53.9076 339.565 53.9076 340.388 53.9076 341.294ZM53.9076 341.294C54.7929 341.294 55.6164 341.294 56.3782 341.294C57.1399 341.294 57.9635 341.294 58.8488 341.294C58.8488 340.388 58.8488 339.565 58.8488 338.824C58.8488 338.082 58.8488 337.259 58.8488 336.353C57.9635 336.353 57.1399 336.353 56.3782 336.353C55.6164 336.353 54.7929 336.353 53.9076 336.353C53.9076 337.259 53.9076 338.082 53.9076 338.824C53.9076 339.565 53.9076 340.388 53.9076 341.294ZM39.0841 338.824C39.9693 338.824 40.7929 338.824 41.5546 338.824C42.3164 338.824 43.1399 338.824 44.0252 338.824C44.0252 337.918 44.0252 337.094 44.0252 336.353C44.0252 335.612 44.0252 334.788 44.0252 333.882C43.1399 333.882 42.3164 333.882 41.5546 333.882C40.7929 333.882 39.9693 333.882 39.0841 333.882C39.0841 334.788 39.0841 335.612 39.0841 336.353C39.0841 337.094 39.0841 337.918 39.0841 338.824ZM39.0841 338.824C39.9693 338.824 40.7929 338.824 41.5546 338.824C42.3164 338.824 43.1399 338.824 44.0252 338.824C44.0252 337.918 44.0252 337.094 44.0252 336.353C44.0252 335.612 44.0252 334.788 44.0252 333.882C43.1399 333.882 42.3164 333.882 41.5546 333.882C40.7929 333.882 39.9693 333.882 39.0841 333.882C39.0841 334.788 39.0841 335.612 39.0841 336.353C39.0841 337.094 39.0841 337.918 39.0841 338.824ZM39.0841 338.824C39.9693 338.824 40.7929 338.824 41.5546 338.824C42.3164 338.824 43.1399 338.824 44.0252 338.824C44.0252 337.918 44.0252 337.094 44.0252 336.353C44.0252 335.612 44.0252 334.788 44.0252 333.882C43.1399 333.882 42.3164 333.882 41.5546 333.882C40.7929 333.882 39.9693 333.882 39.0841 333.882C39.0841 334.788 39.0841 335.612 39.0841 336.353C39.0841 337.094 39.0841 337.918 39.0841 338.824ZM39.0841 338.824C39.9693 338.824 40.7929 338.824 41.5546 338.824C42.3164 338.824 43.1399 338.824 44.0252 338.824C44.0252 337.918 44.0252 337.094 44.0252 336.353C44.0252 335.612 44.0252 334.788 44.0252 333.882C43.1399 333.882 42.3164 333.882 41.5546 333.882C40.7929 333.882 39.9693 333.882 39.0841 333.882C39.0841 334.788 39.0841 335.612 39.0841 336.353C39.0841 337.094 39.0841 337.918 39.0841 338.824ZM39.0841 338.824C39.9693 338.824 40.7929 338.824 41.5546 338.824C42.3164 338.824 43.1399 338.824 44.0252 338.824C44.0252 337.918 44.0252 337.094 44.0252 336.353C44.0252 335.612 44.0252 334.788 44.0252 333.882C43.1399 333.882 42.3164 333.882 41.5546 333.882C40.7929 333.882 39.9693 333.882 39.0841 333.882C39.0841 334.788 39.0841 335.612 39.0841 336.353C39.0841 337.094 39.0841 337.918 39.0841 338.824ZM39.0841 338.824C39.9693 338.824 40.7929 338.824 41.5546 338.824C42.3164 338.824 43.1399 338.824 44.0252 338.824C44.0252 337.918 44.0252 337.094 44.0252 336.353C44.0252 335.612 44.0252 334.788 44.0252 333.882C43.1399 333.882 42.3164 333.882 41.5546 333.882C40.7929 333.882 39.9693 333.882 39.0841 333.882C39.0841 334.788 39.0841 335.612 39.0841 336.353C39.0841 337.094 39.0841 337.918 39.0841 338.824ZM39.0841 338.824C39.9693 338.824 40.7929 338.824 41.5546 338.824C42.3164 338.824 43.1399 338.824 44.0252 338.824C44.0252 337.918 44.0252 337.094 44.0252 336.353C44.0252 335.612 44.0252 334.788 44.0252 333.882C43.1399 333.882 42.3164 333.882 41.5546 333.882C40.7929 333.882 39.9693 333.882 39.0841 333.882C39.0841 334.788 39.0841 335.612 39.0841 336.353C39.0841 337.094 39.0841 337.918 39.0841 338.824ZM39.0841 338.824C39.9693 338.824 40.7929 338.824 41.5546 338.824C42.3164 338.824 43.1399 338.824 44.0252 338.824C44.0252 337.918 44.0252 337.094 44.0252 336.353C44.0252 335.612 44.0252 334.788 44.0252 333.882C43.1399 333.882 42.3164 333.882 41.5546 333.882C40.7929 333.882 39.9693 333.882 39.0841 333.882C39.0841 334.788 39.0841 335.612 39.0841 336.353C39.0841 337.094 39.0841 337.918 39.0841 338.824ZM39.0841 338.824C39.9693 338.824 40.7929 338.824 41.5546 338.824C42.3164 338.824 43.1399 338.824 44.0252 338.824C44.0252 337.918 44.0252 337.094 44.0252 336.353C44.0252 335.612 44.0252 334.788 44.0252 333.882C43.1399 333.882 42.3164 333.882 41.5546 333.882C40.7929 333.882 39.9693 333.882 39.0841 333.882C39.0841 334.788 39.0841 335.612 39.0841 336.353C39.0841 337.094 39.0841 337.918 39.0841 338.824ZM34.1429 336.353C35.0282 336.353 35.8517 336.353 36.6135 336.353C37.3752 336.353 38.1988 336.353 39.0841 336.353C39.0841 335.447 39.0841 334.624 39.0841 333.882C39.0841 333.141 39.0841 332.318 39.0841 331.412C38.1988 331.412 37.3752 331.412 36.6135 331.412C35.8517 331.412 35.0282 331.412 34.1429 331.412C34.1429 332.318 34.1429 333.141 34.1429 333.882C34.1429 334.624 34.1429 335.447 34.1429 336.353ZM34.1429 336.353C35.0282 336.353 35.8517 336.353 36.6135 336.353C37.3752 336.353 38.1988 336.353 39.0841 336.353C39.0841 335.447 39.0841 334.624 39.0841 333.882C39.0841 333.141 39.0841 332.318 39.0841 331.412C38.1988 331.412 37.3752 331.412 36.6135 331.412C35.8517 331.412 35.0282 331.412 34.1429 331.412C34.1429 332.318 34.1429 333.141 34.1429 333.882C34.1429 334.624 34.1429 335.447 34.1429 336.353ZM34.1429 336.353C35.0282 336.353 35.8517 336.353 36.6135 336.353C37.3752 336.353 38.1988 336.353 39.0841 336.353C39.0841 335.447 39.0841 334.624 39.0841 333.882C39.0841 333.141 39.0841 332.318 39.0841 331.412C38.1988 331.412 37.3752 331.412 36.6135 331.412C35.8517 331.412 35.0282 331.412 34.1429 331.412C34.1429 332.318 34.1429 333.141 34.1429 333.882C34.1429 334.624 34.1429 335.447 34.1429 336.353ZM34.1429 336.353C35.0282 336.353 35.8517 336.353 36.6135 336.353C37.3752 336.353 38.1988 336.353 39.0841 336.353C39.0841 335.447 39.0841 334.624 39.0841 333.882C39.0841 333.141 39.0841 332.318 39.0841 331.412C38.1988 331.412 37.3752 331.412 36.6135 331.412C35.8517 331.412 35.0282 331.412 34.1429 331.412C34.1429 332.318 34.1429 333.141 34.1429 333.882C34.1429 334.624 34.1429 335.447 34.1429 336.353ZM34.1429 336.353C35.0282 336.353 35.8517 336.353 36.6135 336.353C37.3752 336.353 38.1988 336.353 39.0841 336.353C39.0841 335.447 39.0841 334.624 39.0841 333.882C39.0841 333.141 39.0841 332.318 39.0841 331.412C38.1988 331.412 37.3752 331.412 36.6135 331.412C35.8517 331.412 35.0282 331.412 34.1429 331.412C34.1429 332.318 34.1429 333.141 34.1429 333.882C34.1429 334.624 34.1429 335.447 34.1429 336.353ZM34.1429 336.353C35.0282 336.353 35.8517 336.353 36.6135 336.353C37.3752 336.353 38.1988 336.353 39.0841 336.353C39.0841 335.447 39.0841 334.624 39.0841 333.882C39.0841 333.141 39.0841 332.318 39.0841 331.412C38.1988 331.412 37.3752 331.412 36.6135 331.412C35.8517 331.412 35.0282 331.412 34.1429 331.412C34.1429 332.318 34.1429 333.141 34.1429 333.882C34.1429 334.624 34.1429 335.447 34.1429 336.353ZM34.1429 336.353C35.0282 336.353 35.8517 336.353 36.6135 336.353C37.3752 336.353 38.1988 336.353 39.0841 336.353C39.0841 335.447 39.0841 334.624 39.0841 333.882C39.0841 333.141 39.0841 332.318 39.0841 331.412C38.1988 331.412 37.3752 331.412 36.6135 331.412C35.8517 331.412 35.0282 331.412 34.1429 331.412C34.1429 332.318 34.1429 333.141 34.1429 333.882C34.1429 334.624 34.1429 335.447 34.1429 336.353ZM34.1429 336.353C35.0282 336.353 35.8517 336.353 36.6135 336.353C37.3752 336.353 38.1988 336.353 39.0841 336.353C39.0841 335.447 39.0841 334.624 39.0841 333.882C39.0841 333.141 39.0841 332.318 39.0841 331.412C38.1988 331.412 37.3752 331.412 36.6135 331.412C35.8517 331.412 35.0282 331.412 34.1429 331.412C34.1429 332.318 34.1429 333.141 34.1429 333.882C34.1429 334.624 34.1429 335.447 34.1429 336.353ZM34.1429 336.353C35.0282 336.353 35.8517 336.353 36.6135 336.353C37.3752 336.353 38.1988 336.353 39.0841 336.353C39.0841 335.447 39.0841 334.624 39.0841 333.882C39.0841 333.141 39.0841 332.318 39.0841 331.412C38.1988 331.412 37.3752 331.412 36.6135 331.412C35.8517 331.412 35.0282 331.412 34.1429 331.412C34.1429 332.318 34.1429 333.141 34.1429 333.882C34.1429 334.624 34.1429 335.447 34.1429 336.353ZM44.0252 336.353C44.9105 336.353 45.7341 336.353 46.4958 336.353C47.2576 336.353 48.0811 336.353 48.9664 336.353C48.9664 335.447 48.9664 334.624 48.9664 333.882C48.9664 333.141 48.9664 332.318 48.9664 331.412C48.0811 331.412 47.2576 331.412 46.4958 331.412C45.7341 331.412 44.9105 331.412 44.0252 331.412C44.0252 332.318 44.0252 333.141 44.0252 333.882C44.0252 334.624 44.0252 335.447 44.0252 336.353ZM44.0252 336.353C44.9105 336.353 45.7341 336.353 46.4958 336.353C47.2576 336.353 48.0811 336.353 48.9664 336.353C48.9664 335.447 48.9664 334.624 48.9664 333.882C48.9664 333.141 48.9664 332.318 48.9664 331.412C48.0811 331.412 47.2576 331.412 46.4958 331.412C45.7341 331.412 44.9105 331.412 44.0252 331.412C44.0252 332.318 44.0252 333.141 44.0252 333.882C44.0252 334.624 44.0252 335.447 44.0252 336.353ZM44.0252 336.353C44.9105 336.353 45.7341 336.353 46.4958 336.353C47.2576 336.353 48.0811 336.353 48.9664 336.353C48.9664 335.447 48.9664 334.624 48.9664 333.882C48.9664 333.141 48.9664 332.318 48.9664 331.412C48.0811 331.412 47.2576 331.412 46.4958 331.412C45.7341 331.412 44.9105 331.412 44.0252 331.412C44.0252 332.318 44.0252 333.141 44.0252 333.882C44.0252 334.624 44.0252 335.447 44.0252 336.353ZM44.0252 336.353C44.9105 336.353 45.7341 336.353 46.4958 336.353C47.2576 336.353 48.0811 336.353 48.9664 336.353C48.9664 335.447 48.9664 334.624 48.9664 333.882C48.9664 333.141 48.9664 332.318 48.9664 331.412C48.0811 331.412 47.2576 331.412 46.4958 331.412C45.7341 331.412 44.9105 331.412 44.0252 331.412C44.0252 332.318 44.0252 333.141 44.0252 333.882C44.0252 334.624 44.0252 335.447 44.0252 336.353ZM44.0252 336.353C44.9105 336.353 45.7341 336.353 46.4958 336.353C47.2576 336.353 48.0811 336.353 48.9664 336.353C48.9664 335.447 48.9664 334.624 48.9664 333.882C48.9664 333.141 48.9664 332.318 48.9664 331.412C48.0811 331.412 47.2576 331.412 46.4958 331.412C45.7341 331.412 44.9105 331.412 44.0252 331.412C44.0252 332.318 44.0252 333.141 44.0252 333.882C44.0252 334.624 44.0252 335.447 44.0252 336.353ZM44.0252 336.353C44.9105 336.353 45.7341 336.353 46.4958 336.353C47.2576 336.353 48.0811 336.353 48.9664 336.353C48.9664 335.447 48.9664 334.624 48.9664 333.882C48.9664 333.141 48.9664 332.318 48.9664 331.412C48.0811 331.412 47.2576 331.412 46.4958 331.412C45.7341 331.412 44.9105 331.412 44.0252 331.412C44.0252 332.318 44.0252 333.141 44.0252 333.882C44.0252 334.624 44.0252 335.447 44.0252 336.353ZM44.0252 336.353C44.9105 336.353 45.7341 336.353 46.4958 336.353C47.2576 336.353 48.0811 336.353 48.9664 336.353C48.9664 335.447 48.9664 334.624 48.9664 333.882C48.9664 333.141 48.9664 332.318 48.9664 331.412C48.0811 331.412 47.2576 331.412 46.4958 331.412C45.7341 331.412 44.9105 331.412 44.0252 331.412C44.0252 332.318 44.0252 333.141 44.0252 333.882C44.0252 334.624 44.0252 335.447 44.0252 336.353ZM44.0252 336.353C44.9105 336.353 45.7341 336.353 46.4958 336.353C47.2576 336.353 48.0811 336.353 48.9664 336.353C48.9664 335.447 48.9664 334.624 48.9664 333.882C48.9664 333.141 48.9664 332.318 48.9664 331.412C48.0811 331.412 47.2576 331.412 46.4958 331.412C45.7341 331.412 44.9105 331.412 44.0252 331.412C44.0252 332.318 44.0252 333.141 44.0252 333.882C44.0252 334.624 44.0252 335.447 44.0252 336.353ZM44.0252 336.353C44.9105 336.353 45.7341 336.353 46.4958 336.353C47.2576 336.353 48.0811 336.353 48.9664 336.353C48.9664 335.447 48.9664 334.624 48.9664 333.882C48.9664 333.141 48.9664 332.318 48.9664 331.412C48.0811 331.412 47.2576 331.412 46.4958 331.412C45.7341 331.412 44.9105 331.412 44.0252 331.412C44.0252 332.318 44.0252 333.141 44.0252 333.882C44.0252 334.624 44.0252 335.447 44.0252 336.353ZM48.9664 336.353C49.8517 336.353 50.6752 336.353 51.437 336.353C52.1988 336.353 53.0223 336.353 53.9076 336.353C53.9076 335.447 53.9076 334.624 53.9076 333.882C53.9076 333.141 53.9076 332.318 53.9076 331.412C53.0223 331.412 52.1988 331.412 51.437 331.412C50.6752 331.412 49.8517 331.412 48.9664 331.412C48.9664 332.318 48.9664 333.141 48.9664 333.882C48.9664 334.624 48.9664 335.447 48.9664 336.353ZM48.9664 336.353C49.8517 336.353 50.6752 336.353 51.437 336.353C52.1988 336.353 53.0223 336.353 53.9076 336.353C53.9076 335.447 53.9076 334.624 53.9076 333.882C53.9076 333.141 53.9076 332.318 53.9076 331.412C53.0223 331.412 52.1988 331.412 51.437 331.412C50.6752 331.412 49.8517 331.412 48.9664 331.412C48.9664 332.318 48.9664 333.141 48.9664 333.882C48.9664 334.624 48.9664 335.447 48.9664 336.353ZM48.9664 336.353C49.8517 336.353 50.6752 336.353 51.437 336.353C52.1988 336.353 53.0223 336.353 53.9076 336.353C53.9076 335.447 53.9076 334.624 53.9076 333.882C53.9076 333.141 53.9076 332.318 53.9076 331.412C53.0223 331.412 52.1988 331.412 51.437 331.412C50.6752 331.412 49.8517 331.412 48.9664 331.412C48.9664 332.318 48.9664 333.141 48.9664 333.882C48.9664 334.624 48.9664 335.447 48.9664 336.353ZM48.9664 336.353C49.8517 336.353 50.6752 336.353 51.437 336.353C52.1988 336.353 53.0223 336.353 53.9076 336.353C53.9076 335.447 53.9076 334.624 53.9076 333.882C53.9076 333.141 53.9076 332.318 53.9076 331.412C53.0223 331.412 52.1988 331.412 51.437 331.412C50.6752 331.412 49.8517 331.412 48.9664 331.412C48.9664 332.318 48.9664 333.141 48.9664 333.882C48.9664 334.624 48.9664 335.447 48.9664 336.353ZM48.9664 336.353C49.8517 336.353 50.6752 336.353 51.437 336.353C52.1988 336.353 53.0223 336.353 53.9076 336.353C53.9076 335.447 53.9076 334.624 53.9076 333.882C53.9076 333.141 53.9076 332.318 53.9076 331.412C53.0223 331.412 52.1988 331.412 51.437 331.412C50.6752 331.412 49.8517 331.412 48.9664 331.412C48.9664 332.318 48.9664 333.141 48.9664 333.882C48.9664 334.624 48.9664 335.447 48.9664 336.353ZM48.9664 336.353C49.8517 336.353 50.6752 336.353 51.437 336.353C52.1988 336.353 53.0223 336.353 53.9076 336.353C53.9076 335.447 53.9076 334.624 53.9076 333.882C53.9076 333.141 53.9076 332.318 53.9076 331.412C53.0223 331.412 52.1988 331.412 51.437 331.412C50.6752 331.412 49.8517 331.412 48.9664 331.412C48.9664 332.318 48.9664 333.141 48.9664 333.882C48.9664 334.624 48.9664 335.447 48.9664 336.353ZM48.9664 336.353C49.8517 336.353 50.6752 336.353 51.437 336.353C52.1988 336.353 53.0223 336.353 53.9076 336.353C53.9076 335.447 53.9076 334.624 53.9076 333.882C53.9076 333.141 53.9076 332.318 53.9076 331.412C53.0223 331.412 52.1988 331.412 51.437 331.412C50.6752 331.412 49.8517 331.412 48.9664 331.412C48.9664 332.318 48.9664 333.141 48.9664 333.882C48.9664 334.624 48.9664 335.447 48.9664 336.353ZM48.9664 336.353C49.8517 336.353 50.6752 336.353 51.437 336.353C52.1988 336.353 53.0223 336.353 53.9076 336.353C53.9076 335.447 53.9076 334.624 53.9076 333.882C53.9076 333.141 53.9076 332.318 53.9076 331.412C53.0223 331.412 52.1988 331.412 51.437 331.412C50.6752 331.412 49.8517 331.412 48.9664 331.412C48.9664 332.318 48.9664 333.141 48.9664 333.882C48.9664 334.624 48.9664 335.447 48.9664 336.353ZM48.9664 336.353C49.8517 336.353 50.6752 336.353 51.437 336.353C52.1988 336.353 53.0223 336.353 53.9076 336.353C53.9076 335.447 53.9076 334.624 53.9076 333.882C53.9076 333.141 53.9076 332.318 53.9076 331.412C53.0223 331.412 52.1988 331.412 51.437 331.412C50.6752 331.412 49.8517 331.412 48.9664 331.412C48.9664 332.318 48.9664 333.141 48.9664 333.882C48.9664 334.624 48.9664 335.447 48.9664 336.353ZM34.1429 331.412C35.0282 331.412 35.8517 331.412 36.6135 331.412C37.3752 331.412 38.1988 331.412 39.0841 331.412C39.0841 330.506 39.0841 329.682 39.0841 328.941C39.0841 328.2 39.0841 327.376 39.0841 326.471C38.1988 326.471 37.3752 326.471 36.6135 326.471C35.8517 326.471 35.0282 326.471 34.1429 326.471C34.1429 327.376 34.1429 328.2 34.1429 328.941C34.1429 329.682 34.1429 330.506 34.1429 331.412ZM34.1429 331.412C35.0282 331.412 35.8517 331.412 36.6135 331.412C37.3752 331.412 38.1988 331.412 39.0841 331.412C39.0841 330.506 39.0841 329.682 39.0841 328.941C39.0841 328.2 39.0841 327.376 39.0841 326.471C38.1988 326.471 37.3752 326.471 36.6135 326.471C35.8517 326.471 35.0282 326.471 34.1429 326.471C34.1429 327.376 34.1429 328.2 34.1429 328.941C34.1429 329.682 34.1429 330.506 34.1429 331.412ZM34.1429 331.412C35.0282 331.412 35.8517 331.412 36.6135 331.412C37.3752 331.412 38.1988 331.412 39.0841 331.412C39.0841 330.506 39.0841 329.682 39.0841 328.941C39.0841 328.2 39.0841 327.376 39.0841 326.471C38.1988 326.471 37.3752 326.471 36.6135 326.471C35.8517 326.471 35.0282 326.471 34.1429 326.471C34.1429 327.376 34.1429 328.2 34.1429 328.941C34.1429 329.682 34.1429 330.506 34.1429 331.412ZM34.1429 331.412C35.0282 331.412 35.8517 331.412 36.6135 331.412C37.3752 331.412 38.1988 331.412 39.0841 331.412C39.0841 330.506 39.0841 329.682 39.0841 328.941C39.0841 328.2 39.0841 327.376 39.0841 326.471C38.1988 326.471 37.3752 326.471 36.6135 326.471C35.8517 326.471 35.0282 326.471 34.1429 326.471C34.1429 327.376 34.1429 328.2 34.1429 328.941C34.1429 329.682 34.1429 330.506 34.1429 331.412ZM34.1429 331.412C35.0282 331.412 35.8517 331.412 36.6135 331.412C37.3752 331.412 38.1988 331.412 39.0841 331.412C39.0841 330.506 39.0841 329.682 39.0841 328.941C39.0841 328.2 39.0841 327.376 39.0841 326.471C38.1988 326.471 37.3752 326.471 36.6135 326.471C35.8517 326.471 35.0282 326.471 34.1429 326.471C34.1429 327.376 34.1429 328.2 34.1429 328.941C34.1429 329.682 34.1429 330.506 34.1429 331.412ZM34.1429 331.412C35.0282 331.412 35.8517 331.412 36.6135 331.412C37.3752 331.412 38.1988 331.412 39.0841 331.412C39.0841 330.506 39.0841 329.682 39.0841 328.941C39.0841 328.2 39.0841 327.376 39.0841 326.471C38.1988 326.471 37.3752 326.471 36.6135 326.471C35.8517 326.471 35.0282 326.471 34.1429 326.471C34.1429 327.376 34.1429 328.2 34.1429 328.941C34.1429 329.682 34.1429 330.506 34.1429 331.412ZM34.1429 331.412C35.0282 331.412 35.8517 331.412 36.6135 331.412C37.3752 331.412 38.1988 331.412 39.0841 331.412C39.0841 330.506 39.0841 329.682 39.0841 328.941C39.0841 328.2 39.0841 327.376 39.0841 326.471C38.1988 326.471 37.3752 326.471 36.6135 326.471C35.8517 326.471 35.0282 326.471 34.1429 326.471C34.1429 327.376 34.1429 328.2 34.1429 328.941C34.1429 329.682 34.1429 330.506 34.1429 331.412ZM34.1429 331.412C35.0282 331.412 35.8517 331.412 36.6135 331.412C37.3752 331.412 38.1988 331.412 39.0841 331.412C39.0841 330.506 39.0841 329.682 39.0841 328.941C39.0841 328.2 39.0841 327.376 39.0841 326.471C38.1988 326.471 37.3752 326.471 36.6135 326.471C35.8517 326.471 35.0282 326.471 34.1429 326.471C34.1429 327.376 34.1429 328.2 34.1429 328.941C34.1429 329.682 34.1429 330.506 34.1429 331.412ZM34.1429 331.412C35.0282 331.412 35.8517 331.412 36.6135 331.412C37.3752 331.412 38.1988 331.412 39.0841 331.412C39.0841 330.506 39.0841 329.682 39.0841 328.941C39.0841 328.2 39.0841 327.376 39.0841 326.471C38.1988 326.471 37.3752 326.471 36.6135 326.471C35.8517 326.471 35.0282 326.471 34.1429 326.471C34.1429 327.376 34.1429 328.2 34.1429 328.941C34.1429 329.682 34.1429 330.506 34.1429 331.412ZM34.1429 326.471C35.0282 326.471 35.8517 326.471 36.6135 326.471C37.3752 326.471 38.1988 326.471 39.0841 326.471C39.0841 325.565 39.0841 324.741 39.0841 324C39.0841 323.259 39.0841 322.435 39.0841 321.529C38.1988 321.529 37.3752 321.529 36.6135 321.529C35.8517 321.529 35.0282 321.529 34.1429 321.529C34.1429 322.435 34.1429 323.259 34.1429 324C34.1429 324.741 34.1429 325.565 34.1429 326.471ZM34.1429 326.471C35.0282 326.471 35.8517 326.471 36.6135 326.471C37.3752 326.471 38.1988 326.471 39.0841 326.471C39.0841 325.565 39.0841 324.741 39.0841 324C39.0841 323.259 39.0841 322.435 39.0841 321.529C38.1988 321.529 37.3752 321.529 36.6135 321.529C35.8517 321.529 35.0282 321.529 34.1429 321.529C34.1429 322.435 34.1429 323.259 34.1429 324C34.1429 324.741 34.1429 325.565 34.1429 326.471ZM34.1429 326.471C35.0282 326.471 35.8517 326.471 36.6135 326.471C37.3752 326.471 38.1988 326.471 39.0841 326.471C39.0841 325.565 39.0841 324.741 39.0841 324C39.0841 323.259 39.0841 322.435 39.0841 321.529C38.1988 321.529 37.3752 321.529 36.6135 321.529C35.8517 321.529 35.0282 321.529 34.1429 321.529C34.1429 322.435 34.1429 323.259 34.1429 324C34.1429 324.741 34.1429 325.565 34.1429 326.471ZM34.1429 326.471C35.0282 326.471 35.8517 326.471 36.6135 326.471C37.3752 326.471 38.1988 326.471 39.0841 326.471C39.0841 325.565 39.0841 324.741 39.0841 324C39.0841 323.259 39.0841 322.435 39.0841 321.529C38.1988 321.529 37.3752 321.529 36.6135 321.529C35.8517 321.529 35.0282 321.529 34.1429 321.529C34.1429 322.435 34.1429 323.259 34.1429 324C34.1429 324.741 34.1429 325.565 34.1429 326.471ZM34.1429 326.471C35.0282 326.471 35.8517 326.471 36.6135 326.471C37.3752 326.471 38.1988 326.471 39.0841 326.471C39.0841 325.565 39.0841 324.741 39.0841 324C39.0841 323.259 39.0841 322.435 39.0841 321.529C38.1988 321.529 37.3752 321.529 36.6135 321.529C35.8517 321.529 35.0282 321.529 34.1429 321.529C34.1429 322.435 34.1429 323.259 34.1429 324C34.1429 324.741 34.1429 325.565 34.1429 326.471ZM34.1429 326.471C35.0282 326.471 35.8517 326.471 36.6135 326.471C37.3752 326.471 38.1988 326.471 39.0841 326.471C39.0841 325.565 39.0841 324.741 39.0841 324C39.0841 323.259 39.0841 322.435 39.0841 321.529C38.1988 321.529 37.3752 321.529 36.6135 321.529C35.8517 321.529 35.0282 321.529 34.1429 321.529C34.1429 322.435 34.1429 323.259 34.1429 324C34.1429 324.741 34.1429 325.565 34.1429 326.471ZM34.1429 326.471C35.0282 326.471 35.8517 326.471 36.6135 326.471C37.3752 326.471 38.1988 326.471 39.0841 326.471C39.0841 325.565 39.0841 324.741 39.0841 324C39.0841 323.259 39.0841 322.435 39.0841 321.529C38.1988 321.529 37.3752 321.529 36.6135 321.529C35.8517 321.529 35.0282 321.529 34.1429 321.529C34.1429 322.435 34.1429 323.259 34.1429 324C34.1429 324.741 34.1429 325.565 34.1429 326.471ZM34.1429 326.471C35.0282 326.471 35.8517 326.471 36.6135 326.471C37.3752 326.471 38.1988 326.471 39.0841 326.471C39.0841 325.565 39.0841 324.741 39.0841 324C39.0841 323.259 39.0841 322.435 39.0841 321.529C38.1988 321.529 37.3752 321.529 36.6135 321.529C35.8517 321.529 35.0282 321.529 34.1429 321.529C34.1429 322.435 34.1429 323.259 34.1429 324C34.1429 324.741 34.1429 325.565 34.1429 326.471ZM34.1429 326.471C35.0282 326.471 35.8517 326.471 36.6135 326.471C37.3752 326.471 38.1988 326.471 39.0841 326.471C39.0841 325.565 39.0841 324.741 39.0841 324C39.0841 323.259 39.0841 322.435 39.0841 321.529C38.1988 321.529 37.3752 321.529 36.6135 321.529C35.8517 321.529 35.0282 321.529 34.1429 321.529C34.1429 322.435 34.1429 323.259 34.1429 324C34.1429 324.741 34.1429 325.565 34.1429 326.471ZM34.1429 321.529C35.0282 321.529 35.8517 321.529 36.6135 321.529C37.3752 321.529 38.1988 321.529 39.0841 321.529C39.0841 320.624 39.0841 319.8 39.0841 319.059C39.0841 318.318 39.0841 317.494 39.0841 316.588C38.1988 316.588 37.3752 316.588 36.6135 316.588C35.8517 316.588 35.0282 316.588 34.1429 316.588C34.1429 317.494 34.1429 318.318 34.1429 319.059C34.1429 319.8 34.1429 320.624 34.1429 321.529ZM34.1429 321.529C35.0282 321.529 35.8517 321.529 36.6135 321.529C37.3752 321.529 38.1988 321.529 39.0841 321.529C39.0841 320.624 39.0841 319.8 39.0841 319.059C39.0841 318.318 39.0841 317.494 39.0841 316.588C38.1988 316.588 37.3752 316.588 36.6135 316.588C35.8517 316.588 35.0282 316.588 34.1429 316.588C34.1429 317.494 34.1429 318.318 34.1429 319.059C34.1429 319.8 34.1429 320.624 34.1429 321.529ZM34.1429 321.529C35.0282 321.529 35.8517 321.529 36.6135 321.529C37.3752 321.529 38.1988 321.529 39.0841 321.529C39.0841 320.624 39.0841 319.8 39.0841 319.059C39.0841 318.318 39.0841 317.494 39.0841 316.588C38.1988 316.588 37.3752 316.588 36.6135 316.588C35.8517 316.588 35.0282 316.588 34.1429 316.588C34.1429 317.494 34.1429 318.318 34.1429 319.059C34.1429 319.8 34.1429 320.624 34.1429 321.529ZM34.1429 321.529C35.0282 321.529 35.8517 321.529 36.6135 321.529C37.3752 321.529 38.1988 321.529 39.0841 321.529C39.0841 320.624 39.0841 319.8 39.0841 319.059C39.0841 318.318 39.0841 317.494 39.0841 316.588C38.1988 316.588 37.3752 316.588 36.6135 316.588C35.8517 316.588 35.0282 316.588 34.1429 316.588C34.1429 317.494 34.1429 318.318 34.1429 319.059C34.1429 319.8 34.1429 320.624 34.1429 321.529ZM34.1429 321.529C35.0282 321.529 35.8517 321.529 36.6135 321.529C37.3752 321.529 38.1988 321.529 39.0841 321.529C39.0841 320.624 39.0841 319.8 39.0841 319.059C39.0841 318.318 39.0841 317.494 39.0841 316.588C38.1988 316.588 37.3752 316.588 36.6135 316.588C35.8517 316.588 35.0282 316.588 34.1429 316.588C34.1429 317.494 34.1429 318.318 34.1429 319.059C34.1429 319.8 34.1429 320.624 34.1429 321.529ZM34.1429 321.529C35.0282 321.529 35.8517 321.529 36.6135 321.529C37.3752 321.529 38.1988 321.529 39.0841 321.529C39.0841 320.624 39.0841 319.8 39.0841 319.059C39.0841 318.318 39.0841 317.494 39.0841 316.588C38.1988 316.588 37.3752 316.588 36.6135 316.588C35.8517 316.588 35.0282 316.588 34.1429 316.588C34.1429 317.494 34.1429 318.318 34.1429 319.059C34.1429 319.8 34.1429 320.624 34.1429 321.529ZM34.1429 321.529C35.0282 321.529 35.8517 321.529 36.6135 321.529C37.3752 321.529 38.1988 321.529 39.0841 321.529C39.0841 320.624 39.0841 319.8 39.0841 319.059C39.0841 318.318 39.0841 317.494 39.0841 316.588C38.1988 316.588 37.3752 316.588 36.6135 316.588C35.8517 316.588 35.0282 316.588 34.1429 316.588C34.1429 317.494 34.1429 318.318 34.1429 319.059C34.1429 319.8 34.1429 320.624 34.1429 321.529ZM34.1429 321.529C35.0282 321.529 35.8517 321.529 36.6135 321.529C37.3752 321.529 38.1988 321.529 39.0841 321.529C39.0841 320.624 39.0841 319.8 39.0841 319.059C39.0841 318.318 39.0841 317.494 39.0841 316.588C38.1988 316.588 37.3752 316.588 36.6135 316.588C35.8517 316.588 35.0282 316.588 34.1429 316.588C34.1429 317.494 34.1429 318.318 34.1429 319.059C34.1429 319.8 34.1429 320.624 34.1429 321.529ZM34.1429 321.529C35.0282 321.529 35.8517 321.529 36.6135 321.529C37.3752 321.529 38.1988 321.529 39.0841 321.529C39.0841 320.624 39.0841 319.8 39.0841 319.059C39.0841 318.318 39.0841 317.494 39.0841 316.588C38.1988 316.588 37.3752 316.588 36.6135 316.588C35.8517 316.588 35.0282 316.588 34.1429 316.588C34.1429 317.494 34.1429 318.318 34.1429 319.059C34.1429 319.8 34.1429 320.624 34.1429 321.529ZM34.1429 316.588C35.0282 316.588 35.8517 316.588 36.6135 316.588C37.3752 316.588 38.1988 316.588 39.0841 316.588C39.0841 315.682 39.0841 314.859 39.0841 314.118C39.0841 313.376 39.0841 312.553 39.0841 311.647C38.1988 311.647 37.3752 311.647 36.6135 311.647C35.8517 311.647 35.0282 311.647 34.1429 311.647C34.1429 312.553 34.1429 313.376 34.1429 314.118C34.1429 314.859 34.1429 315.682 34.1429 316.588ZM34.1429 316.588C35.0282 316.588 35.8517 316.588 36.6135 316.588C37.3752 316.588 38.1988 316.588 39.0841 316.588C39.0841 315.682 39.0841 314.859 39.0841 314.118C39.0841 313.376 39.0841 312.553 39.0841 311.647C38.1988 311.647 37.3752 311.647 36.6135 311.647C35.8517 311.647 35.0282 311.647 34.1429 311.647C34.1429 312.553 34.1429 313.376 34.1429 314.118C34.1429 314.859 34.1429 315.682 34.1429 316.588ZM34.1429 316.588C35.0282 316.588 35.8517 316.588 36.6135 316.588C37.3752 316.588 38.1988 316.588 39.0841 316.588C39.0841 315.682 39.0841 314.859 39.0841 314.118C39.0841 313.376 39.0841 312.553 39.0841 311.647C38.1988 311.647 37.3752 311.647 36.6135 311.647C35.8517 311.647 35.0282 311.647 34.1429 311.647C34.1429 312.553 34.1429 313.376 34.1429 314.118C34.1429 314.859 34.1429 315.682 34.1429 316.588ZM34.1429 316.588C35.0282 316.588 35.8517 316.588 36.6135 316.588C37.3752 316.588 38.1988 316.588 39.0841 316.588C39.0841 315.682 39.0841 314.859 39.0841 314.118C39.0841 313.376 39.0841 312.553 39.0841 311.647C38.1988 311.647 37.3752 311.647 36.6135 311.647C35.8517 311.647 35.0282 311.647 34.1429 311.647C34.1429 312.553 34.1429 313.376 34.1429 314.118C34.1429 314.859 34.1429 315.682 34.1429 316.588ZM34.1429 316.588C35.0282 316.588 35.8517 316.588 36.6135 316.588C37.3752 316.588 38.1988 316.588 39.0841 316.588C39.0841 315.682 39.0841 314.859 39.0841 314.118C39.0841 313.376 39.0841 312.553 39.0841 311.647C38.1988 311.647 37.3752 311.647 36.6135 311.647C35.8517 311.647 35.0282 311.647 34.1429 311.647C34.1429 312.553 34.1429 313.376 34.1429 314.118C34.1429 314.859 34.1429 315.682 34.1429 316.588ZM34.1429 316.588C35.0282 316.588 35.8517 316.588 36.6135 316.588C37.3752 316.588 38.1988 316.588 39.0841 316.588C39.0841 315.682 39.0841 314.859 39.0841 314.118C39.0841 313.376 39.0841 312.553 39.0841 311.647C38.1988 311.647 37.3752 311.647 36.6135 311.647C35.8517 311.647 35.0282 311.647 34.1429 311.647C34.1429 312.553 34.1429 313.376 34.1429 314.118C34.1429 314.859 34.1429 315.682 34.1429 316.588ZM34.1429 316.588C35.0282 316.588 35.8517 316.588 36.6135 316.588C37.3752 316.588 38.1988 316.588 39.0841 316.588C39.0841 315.682 39.0841 314.859 39.0841 314.118C39.0841 313.376 39.0841 312.553 39.0841 311.647C38.1988 311.647 37.3752 311.647 36.6135 311.647C35.8517 311.647 35.0282 311.647 34.1429 311.647C34.1429 312.553 34.1429 313.376 34.1429 314.118C34.1429 314.859 34.1429 315.682 34.1429 316.588ZM34.1429 316.588C35.0282 316.588 35.8517 316.588 36.6135 316.588C37.3752 316.588 38.1988 316.588 39.0841 316.588C39.0841 315.682 39.0841 314.859 39.0841 314.118C39.0841 313.376 39.0841 312.553 39.0841 311.647C38.1988 311.647 37.3752 311.647 36.6135 311.647C35.8517 311.647 35.0282 311.647 34.1429 311.647C34.1429 312.553 34.1429 313.376 34.1429 314.118C34.1429 314.859 34.1429 315.682 34.1429 316.588ZM34.1429 316.588C35.0282 316.588 35.8517 316.588 36.6135 316.588C37.3752 316.588 38.1988 316.588 39.0841 316.588C39.0841 315.682 39.0841 314.859 39.0841 314.118C39.0841 313.376 39.0841 312.553 39.0841 311.647C38.1988 311.647 37.3752 311.647 36.6135 311.647C35.8517 311.647 35.0282 311.647 34.1429 311.647C34.1429 312.553 34.1429 313.376 34.1429 314.118C34.1429 314.859 34.1429 315.682 34.1429 316.588ZM39.0841 316.588C39.9693 316.588 40.7929 316.588 41.5546 316.588C42.3164 316.588 43.1399 316.588 44.0252 316.588C44.0252 315.682 44.0252 314.859 44.0252 314.118C44.0252 313.376 44.0252 312.553 44.0252 311.647C43.1399 311.647 42.3164 311.647 41.5546 311.647C40.7929 311.647 39.9693 311.647 39.0841 311.647C39.0841 312.553 39.0841 313.376 39.0841 314.118C39.0841 314.859 39.0841 315.682 39.0841 316.588ZM39.0841 316.588C39.9693 316.588 40.7929 316.588 41.5546 316.588C42.3164 316.588 43.1399 316.588 44.0252 316.588C44.0252 315.682 44.0252 314.859 44.0252 314.118C44.0252 313.376 44.0252 312.553 44.0252 311.647C43.1399 311.647 42.3164 311.647 41.5546 311.647C40.7929 311.647 39.9693 311.647 39.0841 311.647C39.0841 312.553 39.0841 313.376 39.0841 314.118C39.0841 314.859 39.0841 315.682 39.0841 316.588ZM39.0841 316.588C39.9693 316.588 40.7929 316.588 41.5546 316.588C42.3164 316.588 43.1399 316.588 44.0252 316.588C44.0252 315.682 44.0252 314.859 44.0252 314.118C44.0252 313.376 44.0252 312.553 44.0252 311.647C43.1399 311.647 42.3164 311.647 41.5546 311.647C40.7929 311.647 39.9693 311.647 39.0841 311.647C39.0841 312.553 39.0841 313.376 39.0841 314.118C39.0841 314.859 39.0841 315.682 39.0841 316.588ZM39.0841 316.588C39.9693 316.588 40.7929 316.588 41.5546 316.588C42.3164 316.588 43.1399 316.588 44.0252 316.588C44.0252 315.682 44.0252 314.859 44.0252 314.118C44.0252 313.376 44.0252 312.553 44.0252 311.647C43.1399 311.647 42.3164 311.647 41.5546 311.647C40.7929 311.647 39.9693 311.647 39.0841 311.647C39.0841 312.553 39.0841 313.376 39.0841 314.118C39.0841 314.859 39.0841 315.682 39.0841 316.588ZM39.0841 316.588C39.9693 316.588 40.7929 316.588 41.5546 316.588C42.3164 316.588 43.1399 316.588 44.0252 316.588C44.0252 315.682 44.0252 314.859 44.0252 314.118C44.0252 313.376 44.0252 312.553 44.0252 311.647C43.1399 311.647 42.3164 311.647 41.5546 311.647C40.7929 311.647 39.9693 311.647 39.0841 311.647C39.0841 312.553 39.0841 313.376 39.0841 314.118C39.0841 314.859 39.0841 315.682 39.0841 316.588ZM39.0841 316.588C39.9693 316.588 40.7929 316.588 41.5546 316.588C42.3164 316.588 43.1399 316.588 44.0252 316.588C44.0252 315.682 44.0252 314.859 44.0252 314.118C44.0252 313.376 44.0252 312.553 44.0252 311.647C43.1399 311.647 42.3164 311.647 41.5546 311.647C40.7929 311.647 39.9693 311.647 39.0841 311.647C39.0841 312.553 39.0841 313.376 39.0841 314.118C39.0841 314.859 39.0841 315.682 39.0841 316.588ZM39.0841 316.588C39.9693 316.588 40.7929 316.588 41.5546 316.588C42.3164 316.588 43.1399 316.588 44.0252 316.588C44.0252 315.682 44.0252 314.859 44.0252 314.118C44.0252 313.376 44.0252 312.553 44.0252 311.647C43.1399 311.647 42.3164 311.647 41.5546 311.647C40.7929 311.647 39.9693 311.647 39.0841 311.647C39.0841 312.553 39.0841 313.376 39.0841 314.118C39.0841 314.859 39.0841 315.682 39.0841 316.588ZM39.0841 316.588C39.9693 316.588 40.7929 316.588 41.5546 316.588C42.3164 316.588 43.1399 316.588 44.0252 316.588C44.0252 315.682 44.0252 314.859 44.0252 314.118C44.0252 313.376 44.0252 312.553 44.0252 311.647C43.1399 311.647 42.3164 311.647 41.5546 311.647C40.7929 311.647 39.9693 311.647 39.0841 311.647C39.0841 312.553 39.0841 313.376 39.0841 314.118C39.0841 314.859 39.0841 315.682 39.0841 316.588ZM39.0841 316.588C39.9693 316.588 40.7929 316.588 41.5546 316.588C42.3164 316.588 43.1399 316.588 44.0252 316.588C44.0252 315.682 44.0252 314.859 44.0252 314.118C44.0252 313.376 44.0252 312.553 44.0252 311.647C43.1399 311.647 42.3164 311.647 41.5546 311.647C40.7929 311.647 39.9693 311.647 39.0841 311.647C39.0841 312.553 39.0841 313.376 39.0841 314.118C39.0841 314.859 39.0841 315.682 39.0841 316.588ZM44.0252 316.588C44.9105 316.588 45.7341 316.588 46.4958 316.588C47.2576 316.588 48.0811 316.588 48.9664 316.588C48.9664 315.682 48.9664 314.859 48.9664 314.118C48.9664 313.376 48.9664 312.553 48.9664 311.647C48.0811 311.647 47.2576 311.647 46.4958 311.647C45.7341 311.647 44.9105 311.647 44.0252 311.647C44.0252 312.553 44.0252 313.376 44.0252 314.118C44.0252 314.859 44.0252 315.682 44.0252 316.588ZM44.0252 316.588C44.9105 316.588 45.7341 316.588 46.4958 316.588C47.2576 316.588 48.0811 316.588 48.9664 316.588C48.9664 315.682 48.9664 314.859 48.9664 314.118C48.9664 313.376 48.9664 312.553 48.9664 311.647C48.0811 311.647 47.2576 311.647 46.4958 311.647C45.7341 311.647 44.9105 311.647 44.0252 311.647C44.0252 312.553 44.0252 313.376 44.0252 314.118C44.0252 314.859 44.0252 315.682 44.0252 316.588ZM44.0252 316.588C44.9105 316.588 45.7341 316.588 46.4958 316.588C47.2576 316.588 48.0811 316.588 48.9664 316.588C48.9664 315.682 48.9664 314.859 48.9664 314.118C48.9664 313.376 48.9664 312.553 48.9664 311.647C48.0811 311.647 47.2576 311.647 46.4958 311.647C45.7341 311.647 44.9105 311.647 44.0252 311.647C44.0252 312.553 44.0252 313.376 44.0252 314.118C44.0252 314.859 44.0252 315.682 44.0252 316.588ZM44.0252 316.588C44.9105 316.588 45.7341 316.588 46.4958 316.588C47.2576 316.588 48.0811 316.588 48.9664 316.588C48.9664 315.682 48.9664 314.859 48.9664 314.118C48.9664 313.376 48.9664 312.553 48.9664 311.647C48.0811 311.647 47.2576 311.647 46.4958 311.647C45.7341 311.647 44.9105 311.647 44.0252 311.647C44.0252 312.553 44.0252 313.376 44.0252 314.118C44.0252 314.859 44.0252 315.682 44.0252 316.588ZM44.0252 316.588C44.9105 316.588 45.7341 316.588 46.4958 316.588C47.2576 316.588 48.0811 316.588 48.9664 316.588C48.9664 315.682 48.9664 314.859 48.9664 314.118C48.9664 313.376 48.9664 312.553 48.9664 311.647C48.0811 311.647 47.2576 311.647 46.4958 311.647C45.7341 311.647 44.9105 311.647 44.0252 311.647C44.0252 312.553 44.0252 313.376 44.0252 314.118C44.0252 314.859 44.0252 315.682 44.0252 316.588ZM44.0252 316.588C44.9105 316.588 45.7341 316.588 46.4958 316.588C47.2576 316.588 48.0811 316.588 48.9664 316.588C48.9664 315.682 48.9664 314.859 48.9664 314.118C48.9664 313.376 48.9664 312.553 48.9664 311.647C48.0811 311.647 47.2576 311.647 46.4958 311.647C45.7341 311.647 44.9105 311.647 44.0252 311.647C44.0252 312.553 44.0252 313.376 44.0252 314.118C44.0252 314.859 44.0252 315.682 44.0252 316.588ZM44.0252 316.588C44.9105 316.588 45.7341 316.588 46.4958 316.588C47.2576 316.588 48.0811 316.588 48.9664 316.588C48.9664 315.682 48.9664 314.859 48.9664 314.118C48.9664 313.376 48.9664 312.553 48.9664 311.647C48.0811 311.647 47.2576 311.647 46.4958 311.647C45.7341 311.647 44.9105 311.647 44.0252 311.647C44.0252 312.553 44.0252 313.376 44.0252 314.118C44.0252 314.859 44.0252 315.682 44.0252 316.588ZM44.0252 316.588C44.9105 316.588 45.7341 316.588 46.4958 316.588C47.2576 316.588 48.0811 316.588 48.9664 316.588C48.9664 315.682 48.9664 314.859 48.9664 314.118C48.9664 313.376 48.9664 312.553 48.9664 311.647C48.0811 311.647 47.2576 311.647 46.4958 311.647C45.7341 311.647 44.9105 311.647 44.0252 311.647C44.0252 312.553 44.0252 313.376 44.0252 314.118C44.0252 314.859 44.0252 315.682 44.0252 316.588ZM44.0252 316.588C44.9105 316.588 45.7341 316.588 46.4958 316.588C47.2576 316.588 48.0811 316.588 48.9664 316.588C48.9664 315.682 48.9664 314.859 48.9664 314.118C48.9664 313.376 48.9664 312.553 48.9664 311.647C48.0811 311.647 47.2576 311.647 46.4958 311.647C45.7341 311.647 44.9105 311.647 44.0252 311.647C44.0252 312.553 44.0252 313.376 44.0252 314.118C44.0252 314.859 44.0252 315.682 44.0252 316.588ZM48.9664 316.588C49.8517 316.588 50.6752 316.588 51.437 316.588C52.1988 316.588 53.0223 316.588 53.9076 316.588C53.9076 315.682 53.9076 314.859 53.9076 314.118C53.9076 313.376 53.9076 312.553 53.9076 311.647C53.0223 311.647 52.1988 311.647 51.437 311.647C50.6752 311.647 49.8517 311.647 48.9664 311.647C48.9664 312.553 48.9664 313.376 48.9664 314.118C48.9664 314.859 48.9664 315.682 48.9664 316.588ZM48.9664 316.588C49.8517 316.588 50.6752 316.588 51.437 316.588C52.1988 316.588 53.0223 316.588 53.9076 316.588C53.9076 315.682 53.9076 314.859 53.9076 314.118C53.9076 313.376 53.9076 312.553 53.9076 311.647C53.0223 311.647 52.1988 311.647 51.437 311.647C50.6752 311.647 49.8517 311.647 48.9664 311.647C48.9664 312.553 48.9664 313.376 48.9664 314.118C48.9664 314.859 48.9664 315.682 48.9664 316.588ZM48.9664 316.588C49.8517 316.588 50.6752 316.588 51.437 316.588C52.1988 316.588 53.0223 316.588 53.9076 316.588C53.9076 315.682 53.9076 314.859 53.9076 314.118C53.9076 313.376 53.9076 312.553 53.9076 311.647C53.0223 311.647 52.1988 311.647 51.437 311.647C50.6752 311.647 49.8517 311.647 48.9664 311.647C48.9664 312.553 48.9664 313.376 48.9664 314.118C48.9664 314.859 48.9664 315.682 48.9664 316.588ZM48.9664 316.588C49.8517 316.588 50.6752 316.588 51.437 316.588C52.1988 316.588 53.0223 316.588 53.9076 316.588C53.9076 315.682 53.9076 314.859 53.9076 314.118C53.9076 313.376 53.9076 312.553 53.9076 311.647C53.0223 311.647 52.1988 311.647 51.437 311.647C50.6752 311.647 49.8517 311.647 48.9664 311.647C48.9664 312.553 48.9664 313.376 48.9664 314.118C48.9664 314.859 48.9664 315.682 48.9664 316.588ZM48.9664 316.588C49.8517 316.588 50.6752 316.588 51.437 316.588C52.1988 316.588 53.0223 316.588 53.9076 316.588C53.9076 315.682 53.9076 314.859 53.9076 314.118C53.9076 313.376 53.9076 312.553 53.9076 311.647C53.0223 311.647 52.1988 311.647 51.437 311.647C50.6752 311.647 49.8517 311.647 48.9664 311.647C48.9664 312.553 48.9664 313.376 48.9664 314.118C48.9664 314.859 48.9664 315.682 48.9664 316.588ZM48.9664 316.588C49.8517 316.588 50.6752 316.588 51.437 316.588C52.1988 316.588 53.0223 316.588 53.9076 316.588C53.9076 315.682 53.9076 314.859 53.9076 314.118C53.9076 313.376 53.9076 312.553 53.9076 311.647C53.0223 311.647 52.1988 311.647 51.437 311.647C50.6752 311.647 49.8517 311.647 48.9664 311.647C48.9664 312.553 48.9664 313.376 48.9664 314.118C48.9664 314.859 48.9664 315.682 48.9664 316.588ZM48.9664 316.588C49.8517 316.588 50.6752 316.588 51.437 316.588C52.1988 316.588 53.0223 316.588 53.9076 316.588C53.9076 315.682 53.9076 314.859 53.9076 314.118C53.9076 313.376 53.9076 312.553 53.9076 311.647C53.0223 311.647 52.1988 311.647 51.437 311.647C50.6752 311.647 49.8517 311.647 48.9664 311.647C48.9664 312.553 48.9664 313.376 48.9664 314.118C48.9664 314.859 48.9664 315.682 48.9664 316.588ZM48.9664 316.588C49.8517 316.588 50.6752 316.588 51.437 316.588C52.1988 316.588 53.0223 316.588 53.9076 316.588C53.9076 315.682 53.9076 314.859 53.9076 314.118C53.9076 313.376 53.9076 312.553 53.9076 311.647C53.0223 311.647 52.1988 311.647 51.437 311.647C50.6752 311.647 49.8517 311.647 48.9664 311.647C48.9664 312.553 48.9664 313.376 48.9664 314.118C48.9664 314.859 48.9664 315.682 48.9664 316.588ZM48.9664 316.588C49.8517 316.588 50.6752 316.588 51.437 316.588C52.1988 316.588 53.0223 316.588 53.9076 316.588C53.9076 315.682 53.9076 314.859 53.9076 314.118C53.9076 313.376 53.9076 312.553 53.9076 311.647C53.0223 311.647 52.1988 311.647 51.437 311.647C50.6752 311.647 49.8517 311.647 48.9664 311.647C48.9664 312.553 48.9664 313.376 48.9664 314.118C48.9664 314.859 48.9664 315.682 48.9664 316.588ZM53.9076 316.588C54.7929 316.588 55.6164 316.588 56.3782 316.588C57.1399 316.588 57.9635 316.588 58.8488 316.588C58.8488 315.682 58.8488 314.859 58.8488 314.118C58.8488 313.376 58.8488 312.553 58.8488 311.647C57.9635 311.647 57.1399 311.647 56.3782 311.647C55.6164 311.647 54.7929 311.647 53.9076 311.647C53.9076 312.553 53.9076 313.376 53.9076 314.118C53.9076 314.859 53.9076 315.682 53.9076 316.588ZM53.9076 316.588C54.7929 316.588 55.6164 316.588 56.3782 316.588C57.1399 316.588 57.9635 316.588 58.8488 316.588C58.8488 315.682 58.8488 314.859 58.8488 314.118C58.8488 313.376 58.8488 312.553 58.8488 311.647C57.9635 311.647 57.1399 311.647 56.3782 311.647C55.6164 311.647 54.7929 311.647 53.9076 311.647C53.9076 312.553 53.9076 313.376 53.9076 314.118C53.9076 314.859 53.9076 315.682 53.9076 316.588ZM53.9076 316.588C54.7929 316.588 55.6164 316.588 56.3782 316.588C57.1399 316.588 57.9635 316.588 58.8488 316.588C58.8488 315.682 58.8488 314.859 58.8488 314.118C58.8488 313.376 58.8488 312.553 58.8488 311.647C57.9635 311.647 57.1399 311.647 56.3782 311.647C55.6164 311.647 54.7929 311.647 53.9076 311.647C53.9076 312.553 53.9076 313.376 53.9076 314.118C53.9076 314.859 53.9076 315.682 53.9076 316.588ZM53.9076 316.588C54.7929 316.588 55.6164 316.588 56.3782 316.588C57.1399 316.588 57.9635 316.588 58.8488 316.588C58.8488 315.682 58.8488 314.859 58.8488 314.118C58.8488 313.376 58.8488 312.553 58.8488 311.647C57.9635 311.647 57.1399 311.647 56.3782 311.647C55.6164 311.647 54.7929 311.647 53.9076 311.647C53.9076 312.553 53.9076 313.376 53.9076 314.118C53.9076 314.859 53.9076 315.682 53.9076 316.588ZM53.9076 316.588C54.7929 316.588 55.6164 316.588 56.3782 316.588C57.1399 316.588 57.9635 316.588 58.8488 316.588C58.8488 315.682 58.8488 314.859 58.8488 314.118C58.8488 313.376 58.8488 312.553 58.8488 311.647C57.9635 311.647 57.1399 311.647 56.3782 311.647C55.6164 311.647 54.7929 311.647 53.9076 311.647C53.9076 312.553 53.9076 313.376 53.9076 314.118C53.9076 314.859 53.9076 315.682 53.9076 316.588ZM53.9076 316.588C54.7929 316.588 55.6164 316.588 56.3782 316.588C57.1399 316.588 57.9635 316.588 58.8488 316.588C58.8488 315.682 58.8488 314.859 58.8488 314.118C58.8488 313.376 58.8488 312.553 58.8488 311.647C57.9635 311.647 57.1399 311.647 56.3782 311.647C55.6164 311.647 54.7929 311.647 53.9076 311.647C53.9076 312.553 53.9076 313.376 53.9076 314.118C53.9076 314.859 53.9076 315.682 53.9076 316.588ZM53.9076 316.588C54.7929 316.588 55.6164 316.588 56.3782 316.588C57.1399 316.588 57.9635 316.588 58.8488 316.588C58.8488 315.682 58.8488 314.859 58.8488 314.118C58.8488 313.376 58.8488 312.553 58.8488 311.647C57.9635 311.647 57.1399 311.647 56.3782 311.647C55.6164 311.647 54.7929 311.647 53.9076 311.647C53.9076 312.553 53.9076 313.376 53.9076 314.118C53.9076 314.859 53.9076 315.682 53.9076 316.588ZM53.9076 316.588C54.7929 316.588 55.6164 316.588 56.3782 316.588C57.1399 316.588 57.9635 316.588 58.8488 316.588C58.8488 315.682 58.8488 314.859 58.8488 314.118C58.8488 313.376 58.8488 312.553 58.8488 311.647C57.9635 311.647 57.1399 311.647 56.3782 311.647C55.6164 311.647 54.7929 311.647 53.9076 311.647C53.9076 312.553 53.9076 313.376 53.9076 314.118C53.9076 314.859 53.9076 315.682 53.9076 316.588ZM53.9076 316.588C54.7929 316.588 55.6164 316.588 56.3782 316.588C57.1399 316.588 57.9635 316.588 58.8488 316.588C58.8488 315.682 58.8488 314.859 58.8488 314.118C58.8488 313.376 58.8488 312.553 58.8488 311.647C57.9635 311.647 57.1399 311.647 56.3782 311.647C55.6164 311.647 54.7929 311.647 53.9076 311.647C53.9076 312.553 53.9076 313.376 53.9076 314.118C53.9076 314.859 53.9076 315.682 53.9076 316.588Z" fill="#793958"/>
</svg>
