<svg width="300" height="400" viewBox="0 0 300 400" fill="none" xmlns="http://www.w3.org/2000/svg">
<rect x="5" y="5" width="290" height="390" rx="25" fill="#E3E3E3" stroke="#343434" stroke-width="10"/>
<path d="M37.1429 365C38.0282 365 38.8517 365 39.6135 365C40.3752 365 41.1988 365 42.0841 365C42.0841 364.094 42.0841 363.271 42.0841 362.529C42.0841 361.788 42.0841 360.965 42.0841 360.059C41.1988 360.059 40.3752 360.059 39.6135 360.059C38.8517 360.059 38.0282 360.059 37.1429 360.059C37.1429 360.965 37.1429 361.788 37.1429 362.529C37.1429 363.271 37.1429 364.094 37.1429 365ZM37.1429 365C38.0282 365 38.8517 365 39.6135 365C40.3752 365 41.1988 365 42.0841 365C42.0841 364.094 42.0841 363.271 42.0841 362.529C42.0841 361.788 42.0841 360.965 42.0841 360.059C41.1988 360.059 40.3752 360.059 39.6135 360.059C38.8517 360.059 38.0282 360.059 37.1429 360.059C37.1429 360.965 37.1429 361.788 37.1429 362.529C37.1429 363.271 37.1429 364.094 37.1429 365ZM37.1429 365C38.0282 365 38.8517 365 39.6135 365C40.3752 365 41.1988 365 42.0841 365C42.0841 364.094 42.0841 363.271 42.0841 362.529C42.0841 361.788 42.0841 360.965 42.0841 360.059C41.1988 360.059 40.3752 360.059 39.6135 360.059C38.8517 360.059 38.0282 360.059 37.1429 360.059C37.1429 360.965 37.1429 361.788 37.1429 362.529C37.1429 363.271 37.1429 364.094 37.1429 365ZM37.1429 365C38.0282 365 38.8517 365 39.6135 365C40.3752 365 41.1988 365 42.0841 365C42.0841 364.094 42.0841 363.271 42.0841 362.529C42.0841 361.788 42.0841 360.965 42.0841 360.059C41.1988 360.059 40.3752 360.059 39.6135 360.059C38.8517 360.059 38.0282 360.059 37.1429 360.059C37.1429 360.965 37.1429 361.788 37.1429 362.529C37.1429 363.271 37.1429 364.094 37.1429 365ZM37.1429 365C38.0282 365 38.8517 365 39.6135 365C40.3752 365 41.1988 365 42.0841 365C42.0841 364.094 42.0841 363.271 42.0841 362.529C42.0841 361.788 42.0841 360.965 42.0841 360.059C41.1988 360.059 40.3752 360.059 39.6135 360.059C38.8517 360.059 38.0282 360.059 37.1429 360.059C37.1429 360.965 37.1429 361.788 37.1429 362.529C37.1429 363.271 37.1429 364.094 37.1429 365ZM37.1429 365C38.0282 365 38.8517 365 39.6135 365C40.3752 365 41.1988 365 42.0841 365C42.0841 364.094 42.0841 363.271 42.0841 362.529C42.0841 361.788 42.0841 360.965 42.0841 360.059C41.1988 360.059 40.3752 360.059 39.6135 360.059C38.8517 360.059 38.0282 360.059 37.1429 360.059C37.1429 360.965 37.1429 361.788 37.1429 362.529C37.1429 363.271 37.1429 364.094 37.1429 365ZM37.1429 365C38.0282 365 38.8517 365 39.6135 365C40.3752 365 41.1988 365 42.0841 365C42.0841 364.094 42.0841 363.271 42.0841 362.529C42.0841 361.788 42.0841 360.965 42.0841 360.059C41.1988 360.059 40.3752 360.059 39.6135 360.059C38.8517 360.059 38.0282 360.059 37.1429 360.059C37.1429 360.965 37.1429 361.788 37.1429 362.529C37.1429 363.271 37.1429 364.094 37.1429 365ZM37.1429 365C38.0282 365 38.8517 365 39.6135 365C40.3752 365 41.1988 365 42.0841 365C42.0841 364.094 42.0841 363.271 42.0841 362.529C42.0841 361.788 42.0841 360.965 42.0841 360.059C41.1988 360.059 40.3752 360.059 39.6135 360.059C38.8517 360.059 38.0282 360.059 37.1429 360.059C37.1429 360.965 37.1429 361.788 37.1429 362.529C37.1429 363.271 37.1429 364.094 37.1429 365ZM37.1429 365C38.0282 365 38.8517 365 39.6135 365C40.3752 365 41.1988 365 42.0841 365C42.0841 364.094 42.0841 363.271 42.0841 362.529C42.0841 361.788 42.0841 360.965 42.0841 360.059C41.1988 360.059 40.3752 360.059 39.6135 360.059C38.8517 360.059 38.0282 360.059 37.1429 360.059C37.1429 360.965 37.1429 361.788 37.1429 362.529C37.1429 363.271 37.1429 364.094 37.1429 365ZM42.0841 365C42.9693 365 43.7929 365 44.5546 365C45.3164 365 46.1399 365 47.0252 365C47.0252 364.094 47.0252 363.271 47.0252 362.529C47.0252 361.788 47.0252 360.965 47.0252 360.059C46.1399 360.059 45.3164 360.059 44.5546 360.059C43.7929 360.059 42.9693 360.059 42.0841 360.059C42.0841 360.965 42.0841 361.788 42.0841 362.529C42.0841 363.271 42.0841 364.094 42.0841 365ZM42.0841 365C42.9693 365 43.7929 365 44.5546 365C45.3164 365 46.1399 365 47.0252 365C47.0252 364.094 47.0252 363.271 47.0252 362.529C47.0252 361.788 47.0252 360.965 47.0252 360.059C46.1399 360.059 45.3164 360.059 44.5546 360.059C43.7929 360.059 42.9693 360.059 42.0841 360.059C42.0841 360.965 42.0841 361.788 42.0841 362.529C42.0841 363.271 42.0841 364.094 42.0841 365ZM42.0841 365C42.9693 365 43.7929 365 44.5546 365C45.3164 365 46.1399 365 47.0252 365C47.0252 364.094 47.0252 363.271 47.0252 362.529C47.0252 361.788 47.0252 360.965 47.0252 360.059C46.1399 360.059 45.3164 360.059 44.5546 360.059C43.7929 360.059 42.9693 360.059 42.0841 360.059C42.0841 360.965 42.0841 361.788 42.0841 362.529C42.0841 363.271 42.0841 364.094 42.0841 365ZM42.0841 365C42.9693 365 43.7929 365 44.5546 365C45.3164 365 46.1399 365 47.0252 365C47.0252 364.094 47.0252 363.271 47.0252 362.529C47.0252 361.788 47.0252 360.965 47.0252 360.059C46.1399 360.059 45.3164 360.059 44.5546 360.059C43.7929 360.059 42.9693 360.059 42.0841 360.059C42.0841 360.965 42.0841 361.788 42.0841 362.529C42.0841 363.271 42.0841 364.094 42.0841 365ZM42.0841 365C42.9693 365 43.7929 365 44.5546 365C45.3164 365 46.1399 365 47.0252 365C47.0252 364.094 47.0252 363.271 47.0252 362.529C47.0252 361.788 47.0252 360.965 47.0252 360.059C46.1399 360.059 45.3164 360.059 44.5546 360.059C43.7929 360.059 42.9693 360.059 42.0841 360.059C42.0841 360.965 42.0841 361.788 42.0841 362.529C42.0841 363.271 42.0841 364.094 42.0841 365ZM42.0841 365C42.9693 365 43.7929 365 44.5546 365C45.3164 365 46.1399 365 47.0252 365C47.0252 364.094 47.0252 363.271 47.0252 362.529C47.0252 361.788 47.0252 360.965 47.0252 360.059C46.1399 360.059 45.3164 360.059 44.5546 360.059C43.7929 360.059 42.9693 360.059 42.0841 360.059C42.0841 360.965 42.0841 361.788 42.0841 362.529C42.0841 363.271 42.0841 364.094 42.0841 365ZM42.0841 365C42.9693 365 43.7929 365 44.5546 365C45.3164 365 46.1399 365 47.0252 365C47.0252 364.094 47.0252 363.271 47.0252 362.529C47.0252 361.788 47.0252 360.965 47.0252 360.059C46.1399 360.059 45.3164 360.059 44.5546 360.059C43.7929 360.059 42.9693 360.059 42.0841 360.059C42.0841 360.965 42.0841 361.788 42.0841 362.529C42.0841 363.271 42.0841 364.094 42.0841 365ZM42.0841 365C42.9693 365 43.7929 365 44.5546 365C45.3164 365 46.1399 365 47.0252 365C47.0252 364.094 47.0252 363.271 47.0252 362.529C47.0252 361.788 47.0252 360.965 47.0252 360.059C46.1399 360.059 45.3164 360.059 44.5546 360.059C43.7929 360.059 42.9693 360.059 42.0841 360.059C42.0841 360.965 42.0841 361.788 42.0841 362.529C42.0841 363.271 42.0841 364.094 42.0841 365ZM42.0841 365C42.9693 365 43.7929 365 44.5546 365C45.3164 365 46.1399 365 47.0252 365C47.0252 364.094 47.0252 363.271 47.0252 362.529C47.0252 361.788 47.0252 360.965 47.0252 360.059C46.1399 360.059 45.3164 360.059 44.5546 360.059C43.7929 360.059 42.9693 360.059 42.0841 360.059C42.0841 360.965 42.0841 361.788 42.0841 362.529C42.0841 363.271 42.0841 364.094 42.0841 365ZM47.0252 365C47.9105 365 48.7341 365 49.4958 365C50.2576 365 51.0811 365 51.9664 365C51.9664 364.094 51.9664 363.271 51.9664 362.529C51.9664 361.788 51.9664 360.965 51.9664 360.059C51.0811 360.059 50.2576 360.059 49.4958 360.059C48.7341 360.059 47.9105 360.059 47.0252 360.059C47.0252 360.965 47.0252 361.788 47.0252 362.529C47.0252 363.271 47.0252 364.094 47.0252 365ZM47.0252 365C47.9105 365 48.7341 365 49.4958 365C50.2576 365 51.0811 365 51.9664 365C51.9664 364.094 51.9664 363.271 51.9664 362.529C51.9664 361.788 51.9664 360.965 51.9664 360.059C51.0811 360.059 50.2576 360.059 49.4958 360.059C48.7341 360.059 47.9105 360.059 47.0252 360.059C47.0252 360.965 47.0252 361.788 47.0252 362.529C47.0252 363.271 47.0252 364.094 47.0252 365ZM47.0252 365C47.9105 365 48.7341 365 49.4958 365C50.2576 365 51.0811 365 51.9664 365C51.9664 364.094 51.9664 363.271 51.9664 362.529C51.9664 361.788 51.9664 360.965 51.9664 360.059C51.0811 360.059 50.2576 360.059 49.4958 360.059C48.7341 360.059 47.9105 360.059 47.0252 360.059C47.0252 360.965 47.0252 361.788 47.0252 362.529C47.0252 363.271 47.0252 364.094 47.0252 365ZM47.0252 365C47.9105 365 48.7341 365 49.4958 365C50.2576 365 51.0811 365 51.9664 365C51.9664 364.094 51.9664 363.271 51.9664 362.529C51.9664 361.788 51.9664 360.965 51.9664 360.059C51.0811 360.059 50.2576 360.059 49.4958 360.059C48.7341 360.059 47.9105 360.059 47.0252 360.059C47.0252 360.965 47.0252 361.788 47.0252 362.529C47.0252 363.271 47.0252 364.094 47.0252 365ZM47.0252 365C47.9105 365 48.7341 365 49.4958 365C50.2576 365 51.0811 365 51.9664 365C51.9664 364.094 51.9664 363.271 51.9664 362.529C51.9664 361.788 51.9664 360.965 51.9664 360.059C51.0811 360.059 50.2576 360.059 49.4958 360.059C48.7341 360.059 47.9105 360.059 47.0252 360.059C47.0252 360.965 47.0252 361.788 47.0252 362.529C47.0252 363.271 47.0252 364.094 47.0252 365ZM47.0252 365C47.9105 365 48.7341 365 49.4958 365C50.2576 365 51.0811 365 51.9664 365C51.9664 364.094 51.9664 363.271 51.9664 362.529C51.9664 361.788 51.9664 360.965 51.9664 360.059C51.0811 360.059 50.2576 360.059 49.4958 360.059C48.7341 360.059 47.9105 360.059 47.0252 360.059C47.0252 360.965 47.0252 361.788 47.0252 362.529C47.0252 363.271 47.0252 364.094 47.0252 365ZM47.0252 365C47.9105 365 48.7341 365 49.4958 365C50.2576 365 51.0811 365 51.9664 365C51.9664 364.094 51.9664 363.271 51.9664 362.529C51.9664 361.788 51.9664 360.965 51.9664 360.059C51.0811 360.059 50.2576 360.059 49.4958 360.059C48.7341 360.059 47.9105 360.059 47.0252 360.059C47.0252 360.965 47.0252 361.788 47.0252 362.529C47.0252 363.271 47.0252 364.094 47.0252 365ZM47.0252 365C47.9105 365 48.7341 365 49.4958 365C50.2576 365 51.0811 365 51.9664 365C51.9664 364.094 51.9664 363.271 51.9664 362.529C51.9664 361.788 51.9664 360.965 51.9664 360.059C51.0811 360.059 50.2576 360.059 49.4958 360.059C48.7341 360.059 47.9105 360.059 47.0252 360.059C47.0252 360.965 47.0252 361.788 47.0252 362.529C47.0252 363.271 47.0252 364.094 47.0252 365ZM47.0252 365C47.9105 365 48.7341 365 49.4958 365C50.2576 365 51.0811 365 51.9664 365C51.9664 364.094 51.9664 363.271 51.9664 362.529C51.9664 361.788 51.9664 360.965 51.9664 360.059C51.0811 360.059 50.2576 360.059 49.4958 360.059C48.7341 360.059 47.9105 360.059 47.0252 360.059C47.0252 360.965 47.0252 361.788 47.0252 362.529C47.0252 363.271 47.0252 364.094 47.0252 365ZM51.9664 365C52.8517 365 53.6752 365 54.437 365C55.1988 365 56.0223 365 56.9076 365C56.9076 364.094 56.9076 363.271 56.9076 362.529C56.9076 361.788 56.9076 360.965 56.9076 360.059C56.0223 360.059 55.1988 360.059 54.437 360.059C53.6752 360.059 52.8517 360.059 51.9664 360.059C51.9664 360.965 51.9664 361.788 51.9664 362.529C51.9664 363.271 51.9664 364.094 51.9664 365ZM51.9664 365C52.8517 365 53.6752 365 54.437 365C55.1988 365 56.0223 365 56.9076 365C56.9076 364.094 56.9076 363.271 56.9076 362.529C56.9076 361.788 56.9076 360.965 56.9076 360.059C56.0223 360.059 55.1988 360.059 54.437 360.059C53.6752 360.059 52.8517 360.059 51.9664 360.059C51.9664 360.965 51.9664 361.788 51.9664 362.529C51.9664 363.271 51.9664 364.094 51.9664 365ZM51.9664 365C52.8517 365 53.6752 365 54.437 365C55.1988 365 56.0223 365 56.9076 365C56.9076 364.094 56.9076 363.271 56.9076 362.529C56.9076 361.788 56.9076 360.965 56.9076 360.059C56.0223 360.059 55.1988 360.059 54.437 360.059C53.6752 360.059 52.8517 360.059 51.9664 360.059C51.9664 360.965 51.9664 361.788 51.9664 362.529C51.9664 363.271 51.9664 364.094 51.9664 365ZM51.9664 365C52.8517 365 53.6752 365 54.437 365C55.1988 365 56.0223 365 56.9076 365C56.9076 364.094 56.9076 363.271 56.9076 362.529C56.9076 361.788 56.9076 360.965 56.9076 360.059C56.0223 360.059 55.1988 360.059 54.437 360.059C53.6752 360.059 52.8517 360.059 51.9664 360.059C51.9664 360.965 51.9664 361.788 51.9664 362.529C51.9664 363.271 51.9664 364.094 51.9664 365ZM51.9664 365C52.8517 365 53.6752 365 54.437 365C55.1988 365 56.0223 365 56.9076 365C56.9076 364.094 56.9076 363.271 56.9076 362.529C56.9076 361.788 56.9076 360.965 56.9076 360.059C56.0223 360.059 55.1988 360.059 54.437 360.059C53.6752 360.059 52.8517 360.059 51.9664 360.059C51.9664 360.965 51.9664 361.788 51.9664 362.529C51.9664 363.271 51.9664 364.094 51.9664 365ZM51.9664 365C52.8517 365 53.6752 365 54.437 365C55.1988 365 56.0223 365 56.9076 365C56.9076 364.094 56.9076 363.271 56.9076 362.529C56.9076 361.788 56.9076 360.965 56.9076 360.059C56.0223 360.059 55.1988 360.059 54.437 360.059C53.6752 360.059 52.8517 360.059 51.9664 360.059C51.9664 360.965 51.9664 361.788 51.9664 362.529C51.9664 363.271 51.9664 364.094 51.9664 365ZM51.9664 365C52.8517 365 53.6752 365 54.437 365C55.1988 365 56.0223 365 56.9076 365C56.9076 364.094 56.9076 363.271 56.9076 362.529C56.9076 361.788 56.9076 360.965 56.9076 360.059C56.0223 360.059 55.1988 360.059 54.437 360.059C53.6752 360.059 52.8517 360.059 51.9664 360.059C51.9664 360.965 51.9664 361.788 51.9664 362.529C51.9664 363.271 51.9664 364.094 51.9664 365ZM51.9664 365C52.8517 365 53.6752 365 54.437 365C55.1988 365 56.0223 365 56.9076 365C56.9076 364.094 56.9076 363.271 56.9076 362.529C56.9076 361.788 56.9076 360.965 56.9076 360.059C56.0223 360.059 55.1988 360.059 54.437 360.059C53.6752 360.059 52.8517 360.059 51.9664 360.059C51.9664 360.965 51.9664 361.788 51.9664 362.529C51.9664 363.271 51.9664 364.094 51.9664 365ZM51.9664 365C52.8517 365 53.6752 365 54.437 365C55.1988 365 56.0223 365 56.9076 365C56.9076 364.094 56.9076 363.271 56.9076 362.529C56.9076 361.788 56.9076 360.965 56.9076 360.059C56.0223 360.059 55.1988 360.059 54.437 360.059C53.6752 360.059 52.8517 360.059 51.9664 360.059C51.9664 360.965 51.9664 361.788 51.9664 362.529C51.9664 363.271 51.9664 364.094 51.9664 365ZM56.9076 365C57.7929 365 58.6164 365 59.3782 365C60.1399 365 60.9635 365 61.8488 365C61.8488 364.094 61.8488 363.271 61.8488 362.529C61.8488 361.788 61.8488 360.965 61.8488 360.059C60.9635 360.059 60.1399 360.059 59.3782 360.059C58.6164 360.059 57.7929 360.059 56.9076 360.059C56.9076 360.965 56.9076 361.788 56.9076 362.529C56.9076 363.271 56.9076 364.094 56.9076 365ZM56.9076 365C57.7929 365 58.6164 365 59.3782 365C60.1399 365 60.9635 365 61.8488 365C61.8488 364.094 61.8488 363.271 61.8488 362.529C61.8488 361.788 61.8488 360.965 61.8488 360.059C60.9635 360.059 60.1399 360.059 59.3782 360.059C58.6164 360.059 57.7929 360.059 56.9076 360.059C56.9076 360.965 56.9076 361.788 56.9076 362.529C56.9076 363.271 56.9076 364.094 56.9076 365ZM56.9076 365C57.7929 365 58.6164 365 59.3782 365C60.1399 365 60.9635 365 61.8488 365C61.8488 364.094 61.8488 363.271 61.8488 362.529C61.8488 361.788 61.8488 360.965 61.8488 360.059C60.9635 360.059 60.1399 360.059 59.3782 360.059C58.6164 360.059 57.7929 360.059 56.9076 360.059C56.9076 360.965 56.9076 361.788 56.9076 362.529C56.9076 363.271 56.9076 364.094 56.9076 365ZM56.9076 365C57.7929 365 58.6164 365 59.3782 365C60.1399 365 60.9635 365 61.8488 365C61.8488 364.094 61.8488 363.271 61.8488 362.529C61.8488 361.788 61.8488 360.965 61.8488 360.059C60.9635 360.059 60.1399 360.059 59.3782 360.059C58.6164 360.059 57.7929 360.059 56.9076 360.059C56.9076 360.965 56.9076 361.788 56.9076 362.529C56.9076 363.271 56.9076 364.094 56.9076 365ZM56.9076 365C57.7929 365 58.6164 365 59.3782 365C60.1399 365 60.9635 365 61.8488 365C61.8488 364.094 61.8488 363.271 61.8488 362.529C61.8488 361.788 61.8488 360.965 61.8488 360.059C60.9635 360.059 60.1399 360.059 59.3782 360.059C58.6164 360.059 57.7929 360.059 56.9076 360.059C56.9076 360.965 56.9076 361.788 56.9076 362.529C56.9076 363.271 56.9076 364.094 56.9076 365ZM56.9076 365C57.7929 365 58.6164 365 59.3782 365C60.1399 365 60.9635 365 61.8488 365C61.8488 364.094 61.8488 363.271 61.8488 362.529C61.8488 361.788 61.8488 360.965 61.8488 360.059C60.9635 360.059 60.1399 360.059 59.3782 360.059C58.6164 360.059 57.7929 360.059 56.9076 360.059C56.9076 360.965 56.9076 361.788 56.9076 362.529C56.9076 363.271 56.9076 364.094 56.9076 365ZM56.9076 365C57.7929 365 58.6164 365 59.3782 365C60.1399 365 60.9635 365 61.8488 365C61.8488 364.094 61.8488 363.271 61.8488 362.529C61.8488 361.788 61.8488 360.965 61.8488 360.059C60.9635 360.059 60.1399 360.059 59.3782 360.059C58.6164 360.059 57.7929 360.059 56.9076 360.059C56.9076 360.965 56.9076 361.788 56.9076 362.529C56.9076 363.271 56.9076 364.094 56.9076 365ZM56.9076 365C57.7929 365 58.6164 365 59.3782 365C60.1399 365 60.9635 365 61.8488 365C61.8488 364.094 61.8488 363.271 61.8488 362.529C61.8488 361.788 61.8488 360.965 61.8488 360.059C60.9635 360.059 60.1399 360.059 59.3782 360.059C58.6164 360.059 57.7929 360.059 56.9076 360.059C56.9076 360.965 56.9076 361.788 56.9076 362.529C56.9076 363.271 56.9076 364.094 56.9076 365ZM56.9076 365C57.7929 365 58.6164 365 59.3782 365C60.1399 365 60.9635 365 61.8488 365C61.8488 364.094 61.8488 363.271 61.8488 362.529C61.8488 361.788 61.8488 360.965 61.8488 360.059C60.9635 360.059 60.1399 360.059 59.3782 360.059C58.6164 360.059 57.7929 360.059 56.9076 360.059C56.9076 360.965 56.9076 361.788 56.9076 362.529C56.9076 363.271 56.9076 364.094 56.9076 365ZM42.0841 360.059C42.9693 360.059 43.7929 360.059 44.5546 360.059C45.3164 360.059 46.1399 360.059 47.0252 360.059C47.0252 359.153 47.0252 358.329 47.0252 357.588C47.0252 356.847 47.0252 356.024 47.0252 355.118C46.1399 355.118 45.3164 355.118 44.5546 355.118C43.7929 355.118 42.9693 355.118 42.0841 355.118C42.0841 356.024 42.0841 356.847 42.0841 357.588C42.0841 358.329 42.0841 359.153 42.0841 360.059ZM42.0841 360.059C42.9693 360.059 43.7929 360.059 44.5546 360.059C45.3164 360.059 46.1399 360.059 47.0252 360.059C47.0252 359.153 47.0252 358.329 47.0252 357.588C47.0252 356.847 47.0252 356.024 47.0252 355.118C46.1399 355.118 45.3164 355.118 44.5546 355.118C43.7929 355.118 42.9693 355.118 42.0841 355.118C42.0841 356.024 42.0841 356.847 42.0841 357.588C42.0841 358.329 42.0841 359.153 42.0841 360.059ZM42.0841 360.059C42.9693 360.059 43.7929 360.059 44.5546 360.059C45.3164 360.059 46.1399 360.059 47.0252 360.059C47.0252 359.153 47.0252 358.329 47.0252 357.588C47.0252 356.847 47.0252 356.024 47.0252 355.118C46.1399 355.118 45.3164 355.118 44.5546 355.118C43.7929 355.118 42.9693 355.118 42.0841 355.118C42.0841 356.024 42.0841 356.847 42.0841 357.588C42.0841 358.329 42.0841 359.153 42.0841 360.059ZM42.0841 360.059C42.9693 360.059 43.7929 360.059 44.5546 360.059C45.3164 360.059 46.1399 360.059 47.0252 360.059C47.0252 359.153 47.0252 358.329 47.0252 357.588C47.0252 356.847 47.0252 356.024 47.0252 355.118C46.1399 355.118 45.3164 355.118 44.5546 355.118C43.7929 355.118 42.9693 355.118 42.0841 355.118C42.0841 356.024 42.0841 356.847 42.0841 357.588C42.0841 358.329 42.0841 359.153 42.0841 360.059ZM42.0841 360.059C42.9693 360.059 43.7929 360.059 44.5546 360.059C45.3164 360.059 46.1399 360.059 47.0252 360.059C47.0252 359.153 47.0252 358.329 47.0252 357.588C47.0252 356.847 47.0252 356.024 47.0252 355.118C46.1399 355.118 45.3164 355.118 44.5546 355.118C43.7929 355.118 42.9693 355.118 42.0841 355.118C42.0841 356.024 42.0841 356.847 42.0841 357.588C42.0841 358.329 42.0841 359.153 42.0841 360.059ZM42.0841 360.059C42.9693 360.059 43.7929 360.059 44.5546 360.059C45.3164 360.059 46.1399 360.059 47.0252 360.059C47.0252 359.153 47.0252 358.329 47.0252 357.588C47.0252 356.847 47.0252 356.024 47.0252 355.118C46.1399 355.118 45.3164 355.118 44.5546 355.118C43.7929 355.118 42.9693 355.118 42.0841 355.118C42.0841 356.024 42.0841 356.847 42.0841 357.588C42.0841 358.329 42.0841 359.153 42.0841 360.059ZM42.0841 360.059C42.9693 360.059 43.7929 360.059 44.5546 360.059C45.3164 360.059 46.1399 360.059 47.0252 360.059C47.0252 359.153 47.0252 358.329 47.0252 357.588C47.0252 356.847 47.0252 356.024 47.0252 355.118C46.1399 355.118 45.3164 355.118 44.5546 355.118C43.7929 355.118 42.9693 355.118 42.0841 355.118C42.0841 356.024 42.0841 356.847 42.0841 357.588C42.0841 358.329 42.0841 359.153 42.0841 360.059ZM42.0841 360.059C42.9693 360.059 43.7929 360.059 44.5546 360.059C45.3164 360.059 46.1399 360.059 47.0252 360.059C47.0252 359.153 47.0252 358.329 47.0252 357.588C47.0252 356.847 47.0252 356.024 47.0252 355.118C46.1399 355.118 45.3164 355.118 44.5546 355.118C43.7929 355.118 42.9693 355.118 42.0841 355.118C42.0841 356.024 42.0841 356.847 42.0841 357.588C42.0841 358.329 42.0841 359.153 42.0841 360.059ZM42.0841 360.059C42.9693 360.059 43.7929 360.059 44.5546 360.059C45.3164 360.059 46.1399 360.059 47.0252 360.059C47.0252 359.153 47.0252 358.329 47.0252 357.588C47.0252 356.847 47.0252 356.024 47.0252 355.118C46.1399 355.118 45.3164 355.118 44.5546 355.118C43.7929 355.118 42.9693 355.118 42.0841 355.118C42.0841 356.024 42.0841 356.847 42.0841 357.588C42.0841 358.329 42.0841 359.153 42.0841 360.059ZM44.5546 355.118C45.4399 355.118 46.2635 355.118 47.0252 355.118C47.787 355.118 48.6105 355.118 49.4958 355.118C49.4958 354.212 49.4958 353.388 49.4958 352.647C49.4958 351.906 49.4958 351.082 49.4958 350.176C48.6105 350.176 47.787 350.176 47.0252 350.176C46.2635 350.176 45.4399 350.176 44.5546 350.176C44.5546 351.082 44.5546 351.906 44.5546 352.647C44.5546 353.388 44.5546 354.212 44.5546 355.118ZM44.5546 355.118C45.4399 355.118 46.2635 355.118 47.0252 355.118C47.787 355.118 48.6105 355.118 49.4958 355.118C49.4958 354.212 49.4958 353.388 49.4958 352.647C49.4958 351.906 49.4958 351.082 49.4958 350.176C48.6105 350.176 47.787 350.176 47.0252 350.176C46.2635 350.176 45.4399 350.176 44.5546 350.176C44.5546 351.082 44.5546 351.906 44.5546 352.647C44.5546 353.388 44.5546 354.212 44.5546 355.118ZM44.5546 355.118C45.4399 355.118 46.2635 355.118 47.0252 355.118C47.787 355.118 48.6105 355.118 49.4958 355.118C49.4958 354.212 49.4958 353.388 49.4958 352.647C49.4958 351.906 49.4958 351.082 49.4958 350.176C48.6105 350.176 47.787 350.176 47.0252 350.176C46.2635 350.176 45.4399 350.176 44.5546 350.176C44.5546 351.082 44.5546 351.906 44.5546 352.647C44.5546 353.388 44.5546 354.212 44.5546 355.118ZM44.5546 355.118C45.4399 355.118 46.2635 355.118 47.0252 355.118C47.787 355.118 48.6105 355.118 49.4958 355.118C49.4958 354.212 49.4958 353.388 49.4958 352.647C49.4958 351.906 49.4958 351.082 49.4958 350.176C48.6105 350.176 47.787 350.176 47.0252 350.176C46.2635 350.176 45.4399 350.176 44.5546 350.176C44.5546 351.082 44.5546 351.906 44.5546 352.647C44.5546 353.388 44.5546 354.212 44.5546 355.118ZM44.5546 355.118C45.4399 355.118 46.2635 355.118 47.0252 355.118C47.787 355.118 48.6105 355.118 49.4958 355.118C49.4958 354.212 49.4958 353.388 49.4958 352.647C49.4958 351.906 49.4958 351.082 49.4958 350.176C48.6105 350.176 47.787 350.176 47.0252 350.176C46.2635 350.176 45.4399 350.176 44.5546 350.176C44.5546 351.082 44.5546 351.906 44.5546 352.647C44.5546 353.388 44.5546 354.212 44.5546 355.118ZM44.5546 355.118C45.4399 355.118 46.2635 355.118 47.0252 355.118C47.787 355.118 48.6105 355.118 49.4958 355.118C49.4958 354.212 49.4958 353.388 49.4958 352.647C49.4958 351.906 49.4958 351.082 49.4958 350.176C48.6105 350.176 47.787 350.176 47.0252 350.176C46.2635 350.176 45.4399 350.176 44.5546 350.176C44.5546 351.082 44.5546 351.906 44.5546 352.647C44.5546 353.388 44.5546 354.212 44.5546 355.118ZM44.5546 355.118C45.4399 355.118 46.2635 355.118 47.0252 355.118C47.787 355.118 48.6105 355.118 49.4958 355.118C49.4958 354.212 49.4958 353.388 49.4958 352.647C49.4958 351.906 49.4958 351.082 49.4958 350.176C48.6105 350.176 47.787 350.176 47.0252 350.176C46.2635 350.176 45.4399 350.176 44.5546 350.176C44.5546 351.082 44.5546 351.906 44.5546 352.647C44.5546 353.388 44.5546 354.212 44.5546 355.118ZM44.5546 355.118C45.4399 355.118 46.2635 355.118 47.0252 355.118C47.787 355.118 48.6105 355.118 49.4958 355.118C49.4958 354.212 49.4958 353.388 49.4958 352.647C49.4958 351.906 49.4958 351.082 49.4958 350.176C48.6105 350.176 47.787 350.176 47.0252 350.176C46.2635 350.176 45.4399 350.176 44.5546 350.176C44.5546 351.082 44.5546 351.906 44.5546 352.647C44.5546 353.388 44.5546 354.212 44.5546 355.118ZM44.5546 355.118C45.4399 355.118 46.2635 355.118 47.0252 355.118C47.787 355.118 48.6105 355.118 49.4958 355.118C49.4958 354.212 49.4958 353.388 49.4958 352.647C49.4958 351.906 49.4958 351.082 49.4958 350.176C48.6105 350.176 47.787 350.176 47.0252 350.176C46.2635 350.176 45.4399 350.176 44.5546 350.176C44.5546 351.082 44.5546 351.906 44.5546 352.647C44.5546 353.388 44.5546 354.212 44.5546 355.118ZM47.0252 350.176C47.9105 350.176 48.7341 350.176 49.4958 350.176C50.2576 350.176 51.0811 350.176 51.9664 350.176C51.9664 349.271 51.9664 348.447 51.9664 347.706C51.9664 346.965 51.9664 346.141 51.9664 345.235C51.0811 345.235 50.2576 345.235 49.4958 345.235C48.7341 345.235 47.9105 345.235 47.0252 345.235C47.0252 346.141 47.0252 346.965 47.0252 347.706C47.0252 348.447 47.0252 349.271 47.0252 350.176ZM47.0252 350.176C47.9105 350.176 48.7341 350.176 49.4958 350.176C50.2576 350.176 51.0811 350.176 51.9664 350.176C51.9664 349.271 51.9664 348.447 51.9664 347.706C51.9664 346.965 51.9664 346.141 51.9664 345.235C51.0811 345.235 50.2576 345.235 49.4958 345.235C48.7341 345.235 47.9105 345.235 47.0252 345.235C47.0252 346.141 47.0252 346.965 47.0252 347.706C47.0252 348.447 47.0252 349.271 47.0252 350.176ZM47.0252 350.176C47.9105 350.176 48.7341 350.176 49.4958 350.176C50.2576 350.176 51.0811 350.176 51.9664 350.176C51.9664 349.271 51.9664 348.447 51.9664 347.706C51.9664 346.965 51.9664 346.141 51.9664 345.235C51.0811 345.235 50.2576 345.235 49.4958 345.235C48.7341 345.235 47.9105 345.235 47.0252 345.235C47.0252 346.141 47.0252 346.965 47.0252 347.706C47.0252 348.447 47.0252 349.271 47.0252 350.176ZM47.0252 350.176C47.9105 350.176 48.7341 350.176 49.4958 350.176C50.2576 350.176 51.0811 350.176 51.9664 350.176C51.9664 349.271 51.9664 348.447 51.9664 347.706C51.9664 346.965 51.9664 346.141 51.9664 345.235C51.0811 345.235 50.2576 345.235 49.4958 345.235C48.7341 345.235 47.9105 345.235 47.0252 345.235C47.0252 346.141 47.0252 346.965 47.0252 347.706C47.0252 348.447 47.0252 349.271 47.0252 350.176ZM47.0252 350.176C47.9105 350.176 48.7341 350.176 49.4958 350.176C50.2576 350.176 51.0811 350.176 51.9664 350.176C51.9664 349.271 51.9664 348.447 51.9664 347.706C51.9664 346.965 51.9664 346.141 51.9664 345.235C51.0811 345.235 50.2576 345.235 49.4958 345.235C48.7341 345.235 47.9105 345.235 47.0252 345.235C47.0252 346.141 47.0252 346.965 47.0252 347.706C47.0252 348.447 47.0252 349.271 47.0252 350.176ZM47.0252 350.176C47.9105 350.176 48.7341 350.176 49.4958 350.176C50.2576 350.176 51.0811 350.176 51.9664 350.176C51.9664 349.271 51.9664 348.447 51.9664 347.706C51.9664 346.965 51.9664 346.141 51.9664 345.235C51.0811 345.235 50.2576 345.235 49.4958 345.235C48.7341 345.235 47.9105 345.235 47.0252 345.235C47.0252 346.141 47.0252 346.965 47.0252 347.706C47.0252 348.447 47.0252 349.271 47.0252 350.176ZM47.0252 350.176C47.9105 350.176 48.7341 350.176 49.4958 350.176C50.2576 350.176 51.0811 350.176 51.9664 350.176C51.9664 349.271 51.9664 348.447 51.9664 347.706C51.9664 346.965 51.9664 346.141 51.9664 345.235C51.0811 345.235 50.2576 345.235 49.4958 345.235C48.7341 345.235 47.9105 345.235 47.0252 345.235C47.0252 346.141 47.0252 346.965 47.0252 347.706C47.0252 348.447 47.0252 349.271 47.0252 350.176ZM47.0252 350.176C47.9105 350.176 48.7341 350.176 49.4958 350.176C50.2576 350.176 51.0811 350.176 51.9664 350.176C51.9664 349.271 51.9664 348.447 51.9664 347.706C51.9664 346.965 51.9664 346.141 51.9664 345.235C51.0811 345.235 50.2576 345.235 49.4958 345.235C48.7341 345.235 47.9105 345.235 47.0252 345.235C47.0252 346.141 47.0252 346.965 47.0252 347.706C47.0252 348.447 47.0252 349.271 47.0252 350.176ZM47.0252 350.176C47.9105 350.176 48.7341 350.176 49.4958 350.176C50.2576 350.176 51.0811 350.176 51.9664 350.176C51.9664 349.271 51.9664 348.447 51.9664 347.706C51.9664 346.965 51.9664 346.141 51.9664 345.235C51.0811 345.235 50.2576 345.235 49.4958 345.235C48.7341 345.235 47.9105 345.235 47.0252 345.235C47.0252 346.141 47.0252 346.965 47.0252 347.706C47.0252 348.447 47.0252 349.271 47.0252 350.176ZM49.4958 345.235C50.3811 345.235 51.2046 345.235 51.9664 345.235C52.7282 345.235 53.5517 345.235 54.437 345.235C54.437 344.329 54.437 343.506 54.437 342.765C54.437 342.024 54.437 341.2 54.437 340.294C53.5517 340.294 52.7282 340.294 51.9664 340.294C51.2046 340.294 50.3811 340.294 49.4958 340.294C49.4958 341.2 49.4958 342.024 49.4958 342.765C49.4958 343.506 49.4958 344.329 49.4958 345.235ZM49.4958 345.235C50.3811 345.235 51.2046 345.235 51.9664 345.235C52.7282 345.235 53.5517 345.235 54.437 345.235C54.437 344.329 54.437 343.506 54.437 342.765C54.437 342.024 54.437 341.2 54.437 340.294C53.5517 340.294 52.7282 340.294 51.9664 340.294C51.2046 340.294 50.3811 340.294 49.4958 340.294C49.4958 341.2 49.4958 342.024 49.4958 342.765C49.4958 343.506 49.4958 344.329 49.4958 345.235ZM49.4958 345.235C50.3811 345.235 51.2046 345.235 51.9664 345.235C52.7282 345.235 53.5517 345.235 54.437 345.235C54.437 344.329 54.437 343.506 54.437 342.765C54.437 342.024 54.437 341.2 54.437 340.294C53.5517 340.294 52.7282 340.294 51.9664 340.294C51.2046 340.294 50.3811 340.294 49.4958 340.294C49.4958 341.2 49.4958 342.024 49.4958 342.765C49.4958 343.506 49.4958 344.329 49.4958 345.235ZM49.4958 345.235C50.3811 345.235 51.2046 345.235 51.9664 345.235C52.7282 345.235 53.5517 345.235 54.437 345.235C54.437 344.329 54.437 343.506 54.437 342.765C54.437 342.024 54.437 341.2 54.437 340.294C53.5517 340.294 52.7282 340.294 51.9664 340.294C51.2046 340.294 50.3811 340.294 49.4958 340.294C49.4958 341.2 49.4958 342.024 49.4958 342.765C49.4958 343.506 49.4958 344.329 49.4958 345.235ZM49.4958 345.235C50.3811 345.235 51.2046 345.235 51.9664 345.235C52.7282 345.235 53.5517 345.235 54.437 345.235C54.437 344.329 54.437 343.506 54.437 342.765C54.437 342.024 54.437 341.2 54.437 340.294C53.5517 340.294 52.7282 340.294 51.9664 340.294C51.2046 340.294 50.3811 340.294 49.4958 340.294C49.4958 341.2 49.4958 342.024 49.4958 342.765C49.4958 343.506 49.4958 344.329 49.4958 345.235ZM49.4958 345.235C50.3811 345.235 51.2046 345.235 51.9664 345.235C52.7282 345.235 53.5517 345.235 54.437 345.235C54.437 344.329 54.437 343.506 54.437 342.765C54.437 342.024 54.437 341.2 54.437 340.294C53.5517 340.294 52.7282 340.294 51.9664 340.294C51.2046 340.294 50.3811 340.294 49.4958 340.294C49.4958 341.2 49.4958 342.024 49.4958 342.765C49.4958 343.506 49.4958 344.329 49.4958 345.235ZM49.4958 345.235C50.3811 345.235 51.2046 345.235 51.9664 345.235C52.7282 345.235 53.5517 345.235 54.437 345.235C54.437 344.329 54.437 343.506 54.437 342.765C54.437 342.024 54.437 341.2 54.437 340.294C53.5517 340.294 52.7282 340.294 51.9664 340.294C51.2046 340.294 50.3811 340.294 49.4958 340.294C49.4958 341.2 49.4958 342.024 49.4958 342.765C49.4958 343.506 49.4958 344.329 49.4958 345.235ZM49.4958 345.235C50.3811 345.235 51.2046 345.235 51.9664 345.235C52.7282 345.235 53.5517 345.235 54.437 345.235C54.437 344.329 54.437 343.506 54.437 342.765C54.437 342.024 54.437 341.2 54.437 340.294C53.5517 340.294 52.7282 340.294 51.9664 340.294C51.2046 340.294 50.3811 340.294 49.4958 340.294C49.4958 341.2 49.4958 342.024 49.4958 342.765C49.4958 343.506 49.4958 344.329 49.4958 345.235ZM49.4958 345.235C50.3811 345.235 51.2046 345.235 51.9664 345.235C52.7282 345.235 53.5517 345.235 54.437 345.235C54.437 344.329 54.437 343.506 54.437 342.765C54.437 342.024 54.437 341.2 54.437 340.294C53.5517 340.294 52.7282 340.294 51.9664 340.294C51.2046 340.294 50.3811 340.294 49.4958 340.294C49.4958 341.2 49.4958 342.024 49.4958 342.765C49.4958 343.506 49.4958 344.329 49.4958 345.235ZM51.9664 340.294C52.8517 340.294 53.6752 340.294 54.437 340.294C55.1988 340.294 56.0223 340.294 56.9076 340.294C56.9076 339.388 56.9076 338.565 56.9076 337.824C56.9076 337.082 56.9076 336.259 56.9076 335.353C56.0223 335.353 55.1988 335.353 54.437 335.353C53.6752 335.353 52.8517 335.353 51.9664 335.353C51.9664 336.259 51.9664 337.082 51.9664 337.824C51.9664 338.565 51.9664 339.388 51.9664 340.294ZM51.9664 340.294C52.8517 340.294 53.6752 340.294 54.437 340.294C55.1988 340.294 56.0223 340.294 56.9076 340.294C56.9076 339.388 56.9076 338.565 56.9076 337.824C56.9076 337.082 56.9076 336.259 56.9076 335.353C56.0223 335.353 55.1988 335.353 54.437 335.353C53.6752 335.353 52.8517 335.353 51.9664 335.353C51.9664 336.259 51.9664 337.082 51.9664 337.824C51.9664 338.565 51.9664 339.388 51.9664 340.294ZM51.9664 340.294C52.8517 340.294 53.6752 340.294 54.437 340.294C55.1988 340.294 56.0223 340.294 56.9076 340.294C56.9076 339.388 56.9076 338.565 56.9076 337.824C56.9076 337.082 56.9076 336.259 56.9076 335.353C56.0223 335.353 55.1988 335.353 54.437 335.353C53.6752 335.353 52.8517 335.353 51.9664 335.353C51.9664 336.259 51.9664 337.082 51.9664 337.824C51.9664 338.565 51.9664 339.388 51.9664 340.294ZM51.9664 340.294C52.8517 340.294 53.6752 340.294 54.437 340.294C55.1988 340.294 56.0223 340.294 56.9076 340.294C56.9076 339.388 56.9076 338.565 56.9076 337.824C56.9076 337.082 56.9076 336.259 56.9076 335.353C56.0223 335.353 55.1988 335.353 54.437 335.353C53.6752 335.353 52.8517 335.353 51.9664 335.353C51.9664 336.259 51.9664 337.082 51.9664 337.824C51.9664 338.565 51.9664 339.388 51.9664 340.294ZM51.9664 340.294C52.8517 340.294 53.6752 340.294 54.437 340.294C55.1988 340.294 56.0223 340.294 56.9076 340.294C56.9076 339.388 56.9076 338.565 56.9076 337.824C56.9076 337.082 56.9076 336.259 56.9076 335.353C56.0223 335.353 55.1988 335.353 54.437 335.353C53.6752 335.353 52.8517 335.353 51.9664 335.353C51.9664 336.259 51.9664 337.082 51.9664 337.824C51.9664 338.565 51.9664 339.388 51.9664 340.294ZM51.9664 340.294C52.8517 340.294 53.6752 340.294 54.437 340.294C55.1988 340.294 56.0223 340.294 56.9076 340.294C56.9076 339.388 56.9076 338.565 56.9076 337.824C56.9076 337.082 56.9076 336.259 56.9076 335.353C56.0223 335.353 55.1988 335.353 54.437 335.353C53.6752 335.353 52.8517 335.353 51.9664 335.353C51.9664 336.259 51.9664 337.082 51.9664 337.824C51.9664 338.565 51.9664 339.388 51.9664 340.294ZM51.9664 340.294C52.8517 340.294 53.6752 340.294 54.437 340.294C55.1988 340.294 56.0223 340.294 56.9076 340.294C56.9076 339.388 56.9076 338.565 56.9076 337.824C56.9076 337.082 56.9076 336.259 56.9076 335.353C56.0223 335.353 55.1988 335.353 54.437 335.353C53.6752 335.353 52.8517 335.353 51.9664 335.353C51.9664 336.259 51.9664 337.082 51.9664 337.824C51.9664 338.565 51.9664 339.388 51.9664 340.294ZM51.9664 340.294C52.8517 340.294 53.6752 340.294 54.437 340.294C55.1988 340.294 56.0223 340.294 56.9076 340.294C56.9076 339.388 56.9076 338.565 56.9076 337.824C56.9076 337.082 56.9076 336.259 56.9076 335.353C56.0223 335.353 55.1988 335.353 54.437 335.353C53.6752 335.353 52.8517 335.353 51.9664 335.353C51.9664 336.259 51.9664 337.082 51.9664 337.824C51.9664 338.565 51.9664 339.388 51.9664 340.294ZM51.9664 340.294C52.8517 340.294 53.6752 340.294 54.437 340.294C55.1988 340.294 56.0223 340.294 56.9076 340.294C56.9076 339.388 56.9076 338.565 56.9076 337.824C56.9076 337.082 56.9076 336.259 56.9076 335.353C56.0223 335.353 55.1988 335.353 54.437 335.353C53.6752 335.353 52.8517 335.353 51.9664 335.353C51.9664 336.259 51.9664 337.082 51.9664 337.824C51.9664 338.565 51.9664 339.388 51.9664 340.294ZM54.437 335.353C55.3223 335.353 56.1458 335.353 56.9076 335.353C57.6693 335.353 58.4929 335.353 59.3782 335.353C59.3782 334.447 59.3782 333.624 59.3782 332.882C59.3782 332.141 59.3782 331.318 59.3782 330.412C58.4929 330.412 57.6693 330.412 56.9076 330.412C56.1458 330.412 55.3223 330.412 54.437 330.412C54.437 331.318 54.437 332.141 54.437 332.882C54.437 333.624 54.437 334.447 54.437 335.353ZM54.437 335.353C55.3223 335.353 56.1458 335.353 56.9076 335.353C57.6693 335.353 58.4929 335.353 59.3782 335.353C59.3782 334.447 59.3782 333.624 59.3782 332.882C59.3782 332.141 59.3782 331.318 59.3782 330.412C58.4929 330.412 57.6693 330.412 56.9076 330.412C56.1458 330.412 55.3223 330.412 54.437 330.412C54.437 331.318 54.437 332.141 54.437 332.882C54.437 333.624 54.437 334.447 54.437 335.353ZM54.437 335.353C55.3223 335.353 56.1458 335.353 56.9076 335.353C57.6693 335.353 58.4929 335.353 59.3782 335.353C59.3782 334.447 59.3782 333.624 59.3782 332.882C59.3782 332.141 59.3782 331.318 59.3782 330.412C58.4929 330.412 57.6693 330.412 56.9076 330.412C56.1458 330.412 55.3223 330.412 54.437 330.412C54.437 331.318 54.437 332.141 54.437 332.882C54.437 333.624 54.437 334.447 54.437 335.353ZM54.437 335.353C55.3223 335.353 56.1458 335.353 56.9076 335.353C57.6693 335.353 58.4929 335.353 59.3782 335.353C59.3782 334.447 59.3782 333.624 59.3782 332.882C59.3782 332.141 59.3782 331.318 59.3782 330.412C58.4929 330.412 57.6693 330.412 56.9076 330.412C56.1458 330.412 55.3223 330.412 54.437 330.412C54.437 331.318 54.437 332.141 54.437 332.882C54.437 333.624 54.437 334.447 54.437 335.353ZM54.437 335.353C55.3223 335.353 56.1458 335.353 56.9076 335.353C57.6693 335.353 58.4929 335.353 59.3782 335.353C59.3782 334.447 59.3782 333.624 59.3782 332.882C59.3782 332.141 59.3782 331.318 59.3782 330.412C58.4929 330.412 57.6693 330.412 56.9076 330.412C56.1458 330.412 55.3223 330.412 54.437 330.412C54.437 331.318 54.437 332.141 54.437 332.882C54.437 333.624 54.437 334.447 54.437 335.353ZM54.437 335.353C55.3223 335.353 56.1458 335.353 56.9076 335.353C57.6693 335.353 58.4929 335.353 59.3782 335.353C59.3782 334.447 59.3782 333.624 59.3782 332.882C59.3782 332.141 59.3782 331.318 59.3782 330.412C58.4929 330.412 57.6693 330.412 56.9076 330.412C56.1458 330.412 55.3223 330.412 54.437 330.412C54.437 331.318 54.437 332.141 54.437 332.882C54.437 333.624 54.437 334.447 54.437 335.353ZM54.437 335.353C55.3223 335.353 56.1458 335.353 56.9076 335.353C57.6693 335.353 58.4929 335.353 59.3782 335.353C59.3782 334.447 59.3782 333.624 59.3782 332.882C59.3782 332.141 59.3782 331.318 59.3782 330.412C58.4929 330.412 57.6693 330.412 56.9076 330.412C56.1458 330.412 55.3223 330.412 54.437 330.412C54.437 331.318 54.437 332.141 54.437 332.882C54.437 333.624 54.437 334.447 54.437 335.353ZM54.437 335.353C55.3223 335.353 56.1458 335.353 56.9076 335.353C57.6693 335.353 58.4929 335.353 59.3782 335.353C59.3782 334.447 59.3782 333.624 59.3782 332.882C59.3782 332.141 59.3782 331.318 59.3782 330.412C58.4929 330.412 57.6693 330.412 56.9076 330.412C56.1458 330.412 55.3223 330.412 54.437 330.412C54.437 331.318 54.437 332.141 54.437 332.882C54.437 333.624 54.437 334.447 54.437 335.353ZM54.437 335.353C55.3223 335.353 56.1458 335.353 56.9076 335.353C57.6693 335.353 58.4929 335.353 59.3782 335.353C59.3782 334.447 59.3782 333.624 59.3782 332.882C59.3782 332.141 59.3782 331.318 59.3782 330.412C58.4929 330.412 57.6693 330.412 56.9076 330.412C56.1458 330.412 55.3223 330.412 54.437 330.412C54.437 331.318 54.437 332.141 54.437 332.882C54.437 333.624 54.437 334.447 54.437 335.353ZM37.1429 330.412C38.0282 330.412 38.8517 330.412 39.6135 330.412C40.3752 330.412 41.1988 330.412 42.0841 330.412C42.0841 329.506 42.0841 328.682 42.0841 327.941C42.0841 327.2 42.0841 326.376 42.0841 325.471C41.1988 325.471 40.3752 325.471 39.6135 325.471C38.8517 325.471 38.0282 325.471 37.1429 325.471C37.1429 326.376 37.1429 327.2 37.1429 327.941C37.1429 328.682 37.1429 329.506 37.1429 330.412ZM37.1429 330.412C38.0282 330.412 38.8517 330.412 39.6135 330.412C40.3752 330.412 41.1988 330.412 42.0841 330.412C42.0841 329.506 42.0841 328.682 42.0841 327.941C42.0841 327.2 42.0841 326.376 42.0841 325.471C41.1988 325.471 40.3752 325.471 39.6135 325.471C38.8517 325.471 38.0282 325.471 37.1429 325.471C37.1429 326.376 37.1429 327.2 37.1429 327.941C37.1429 328.682 37.1429 329.506 37.1429 330.412ZM37.1429 330.412C38.0282 330.412 38.8517 330.412 39.6135 330.412C40.3752 330.412 41.1988 330.412 42.0841 330.412C42.0841 329.506 42.0841 328.682 42.0841 327.941C42.0841 327.2 42.0841 326.376 42.0841 325.471C41.1988 325.471 40.3752 325.471 39.6135 325.471C38.8517 325.471 38.0282 325.471 37.1429 325.471C37.1429 326.376 37.1429 327.2 37.1429 327.941C37.1429 328.682 37.1429 329.506 37.1429 330.412ZM37.1429 330.412C38.0282 330.412 38.8517 330.412 39.6135 330.412C40.3752 330.412 41.1988 330.412 42.0841 330.412C42.0841 329.506 42.0841 328.682 42.0841 327.941C42.0841 327.2 42.0841 326.376 42.0841 325.471C41.1988 325.471 40.3752 325.471 39.6135 325.471C38.8517 325.471 38.0282 325.471 37.1429 325.471C37.1429 326.376 37.1429 327.2 37.1429 327.941C37.1429 328.682 37.1429 329.506 37.1429 330.412ZM37.1429 330.412C38.0282 330.412 38.8517 330.412 39.6135 330.412C40.3752 330.412 41.1988 330.412 42.0841 330.412C42.0841 329.506 42.0841 328.682 42.0841 327.941C42.0841 327.2 42.0841 326.376 42.0841 325.471C41.1988 325.471 40.3752 325.471 39.6135 325.471C38.8517 325.471 38.0282 325.471 37.1429 325.471C37.1429 326.376 37.1429 327.2 37.1429 327.941C37.1429 328.682 37.1429 329.506 37.1429 330.412ZM37.1429 330.412C38.0282 330.412 38.8517 330.412 39.6135 330.412C40.3752 330.412 41.1988 330.412 42.0841 330.412C42.0841 329.506 42.0841 328.682 42.0841 327.941C42.0841 327.2 42.0841 326.376 42.0841 325.471C41.1988 325.471 40.3752 325.471 39.6135 325.471C38.8517 325.471 38.0282 325.471 37.1429 325.471C37.1429 326.376 37.1429 327.2 37.1429 327.941C37.1429 328.682 37.1429 329.506 37.1429 330.412ZM37.1429 330.412C38.0282 330.412 38.8517 330.412 39.6135 330.412C40.3752 330.412 41.1988 330.412 42.0841 330.412C42.0841 329.506 42.0841 328.682 42.0841 327.941C42.0841 327.2 42.0841 326.376 42.0841 325.471C41.1988 325.471 40.3752 325.471 39.6135 325.471C38.8517 325.471 38.0282 325.471 37.1429 325.471C37.1429 326.376 37.1429 327.2 37.1429 327.941C37.1429 328.682 37.1429 329.506 37.1429 330.412ZM37.1429 330.412C38.0282 330.412 38.8517 330.412 39.6135 330.412C40.3752 330.412 41.1988 330.412 42.0841 330.412C42.0841 329.506 42.0841 328.682 42.0841 327.941C42.0841 327.2 42.0841 326.376 42.0841 325.471C41.1988 325.471 40.3752 325.471 39.6135 325.471C38.8517 325.471 38.0282 325.471 37.1429 325.471C37.1429 326.376 37.1429 327.2 37.1429 327.941C37.1429 328.682 37.1429 329.506 37.1429 330.412ZM37.1429 330.412C38.0282 330.412 38.8517 330.412 39.6135 330.412C40.3752 330.412 41.1988 330.412 42.0841 330.412C42.0841 329.506 42.0841 328.682 42.0841 327.941C42.0841 327.2 42.0841 326.376 42.0841 325.471C41.1988 325.471 40.3752 325.471 39.6135 325.471C38.8517 325.471 38.0282 325.471 37.1429 325.471C37.1429 326.376 37.1429 327.2 37.1429 327.941C37.1429 328.682 37.1429 329.506 37.1429 330.412ZM56.9076 330.412C57.7929 330.412 58.6164 330.412 59.3782 330.412C60.1399 330.412 60.9635 330.412 61.8488 330.412C61.8488 329.506 61.8488 328.682 61.8488 327.941C61.8488 327.2 61.8488 326.376 61.8488 325.471C60.9635 325.471 60.1399 325.471 59.3782 325.471C58.6164 325.471 57.7929 325.471 56.9076 325.471C56.9076 326.376 56.9076 327.2 56.9076 327.941C56.9076 328.682 56.9076 329.506 56.9076 330.412ZM56.9076 330.412C57.7929 330.412 58.6164 330.412 59.3782 330.412C60.1399 330.412 60.9635 330.412 61.8488 330.412C61.8488 329.506 61.8488 328.682 61.8488 327.941C61.8488 327.2 61.8488 326.376 61.8488 325.471C60.9635 325.471 60.1399 325.471 59.3782 325.471C58.6164 325.471 57.7929 325.471 56.9076 325.471C56.9076 326.376 56.9076 327.2 56.9076 327.941C56.9076 328.682 56.9076 329.506 56.9076 330.412ZM56.9076 330.412C57.7929 330.412 58.6164 330.412 59.3782 330.412C60.1399 330.412 60.9635 330.412 61.8488 330.412C61.8488 329.506 61.8488 328.682 61.8488 327.941C61.8488 327.2 61.8488 326.376 61.8488 325.471C60.9635 325.471 60.1399 325.471 59.3782 325.471C58.6164 325.471 57.7929 325.471 56.9076 325.471C56.9076 326.376 56.9076 327.2 56.9076 327.941C56.9076 328.682 56.9076 329.506 56.9076 330.412ZM56.9076 330.412C57.7929 330.412 58.6164 330.412 59.3782 330.412C60.1399 330.412 60.9635 330.412 61.8488 330.412C61.8488 329.506 61.8488 328.682 61.8488 327.941C61.8488 327.2 61.8488 326.376 61.8488 325.471C60.9635 325.471 60.1399 325.471 59.3782 325.471C58.6164 325.471 57.7929 325.471 56.9076 325.471C56.9076 326.376 56.9076 327.2 56.9076 327.941C56.9076 328.682 56.9076 329.506 56.9076 330.412ZM56.9076 330.412C57.7929 330.412 58.6164 330.412 59.3782 330.412C60.1399 330.412 60.9635 330.412 61.8488 330.412C61.8488 329.506 61.8488 328.682 61.8488 327.941C61.8488 327.2 61.8488 326.376 61.8488 325.471C60.9635 325.471 60.1399 325.471 59.3782 325.471C58.6164 325.471 57.7929 325.471 56.9076 325.471C56.9076 326.376 56.9076 327.2 56.9076 327.941C56.9076 328.682 56.9076 329.506 56.9076 330.412ZM56.9076 330.412C57.7929 330.412 58.6164 330.412 59.3782 330.412C60.1399 330.412 60.9635 330.412 61.8488 330.412C61.8488 329.506 61.8488 328.682 61.8488 327.941C61.8488 327.2 61.8488 326.376 61.8488 325.471C60.9635 325.471 60.1399 325.471 59.3782 325.471C58.6164 325.471 57.7929 325.471 56.9076 325.471C56.9076 326.376 56.9076 327.2 56.9076 327.941C56.9076 328.682 56.9076 329.506 56.9076 330.412ZM56.9076 330.412C57.7929 330.412 58.6164 330.412 59.3782 330.412C60.1399 330.412 60.9635 330.412 61.8488 330.412C61.8488 329.506 61.8488 328.682 61.8488 327.941C61.8488 327.2 61.8488 326.376 61.8488 325.471C60.9635 325.471 60.1399 325.471 59.3782 325.471C58.6164 325.471 57.7929 325.471 56.9076 325.471C56.9076 326.376 56.9076 327.2 56.9076 327.941C56.9076 328.682 56.9076 329.506 56.9076 330.412ZM56.9076 330.412C57.7929 330.412 58.6164 330.412 59.3782 330.412C60.1399 330.412 60.9635 330.412 61.8488 330.412C61.8488 329.506 61.8488 328.682 61.8488 327.941C61.8488 327.2 61.8488 326.376 61.8488 325.471C60.9635 325.471 60.1399 325.471 59.3782 325.471C58.6164 325.471 57.7929 325.471 56.9076 325.471C56.9076 326.376 56.9076 327.2 56.9076 327.941C56.9076 328.682 56.9076 329.506 56.9076 330.412ZM56.9076 330.412C57.7929 330.412 58.6164 330.412 59.3782 330.412C60.1399 330.412 60.9635 330.412 61.8488 330.412C61.8488 329.506 61.8488 328.682 61.8488 327.941C61.8488 327.2 61.8488 326.376 61.8488 325.471C60.9635 325.471 60.1399 325.471 59.3782 325.471C58.6164 325.471 57.7929 325.471 56.9076 325.471C56.9076 326.376 56.9076 327.2 56.9076 327.941C56.9076 328.682 56.9076 329.506 56.9076 330.412ZM37.1429 325.471C38.0282 325.471 38.8517 325.471 39.6135 325.471C40.3752 325.471 41.1988 325.471 42.0841 325.471C42.0841 324.565 42.0841 323.741 42.0841 323C42.0841 322.259 42.0841 321.435 42.0841 320.529C41.1988 320.529 40.3752 320.529 39.6135 320.529C38.8517 320.529 38.0282 320.529 37.1429 320.529C37.1429 321.435 37.1429 322.259 37.1429 323C37.1429 323.741 37.1429 324.565 37.1429 325.471ZM37.1429 325.471C38.0282 325.471 38.8517 325.471 39.6135 325.471C40.3752 325.471 41.1988 325.471 42.0841 325.471C42.0841 324.565 42.0841 323.741 42.0841 323C42.0841 322.259 42.0841 321.435 42.0841 320.529C41.1988 320.529 40.3752 320.529 39.6135 320.529C38.8517 320.529 38.0282 320.529 37.1429 320.529C37.1429 321.435 37.1429 322.259 37.1429 323C37.1429 323.741 37.1429 324.565 37.1429 325.471ZM37.1429 325.471C38.0282 325.471 38.8517 325.471 39.6135 325.471C40.3752 325.471 41.1988 325.471 42.0841 325.471C42.0841 324.565 42.0841 323.741 42.0841 323C42.0841 322.259 42.0841 321.435 42.0841 320.529C41.1988 320.529 40.3752 320.529 39.6135 320.529C38.8517 320.529 38.0282 320.529 37.1429 320.529C37.1429 321.435 37.1429 322.259 37.1429 323C37.1429 323.741 37.1429 324.565 37.1429 325.471ZM37.1429 325.471C38.0282 325.471 38.8517 325.471 39.6135 325.471C40.3752 325.471 41.1988 325.471 42.0841 325.471C42.0841 324.565 42.0841 323.741 42.0841 323C42.0841 322.259 42.0841 321.435 42.0841 320.529C41.1988 320.529 40.3752 320.529 39.6135 320.529C38.8517 320.529 38.0282 320.529 37.1429 320.529C37.1429 321.435 37.1429 322.259 37.1429 323C37.1429 323.741 37.1429 324.565 37.1429 325.471ZM37.1429 325.471C38.0282 325.471 38.8517 325.471 39.6135 325.471C40.3752 325.471 41.1988 325.471 42.0841 325.471C42.0841 324.565 42.0841 323.741 42.0841 323C42.0841 322.259 42.0841 321.435 42.0841 320.529C41.1988 320.529 40.3752 320.529 39.6135 320.529C38.8517 320.529 38.0282 320.529 37.1429 320.529C37.1429 321.435 37.1429 322.259 37.1429 323C37.1429 323.741 37.1429 324.565 37.1429 325.471ZM37.1429 325.471C38.0282 325.471 38.8517 325.471 39.6135 325.471C40.3752 325.471 41.1988 325.471 42.0841 325.471C42.0841 324.565 42.0841 323.741 42.0841 323C42.0841 322.259 42.0841 321.435 42.0841 320.529C41.1988 320.529 40.3752 320.529 39.6135 320.529C38.8517 320.529 38.0282 320.529 37.1429 320.529C37.1429 321.435 37.1429 322.259 37.1429 323C37.1429 323.741 37.1429 324.565 37.1429 325.471ZM37.1429 325.471C38.0282 325.471 38.8517 325.471 39.6135 325.471C40.3752 325.471 41.1988 325.471 42.0841 325.471C42.0841 324.565 42.0841 323.741 42.0841 323C42.0841 322.259 42.0841 321.435 42.0841 320.529C41.1988 320.529 40.3752 320.529 39.6135 320.529C38.8517 320.529 38.0282 320.529 37.1429 320.529C37.1429 321.435 37.1429 322.259 37.1429 323C37.1429 323.741 37.1429 324.565 37.1429 325.471ZM37.1429 325.471C38.0282 325.471 38.8517 325.471 39.6135 325.471C40.3752 325.471 41.1988 325.471 42.0841 325.471C42.0841 324.565 42.0841 323.741 42.0841 323C42.0841 322.259 42.0841 321.435 42.0841 320.529C41.1988 320.529 40.3752 320.529 39.6135 320.529C38.8517 320.529 38.0282 320.529 37.1429 320.529C37.1429 321.435 37.1429 322.259 37.1429 323C37.1429 323.741 37.1429 324.565 37.1429 325.471ZM37.1429 325.471C38.0282 325.471 38.8517 325.471 39.6135 325.471C40.3752 325.471 41.1988 325.471 42.0841 325.471C42.0841 324.565 42.0841 323.741 42.0841 323C42.0841 322.259 42.0841 321.435 42.0841 320.529C41.1988 320.529 40.3752 320.529 39.6135 320.529C38.8517 320.529 38.0282 320.529 37.1429 320.529C37.1429 321.435 37.1429 322.259 37.1429 323C37.1429 323.741 37.1429 324.565 37.1429 325.471ZM56.9076 325.471C57.7929 325.471 58.6164 325.471 59.3782 325.471C60.1399 325.471 60.9635 325.471 61.8488 325.471C61.8488 324.565 61.8488 323.741 61.8488 323C61.8488 322.259 61.8488 321.435 61.8488 320.529C60.9635 320.529 60.1399 320.529 59.3782 320.529C58.6164 320.529 57.7929 320.529 56.9076 320.529C56.9076 321.435 56.9076 322.259 56.9076 323C56.9076 323.741 56.9076 324.565 56.9076 325.471ZM56.9076 325.471C57.7929 325.471 58.6164 325.471 59.3782 325.471C60.1399 325.471 60.9635 325.471 61.8488 325.471C61.8488 324.565 61.8488 323.741 61.8488 323C61.8488 322.259 61.8488 321.435 61.8488 320.529C60.9635 320.529 60.1399 320.529 59.3782 320.529C58.6164 320.529 57.7929 320.529 56.9076 320.529C56.9076 321.435 56.9076 322.259 56.9076 323C56.9076 323.741 56.9076 324.565 56.9076 325.471ZM56.9076 325.471C57.7929 325.471 58.6164 325.471 59.3782 325.471C60.1399 325.471 60.9635 325.471 61.8488 325.471C61.8488 324.565 61.8488 323.741 61.8488 323C61.8488 322.259 61.8488 321.435 61.8488 320.529C60.9635 320.529 60.1399 320.529 59.3782 320.529C58.6164 320.529 57.7929 320.529 56.9076 320.529C56.9076 321.435 56.9076 322.259 56.9076 323C56.9076 323.741 56.9076 324.565 56.9076 325.471ZM56.9076 325.471C57.7929 325.471 58.6164 325.471 59.3782 325.471C60.1399 325.471 60.9635 325.471 61.8488 325.471C61.8488 324.565 61.8488 323.741 61.8488 323C61.8488 322.259 61.8488 321.435 61.8488 320.529C60.9635 320.529 60.1399 320.529 59.3782 320.529C58.6164 320.529 57.7929 320.529 56.9076 320.529C56.9076 321.435 56.9076 322.259 56.9076 323C56.9076 323.741 56.9076 324.565 56.9076 325.471ZM56.9076 325.471C57.7929 325.471 58.6164 325.471 59.3782 325.471C60.1399 325.471 60.9635 325.471 61.8488 325.471C61.8488 324.565 61.8488 323.741 61.8488 323C61.8488 322.259 61.8488 321.435 61.8488 320.529C60.9635 320.529 60.1399 320.529 59.3782 320.529C58.6164 320.529 57.7929 320.529 56.9076 320.529C56.9076 321.435 56.9076 322.259 56.9076 323C56.9076 323.741 56.9076 324.565 56.9076 325.471ZM56.9076 325.471C57.7929 325.471 58.6164 325.471 59.3782 325.471C60.1399 325.471 60.9635 325.471 61.8488 325.471C61.8488 324.565 61.8488 323.741 61.8488 323C61.8488 322.259 61.8488 321.435 61.8488 320.529C60.9635 320.529 60.1399 320.529 59.3782 320.529C58.6164 320.529 57.7929 320.529 56.9076 320.529C56.9076 321.435 56.9076 322.259 56.9076 323C56.9076 323.741 56.9076 324.565 56.9076 325.471ZM56.9076 325.471C57.7929 325.471 58.6164 325.471 59.3782 325.471C60.1399 325.471 60.9635 325.471 61.8488 325.471C61.8488 324.565 61.8488 323.741 61.8488 323C61.8488 322.259 61.8488 321.435 61.8488 320.529C60.9635 320.529 60.1399 320.529 59.3782 320.529C58.6164 320.529 57.7929 320.529 56.9076 320.529C56.9076 321.435 56.9076 322.259 56.9076 323C56.9076 323.741 56.9076 324.565 56.9076 325.471ZM56.9076 325.471C57.7929 325.471 58.6164 325.471 59.3782 325.471C60.1399 325.471 60.9635 325.471 61.8488 325.471C61.8488 324.565 61.8488 323.741 61.8488 323C61.8488 322.259 61.8488 321.435 61.8488 320.529C60.9635 320.529 60.1399 320.529 59.3782 320.529C58.6164 320.529 57.7929 320.529 56.9076 320.529C56.9076 321.435 56.9076 322.259 56.9076 323C56.9076 323.741 56.9076 324.565 56.9076 325.471ZM56.9076 325.471C57.7929 325.471 58.6164 325.471 59.3782 325.471C60.1399 325.471 60.9635 325.471 61.8488 325.471C61.8488 324.565 61.8488 323.741 61.8488 323C61.8488 322.259 61.8488 321.435 61.8488 320.529C60.9635 320.529 60.1399 320.529 59.3782 320.529C58.6164 320.529 57.7929 320.529 56.9076 320.529C56.9076 321.435 56.9076 322.259 56.9076 323C56.9076 323.741 56.9076 324.565 56.9076 325.471ZM37.1429 320.529C38.0282 320.529 38.8517 320.529 39.6135 320.529C40.3752 320.529 41.1988 320.529 42.0841 320.529C42.0841 319.624 42.0841 318.8 42.0841 318.059C42.0841 317.318 42.0841 316.494 42.0841 315.588C41.1988 315.588 40.3752 315.588 39.6135 315.588C38.8517 315.588 38.0282 315.588 37.1429 315.588C37.1429 316.494 37.1429 317.318 37.1429 318.059C37.1429 318.8 37.1429 319.624 37.1429 320.529ZM37.1429 320.529C38.0282 320.529 38.8517 320.529 39.6135 320.529C40.3752 320.529 41.1988 320.529 42.0841 320.529C42.0841 319.624 42.0841 318.8 42.0841 318.059C42.0841 317.318 42.0841 316.494 42.0841 315.588C41.1988 315.588 40.3752 315.588 39.6135 315.588C38.8517 315.588 38.0282 315.588 37.1429 315.588C37.1429 316.494 37.1429 317.318 37.1429 318.059C37.1429 318.8 37.1429 319.624 37.1429 320.529ZM37.1429 320.529C38.0282 320.529 38.8517 320.529 39.6135 320.529C40.3752 320.529 41.1988 320.529 42.0841 320.529C42.0841 319.624 42.0841 318.8 42.0841 318.059C42.0841 317.318 42.0841 316.494 42.0841 315.588C41.1988 315.588 40.3752 315.588 39.6135 315.588C38.8517 315.588 38.0282 315.588 37.1429 315.588C37.1429 316.494 37.1429 317.318 37.1429 318.059C37.1429 318.8 37.1429 319.624 37.1429 320.529ZM37.1429 320.529C38.0282 320.529 38.8517 320.529 39.6135 320.529C40.3752 320.529 41.1988 320.529 42.0841 320.529C42.0841 319.624 42.0841 318.8 42.0841 318.059C42.0841 317.318 42.0841 316.494 42.0841 315.588C41.1988 315.588 40.3752 315.588 39.6135 315.588C38.8517 315.588 38.0282 315.588 37.1429 315.588C37.1429 316.494 37.1429 317.318 37.1429 318.059C37.1429 318.8 37.1429 319.624 37.1429 320.529ZM37.1429 320.529C38.0282 320.529 38.8517 320.529 39.6135 320.529C40.3752 320.529 41.1988 320.529 42.0841 320.529C42.0841 319.624 42.0841 318.8 42.0841 318.059C42.0841 317.318 42.0841 316.494 42.0841 315.588C41.1988 315.588 40.3752 315.588 39.6135 315.588C38.8517 315.588 38.0282 315.588 37.1429 315.588C37.1429 316.494 37.1429 317.318 37.1429 318.059C37.1429 318.8 37.1429 319.624 37.1429 320.529ZM37.1429 320.529C38.0282 320.529 38.8517 320.529 39.6135 320.529C40.3752 320.529 41.1988 320.529 42.0841 320.529C42.0841 319.624 42.0841 318.8 42.0841 318.059C42.0841 317.318 42.0841 316.494 42.0841 315.588C41.1988 315.588 40.3752 315.588 39.6135 315.588C38.8517 315.588 38.0282 315.588 37.1429 315.588C37.1429 316.494 37.1429 317.318 37.1429 318.059C37.1429 318.8 37.1429 319.624 37.1429 320.529ZM37.1429 320.529C38.0282 320.529 38.8517 320.529 39.6135 320.529C40.3752 320.529 41.1988 320.529 42.0841 320.529C42.0841 319.624 42.0841 318.8 42.0841 318.059C42.0841 317.318 42.0841 316.494 42.0841 315.588C41.1988 315.588 40.3752 315.588 39.6135 315.588C38.8517 315.588 38.0282 315.588 37.1429 315.588C37.1429 316.494 37.1429 317.318 37.1429 318.059C37.1429 318.8 37.1429 319.624 37.1429 320.529ZM37.1429 320.529C38.0282 320.529 38.8517 320.529 39.6135 320.529C40.3752 320.529 41.1988 320.529 42.0841 320.529C42.0841 319.624 42.0841 318.8 42.0841 318.059C42.0841 317.318 42.0841 316.494 42.0841 315.588C41.1988 315.588 40.3752 315.588 39.6135 315.588C38.8517 315.588 38.0282 315.588 37.1429 315.588C37.1429 316.494 37.1429 317.318 37.1429 318.059C37.1429 318.8 37.1429 319.624 37.1429 320.529ZM37.1429 320.529C38.0282 320.529 38.8517 320.529 39.6135 320.529C40.3752 320.529 41.1988 320.529 42.0841 320.529C42.0841 319.624 42.0841 318.8 42.0841 318.059C42.0841 317.318 42.0841 316.494 42.0841 315.588C41.1988 315.588 40.3752 315.588 39.6135 315.588C38.8517 315.588 38.0282 315.588 37.1429 315.588C37.1429 316.494 37.1429 317.318 37.1429 318.059C37.1429 318.8 37.1429 319.624 37.1429 320.529ZM56.9076 320.529C57.7929 320.529 58.6164 320.529 59.3782 320.529C60.1399 320.529 60.9635 320.529 61.8488 320.529C61.8488 319.624 61.8488 318.8 61.8488 318.059C61.8488 317.318 61.8488 316.494 61.8488 315.588C60.9635 315.588 60.1399 315.588 59.3782 315.588C58.6164 315.588 57.7929 315.588 56.9076 315.588C56.9076 316.494 56.9076 317.318 56.9076 318.059C56.9076 318.8 56.9076 319.624 56.9076 320.529ZM56.9076 320.529C57.7929 320.529 58.6164 320.529 59.3782 320.529C60.1399 320.529 60.9635 320.529 61.8488 320.529C61.8488 319.624 61.8488 318.8 61.8488 318.059C61.8488 317.318 61.8488 316.494 61.8488 315.588C60.9635 315.588 60.1399 315.588 59.3782 315.588C58.6164 315.588 57.7929 315.588 56.9076 315.588C56.9076 316.494 56.9076 317.318 56.9076 318.059C56.9076 318.8 56.9076 319.624 56.9076 320.529ZM56.9076 320.529C57.7929 320.529 58.6164 320.529 59.3782 320.529C60.1399 320.529 60.9635 320.529 61.8488 320.529C61.8488 319.624 61.8488 318.8 61.8488 318.059C61.8488 317.318 61.8488 316.494 61.8488 315.588C60.9635 315.588 60.1399 315.588 59.3782 315.588C58.6164 315.588 57.7929 315.588 56.9076 315.588C56.9076 316.494 56.9076 317.318 56.9076 318.059C56.9076 318.8 56.9076 319.624 56.9076 320.529ZM56.9076 320.529C57.7929 320.529 58.6164 320.529 59.3782 320.529C60.1399 320.529 60.9635 320.529 61.8488 320.529C61.8488 319.624 61.8488 318.8 61.8488 318.059C61.8488 317.318 61.8488 316.494 61.8488 315.588C60.9635 315.588 60.1399 315.588 59.3782 315.588C58.6164 315.588 57.7929 315.588 56.9076 315.588C56.9076 316.494 56.9076 317.318 56.9076 318.059C56.9076 318.8 56.9076 319.624 56.9076 320.529ZM56.9076 320.529C57.7929 320.529 58.6164 320.529 59.3782 320.529C60.1399 320.529 60.9635 320.529 61.8488 320.529C61.8488 319.624 61.8488 318.8 61.8488 318.059C61.8488 317.318 61.8488 316.494 61.8488 315.588C60.9635 315.588 60.1399 315.588 59.3782 315.588C58.6164 315.588 57.7929 315.588 56.9076 315.588C56.9076 316.494 56.9076 317.318 56.9076 318.059C56.9076 318.8 56.9076 319.624 56.9076 320.529ZM56.9076 320.529C57.7929 320.529 58.6164 320.529 59.3782 320.529C60.1399 320.529 60.9635 320.529 61.8488 320.529C61.8488 319.624 61.8488 318.8 61.8488 318.059C61.8488 317.318 61.8488 316.494 61.8488 315.588C60.9635 315.588 60.1399 315.588 59.3782 315.588C58.6164 315.588 57.7929 315.588 56.9076 315.588C56.9076 316.494 56.9076 317.318 56.9076 318.059C56.9076 318.8 56.9076 319.624 56.9076 320.529ZM56.9076 320.529C57.7929 320.529 58.6164 320.529 59.3782 320.529C60.1399 320.529 60.9635 320.529 61.8488 320.529C61.8488 319.624 61.8488 318.8 61.8488 318.059C61.8488 317.318 61.8488 316.494 61.8488 315.588C60.9635 315.588 60.1399 315.588 59.3782 315.588C58.6164 315.588 57.7929 315.588 56.9076 315.588C56.9076 316.494 56.9076 317.318 56.9076 318.059C56.9076 318.8 56.9076 319.624 56.9076 320.529ZM56.9076 320.529C57.7929 320.529 58.6164 320.529 59.3782 320.529C60.1399 320.529 60.9635 320.529 61.8488 320.529C61.8488 319.624 61.8488 318.8 61.8488 318.059C61.8488 317.318 61.8488 316.494 61.8488 315.588C60.9635 315.588 60.1399 315.588 59.3782 315.588C58.6164 315.588 57.7929 315.588 56.9076 315.588C56.9076 316.494 56.9076 317.318 56.9076 318.059C56.9076 318.8 56.9076 319.624 56.9076 320.529ZM56.9076 320.529C57.7929 320.529 58.6164 320.529 59.3782 320.529C60.1399 320.529 60.9635 320.529 61.8488 320.529C61.8488 319.624 61.8488 318.8 61.8488 318.059C61.8488 317.318 61.8488 316.494 61.8488 315.588C60.9635 315.588 60.1399 315.588 59.3782 315.588C58.6164 315.588 57.7929 315.588 56.9076 315.588C56.9076 316.494 56.9076 317.318 56.9076 318.059C56.9076 318.8 56.9076 319.624 56.9076 320.529ZM42.0841 315.588C42.9693 315.588 43.7929 315.588 44.5546 315.588C45.3164 315.588 46.1399 315.588 47.0252 315.588C47.0252 314.682 47.0252 313.859 47.0252 313.118C47.0252 312.376 47.0252 311.553 47.0252 310.647C46.1399 310.647 45.3164 310.647 44.5546 310.647C43.7929 310.647 42.9693 310.647 42.0841 310.647C42.0841 311.553 42.0841 312.376 42.0841 313.118C42.0841 313.859 42.0841 314.682 42.0841 315.588ZM42.0841 315.588C42.9693 315.588 43.7929 315.588 44.5546 315.588C45.3164 315.588 46.1399 315.588 47.0252 315.588C47.0252 314.682 47.0252 313.859 47.0252 313.118C47.0252 312.376 47.0252 311.553 47.0252 310.647C46.1399 310.647 45.3164 310.647 44.5546 310.647C43.7929 310.647 42.9693 310.647 42.0841 310.647C42.0841 311.553 42.0841 312.376 42.0841 313.118C42.0841 313.859 42.0841 314.682 42.0841 315.588ZM42.0841 315.588C42.9693 315.588 43.7929 315.588 44.5546 315.588C45.3164 315.588 46.1399 315.588 47.0252 315.588C47.0252 314.682 47.0252 313.859 47.0252 313.118C47.0252 312.376 47.0252 311.553 47.0252 310.647C46.1399 310.647 45.3164 310.647 44.5546 310.647C43.7929 310.647 42.9693 310.647 42.0841 310.647C42.0841 311.553 42.0841 312.376 42.0841 313.118C42.0841 313.859 42.0841 314.682 42.0841 315.588ZM42.0841 315.588C42.9693 315.588 43.7929 315.588 44.5546 315.588C45.3164 315.588 46.1399 315.588 47.0252 315.588C47.0252 314.682 47.0252 313.859 47.0252 313.118C47.0252 312.376 47.0252 311.553 47.0252 310.647C46.1399 310.647 45.3164 310.647 44.5546 310.647C43.7929 310.647 42.9693 310.647 42.0841 310.647C42.0841 311.553 42.0841 312.376 42.0841 313.118C42.0841 313.859 42.0841 314.682 42.0841 315.588ZM42.0841 315.588C42.9693 315.588 43.7929 315.588 44.5546 315.588C45.3164 315.588 46.1399 315.588 47.0252 315.588C47.0252 314.682 47.0252 313.859 47.0252 313.118C47.0252 312.376 47.0252 311.553 47.0252 310.647C46.1399 310.647 45.3164 310.647 44.5546 310.647C43.7929 310.647 42.9693 310.647 42.0841 310.647C42.0841 311.553 42.0841 312.376 42.0841 313.118C42.0841 313.859 42.0841 314.682 42.0841 315.588ZM42.0841 315.588C42.9693 315.588 43.7929 315.588 44.5546 315.588C45.3164 315.588 46.1399 315.588 47.0252 315.588C47.0252 314.682 47.0252 313.859 47.0252 313.118C47.0252 312.376 47.0252 311.553 47.0252 310.647C46.1399 310.647 45.3164 310.647 44.5546 310.647C43.7929 310.647 42.9693 310.647 42.0841 310.647C42.0841 311.553 42.0841 312.376 42.0841 313.118C42.0841 313.859 42.0841 314.682 42.0841 315.588ZM42.0841 315.588C42.9693 315.588 43.7929 315.588 44.5546 315.588C45.3164 315.588 46.1399 315.588 47.0252 315.588C47.0252 314.682 47.0252 313.859 47.0252 313.118C47.0252 312.376 47.0252 311.553 47.0252 310.647C46.1399 310.647 45.3164 310.647 44.5546 310.647C43.7929 310.647 42.9693 310.647 42.0841 310.647C42.0841 311.553 42.0841 312.376 42.0841 313.118C42.0841 313.859 42.0841 314.682 42.0841 315.588ZM42.0841 315.588C42.9693 315.588 43.7929 315.588 44.5546 315.588C45.3164 315.588 46.1399 315.588 47.0252 315.588C47.0252 314.682 47.0252 313.859 47.0252 313.118C47.0252 312.376 47.0252 311.553 47.0252 310.647C46.1399 310.647 45.3164 310.647 44.5546 310.647C43.7929 310.647 42.9693 310.647 42.0841 310.647C42.0841 311.553 42.0841 312.376 42.0841 313.118C42.0841 313.859 42.0841 314.682 42.0841 315.588ZM42.0841 315.588C42.9693 315.588 43.7929 315.588 44.5546 315.588C45.3164 315.588 46.1399 315.588 47.0252 315.588C47.0252 314.682 47.0252 313.859 47.0252 313.118C47.0252 312.376 47.0252 311.553 47.0252 310.647C46.1399 310.647 45.3164 310.647 44.5546 310.647C43.7929 310.647 42.9693 310.647 42.0841 310.647C42.0841 311.553 42.0841 312.376 42.0841 313.118C42.0841 313.859 42.0841 314.682 42.0841 315.588ZM47.0252 315.588C47.9105 315.588 48.7341 315.588 49.4958 315.588C50.2576 315.588 51.0811 315.588 51.9664 315.588C51.9664 314.682 51.9664 313.859 51.9664 313.118C51.9664 312.376 51.9664 311.553 51.9664 310.647C51.0811 310.647 50.2576 310.647 49.4958 310.647C48.7341 310.647 47.9105 310.647 47.0252 310.647C47.0252 311.553 47.0252 312.376 47.0252 313.118C47.0252 313.859 47.0252 314.682 47.0252 315.588ZM47.0252 315.588C47.9105 315.588 48.7341 315.588 49.4958 315.588C50.2576 315.588 51.0811 315.588 51.9664 315.588C51.9664 314.682 51.9664 313.859 51.9664 313.118C51.9664 312.376 51.9664 311.553 51.9664 310.647C51.0811 310.647 50.2576 310.647 49.4958 310.647C48.7341 310.647 47.9105 310.647 47.0252 310.647C47.0252 311.553 47.0252 312.376 47.0252 313.118C47.0252 313.859 47.0252 314.682 47.0252 315.588ZM47.0252 315.588C47.9105 315.588 48.7341 315.588 49.4958 315.588C50.2576 315.588 51.0811 315.588 51.9664 315.588C51.9664 314.682 51.9664 313.859 51.9664 313.118C51.9664 312.376 51.9664 311.553 51.9664 310.647C51.0811 310.647 50.2576 310.647 49.4958 310.647C48.7341 310.647 47.9105 310.647 47.0252 310.647C47.0252 311.553 47.0252 312.376 47.0252 313.118C47.0252 313.859 47.0252 314.682 47.0252 315.588ZM47.0252 315.588C47.9105 315.588 48.7341 315.588 49.4958 315.588C50.2576 315.588 51.0811 315.588 51.9664 315.588C51.9664 314.682 51.9664 313.859 51.9664 313.118C51.9664 312.376 51.9664 311.553 51.9664 310.647C51.0811 310.647 50.2576 310.647 49.4958 310.647C48.7341 310.647 47.9105 310.647 47.0252 310.647C47.0252 311.553 47.0252 312.376 47.0252 313.118C47.0252 313.859 47.0252 314.682 47.0252 315.588ZM47.0252 315.588C47.9105 315.588 48.7341 315.588 49.4958 315.588C50.2576 315.588 51.0811 315.588 51.9664 315.588C51.9664 314.682 51.9664 313.859 51.9664 313.118C51.9664 312.376 51.9664 311.553 51.9664 310.647C51.0811 310.647 50.2576 310.647 49.4958 310.647C48.7341 310.647 47.9105 310.647 47.0252 310.647C47.0252 311.553 47.0252 312.376 47.0252 313.118C47.0252 313.859 47.0252 314.682 47.0252 315.588ZM47.0252 315.588C47.9105 315.588 48.7341 315.588 49.4958 315.588C50.2576 315.588 51.0811 315.588 51.9664 315.588C51.9664 314.682 51.9664 313.859 51.9664 313.118C51.9664 312.376 51.9664 311.553 51.9664 310.647C51.0811 310.647 50.2576 310.647 49.4958 310.647C48.7341 310.647 47.9105 310.647 47.0252 310.647C47.0252 311.553 47.0252 312.376 47.0252 313.118C47.0252 313.859 47.0252 314.682 47.0252 315.588ZM47.0252 315.588C47.9105 315.588 48.7341 315.588 49.4958 315.588C50.2576 315.588 51.0811 315.588 51.9664 315.588C51.9664 314.682 51.9664 313.859 51.9664 313.118C51.9664 312.376 51.9664 311.553 51.9664 310.647C51.0811 310.647 50.2576 310.647 49.4958 310.647C48.7341 310.647 47.9105 310.647 47.0252 310.647C47.0252 311.553 47.0252 312.376 47.0252 313.118C47.0252 313.859 47.0252 314.682 47.0252 315.588ZM47.0252 315.588C47.9105 315.588 48.7341 315.588 49.4958 315.588C50.2576 315.588 51.0811 315.588 51.9664 315.588C51.9664 314.682 51.9664 313.859 51.9664 313.118C51.9664 312.376 51.9664 311.553 51.9664 310.647C51.0811 310.647 50.2576 310.647 49.4958 310.647C48.7341 310.647 47.9105 310.647 47.0252 310.647C47.0252 311.553 47.0252 312.376 47.0252 313.118C47.0252 313.859 47.0252 314.682 47.0252 315.588ZM47.0252 315.588C47.9105 315.588 48.7341 315.588 49.4958 315.588C50.2576 315.588 51.0811 315.588 51.9664 315.588C51.9664 314.682 51.9664 313.859 51.9664 313.118C51.9664 312.376 51.9664 311.553 51.9664 310.647C51.0811 310.647 50.2576 310.647 49.4958 310.647C48.7341 310.647 47.9105 310.647 47.0252 310.647C47.0252 311.553 47.0252 312.376 47.0252 313.118C47.0252 313.859 47.0252 314.682 47.0252 315.588ZM51.9664 315.588C52.8517 315.588 53.6752 315.588 54.437 315.588C55.1988 315.588 56.0223 315.588 56.9076 315.588C56.9076 314.682 56.9076 313.859 56.9076 313.118C56.9076 312.376 56.9076 311.553 56.9076 310.647C56.0223 310.647 55.1988 310.647 54.437 310.647C53.6752 310.647 52.8517 310.647 51.9664 310.647C51.9664 311.553 51.9664 312.376 51.9664 313.118C51.9664 313.859 51.9664 314.682 51.9664 315.588ZM51.9664 315.588C52.8517 315.588 53.6752 315.588 54.437 315.588C55.1988 315.588 56.0223 315.588 56.9076 315.588C56.9076 314.682 56.9076 313.859 56.9076 313.118C56.9076 312.376 56.9076 311.553 56.9076 310.647C56.0223 310.647 55.1988 310.647 54.437 310.647C53.6752 310.647 52.8517 310.647 51.9664 310.647C51.9664 311.553 51.9664 312.376 51.9664 313.118C51.9664 313.859 51.9664 314.682 51.9664 315.588ZM51.9664 315.588C52.8517 315.588 53.6752 315.588 54.437 315.588C55.1988 315.588 56.0223 315.588 56.9076 315.588C56.9076 314.682 56.9076 313.859 56.9076 313.118C56.9076 312.376 56.9076 311.553 56.9076 310.647C56.0223 310.647 55.1988 310.647 54.437 310.647C53.6752 310.647 52.8517 310.647 51.9664 310.647C51.9664 311.553 51.9664 312.376 51.9664 313.118C51.9664 313.859 51.9664 314.682 51.9664 315.588ZM51.9664 315.588C52.8517 315.588 53.6752 315.588 54.437 315.588C55.1988 315.588 56.0223 315.588 56.9076 315.588C56.9076 314.682 56.9076 313.859 56.9076 313.118C56.9076 312.376 56.9076 311.553 56.9076 310.647C56.0223 310.647 55.1988 310.647 54.437 310.647C53.6752 310.647 52.8517 310.647 51.9664 310.647C51.9664 311.553 51.9664 312.376 51.9664 313.118C51.9664 313.859 51.9664 314.682 51.9664 315.588ZM51.9664 315.588C52.8517 315.588 53.6752 315.588 54.437 315.588C55.1988 315.588 56.0223 315.588 56.9076 315.588C56.9076 314.682 56.9076 313.859 56.9076 313.118C56.9076 312.376 56.9076 311.553 56.9076 310.647C56.0223 310.647 55.1988 310.647 54.437 310.647C53.6752 310.647 52.8517 310.647 51.9664 310.647C51.9664 311.553 51.9664 312.376 51.9664 313.118C51.9664 313.859 51.9664 314.682 51.9664 315.588ZM51.9664 315.588C52.8517 315.588 53.6752 315.588 54.437 315.588C55.1988 315.588 56.0223 315.588 56.9076 315.588C56.9076 314.682 56.9076 313.859 56.9076 313.118C56.9076 312.376 56.9076 311.553 56.9076 310.647C56.0223 310.647 55.1988 310.647 54.437 310.647C53.6752 310.647 52.8517 310.647 51.9664 310.647C51.9664 311.553 51.9664 312.376 51.9664 313.118C51.9664 313.859 51.9664 314.682 51.9664 315.588ZM51.9664 315.588C52.8517 315.588 53.6752 315.588 54.437 315.588C55.1988 315.588 56.0223 315.588 56.9076 315.588C56.9076 314.682 56.9076 313.859 56.9076 313.118C56.9076 312.376 56.9076 311.553 56.9076 310.647C56.0223 310.647 55.1988 310.647 54.437 310.647C53.6752 310.647 52.8517 310.647 51.9664 310.647C51.9664 311.553 51.9664 312.376 51.9664 313.118C51.9664 313.859 51.9664 314.682 51.9664 315.588ZM51.9664 315.588C52.8517 315.588 53.6752 315.588 54.437 315.588C55.1988 315.588 56.0223 315.588 56.9076 315.588C56.9076 314.682 56.9076 313.859 56.9076 313.118C56.9076 312.376 56.9076 311.553 56.9076 310.647C56.0223 310.647 55.1988 310.647 54.437 310.647C53.6752 310.647 52.8517 310.647 51.9664 310.647C51.9664 311.553 51.9664 312.376 51.9664 313.118C51.9664 313.859 51.9664 314.682 51.9664 315.588ZM51.9664 315.588C52.8517 315.588 53.6752 315.588 54.437 315.588C55.1988 315.588 56.0223 315.588 56.9076 315.588C56.9076 314.682 56.9076 313.859 56.9076 313.118C56.9076 312.376 56.9076 311.553 56.9076 310.647C56.0223 310.647 55.1988 310.647 54.437 310.647C53.6752 310.647 52.8517 310.647 51.9664 310.647C51.9664 311.553 51.9664 312.376 51.9664 313.118C51.9664 313.859 51.9664 314.682 51.9664 315.588Z" fill="#343434"/>
<path d="M121 187L160 186.5L161 229H121V187Z" fill="#050505"/>
<path d="M173 70L184.5 74L205.5 104L167 229L150.5 94L173 70Z" fill="#151515"/>
<path d="M126.879 122L155 151.5V341.5L148.879 344.5L126.879 122Z" fill="#F5F5F5"/>
<path d="M99 268L121 187L175 257.5L160 394H70L99 268Z" fill="#2F2F2F"/>
<path d="M142.5 271L160 186.5L215 394H125L142.5 271Z" fill="#2F2F2F"/>
<path d="M115.5 82L199.5 85.5L165.5 169L120.5 153.5L115.5 82Z" fill="#F5F5F5"/>
<path d="M130.5 67L173 75L161 91L124.5 226L108 91L130.5 67Z" fill="#151515"/>
<path d="M157.5 80L173.5 70.5L200.5 78.5L218.5 153.5L183.5 105L146.5 108.5L157.5 80Z" fill="#151515"/>
<path d="M162.5 85H164V161L161 109L162.5 85Z" fill="#151515"/>
<path d="M199.5 87H201V163L198 111L199.5 87Z" fill="#151515"/>
<path d="M31.5 31.5L98.5 26.5L126 49.5L45.5 109.5L31.5 31.5Z" fill="white"/>
</svg>
