<svg width="300" height="400" viewBox="0 0 300 400" fill="none" xmlns="http://www.w3.org/2000/svg">
<rect x="5" y="5" width="290" height="390" rx="25" fill="#EFC1C1" stroke="#783838" stroke-width="10"/>
<path d="M77 145L160 123L96.5 247.5L82.5 145H77Z" fill="#2D1E1E"/>
<path d="M109 145L167 123.5L156 252L109 205V145Z" fill="#2D1E1E"/>
<path d="M107.5 216H139.5L141 272H108L107.5 216Z" fill="#461212"/>
<path d="M100 154.5L129.5 169.5L140.5 329.5L126 282L100 154.5Z" fill="#FFEBEB"/>
<path d="M107.5 216L127 267.5L158 390H70L107.5 216Z" fill="#742525"/>
<path d="M139.5 216L159 267.5L190 390H102L139.5 216Z" fill="#742525"/>
<path d="M82 119L154 126L139 205L98 175.5L82 119Z" fill="#FFEBEB"/>
<path d="M71.5 111.5L130 106L113.5 248.5L85.5 195.5L71.5 111.5Z" fill="#2D1E1E"/>
<path d="M140.5 101.5L171 115V152L119.5 107.5L140.5 101.5Z" fill="#2D1E1E"/>
<path d="M114 110H159V125L132.5 140.5L114 125V110Z" fill="#2D1E1E"/>
<path d="M82 113L117 92L136 106.5V110L109.5 125.5L91 110L82 113Z" fill="#2D1E1E"/>
<path d="M130.5 286.5L220.5 263.5L287 292L252.5 390H174.5L130.5 286.5Z" fill="#D25E5E"/>
<path d="M159.5 292.5H176.5L163.5 296L159.5 305.5V292.5Z" fill="#421A1A"/>
<path d="M219.658 278.988L227.799 296.156L217.681 284.874L205.201 285.844L219.658 278.988Z" fill="#421A1A"/>
<path d="M273.588 297.388L271.94 316.316L268.909 301.468L257.648 296L273.588 297.388Z" fill="#421A1A"/>
<path d="M36.1429 367C37.0282 367 37.8517 367 38.6135 367C39.3752 367 40.1988 367 41.0841 367C41.0841 366.094 41.0841 365.271 41.0841 364.529C41.0841 363.788 41.0841 362.965 41.0841 362.059C40.1988 362.059 39.3752 362.059 38.6135 362.059C37.8517 362.059 37.0282 362.059 36.1429 362.059C36.1429 362.965 36.1429 363.788 36.1429 364.529C36.1429 365.271 36.1429 366.094 36.1429 367ZM36.1429 367C37.0282 367 37.8517 367 38.6135 367C39.3752 367 40.1988 367 41.0841 367C41.0841 366.094 41.0841 365.271 41.0841 364.529C41.0841 363.788 41.0841 362.965 41.0841 362.059C40.1988 362.059 39.3752 362.059 38.6135 362.059C37.8517 362.059 37.0282 362.059 36.1429 362.059C36.1429 362.965 36.1429 363.788 36.1429 364.529C36.1429 365.271 36.1429 366.094 36.1429 367ZM36.1429 367C37.0282 367 37.8517 367 38.6135 367C39.3752 367 40.1988 367 41.0841 367C41.0841 366.094 41.0841 365.271 41.0841 364.529C41.0841 363.788 41.0841 362.965 41.0841 362.059C40.1988 362.059 39.3752 362.059 38.6135 362.059C37.8517 362.059 37.0282 362.059 36.1429 362.059C36.1429 362.965 36.1429 363.788 36.1429 364.529C36.1429 365.271 36.1429 366.094 36.1429 367ZM36.1429 367C37.0282 367 37.8517 367 38.6135 367C39.3752 367 40.1988 367 41.0841 367C41.0841 366.094 41.0841 365.271 41.0841 364.529C41.0841 363.788 41.0841 362.965 41.0841 362.059C40.1988 362.059 39.3752 362.059 38.6135 362.059C37.8517 362.059 37.0282 362.059 36.1429 362.059C36.1429 362.965 36.1429 363.788 36.1429 364.529C36.1429 365.271 36.1429 366.094 36.1429 367ZM36.1429 367C37.0282 367 37.8517 367 38.6135 367C39.3752 367 40.1988 367 41.0841 367C41.0841 366.094 41.0841 365.271 41.0841 364.529C41.0841 363.788 41.0841 362.965 41.0841 362.059C40.1988 362.059 39.3752 362.059 38.6135 362.059C37.8517 362.059 37.0282 362.059 36.1429 362.059C36.1429 362.965 36.1429 363.788 36.1429 364.529C36.1429 365.271 36.1429 366.094 36.1429 367ZM36.1429 367C37.0282 367 37.8517 367 38.6135 367C39.3752 367 40.1988 367 41.0841 367C41.0841 366.094 41.0841 365.271 41.0841 364.529C41.0841 363.788 41.0841 362.965 41.0841 362.059C40.1988 362.059 39.3752 362.059 38.6135 362.059C37.8517 362.059 37.0282 362.059 36.1429 362.059C36.1429 362.965 36.1429 363.788 36.1429 364.529C36.1429 365.271 36.1429 366.094 36.1429 367ZM36.1429 367C37.0282 367 37.8517 367 38.6135 367C39.3752 367 40.1988 367 41.0841 367C41.0841 366.094 41.0841 365.271 41.0841 364.529C41.0841 363.788 41.0841 362.965 41.0841 362.059C40.1988 362.059 39.3752 362.059 38.6135 362.059C37.8517 362.059 37.0282 362.059 36.1429 362.059C36.1429 362.965 36.1429 363.788 36.1429 364.529C36.1429 365.271 36.1429 366.094 36.1429 367ZM36.1429 367C37.0282 367 37.8517 367 38.6135 367C39.3752 367 40.1988 367 41.0841 367C41.0841 366.094 41.0841 365.271 41.0841 364.529C41.0841 363.788 41.0841 362.965 41.0841 362.059C40.1988 362.059 39.3752 362.059 38.6135 362.059C37.8517 362.059 37.0282 362.059 36.1429 362.059C36.1429 362.965 36.1429 363.788 36.1429 364.529C36.1429 365.271 36.1429 366.094 36.1429 367ZM36.1429 367C37.0282 367 37.8517 367 38.6135 367C39.3752 367 40.1988 367 41.0841 367C41.0841 366.094 41.0841 365.271 41.0841 364.529C41.0841 363.788 41.0841 362.965 41.0841 362.059C40.1988 362.059 39.3752 362.059 38.6135 362.059C37.8517 362.059 37.0282 362.059 36.1429 362.059C36.1429 362.965 36.1429 363.788 36.1429 364.529C36.1429 365.271 36.1429 366.094 36.1429 367ZM41.0841 367C41.9693 367 42.7929 367 43.5546 367C44.3164 367 45.1399 367 46.0252 367C46.0252 366.094 46.0252 365.271 46.0252 364.529C46.0252 363.788 46.0252 362.965 46.0252 362.059C45.1399 362.059 44.3164 362.059 43.5546 362.059C42.7929 362.059 41.9693 362.059 41.0841 362.059C41.0841 362.965 41.0841 363.788 41.0841 364.529C41.0841 365.271 41.0841 366.094 41.0841 367ZM41.0841 367C41.9693 367 42.7929 367 43.5546 367C44.3164 367 45.1399 367 46.0252 367C46.0252 366.094 46.0252 365.271 46.0252 364.529C46.0252 363.788 46.0252 362.965 46.0252 362.059C45.1399 362.059 44.3164 362.059 43.5546 362.059C42.7929 362.059 41.9693 362.059 41.0841 362.059C41.0841 362.965 41.0841 363.788 41.0841 364.529C41.0841 365.271 41.0841 366.094 41.0841 367ZM41.0841 367C41.9693 367 42.7929 367 43.5546 367C44.3164 367 45.1399 367 46.0252 367C46.0252 366.094 46.0252 365.271 46.0252 364.529C46.0252 363.788 46.0252 362.965 46.0252 362.059C45.1399 362.059 44.3164 362.059 43.5546 362.059C42.7929 362.059 41.9693 362.059 41.0841 362.059C41.0841 362.965 41.0841 363.788 41.0841 364.529C41.0841 365.271 41.0841 366.094 41.0841 367ZM41.0841 367C41.9693 367 42.7929 367 43.5546 367C44.3164 367 45.1399 367 46.0252 367C46.0252 366.094 46.0252 365.271 46.0252 364.529C46.0252 363.788 46.0252 362.965 46.0252 362.059C45.1399 362.059 44.3164 362.059 43.5546 362.059C42.7929 362.059 41.9693 362.059 41.0841 362.059C41.0841 362.965 41.0841 363.788 41.0841 364.529C41.0841 365.271 41.0841 366.094 41.0841 367ZM41.0841 367C41.9693 367 42.7929 367 43.5546 367C44.3164 367 45.1399 367 46.0252 367C46.0252 366.094 46.0252 365.271 46.0252 364.529C46.0252 363.788 46.0252 362.965 46.0252 362.059C45.1399 362.059 44.3164 362.059 43.5546 362.059C42.7929 362.059 41.9693 362.059 41.0841 362.059C41.0841 362.965 41.0841 363.788 41.0841 364.529C41.0841 365.271 41.0841 366.094 41.0841 367ZM41.0841 367C41.9693 367 42.7929 367 43.5546 367C44.3164 367 45.1399 367 46.0252 367C46.0252 366.094 46.0252 365.271 46.0252 364.529C46.0252 363.788 46.0252 362.965 46.0252 362.059C45.1399 362.059 44.3164 362.059 43.5546 362.059C42.7929 362.059 41.9693 362.059 41.0841 362.059C41.0841 362.965 41.0841 363.788 41.0841 364.529C41.0841 365.271 41.0841 366.094 41.0841 367ZM41.0841 367C41.9693 367 42.7929 367 43.5546 367C44.3164 367 45.1399 367 46.0252 367C46.0252 366.094 46.0252 365.271 46.0252 364.529C46.0252 363.788 46.0252 362.965 46.0252 362.059C45.1399 362.059 44.3164 362.059 43.5546 362.059C42.7929 362.059 41.9693 362.059 41.0841 362.059C41.0841 362.965 41.0841 363.788 41.0841 364.529C41.0841 365.271 41.0841 366.094 41.0841 367ZM41.0841 367C41.9693 367 42.7929 367 43.5546 367C44.3164 367 45.1399 367 46.0252 367C46.0252 366.094 46.0252 365.271 46.0252 364.529C46.0252 363.788 46.0252 362.965 46.0252 362.059C45.1399 362.059 44.3164 362.059 43.5546 362.059C42.7929 362.059 41.9693 362.059 41.0841 362.059C41.0841 362.965 41.0841 363.788 41.0841 364.529C41.0841 365.271 41.0841 366.094 41.0841 367ZM41.0841 367C41.9693 367 42.7929 367 43.5546 367C44.3164 367 45.1399 367 46.0252 367C46.0252 366.094 46.0252 365.271 46.0252 364.529C46.0252 363.788 46.0252 362.965 46.0252 362.059C45.1399 362.059 44.3164 362.059 43.5546 362.059C42.7929 362.059 41.9693 362.059 41.0841 362.059C41.0841 362.965 41.0841 363.788 41.0841 364.529C41.0841 365.271 41.0841 366.094 41.0841 367ZM46.0252 367C46.9105 367 47.7341 367 48.4958 367C49.2576 367 50.0811 367 50.9664 367C50.9664 366.094 50.9664 365.271 50.9664 364.529C50.9664 363.788 50.9664 362.965 50.9664 362.059C50.0811 362.059 49.2576 362.059 48.4958 362.059C47.7341 362.059 46.9105 362.059 46.0252 362.059C46.0252 362.965 46.0252 363.788 46.0252 364.529C46.0252 365.271 46.0252 366.094 46.0252 367ZM46.0252 367C46.9105 367 47.7341 367 48.4958 367C49.2576 367 50.0811 367 50.9664 367C50.9664 366.094 50.9664 365.271 50.9664 364.529C50.9664 363.788 50.9664 362.965 50.9664 362.059C50.0811 362.059 49.2576 362.059 48.4958 362.059C47.7341 362.059 46.9105 362.059 46.0252 362.059C46.0252 362.965 46.0252 363.788 46.0252 364.529C46.0252 365.271 46.0252 366.094 46.0252 367ZM46.0252 367C46.9105 367 47.7341 367 48.4958 367C49.2576 367 50.0811 367 50.9664 367C50.9664 366.094 50.9664 365.271 50.9664 364.529C50.9664 363.788 50.9664 362.965 50.9664 362.059C50.0811 362.059 49.2576 362.059 48.4958 362.059C47.7341 362.059 46.9105 362.059 46.0252 362.059C46.0252 362.965 46.0252 363.788 46.0252 364.529C46.0252 365.271 46.0252 366.094 46.0252 367ZM46.0252 367C46.9105 367 47.7341 367 48.4958 367C49.2576 367 50.0811 367 50.9664 367C50.9664 366.094 50.9664 365.271 50.9664 364.529C50.9664 363.788 50.9664 362.965 50.9664 362.059C50.0811 362.059 49.2576 362.059 48.4958 362.059C47.7341 362.059 46.9105 362.059 46.0252 362.059C46.0252 362.965 46.0252 363.788 46.0252 364.529C46.0252 365.271 46.0252 366.094 46.0252 367ZM46.0252 367C46.9105 367 47.7341 367 48.4958 367C49.2576 367 50.0811 367 50.9664 367C50.9664 366.094 50.9664 365.271 50.9664 364.529C50.9664 363.788 50.9664 362.965 50.9664 362.059C50.0811 362.059 49.2576 362.059 48.4958 362.059C47.7341 362.059 46.9105 362.059 46.0252 362.059C46.0252 362.965 46.0252 363.788 46.0252 364.529C46.0252 365.271 46.0252 366.094 46.0252 367ZM46.0252 367C46.9105 367 47.7341 367 48.4958 367C49.2576 367 50.0811 367 50.9664 367C50.9664 366.094 50.9664 365.271 50.9664 364.529C50.9664 363.788 50.9664 362.965 50.9664 362.059C50.0811 362.059 49.2576 362.059 48.4958 362.059C47.7341 362.059 46.9105 362.059 46.0252 362.059C46.0252 362.965 46.0252 363.788 46.0252 364.529C46.0252 365.271 46.0252 366.094 46.0252 367ZM46.0252 367C46.9105 367 47.7341 367 48.4958 367C49.2576 367 50.0811 367 50.9664 367C50.9664 366.094 50.9664 365.271 50.9664 364.529C50.9664 363.788 50.9664 362.965 50.9664 362.059C50.0811 362.059 49.2576 362.059 48.4958 362.059C47.7341 362.059 46.9105 362.059 46.0252 362.059C46.0252 362.965 46.0252 363.788 46.0252 364.529C46.0252 365.271 46.0252 366.094 46.0252 367ZM46.0252 367C46.9105 367 47.7341 367 48.4958 367C49.2576 367 50.0811 367 50.9664 367C50.9664 366.094 50.9664 365.271 50.9664 364.529C50.9664 363.788 50.9664 362.965 50.9664 362.059C50.0811 362.059 49.2576 362.059 48.4958 362.059C47.7341 362.059 46.9105 362.059 46.0252 362.059C46.0252 362.965 46.0252 363.788 46.0252 364.529C46.0252 365.271 46.0252 366.094 46.0252 367ZM46.0252 367C46.9105 367 47.7341 367 48.4958 367C49.2576 367 50.0811 367 50.9664 367C50.9664 366.094 50.9664 365.271 50.9664 364.529C50.9664 363.788 50.9664 362.965 50.9664 362.059C50.0811 362.059 49.2576 362.059 48.4958 362.059C47.7341 362.059 46.9105 362.059 46.0252 362.059C46.0252 362.965 46.0252 363.788 46.0252 364.529C46.0252 365.271 46.0252 366.094 46.0252 367ZM50.9664 367C51.8517 367 52.6752 367 53.437 367C54.1988 367 55.0223 367 55.9076 367C55.9076 366.094 55.9076 365.271 55.9076 364.529C55.9076 363.788 55.9076 362.965 55.9076 362.059C55.0223 362.059 54.1988 362.059 53.437 362.059C52.6752 362.059 51.8517 362.059 50.9664 362.059C50.9664 362.965 50.9664 363.788 50.9664 364.529C50.9664 365.271 50.9664 366.094 50.9664 367ZM50.9664 367C51.8517 367 52.6752 367 53.437 367C54.1988 367 55.0223 367 55.9076 367C55.9076 366.094 55.9076 365.271 55.9076 364.529C55.9076 363.788 55.9076 362.965 55.9076 362.059C55.0223 362.059 54.1988 362.059 53.437 362.059C52.6752 362.059 51.8517 362.059 50.9664 362.059C50.9664 362.965 50.9664 363.788 50.9664 364.529C50.9664 365.271 50.9664 366.094 50.9664 367ZM50.9664 367C51.8517 367 52.6752 367 53.437 367C54.1988 367 55.0223 367 55.9076 367C55.9076 366.094 55.9076 365.271 55.9076 364.529C55.9076 363.788 55.9076 362.965 55.9076 362.059C55.0223 362.059 54.1988 362.059 53.437 362.059C52.6752 362.059 51.8517 362.059 50.9664 362.059C50.9664 362.965 50.9664 363.788 50.9664 364.529C50.9664 365.271 50.9664 366.094 50.9664 367ZM50.9664 367C51.8517 367 52.6752 367 53.437 367C54.1988 367 55.0223 367 55.9076 367C55.9076 366.094 55.9076 365.271 55.9076 364.529C55.9076 363.788 55.9076 362.965 55.9076 362.059C55.0223 362.059 54.1988 362.059 53.437 362.059C52.6752 362.059 51.8517 362.059 50.9664 362.059C50.9664 362.965 50.9664 363.788 50.9664 364.529C50.9664 365.271 50.9664 366.094 50.9664 367ZM50.9664 367C51.8517 367 52.6752 367 53.437 367C54.1988 367 55.0223 367 55.9076 367C55.9076 366.094 55.9076 365.271 55.9076 364.529C55.9076 363.788 55.9076 362.965 55.9076 362.059C55.0223 362.059 54.1988 362.059 53.437 362.059C52.6752 362.059 51.8517 362.059 50.9664 362.059C50.9664 362.965 50.9664 363.788 50.9664 364.529C50.9664 365.271 50.9664 366.094 50.9664 367ZM50.9664 367C51.8517 367 52.6752 367 53.437 367C54.1988 367 55.0223 367 55.9076 367C55.9076 366.094 55.9076 365.271 55.9076 364.529C55.9076 363.788 55.9076 362.965 55.9076 362.059C55.0223 362.059 54.1988 362.059 53.437 362.059C52.6752 362.059 51.8517 362.059 50.9664 362.059C50.9664 362.965 50.9664 363.788 50.9664 364.529C50.9664 365.271 50.9664 366.094 50.9664 367ZM50.9664 367C51.8517 367 52.6752 367 53.437 367C54.1988 367 55.0223 367 55.9076 367C55.9076 366.094 55.9076 365.271 55.9076 364.529C55.9076 363.788 55.9076 362.965 55.9076 362.059C55.0223 362.059 54.1988 362.059 53.437 362.059C52.6752 362.059 51.8517 362.059 50.9664 362.059C50.9664 362.965 50.9664 363.788 50.9664 364.529C50.9664 365.271 50.9664 366.094 50.9664 367ZM50.9664 367C51.8517 367 52.6752 367 53.437 367C54.1988 367 55.0223 367 55.9076 367C55.9076 366.094 55.9076 365.271 55.9076 364.529C55.9076 363.788 55.9076 362.965 55.9076 362.059C55.0223 362.059 54.1988 362.059 53.437 362.059C52.6752 362.059 51.8517 362.059 50.9664 362.059C50.9664 362.965 50.9664 363.788 50.9664 364.529C50.9664 365.271 50.9664 366.094 50.9664 367ZM50.9664 367C51.8517 367 52.6752 367 53.437 367C54.1988 367 55.0223 367 55.9076 367C55.9076 366.094 55.9076 365.271 55.9076 364.529C55.9076 363.788 55.9076 362.965 55.9076 362.059C55.0223 362.059 54.1988 362.059 53.437 362.059C52.6752 362.059 51.8517 362.059 50.9664 362.059C50.9664 362.965 50.9664 363.788 50.9664 364.529C50.9664 365.271 50.9664 366.094 50.9664 367ZM55.9076 367C56.7929 367 57.6164 367 58.3782 367C59.1399 367 59.9635 367 60.8488 367C60.8488 366.094 60.8488 365.271 60.8488 364.529C60.8488 363.788 60.8488 362.965 60.8488 362.059C59.9635 362.059 59.1399 362.059 58.3782 362.059C57.6164 362.059 56.7929 362.059 55.9076 362.059C55.9076 362.965 55.9076 363.788 55.9076 364.529C55.9076 365.271 55.9076 366.094 55.9076 367ZM55.9076 367C56.7929 367 57.6164 367 58.3782 367C59.1399 367 59.9635 367 60.8488 367C60.8488 366.094 60.8488 365.271 60.8488 364.529C60.8488 363.788 60.8488 362.965 60.8488 362.059C59.9635 362.059 59.1399 362.059 58.3782 362.059C57.6164 362.059 56.7929 362.059 55.9076 362.059C55.9076 362.965 55.9076 363.788 55.9076 364.529C55.9076 365.271 55.9076 366.094 55.9076 367ZM55.9076 367C56.7929 367 57.6164 367 58.3782 367C59.1399 367 59.9635 367 60.8488 367C60.8488 366.094 60.8488 365.271 60.8488 364.529C60.8488 363.788 60.8488 362.965 60.8488 362.059C59.9635 362.059 59.1399 362.059 58.3782 362.059C57.6164 362.059 56.7929 362.059 55.9076 362.059C55.9076 362.965 55.9076 363.788 55.9076 364.529C55.9076 365.271 55.9076 366.094 55.9076 367ZM55.9076 367C56.7929 367 57.6164 367 58.3782 367C59.1399 367 59.9635 367 60.8488 367C60.8488 366.094 60.8488 365.271 60.8488 364.529C60.8488 363.788 60.8488 362.965 60.8488 362.059C59.9635 362.059 59.1399 362.059 58.3782 362.059C57.6164 362.059 56.7929 362.059 55.9076 362.059C55.9076 362.965 55.9076 363.788 55.9076 364.529C55.9076 365.271 55.9076 366.094 55.9076 367ZM55.9076 367C56.7929 367 57.6164 367 58.3782 367C59.1399 367 59.9635 367 60.8488 367C60.8488 366.094 60.8488 365.271 60.8488 364.529C60.8488 363.788 60.8488 362.965 60.8488 362.059C59.9635 362.059 59.1399 362.059 58.3782 362.059C57.6164 362.059 56.7929 362.059 55.9076 362.059C55.9076 362.965 55.9076 363.788 55.9076 364.529C55.9076 365.271 55.9076 366.094 55.9076 367ZM55.9076 367C56.7929 367 57.6164 367 58.3782 367C59.1399 367 59.9635 367 60.8488 367C60.8488 366.094 60.8488 365.271 60.8488 364.529C60.8488 363.788 60.8488 362.965 60.8488 362.059C59.9635 362.059 59.1399 362.059 58.3782 362.059C57.6164 362.059 56.7929 362.059 55.9076 362.059C55.9076 362.965 55.9076 363.788 55.9076 364.529C55.9076 365.271 55.9076 366.094 55.9076 367ZM55.9076 367C56.7929 367 57.6164 367 58.3782 367C59.1399 367 59.9635 367 60.8488 367C60.8488 366.094 60.8488 365.271 60.8488 364.529C60.8488 363.788 60.8488 362.965 60.8488 362.059C59.9635 362.059 59.1399 362.059 58.3782 362.059C57.6164 362.059 56.7929 362.059 55.9076 362.059C55.9076 362.965 55.9076 363.788 55.9076 364.529C55.9076 365.271 55.9076 366.094 55.9076 367ZM55.9076 367C56.7929 367 57.6164 367 58.3782 367C59.1399 367 59.9635 367 60.8488 367C60.8488 366.094 60.8488 365.271 60.8488 364.529C60.8488 363.788 60.8488 362.965 60.8488 362.059C59.9635 362.059 59.1399 362.059 58.3782 362.059C57.6164 362.059 56.7929 362.059 55.9076 362.059C55.9076 362.965 55.9076 363.788 55.9076 364.529C55.9076 365.271 55.9076 366.094 55.9076 367ZM55.9076 367C56.7929 367 57.6164 367 58.3782 367C59.1399 367 59.9635 367 60.8488 367C60.8488 366.094 60.8488 365.271 60.8488 364.529C60.8488 363.788 60.8488 362.965 60.8488 362.059C59.9635 362.059 59.1399 362.059 58.3782 362.059C57.6164 362.059 56.7929 362.059 55.9076 362.059C55.9076 362.965 55.9076 363.788 55.9076 364.529C55.9076 365.271 55.9076 366.094 55.9076 367ZM41.0841 362.059C41.9693 362.059 42.7929 362.059 43.5546 362.059C44.3164 362.059 45.1399 362.059 46.0252 362.059C46.0252 361.153 46.0252 360.329 46.0252 359.588C46.0252 358.847 46.0252 358.024 46.0252 357.118C45.1399 357.118 44.3164 357.118 43.5546 357.118C42.7929 357.118 41.9693 357.118 41.0841 357.118C41.0841 358.024 41.0841 358.847 41.0841 359.588C41.0841 360.329 41.0841 361.153 41.0841 362.059ZM41.0841 362.059C41.9693 362.059 42.7929 362.059 43.5546 362.059C44.3164 362.059 45.1399 362.059 46.0252 362.059C46.0252 361.153 46.0252 360.329 46.0252 359.588C46.0252 358.847 46.0252 358.024 46.0252 357.118C45.1399 357.118 44.3164 357.118 43.5546 357.118C42.7929 357.118 41.9693 357.118 41.0841 357.118C41.0841 358.024 41.0841 358.847 41.0841 359.588C41.0841 360.329 41.0841 361.153 41.0841 362.059ZM41.0841 362.059C41.9693 362.059 42.7929 362.059 43.5546 362.059C44.3164 362.059 45.1399 362.059 46.0252 362.059C46.0252 361.153 46.0252 360.329 46.0252 359.588C46.0252 358.847 46.0252 358.024 46.0252 357.118C45.1399 357.118 44.3164 357.118 43.5546 357.118C42.7929 357.118 41.9693 357.118 41.0841 357.118C41.0841 358.024 41.0841 358.847 41.0841 359.588C41.0841 360.329 41.0841 361.153 41.0841 362.059ZM41.0841 362.059C41.9693 362.059 42.7929 362.059 43.5546 362.059C44.3164 362.059 45.1399 362.059 46.0252 362.059C46.0252 361.153 46.0252 360.329 46.0252 359.588C46.0252 358.847 46.0252 358.024 46.0252 357.118C45.1399 357.118 44.3164 357.118 43.5546 357.118C42.7929 357.118 41.9693 357.118 41.0841 357.118C41.0841 358.024 41.0841 358.847 41.0841 359.588C41.0841 360.329 41.0841 361.153 41.0841 362.059ZM41.0841 362.059C41.9693 362.059 42.7929 362.059 43.5546 362.059C44.3164 362.059 45.1399 362.059 46.0252 362.059C46.0252 361.153 46.0252 360.329 46.0252 359.588C46.0252 358.847 46.0252 358.024 46.0252 357.118C45.1399 357.118 44.3164 357.118 43.5546 357.118C42.7929 357.118 41.9693 357.118 41.0841 357.118C41.0841 358.024 41.0841 358.847 41.0841 359.588C41.0841 360.329 41.0841 361.153 41.0841 362.059ZM41.0841 362.059C41.9693 362.059 42.7929 362.059 43.5546 362.059C44.3164 362.059 45.1399 362.059 46.0252 362.059C46.0252 361.153 46.0252 360.329 46.0252 359.588C46.0252 358.847 46.0252 358.024 46.0252 357.118C45.1399 357.118 44.3164 357.118 43.5546 357.118C42.7929 357.118 41.9693 357.118 41.0841 357.118C41.0841 358.024 41.0841 358.847 41.0841 359.588C41.0841 360.329 41.0841 361.153 41.0841 362.059ZM41.0841 362.059C41.9693 362.059 42.7929 362.059 43.5546 362.059C44.3164 362.059 45.1399 362.059 46.0252 362.059C46.0252 361.153 46.0252 360.329 46.0252 359.588C46.0252 358.847 46.0252 358.024 46.0252 357.118C45.1399 357.118 44.3164 357.118 43.5546 357.118C42.7929 357.118 41.9693 357.118 41.0841 357.118C41.0841 358.024 41.0841 358.847 41.0841 359.588C41.0841 360.329 41.0841 361.153 41.0841 362.059ZM41.0841 362.059C41.9693 362.059 42.7929 362.059 43.5546 362.059C44.3164 362.059 45.1399 362.059 46.0252 362.059C46.0252 361.153 46.0252 360.329 46.0252 359.588C46.0252 358.847 46.0252 358.024 46.0252 357.118C45.1399 357.118 44.3164 357.118 43.5546 357.118C42.7929 357.118 41.9693 357.118 41.0841 357.118C41.0841 358.024 41.0841 358.847 41.0841 359.588C41.0841 360.329 41.0841 361.153 41.0841 362.059ZM41.0841 362.059C41.9693 362.059 42.7929 362.059 43.5546 362.059C44.3164 362.059 45.1399 362.059 46.0252 362.059C46.0252 361.153 46.0252 360.329 46.0252 359.588C46.0252 358.847 46.0252 358.024 46.0252 357.118C45.1399 357.118 44.3164 357.118 43.5546 357.118C42.7929 357.118 41.9693 357.118 41.0841 357.118C41.0841 358.024 41.0841 358.847 41.0841 359.588C41.0841 360.329 41.0841 361.153 41.0841 362.059ZM43.5546 357.118C44.4399 357.118 45.2635 357.118 46.0252 357.118C46.787 357.118 47.6105 357.118 48.4958 357.118C48.4958 356.212 48.4958 355.388 48.4958 354.647C48.4958 353.906 48.4958 353.082 48.4958 352.176C47.6105 352.176 46.787 352.176 46.0252 352.176C45.2635 352.176 44.4399 352.176 43.5546 352.176C43.5546 353.082 43.5546 353.906 43.5546 354.647C43.5546 355.388 43.5546 356.212 43.5546 357.118ZM43.5546 357.118C44.4399 357.118 45.2635 357.118 46.0252 357.118C46.787 357.118 47.6105 357.118 48.4958 357.118C48.4958 356.212 48.4958 355.388 48.4958 354.647C48.4958 353.906 48.4958 353.082 48.4958 352.176C47.6105 352.176 46.787 352.176 46.0252 352.176C45.2635 352.176 44.4399 352.176 43.5546 352.176C43.5546 353.082 43.5546 353.906 43.5546 354.647C43.5546 355.388 43.5546 356.212 43.5546 357.118ZM43.5546 357.118C44.4399 357.118 45.2635 357.118 46.0252 357.118C46.787 357.118 47.6105 357.118 48.4958 357.118C48.4958 356.212 48.4958 355.388 48.4958 354.647C48.4958 353.906 48.4958 353.082 48.4958 352.176C47.6105 352.176 46.787 352.176 46.0252 352.176C45.2635 352.176 44.4399 352.176 43.5546 352.176C43.5546 353.082 43.5546 353.906 43.5546 354.647C43.5546 355.388 43.5546 356.212 43.5546 357.118ZM43.5546 357.118C44.4399 357.118 45.2635 357.118 46.0252 357.118C46.787 357.118 47.6105 357.118 48.4958 357.118C48.4958 356.212 48.4958 355.388 48.4958 354.647C48.4958 353.906 48.4958 353.082 48.4958 352.176C47.6105 352.176 46.787 352.176 46.0252 352.176C45.2635 352.176 44.4399 352.176 43.5546 352.176C43.5546 353.082 43.5546 353.906 43.5546 354.647C43.5546 355.388 43.5546 356.212 43.5546 357.118ZM43.5546 357.118C44.4399 357.118 45.2635 357.118 46.0252 357.118C46.787 357.118 47.6105 357.118 48.4958 357.118C48.4958 356.212 48.4958 355.388 48.4958 354.647C48.4958 353.906 48.4958 353.082 48.4958 352.176C47.6105 352.176 46.787 352.176 46.0252 352.176C45.2635 352.176 44.4399 352.176 43.5546 352.176C43.5546 353.082 43.5546 353.906 43.5546 354.647C43.5546 355.388 43.5546 356.212 43.5546 357.118ZM43.5546 357.118C44.4399 357.118 45.2635 357.118 46.0252 357.118C46.787 357.118 47.6105 357.118 48.4958 357.118C48.4958 356.212 48.4958 355.388 48.4958 354.647C48.4958 353.906 48.4958 353.082 48.4958 352.176C47.6105 352.176 46.787 352.176 46.0252 352.176C45.2635 352.176 44.4399 352.176 43.5546 352.176C43.5546 353.082 43.5546 353.906 43.5546 354.647C43.5546 355.388 43.5546 356.212 43.5546 357.118ZM43.5546 357.118C44.4399 357.118 45.2635 357.118 46.0252 357.118C46.787 357.118 47.6105 357.118 48.4958 357.118C48.4958 356.212 48.4958 355.388 48.4958 354.647C48.4958 353.906 48.4958 353.082 48.4958 352.176C47.6105 352.176 46.787 352.176 46.0252 352.176C45.2635 352.176 44.4399 352.176 43.5546 352.176C43.5546 353.082 43.5546 353.906 43.5546 354.647C43.5546 355.388 43.5546 356.212 43.5546 357.118ZM43.5546 357.118C44.4399 357.118 45.2635 357.118 46.0252 357.118C46.787 357.118 47.6105 357.118 48.4958 357.118C48.4958 356.212 48.4958 355.388 48.4958 354.647C48.4958 353.906 48.4958 353.082 48.4958 352.176C47.6105 352.176 46.787 352.176 46.0252 352.176C45.2635 352.176 44.4399 352.176 43.5546 352.176C43.5546 353.082 43.5546 353.906 43.5546 354.647C43.5546 355.388 43.5546 356.212 43.5546 357.118ZM43.5546 357.118C44.4399 357.118 45.2635 357.118 46.0252 357.118C46.787 357.118 47.6105 357.118 48.4958 357.118C48.4958 356.212 48.4958 355.388 48.4958 354.647C48.4958 353.906 48.4958 353.082 48.4958 352.176C47.6105 352.176 46.787 352.176 46.0252 352.176C45.2635 352.176 44.4399 352.176 43.5546 352.176C43.5546 353.082 43.5546 353.906 43.5546 354.647C43.5546 355.388 43.5546 356.212 43.5546 357.118ZM46.0252 352.176C46.9105 352.176 47.7341 352.176 48.4958 352.176C49.2576 352.176 50.0811 352.176 50.9664 352.176C50.9664 351.271 50.9664 350.447 50.9664 349.706C50.9664 348.965 50.9664 348.141 50.9664 347.235C50.0811 347.235 49.2576 347.235 48.4958 347.235C47.7341 347.235 46.9105 347.235 46.0252 347.235C46.0252 348.141 46.0252 348.965 46.0252 349.706C46.0252 350.447 46.0252 351.271 46.0252 352.176ZM46.0252 352.176C46.9105 352.176 47.7341 352.176 48.4958 352.176C49.2576 352.176 50.0811 352.176 50.9664 352.176C50.9664 351.271 50.9664 350.447 50.9664 349.706C50.9664 348.965 50.9664 348.141 50.9664 347.235C50.0811 347.235 49.2576 347.235 48.4958 347.235C47.7341 347.235 46.9105 347.235 46.0252 347.235C46.0252 348.141 46.0252 348.965 46.0252 349.706C46.0252 350.447 46.0252 351.271 46.0252 352.176ZM46.0252 352.176C46.9105 352.176 47.7341 352.176 48.4958 352.176C49.2576 352.176 50.0811 352.176 50.9664 352.176C50.9664 351.271 50.9664 350.447 50.9664 349.706C50.9664 348.965 50.9664 348.141 50.9664 347.235C50.0811 347.235 49.2576 347.235 48.4958 347.235C47.7341 347.235 46.9105 347.235 46.0252 347.235C46.0252 348.141 46.0252 348.965 46.0252 349.706C46.0252 350.447 46.0252 351.271 46.0252 352.176ZM46.0252 352.176C46.9105 352.176 47.7341 352.176 48.4958 352.176C49.2576 352.176 50.0811 352.176 50.9664 352.176C50.9664 351.271 50.9664 350.447 50.9664 349.706C50.9664 348.965 50.9664 348.141 50.9664 347.235C50.0811 347.235 49.2576 347.235 48.4958 347.235C47.7341 347.235 46.9105 347.235 46.0252 347.235C46.0252 348.141 46.0252 348.965 46.0252 349.706C46.0252 350.447 46.0252 351.271 46.0252 352.176ZM46.0252 352.176C46.9105 352.176 47.7341 352.176 48.4958 352.176C49.2576 352.176 50.0811 352.176 50.9664 352.176C50.9664 351.271 50.9664 350.447 50.9664 349.706C50.9664 348.965 50.9664 348.141 50.9664 347.235C50.0811 347.235 49.2576 347.235 48.4958 347.235C47.7341 347.235 46.9105 347.235 46.0252 347.235C46.0252 348.141 46.0252 348.965 46.0252 349.706C46.0252 350.447 46.0252 351.271 46.0252 352.176ZM46.0252 352.176C46.9105 352.176 47.7341 352.176 48.4958 352.176C49.2576 352.176 50.0811 352.176 50.9664 352.176C50.9664 351.271 50.9664 350.447 50.9664 349.706C50.9664 348.965 50.9664 348.141 50.9664 347.235C50.0811 347.235 49.2576 347.235 48.4958 347.235C47.7341 347.235 46.9105 347.235 46.0252 347.235C46.0252 348.141 46.0252 348.965 46.0252 349.706C46.0252 350.447 46.0252 351.271 46.0252 352.176ZM46.0252 352.176C46.9105 352.176 47.7341 352.176 48.4958 352.176C49.2576 352.176 50.0811 352.176 50.9664 352.176C50.9664 351.271 50.9664 350.447 50.9664 349.706C50.9664 348.965 50.9664 348.141 50.9664 347.235C50.0811 347.235 49.2576 347.235 48.4958 347.235C47.7341 347.235 46.9105 347.235 46.0252 347.235C46.0252 348.141 46.0252 348.965 46.0252 349.706C46.0252 350.447 46.0252 351.271 46.0252 352.176ZM46.0252 352.176C46.9105 352.176 47.7341 352.176 48.4958 352.176C49.2576 352.176 50.0811 352.176 50.9664 352.176C50.9664 351.271 50.9664 350.447 50.9664 349.706C50.9664 348.965 50.9664 348.141 50.9664 347.235C50.0811 347.235 49.2576 347.235 48.4958 347.235C47.7341 347.235 46.9105 347.235 46.0252 347.235C46.0252 348.141 46.0252 348.965 46.0252 349.706C46.0252 350.447 46.0252 351.271 46.0252 352.176ZM46.0252 352.176C46.9105 352.176 47.7341 352.176 48.4958 352.176C49.2576 352.176 50.0811 352.176 50.9664 352.176C50.9664 351.271 50.9664 350.447 50.9664 349.706C50.9664 348.965 50.9664 348.141 50.9664 347.235C50.0811 347.235 49.2576 347.235 48.4958 347.235C47.7341 347.235 46.9105 347.235 46.0252 347.235C46.0252 348.141 46.0252 348.965 46.0252 349.706C46.0252 350.447 46.0252 351.271 46.0252 352.176ZM48.4958 347.235C49.3811 347.235 50.2046 347.235 50.9664 347.235C51.7282 347.235 52.5517 347.235 53.437 347.235C53.437 346.329 53.437 345.506 53.437 344.765C53.437 344.024 53.437 343.2 53.437 342.294C52.5517 342.294 51.7282 342.294 50.9664 342.294C50.2046 342.294 49.3811 342.294 48.4958 342.294C48.4958 343.2 48.4958 344.024 48.4958 344.765C48.4958 345.506 48.4958 346.329 48.4958 347.235ZM48.4958 347.235C49.3811 347.235 50.2046 347.235 50.9664 347.235C51.7282 347.235 52.5517 347.235 53.437 347.235C53.437 346.329 53.437 345.506 53.437 344.765C53.437 344.024 53.437 343.2 53.437 342.294C52.5517 342.294 51.7282 342.294 50.9664 342.294C50.2046 342.294 49.3811 342.294 48.4958 342.294C48.4958 343.2 48.4958 344.024 48.4958 344.765C48.4958 345.506 48.4958 346.329 48.4958 347.235ZM48.4958 347.235C49.3811 347.235 50.2046 347.235 50.9664 347.235C51.7282 347.235 52.5517 347.235 53.437 347.235C53.437 346.329 53.437 345.506 53.437 344.765C53.437 344.024 53.437 343.2 53.437 342.294C52.5517 342.294 51.7282 342.294 50.9664 342.294C50.2046 342.294 49.3811 342.294 48.4958 342.294C48.4958 343.2 48.4958 344.024 48.4958 344.765C48.4958 345.506 48.4958 346.329 48.4958 347.235ZM48.4958 347.235C49.3811 347.235 50.2046 347.235 50.9664 347.235C51.7282 347.235 52.5517 347.235 53.437 347.235C53.437 346.329 53.437 345.506 53.437 344.765C53.437 344.024 53.437 343.2 53.437 342.294C52.5517 342.294 51.7282 342.294 50.9664 342.294C50.2046 342.294 49.3811 342.294 48.4958 342.294C48.4958 343.2 48.4958 344.024 48.4958 344.765C48.4958 345.506 48.4958 346.329 48.4958 347.235ZM48.4958 347.235C49.3811 347.235 50.2046 347.235 50.9664 347.235C51.7282 347.235 52.5517 347.235 53.437 347.235C53.437 346.329 53.437 345.506 53.437 344.765C53.437 344.024 53.437 343.2 53.437 342.294C52.5517 342.294 51.7282 342.294 50.9664 342.294C50.2046 342.294 49.3811 342.294 48.4958 342.294C48.4958 343.2 48.4958 344.024 48.4958 344.765C48.4958 345.506 48.4958 346.329 48.4958 347.235ZM48.4958 347.235C49.3811 347.235 50.2046 347.235 50.9664 347.235C51.7282 347.235 52.5517 347.235 53.437 347.235C53.437 346.329 53.437 345.506 53.437 344.765C53.437 344.024 53.437 343.2 53.437 342.294C52.5517 342.294 51.7282 342.294 50.9664 342.294C50.2046 342.294 49.3811 342.294 48.4958 342.294C48.4958 343.2 48.4958 344.024 48.4958 344.765C48.4958 345.506 48.4958 346.329 48.4958 347.235ZM48.4958 347.235C49.3811 347.235 50.2046 347.235 50.9664 347.235C51.7282 347.235 52.5517 347.235 53.437 347.235C53.437 346.329 53.437 345.506 53.437 344.765C53.437 344.024 53.437 343.2 53.437 342.294C52.5517 342.294 51.7282 342.294 50.9664 342.294C50.2046 342.294 49.3811 342.294 48.4958 342.294C48.4958 343.2 48.4958 344.024 48.4958 344.765C48.4958 345.506 48.4958 346.329 48.4958 347.235ZM48.4958 347.235C49.3811 347.235 50.2046 347.235 50.9664 347.235C51.7282 347.235 52.5517 347.235 53.437 347.235C53.437 346.329 53.437 345.506 53.437 344.765C53.437 344.024 53.437 343.2 53.437 342.294C52.5517 342.294 51.7282 342.294 50.9664 342.294C50.2046 342.294 49.3811 342.294 48.4958 342.294C48.4958 343.2 48.4958 344.024 48.4958 344.765C48.4958 345.506 48.4958 346.329 48.4958 347.235ZM48.4958 347.235C49.3811 347.235 50.2046 347.235 50.9664 347.235C51.7282 347.235 52.5517 347.235 53.437 347.235C53.437 346.329 53.437 345.506 53.437 344.765C53.437 344.024 53.437 343.2 53.437 342.294C52.5517 342.294 51.7282 342.294 50.9664 342.294C50.2046 342.294 49.3811 342.294 48.4958 342.294C48.4958 343.2 48.4958 344.024 48.4958 344.765C48.4958 345.506 48.4958 346.329 48.4958 347.235ZM50.9664 342.294C51.8517 342.294 52.6752 342.294 53.437 342.294C54.1988 342.294 55.0223 342.294 55.9076 342.294C55.9076 341.388 55.9076 340.565 55.9076 339.824C55.9076 339.082 55.9076 338.259 55.9076 337.353C55.0223 337.353 54.1988 337.353 53.437 337.353C52.6752 337.353 51.8517 337.353 50.9664 337.353C50.9664 338.259 50.9664 339.082 50.9664 339.824C50.9664 340.565 50.9664 341.388 50.9664 342.294ZM50.9664 342.294C51.8517 342.294 52.6752 342.294 53.437 342.294C54.1988 342.294 55.0223 342.294 55.9076 342.294C55.9076 341.388 55.9076 340.565 55.9076 339.824C55.9076 339.082 55.9076 338.259 55.9076 337.353C55.0223 337.353 54.1988 337.353 53.437 337.353C52.6752 337.353 51.8517 337.353 50.9664 337.353C50.9664 338.259 50.9664 339.082 50.9664 339.824C50.9664 340.565 50.9664 341.388 50.9664 342.294ZM50.9664 342.294C51.8517 342.294 52.6752 342.294 53.437 342.294C54.1988 342.294 55.0223 342.294 55.9076 342.294C55.9076 341.388 55.9076 340.565 55.9076 339.824C55.9076 339.082 55.9076 338.259 55.9076 337.353C55.0223 337.353 54.1988 337.353 53.437 337.353C52.6752 337.353 51.8517 337.353 50.9664 337.353C50.9664 338.259 50.9664 339.082 50.9664 339.824C50.9664 340.565 50.9664 341.388 50.9664 342.294ZM50.9664 342.294C51.8517 342.294 52.6752 342.294 53.437 342.294C54.1988 342.294 55.0223 342.294 55.9076 342.294C55.9076 341.388 55.9076 340.565 55.9076 339.824C55.9076 339.082 55.9076 338.259 55.9076 337.353C55.0223 337.353 54.1988 337.353 53.437 337.353C52.6752 337.353 51.8517 337.353 50.9664 337.353C50.9664 338.259 50.9664 339.082 50.9664 339.824C50.9664 340.565 50.9664 341.388 50.9664 342.294ZM50.9664 342.294C51.8517 342.294 52.6752 342.294 53.437 342.294C54.1988 342.294 55.0223 342.294 55.9076 342.294C55.9076 341.388 55.9076 340.565 55.9076 339.824C55.9076 339.082 55.9076 338.259 55.9076 337.353C55.0223 337.353 54.1988 337.353 53.437 337.353C52.6752 337.353 51.8517 337.353 50.9664 337.353C50.9664 338.259 50.9664 339.082 50.9664 339.824C50.9664 340.565 50.9664 341.388 50.9664 342.294ZM50.9664 342.294C51.8517 342.294 52.6752 342.294 53.437 342.294C54.1988 342.294 55.0223 342.294 55.9076 342.294C55.9076 341.388 55.9076 340.565 55.9076 339.824C55.9076 339.082 55.9076 338.259 55.9076 337.353C55.0223 337.353 54.1988 337.353 53.437 337.353C52.6752 337.353 51.8517 337.353 50.9664 337.353C50.9664 338.259 50.9664 339.082 50.9664 339.824C50.9664 340.565 50.9664 341.388 50.9664 342.294ZM50.9664 342.294C51.8517 342.294 52.6752 342.294 53.437 342.294C54.1988 342.294 55.0223 342.294 55.9076 342.294C55.9076 341.388 55.9076 340.565 55.9076 339.824C55.9076 339.082 55.9076 338.259 55.9076 337.353C55.0223 337.353 54.1988 337.353 53.437 337.353C52.6752 337.353 51.8517 337.353 50.9664 337.353C50.9664 338.259 50.9664 339.082 50.9664 339.824C50.9664 340.565 50.9664 341.388 50.9664 342.294ZM50.9664 342.294C51.8517 342.294 52.6752 342.294 53.437 342.294C54.1988 342.294 55.0223 342.294 55.9076 342.294C55.9076 341.388 55.9076 340.565 55.9076 339.824C55.9076 339.082 55.9076 338.259 55.9076 337.353C55.0223 337.353 54.1988 337.353 53.437 337.353C52.6752 337.353 51.8517 337.353 50.9664 337.353C50.9664 338.259 50.9664 339.082 50.9664 339.824C50.9664 340.565 50.9664 341.388 50.9664 342.294ZM50.9664 342.294C51.8517 342.294 52.6752 342.294 53.437 342.294C54.1988 342.294 55.0223 342.294 55.9076 342.294C55.9076 341.388 55.9076 340.565 55.9076 339.824C55.9076 339.082 55.9076 338.259 55.9076 337.353C55.0223 337.353 54.1988 337.353 53.437 337.353C52.6752 337.353 51.8517 337.353 50.9664 337.353C50.9664 338.259 50.9664 339.082 50.9664 339.824C50.9664 340.565 50.9664 341.388 50.9664 342.294ZM53.437 337.353C54.3223 337.353 55.1458 337.353 55.9076 337.353C56.6693 337.353 57.4929 337.353 58.3782 337.353C58.3782 336.447 58.3782 335.624 58.3782 334.882C58.3782 334.141 58.3782 333.318 58.3782 332.412C57.4929 332.412 56.6693 332.412 55.9076 332.412C55.1458 332.412 54.3223 332.412 53.437 332.412C53.437 333.318 53.437 334.141 53.437 334.882C53.437 335.624 53.437 336.447 53.437 337.353ZM53.437 337.353C54.3223 337.353 55.1458 337.353 55.9076 337.353C56.6693 337.353 57.4929 337.353 58.3782 337.353C58.3782 336.447 58.3782 335.624 58.3782 334.882C58.3782 334.141 58.3782 333.318 58.3782 332.412C57.4929 332.412 56.6693 332.412 55.9076 332.412C55.1458 332.412 54.3223 332.412 53.437 332.412C53.437 333.318 53.437 334.141 53.437 334.882C53.437 335.624 53.437 336.447 53.437 337.353ZM53.437 337.353C54.3223 337.353 55.1458 337.353 55.9076 337.353C56.6693 337.353 57.4929 337.353 58.3782 337.353C58.3782 336.447 58.3782 335.624 58.3782 334.882C58.3782 334.141 58.3782 333.318 58.3782 332.412C57.4929 332.412 56.6693 332.412 55.9076 332.412C55.1458 332.412 54.3223 332.412 53.437 332.412C53.437 333.318 53.437 334.141 53.437 334.882C53.437 335.624 53.437 336.447 53.437 337.353ZM53.437 337.353C54.3223 337.353 55.1458 337.353 55.9076 337.353C56.6693 337.353 57.4929 337.353 58.3782 337.353C58.3782 336.447 58.3782 335.624 58.3782 334.882C58.3782 334.141 58.3782 333.318 58.3782 332.412C57.4929 332.412 56.6693 332.412 55.9076 332.412C55.1458 332.412 54.3223 332.412 53.437 332.412C53.437 333.318 53.437 334.141 53.437 334.882C53.437 335.624 53.437 336.447 53.437 337.353ZM53.437 337.353C54.3223 337.353 55.1458 337.353 55.9076 337.353C56.6693 337.353 57.4929 337.353 58.3782 337.353C58.3782 336.447 58.3782 335.624 58.3782 334.882C58.3782 334.141 58.3782 333.318 58.3782 332.412C57.4929 332.412 56.6693 332.412 55.9076 332.412C55.1458 332.412 54.3223 332.412 53.437 332.412C53.437 333.318 53.437 334.141 53.437 334.882C53.437 335.624 53.437 336.447 53.437 337.353ZM53.437 337.353C54.3223 337.353 55.1458 337.353 55.9076 337.353C56.6693 337.353 57.4929 337.353 58.3782 337.353C58.3782 336.447 58.3782 335.624 58.3782 334.882C58.3782 334.141 58.3782 333.318 58.3782 332.412C57.4929 332.412 56.6693 332.412 55.9076 332.412C55.1458 332.412 54.3223 332.412 53.437 332.412C53.437 333.318 53.437 334.141 53.437 334.882C53.437 335.624 53.437 336.447 53.437 337.353ZM53.437 337.353C54.3223 337.353 55.1458 337.353 55.9076 337.353C56.6693 337.353 57.4929 337.353 58.3782 337.353C58.3782 336.447 58.3782 335.624 58.3782 334.882C58.3782 334.141 58.3782 333.318 58.3782 332.412C57.4929 332.412 56.6693 332.412 55.9076 332.412C55.1458 332.412 54.3223 332.412 53.437 332.412C53.437 333.318 53.437 334.141 53.437 334.882C53.437 335.624 53.437 336.447 53.437 337.353ZM53.437 337.353C54.3223 337.353 55.1458 337.353 55.9076 337.353C56.6693 337.353 57.4929 337.353 58.3782 337.353C58.3782 336.447 58.3782 335.624 58.3782 334.882C58.3782 334.141 58.3782 333.318 58.3782 332.412C57.4929 332.412 56.6693 332.412 55.9076 332.412C55.1458 332.412 54.3223 332.412 53.437 332.412C53.437 333.318 53.437 334.141 53.437 334.882C53.437 335.624 53.437 336.447 53.437 337.353ZM53.437 337.353C54.3223 337.353 55.1458 337.353 55.9076 337.353C56.6693 337.353 57.4929 337.353 58.3782 337.353C58.3782 336.447 58.3782 335.624 58.3782 334.882C58.3782 334.141 58.3782 333.318 58.3782 332.412C57.4929 332.412 56.6693 332.412 55.9076 332.412C55.1458 332.412 54.3223 332.412 53.437 332.412C53.437 333.318 53.437 334.141 53.437 334.882C53.437 335.624 53.437 336.447 53.437 337.353ZM36.1429 332.412C37.0282 332.412 37.8517 332.412 38.6135 332.412C39.3752 332.412 40.1988 332.412 41.0841 332.412C41.0841 331.506 41.0841 330.682 41.0841 329.941C41.0841 329.2 41.0841 328.376 41.0841 327.471C40.1988 327.471 39.3752 327.471 38.6135 327.471C37.8517 327.471 37.0282 327.471 36.1429 327.471C36.1429 328.376 36.1429 329.2 36.1429 329.941C36.1429 330.682 36.1429 331.506 36.1429 332.412ZM36.1429 332.412C37.0282 332.412 37.8517 332.412 38.6135 332.412C39.3752 332.412 40.1988 332.412 41.0841 332.412C41.0841 331.506 41.0841 330.682 41.0841 329.941C41.0841 329.2 41.0841 328.376 41.0841 327.471C40.1988 327.471 39.3752 327.471 38.6135 327.471C37.8517 327.471 37.0282 327.471 36.1429 327.471C36.1429 328.376 36.1429 329.2 36.1429 329.941C36.1429 330.682 36.1429 331.506 36.1429 332.412ZM36.1429 332.412C37.0282 332.412 37.8517 332.412 38.6135 332.412C39.3752 332.412 40.1988 332.412 41.0841 332.412C41.0841 331.506 41.0841 330.682 41.0841 329.941C41.0841 329.2 41.0841 328.376 41.0841 327.471C40.1988 327.471 39.3752 327.471 38.6135 327.471C37.8517 327.471 37.0282 327.471 36.1429 327.471C36.1429 328.376 36.1429 329.2 36.1429 329.941C36.1429 330.682 36.1429 331.506 36.1429 332.412ZM36.1429 332.412C37.0282 332.412 37.8517 332.412 38.6135 332.412C39.3752 332.412 40.1988 332.412 41.0841 332.412C41.0841 331.506 41.0841 330.682 41.0841 329.941C41.0841 329.2 41.0841 328.376 41.0841 327.471C40.1988 327.471 39.3752 327.471 38.6135 327.471C37.8517 327.471 37.0282 327.471 36.1429 327.471C36.1429 328.376 36.1429 329.2 36.1429 329.941C36.1429 330.682 36.1429 331.506 36.1429 332.412ZM36.1429 332.412C37.0282 332.412 37.8517 332.412 38.6135 332.412C39.3752 332.412 40.1988 332.412 41.0841 332.412C41.0841 331.506 41.0841 330.682 41.0841 329.941C41.0841 329.2 41.0841 328.376 41.0841 327.471C40.1988 327.471 39.3752 327.471 38.6135 327.471C37.8517 327.471 37.0282 327.471 36.1429 327.471C36.1429 328.376 36.1429 329.2 36.1429 329.941C36.1429 330.682 36.1429 331.506 36.1429 332.412ZM36.1429 332.412C37.0282 332.412 37.8517 332.412 38.6135 332.412C39.3752 332.412 40.1988 332.412 41.0841 332.412C41.0841 331.506 41.0841 330.682 41.0841 329.941C41.0841 329.2 41.0841 328.376 41.0841 327.471C40.1988 327.471 39.3752 327.471 38.6135 327.471C37.8517 327.471 37.0282 327.471 36.1429 327.471C36.1429 328.376 36.1429 329.2 36.1429 329.941C36.1429 330.682 36.1429 331.506 36.1429 332.412ZM36.1429 332.412C37.0282 332.412 37.8517 332.412 38.6135 332.412C39.3752 332.412 40.1988 332.412 41.0841 332.412C41.0841 331.506 41.0841 330.682 41.0841 329.941C41.0841 329.2 41.0841 328.376 41.0841 327.471C40.1988 327.471 39.3752 327.471 38.6135 327.471C37.8517 327.471 37.0282 327.471 36.1429 327.471C36.1429 328.376 36.1429 329.2 36.1429 329.941C36.1429 330.682 36.1429 331.506 36.1429 332.412ZM36.1429 332.412C37.0282 332.412 37.8517 332.412 38.6135 332.412C39.3752 332.412 40.1988 332.412 41.0841 332.412C41.0841 331.506 41.0841 330.682 41.0841 329.941C41.0841 329.2 41.0841 328.376 41.0841 327.471C40.1988 327.471 39.3752 327.471 38.6135 327.471C37.8517 327.471 37.0282 327.471 36.1429 327.471C36.1429 328.376 36.1429 329.2 36.1429 329.941C36.1429 330.682 36.1429 331.506 36.1429 332.412ZM36.1429 332.412C37.0282 332.412 37.8517 332.412 38.6135 332.412C39.3752 332.412 40.1988 332.412 41.0841 332.412C41.0841 331.506 41.0841 330.682 41.0841 329.941C41.0841 329.2 41.0841 328.376 41.0841 327.471C40.1988 327.471 39.3752 327.471 38.6135 327.471C37.8517 327.471 37.0282 327.471 36.1429 327.471C36.1429 328.376 36.1429 329.2 36.1429 329.941C36.1429 330.682 36.1429 331.506 36.1429 332.412ZM55.9076 332.412C56.7929 332.412 57.6164 332.412 58.3782 332.412C59.1399 332.412 59.9635 332.412 60.8488 332.412C60.8488 331.506 60.8488 330.682 60.8488 329.941C60.8488 329.2 60.8488 328.376 60.8488 327.471C59.9635 327.471 59.1399 327.471 58.3782 327.471C57.6164 327.471 56.7929 327.471 55.9076 327.471C55.9076 328.376 55.9076 329.2 55.9076 329.941C55.9076 330.682 55.9076 331.506 55.9076 332.412ZM55.9076 332.412C56.7929 332.412 57.6164 332.412 58.3782 332.412C59.1399 332.412 59.9635 332.412 60.8488 332.412C60.8488 331.506 60.8488 330.682 60.8488 329.941C60.8488 329.2 60.8488 328.376 60.8488 327.471C59.9635 327.471 59.1399 327.471 58.3782 327.471C57.6164 327.471 56.7929 327.471 55.9076 327.471C55.9076 328.376 55.9076 329.2 55.9076 329.941C55.9076 330.682 55.9076 331.506 55.9076 332.412ZM55.9076 332.412C56.7929 332.412 57.6164 332.412 58.3782 332.412C59.1399 332.412 59.9635 332.412 60.8488 332.412C60.8488 331.506 60.8488 330.682 60.8488 329.941C60.8488 329.2 60.8488 328.376 60.8488 327.471C59.9635 327.471 59.1399 327.471 58.3782 327.471C57.6164 327.471 56.7929 327.471 55.9076 327.471C55.9076 328.376 55.9076 329.2 55.9076 329.941C55.9076 330.682 55.9076 331.506 55.9076 332.412ZM55.9076 332.412C56.7929 332.412 57.6164 332.412 58.3782 332.412C59.1399 332.412 59.9635 332.412 60.8488 332.412C60.8488 331.506 60.8488 330.682 60.8488 329.941C60.8488 329.2 60.8488 328.376 60.8488 327.471C59.9635 327.471 59.1399 327.471 58.3782 327.471C57.6164 327.471 56.7929 327.471 55.9076 327.471C55.9076 328.376 55.9076 329.2 55.9076 329.941C55.9076 330.682 55.9076 331.506 55.9076 332.412ZM55.9076 332.412C56.7929 332.412 57.6164 332.412 58.3782 332.412C59.1399 332.412 59.9635 332.412 60.8488 332.412C60.8488 331.506 60.8488 330.682 60.8488 329.941C60.8488 329.2 60.8488 328.376 60.8488 327.471C59.9635 327.471 59.1399 327.471 58.3782 327.471C57.6164 327.471 56.7929 327.471 55.9076 327.471C55.9076 328.376 55.9076 329.2 55.9076 329.941C55.9076 330.682 55.9076 331.506 55.9076 332.412ZM55.9076 332.412C56.7929 332.412 57.6164 332.412 58.3782 332.412C59.1399 332.412 59.9635 332.412 60.8488 332.412C60.8488 331.506 60.8488 330.682 60.8488 329.941C60.8488 329.2 60.8488 328.376 60.8488 327.471C59.9635 327.471 59.1399 327.471 58.3782 327.471C57.6164 327.471 56.7929 327.471 55.9076 327.471C55.9076 328.376 55.9076 329.2 55.9076 329.941C55.9076 330.682 55.9076 331.506 55.9076 332.412ZM55.9076 332.412C56.7929 332.412 57.6164 332.412 58.3782 332.412C59.1399 332.412 59.9635 332.412 60.8488 332.412C60.8488 331.506 60.8488 330.682 60.8488 329.941C60.8488 329.2 60.8488 328.376 60.8488 327.471C59.9635 327.471 59.1399 327.471 58.3782 327.471C57.6164 327.471 56.7929 327.471 55.9076 327.471C55.9076 328.376 55.9076 329.2 55.9076 329.941C55.9076 330.682 55.9076 331.506 55.9076 332.412ZM55.9076 332.412C56.7929 332.412 57.6164 332.412 58.3782 332.412C59.1399 332.412 59.9635 332.412 60.8488 332.412C60.8488 331.506 60.8488 330.682 60.8488 329.941C60.8488 329.2 60.8488 328.376 60.8488 327.471C59.9635 327.471 59.1399 327.471 58.3782 327.471C57.6164 327.471 56.7929 327.471 55.9076 327.471C55.9076 328.376 55.9076 329.2 55.9076 329.941C55.9076 330.682 55.9076 331.506 55.9076 332.412ZM55.9076 332.412C56.7929 332.412 57.6164 332.412 58.3782 332.412C59.1399 332.412 59.9635 332.412 60.8488 332.412C60.8488 331.506 60.8488 330.682 60.8488 329.941C60.8488 329.2 60.8488 328.376 60.8488 327.471C59.9635 327.471 59.1399 327.471 58.3782 327.471C57.6164 327.471 56.7929 327.471 55.9076 327.471C55.9076 328.376 55.9076 329.2 55.9076 329.941C55.9076 330.682 55.9076 331.506 55.9076 332.412ZM36.1429 327.471C37.0282 327.471 37.8517 327.471 38.6135 327.471C39.3752 327.471 40.1988 327.471 41.0841 327.471C41.0841 326.565 41.0841 325.741 41.0841 325C41.0841 324.259 41.0841 323.435 41.0841 322.529C40.1988 322.529 39.3752 322.529 38.6135 322.529C37.8517 322.529 37.0282 322.529 36.1429 322.529C36.1429 323.435 36.1429 324.259 36.1429 325C36.1429 325.741 36.1429 326.565 36.1429 327.471ZM36.1429 327.471C37.0282 327.471 37.8517 327.471 38.6135 327.471C39.3752 327.471 40.1988 327.471 41.0841 327.471C41.0841 326.565 41.0841 325.741 41.0841 325C41.0841 324.259 41.0841 323.435 41.0841 322.529C40.1988 322.529 39.3752 322.529 38.6135 322.529C37.8517 322.529 37.0282 322.529 36.1429 322.529C36.1429 323.435 36.1429 324.259 36.1429 325C36.1429 325.741 36.1429 326.565 36.1429 327.471ZM36.1429 327.471C37.0282 327.471 37.8517 327.471 38.6135 327.471C39.3752 327.471 40.1988 327.471 41.0841 327.471C41.0841 326.565 41.0841 325.741 41.0841 325C41.0841 324.259 41.0841 323.435 41.0841 322.529C40.1988 322.529 39.3752 322.529 38.6135 322.529C37.8517 322.529 37.0282 322.529 36.1429 322.529C36.1429 323.435 36.1429 324.259 36.1429 325C36.1429 325.741 36.1429 326.565 36.1429 327.471ZM36.1429 327.471C37.0282 327.471 37.8517 327.471 38.6135 327.471C39.3752 327.471 40.1988 327.471 41.0841 327.471C41.0841 326.565 41.0841 325.741 41.0841 325C41.0841 324.259 41.0841 323.435 41.0841 322.529C40.1988 322.529 39.3752 322.529 38.6135 322.529C37.8517 322.529 37.0282 322.529 36.1429 322.529C36.1429 323.435 36.1429 324.259 36.1429 325C36.1429 325.741 36.1429 326.565 36.1429 327.471ZM36.1429 327.471C37.0282 327.471 37.8517 327.471 38.6135 327.471C39.3752 327.471 40.1988 327.471 41.0841 327.471C41.0841 326.565 41.0841 325.741 41.0841 325C41.0841 324.259 41.0841 323.435 41.0841 322.529C40.1988 322.529 39.3752 322.529 38.6135 322.529C37.8517 322.529 37.0282 322.529 36.1429 322.529C36.1429 323.435 36.1429 324.259 36.1429 325C36.1429 325.741 36.1429 326.565 36.1429 327.471ZM36.1429 327.471C37.0282 327.471 37.8517 327.471 38.6135 327.471C39.3752 327.471 40.1988 327.471 41.0841 327.471C41.0841 326.565 41.0841 325.741 41.0841 325C41.0841 324.259 41.0841 323.435 41.0841 322.529C40.1988 322.529 39.3752 322.529 38.6135 322.529C37.8517 322.529 37.0282 322.529 36.1429 322.529C36.1429 323.435 36.1429 324.259 36.1429 325C36.1429 325.741 36.1429 326.565 36.1429 327.471ZM36.1429 327.471C37.0282 327.471 37.8517 327.471 38.6135 327.471C39.3752 327.471 40.1988 327.471 41.0841 327.471C41.0841 326.565 41.0841 325.741 41.0841 325C41.0841 324.259 41.0841 323.435 41.0841 322.529C40.1988 322.529 39.3752 322.529 38.6135 322.529C37.8517 322.529 37.0282 322.529 36.1429 322.529C36.1429 323.435 36.1429 324.259 36.1429 325C36.1429 325.741 36.1429 326.565 36.1429 327.471ZM36.1429 327.471C37.0282 327.471 37.8517 327.471 38.6135 327.471C39.3752 327.471 40.1988 327.471 41.0841 327.471C41.0841 326.565 41.0841 325.741 41.0841 325C41.0841 324.259 41.0841 323.435 41.0841 322.529C40.1988 322.529 39.3752 322.529 38.6135 322.529C37.8517 322.529 37.0282 322.529 36.1429 322.529C36.1429 323.435 36.1429 324.259 36.1429 325C36.1429 325.741 36.1429 326.565 36.1429 327.471ZM36.1429 327.471C37.0282 327.471 37.8517 327.471 38.6135 327.471C39.3752 327.471 40.1988 327.471 41.0841 327.471C41.0841 326.565 41.0841 325.741 41.0841 325C41.0841 324.259 41.0841 323.435 41.0841 322.529C40.1988 322.529 39.3752 322.529 38.6135 322.529C37.8517 322.529 37.0282 322.529 36.1429 322.529C36.1429 323.435 36.1429 324.259 36.1429 325C36.1429 325.741 36.1429 326.565 36.1429 327.471ZM55.9076 327.471C56.7929 327.471 57.6164 327.471 58.3782 327.471C59.1399 327.471 59.9635 327.471 60.8488 327.471C60.8488 326.565 60.8488 325.741 60.8488 325C60.8488 324.259 60.8488 323.435 60.8488 322.529C59.9635 322.529 59.1399 322.529 58.3782 322.529C57.6164 322.529 56.7929 322.529 55.9076 322.529C55.9076 323.435 55.9076 324.259 55.9076 325C55.9076 325.741 55.9076 326.565 55.9076 327.471ZM55.9076 327.471C56.7929 327.471 57.6164 327.471 58.3782 327.471C59.1399 327.471 59.9635 327.471 60.8488 327.471C60.8488 326.565 60.8488 325.741 60.8488 325C60.8488 324.259 60.8488 323.435 60.8488 322.529C59.9635 322.529 59.1399 322.529 58.3782 322.529C57.6164 322.529 56.7929 322.529 55.9076 322.529C55.9076 323.435 55.9076 324.259 55.9076 325C55.9076 325.741 55.9076 326.565 55.9076 327.471ZM55.9076 327.471C56.7929 327.471 57.6164 327.471 58.3782 327.471C59.1399 327.471 59.9635 327.471 60.8488 327.471C60.8488 326.565 60.8488 325.741 60.8488 325C60.8488 324.259 60.8488 323.435 60.8488 322.529C59.9635 322.529 59.1399 322.529 58.3782 322.529C57.6164 322.529 56.7929 322.529 55.9076 322.529C55.9076 323.435 55.9076 324.259 55.9076 325C55.9076 325.741 55.9076 326.565 55.9076 327.471ZM55.9076 327.471C56.7929 327.471 57.6164 327.471 58.3782 327.471C59.1399 327.471 59.9635 327.471 60.8488 327.471C60.8488 326.565 60.8488 325.741 60.8488 325C60.8488 324.259 60.8488 323.435 60.8488 322.529C59.9635 322.529 59.1399 322.529 58.3782 322.529C57.6164 322.529 56.7929 322.529 55.9076 322.529C55.9076 323.435 55.9076 324.259 55.9076 325C55.9076 325.741 55.9076 326.565 55.9076 327.471ZM55.9076 327.471C56.7929 327.471 57.6164 327.471 58.3782 327.471C59.1399 327.471 59.9635 327.471 60.8488 327.471C60.8488 326.565 60.8488 325.741 60.8488 325C60.8488 324.259 60.8488 323.435 60.8488 322.529C59.9635 322.529 59.1399 322.529 58.3782 322.529C57.6164 322.529 56.7929 322.529 55.9076 322.529C55.9076 323.435 55.9076 324.259 55.9076 325C55.9076 325.741 55.9076 326.565 55.9076 327.471ZM55.9076 327.471C56.7929 327.471 57.6164 327.471 58.3782 327.471C59.1399 327.471 59.9635 327.471 60.8488 327.471C60.8488 326.565 60.8488 325.741 60.8488 325C60.8488 324.259 60.8488 323.435 60.8488 322.529C59.9635 322.529 59.1399 322.529 58.3782 322.529C57.6164 322.529 56.7929 322.529 55.9076 322.529C55.9076 323.435 55.9076 324.259 55.9076 325C55.9076 325.741 55.9076 326.565 55.9076 327.471ZM55.9076 327.471C56.7929 327.471 57.6164 327.471 58.3782 327.471C59.1399 327.471 59.9635 327.471 60.8488 327.471C60.8488 326.565 60.8488 325.741 60.8488 325C60.8488 324.259 60.8488 323.435 60.8488 322.529C59.9635 322.529 59.1399 322.529 58.3782 322.529C57.6164 322.529 56.7929 322.529 55.9076 322.529C55.9076 323.435 55.9076 324.259 55.9076 325C55.9076 325.741 55.9076 326.565 55.9076 327.471ZM55.9076 327.471C56.7929 327.471 57.6164 327.471 58.3782 327.471C59.1399 327.471 59.9635 327.471 60.8488 327.471C60.8488 326.565 60.8488 325.741 60.8488 325C60.8488 324.259 60.8488 323.435 60.8488 322.529C59.9635 322.529 59.1399 322.529 58.3782 322.529C57.6164 322.529 56.7929 322.529 55.9076 322.529C55.9076 323.435 55.9076 324.259 55.9076 325C55.9076 325.741 55.9076 326.565 55.9076 327.471ZM55.9076 327.471C56.7929 327.471 57.6164 327.471 58.3782 327.471C59.1399 327.471 59.9635 327.471 60.8488 327.471C60.8488 326.565 60.8488 325.741 60.8488 325C60.8488 324.259 60.8488 323.435 60.8488 322.529C59.9635 322.529 59.1399 322.529 58.3782 322.529C57.6164 322.529 56.7929 322.529 55.9076 322.529C55.9076 323.435 55.9076 324.259 55.9076 325C55.9076 325.741 55.9076 326.565 55.9076 327.471ZM36.1429 322.529C37.0282 322.529 37.8517 322.529 38.6135 322.529C39.3752 322.529 40.1988 322.529 41.0841 322.529C41.0841 321.624 41.0841 320.8 41.0841 320.059C41.0841 319.318 41.0841 318.494 41.0841 317.588C40.1988 317.588 39.3752 317.588 38.6135 317.588C37.8517 317.588 37.0282 317.588 36.1429 317.588C36.1429 318.494 36.1429 319.318 36.1429 320.059C36.1429 320.8 36.1429 321.624 36.1429 322.529ZM36.1429 322.529C37.0282 322.529 37.8517 322.529 38.6135 322.529C39.3752 322.529 40.1988 322.529 41.0841 322.529C41.0841 321.624 41.0841 320.8 41.0841 320.059C41.0841 319.318 41.0841 318.494 41.0841 317.588C40.1988 317.588 39.3752 317.588 38.6135 317.588C37.8517 317.588 37.0282 317.588 36.1429 317.588C36.1429 318.494 36.1429 319.318 36.1429 320.059C36.1429 320.8 36.1429 321.624 36.1429 322.529ZM36.1429 322.529C37.0282 322.529 37.8517 322.529 38.6135 322.529C39.3752 322.529 40.1988 322.529 41.0841 322.529C41.0841 321.624 41.0841 320.8 41.0841 320.059C41.0841 319.318 41.0841 318.494 41.0841 317.588C40.1988 317.588 39.3752 317.588 38.6135 317.588C37.8517 317.588 37.0282 317.588 36.1429 317.588C36.1429 318.494 36.1429 319.318 36.1429 320.059C36.1429 320.8 36.1429 321.624 36.1429 322.529ZM36.1429 322.529C37.0282 322.529 37.8517 322.529 38.6135 322.529C39.3752 322.529 40.1988 322.529 41.0841 322.529C41.0841 321.624 41.0841 320.8 41.0841 320.059C41.0841 319.318 41.0841 318.494 41.0841 317.588C40.1988 317.588 39.3752 317.588 38.6135 317.588C37.8517 317.588 37.0282 317.588 36.1429 317.588C36.1429 318.494 36.1429 319.318 36.1429 320.059C36.1429 320.8 36.1429 321.624 36.1429 322.529ZM36.1429 322.529C37.0282 322.529 37.8517 322.529 38.6135 322.529C39.3752 322.529 40.1988 322.529 41.0841 322.529C41.0841 321.624 41.0841 320.8 41.0841 320.059C41.0841 319.318 41.0841 318.494 41.0841 317.588C40.1988 317.588 39.3752 317.588 38.6135 317.588C37.8517 317.588 37.0282 317.588 36.1429 317.588C36.1429 318.494 36.1429 319.318 36.1429 320.059C36.1429 320.8 36.1429 321.624 36.1429 322.529ZM36.1429 322.529C37.0282 322.529 37.8517 322.529 38.6135 322.529C39.3752 322.529 40.1988 322.529 41.0841 322.529C41.0841 321.624 41.0841 320.8 41.0841 320.059C41.0841 319.318 41.0841 318.494 41.0841 317.588C40.1988 317.588 39.3752 317.588 38.6135 317.588C37.8517 317.588 37.0282 317.588 36.1429 317.588C36.1429 318.494 36.1429 319.318 36.1429 320.059C36.1429 320.8 36.1429 321.624 36.1429 322.529ZM36.1429 322.529C37.0282 322.529 37.8517 322.529 38.6135 322.529C39.3752 322.529 40.1988 322.529 41.0841 322.529C41.0841 321.624 41.0841 320.8 41.0841 320.059C41.0841 319.318 41.0841 318.494 41.0841 317.588C40.1988 317.588 39.3752 317.588 38.6135 317.588C37.8517 317.588 37.0282 317.588 36.1429 317.588C36.1429 318.494 36.1429 319.318 36.1429 320.059C36.1429 320.8 36.1429 321.624 36.1429 322.529ZM36.1429 322.529C37.0282 322.529 37.8517 322.529 38.6135 322.529C39.3752 322.529 40.1988 322.529 41.0841 322.529C41.0841 321.624 41.0841 320.8 41.0841 320.059C41.0841 319.318 41.0841 318.494 41.0841 317.588C40.1988 317.588 39.3752 317.588 38.6135 317.588C37.8517 317.588 37.0282 317.588 36.1429 317.588C36.1429 318.494 36.1429 319.318 36.1429 320.059C36.1429 320.8 36.1429 321.624 36.1429 322.529ZM36.1429 322.529C37.0282 322.529 37.8517 322.529 38.6135 322.529C39.3752 322.529 40.1988 322.529 41.0841 322.529C41.0841 321.624 41.0841 320.8 41.0841 320.059C41.0841 319.318 41.0841 318.494 41.0841 317.588C40.1988 317.588 39.3752 317.588 38.6135 317.588C37.8517 317.588 37.0282 317.588 36.1429 317.588C36.1429 318.494 36.1429 319.318 36.1429 320.059C36.1429 320.8 36.1429 321.624 36.1429 322.529ZM55.9076 322.529C56.7929 322.529 57.6164 322.529 58.3782 322.529C59.1399 322.529 59.9635 322.529 60.8488 322.529C60.8488 321.624 60.8488 320.8 60.8488 320.059C60.8488 319.318 60.8488 318.494 60.8488 317.588C59.9635 317.588 59.1399 317.588 58.3782 317.588C57.6164 317.588 56.7929 317.588 55.9076 317.588C55.9076 318.494 55.9076 319.318 55.9076 320.059C55.9076 320.8 55.9076 321.624 55.9076 322.529ZM55.9076 322.529C56.7929 322.529 57.6164 322.529 58.3782 322.529C59.1399 322.529 59.9635 322.529 60.8488 322.529C60.8488 321.624 60.8488 320.8 60.8488 320.059C60.8488 319.318 60.8488 318.494 60.8488 317.588C59.9635 317.588 59.1399 317.588 58.3782 317.588C57.6164 317.588 56.7929 317.588 55.9076 317.588C55.9076 318.494 55.9076 319.318 55.9076 320.059C55.9076 320.8 55.9076 321.624 55.9076 322.529ZM55.9076 322.529C56.7929 322.529 57.6164 322.529 58.3782 322.529C59.1399 322.529 59.9635 322.529 60.8488 322.529C60.8488 321.624 60.8488 320.8 60.8488 320.059C60.8488 319.318 60.8488 318.494 60.8488 317.588C59.9635 317.588 59.1399 317.588 58.3782 317.588C57.6164 317.588 56.7929 317.588 55.9076 317.588C55.9076 318.494 55.9076 319.318 55.9076 320.059C55.9076 320.8 55.9076 321.624 55.9076 322.529ZM55.9076 322.529C56.7929 322.529 57.6164 322.529 58.3782 322.529C59.1399 322.529 59.9635 322.529 60.8488 322.529C60.8488 321.624 60.8488 320.8 60.8488 320.059C60.8488 319.318 60.8488 318.494 60.8488 317.588C59.9635 317.588 59.1399 317.588 58.3782 317.588C57.6164 317.588 56.7929 317.588 55.9076 317.588C55.9076 318.494 55.9076 319.318 55.9076 320.059C55.9076 320.8 55.9076 321.624 55.9076 322.529ZM55.9076 322.529C56.7929 322.529 57.6164 322.529 58.3782 322.529C59.1399 322.529 59.9635 322.529 60.8488 322.529C60.8488 321.624 60.8488 320.8 60.8488 320.059C60.8488 319.318 60.8488 318.494 60.8488 317.588C59.9635 317.588 59.1399 317.588 58.3782 317.588C57.6164 317.588 56.7929 317.588 55.9076 317.588C55.9076 318.494 55.9076 319.318 55.9076 320.059C55.9076 320.8 55.9076 321.624 55.9076 322.529ZM55.9076 322.529C56.7929 322.529 57.6164 322.529 58.3782 322.529C59.1399 322.529 59.9635 322.529 60.8488 322.529C60.8488 321.624 60.8488 320.8 60.8488 320.059C60.8488 319.318 60.8488 318.494 60.8488 317.588C59.9635 317.588 59.1399 317.588 58.3782 317.588C57.6164 317.588 56.7929 317.588 55.9076 317.588C55.9076 318.494 55.9076 319.318 55.9076 320.059C55.9076 320.8 55.9076 321.624 55.9076 322.529ZM55.9076 322.529C56.7929 322.529 57.6164 322.529 58.3782 322.529C59.1399 322.529 59.9635 322.529 60.8488 322.529C60.8488 321.624 60.8488 320.8 60.8488 320.059C60.8488 319.318 60.8488 318.494 60.8488 317.588C59.9635 317.588 59.1399 317.588 58.3782 317.588C57.6164 317.588 56.7929 317.588 55.9076 317.588C55.9076 318.494 55.9076 319.318 55.9076 320.059C55.9076 320.8 55.9076 321.624 55.9076 322.529ZM55.9076 322.529C56.7929 322.529 57.6164 322.529 58.3782 322.529C59.1399 322.529 59.9635 322.529 60.8488 322.529C60.8488 321.624 60.8488 320.8 60.8488 320.059C60.8488 319.318 60.8488 318.494 60.8488 317.588C59.9635 317.588 59.1399 317.588 58.3782 317.588C57.6164 317.588 56.7929 317.588 55.9076 317.588C55.9076 318.494 55.9076 319.318 55.9076 320.059C55.9076 320.8 55.9076 321.624 55.9076 322.529ZM55.9076 322.529C56.7929 322.529 57.6164 322.529 58.3782 322.529C59.1399 322.529 59.9635 322.529 60.8488 322.529C60.8488 321.624 60.8488 320.8 60.8488 320.059C60.8488 319.318 60.8488 318.494 60.8488 317.588C59.9635 317.588 59.1399 317.588 58.3782 317.588C57.6164 317.588 56.7929 317.588 55.9076 317.588C55.9076 318.494 55.9076 319.318 55.9076 320.059C55.9076 320.8 55.9076 321.624 55.9076 322.529ZM41.0841 317.588C41.9693 317.588 42.7929 317.588 43.5546 317.588C44.3164 317.588 45.1399 317.588 46.0252 317.588C46.0252 316.682 46.0252 315.859 46.0252 315.118C46.0252 314.376 46.0252 313.553 46.0252 312.647C45.1399 312.647 44.3164 312.647 43.5546 312.647C42.7929 312.647 41.9693 312.647 41.0841 312.647C41.0841 313.553 41.0841 314.376 41.0841 315.118C41.0841 315.859 41.0841 316.682 41.0841 317.588ZM41.0841 317.588C41.9693 317.588 42.7929 317.588 43.5546 317.588C44.3164 317.588 45.1399 317.588 46.0252 317.588C46.0252 316.682 46.0252 315.859 46.0252 315.118C46.0252 314.376 46.0252 313.553 46.0252 312.647C45.1399 312.647 44.3164 312.647 43.5546 312.647C42.7929 312.647 41.9693 312.647 41.0841 312.647C41.0841 313.553 41.0841 314.376 41.0841 315.118C41.0841 315.859 41.0841 316.682 41.0841 317.588ZM41.0841 317.588C41.9693 317.588 42.7929 317.588 43.5546 317.588C44.3164 317.588 45.1399 317.588 46.0252 317.588C46.0252 316.682 46.0252 315.859 46.0252 315.118C46.0252 314.376 46.0252 313.553 46.0252 312.647C45.1399 312.647 44.3164 312.647 43.5546 312.647C42.7929 312.647 41.9693 312.647 41.0841 312.647C41.0841 313.553 41.0841 314.376 41.0841 315.118C41.0841 315.859 41.0841 316.682 41.0841 317.588ZM41.0841 317.588C41.9693 317.588 42.7929 317.588 43.5546 317.588C44.3164 317.588 45.1399 317.588 46.0252 317.588C46.0252 316.682 46.0252 315.859 46.0252 315.118C46.0252 314.376 46.0252 313.553 46.0252 312.647C45.1399 312.647 44.3164 312.647 43.5546 312.647C42.7929 312.647 41.9693 312.647 41.0841 312.647C41.0841 313.553 41.0841 314.376 41.0841 315.118C41.0841 315.859 41.0841 316.682 41.0841 317.588ZM41.0841 317.588C41.9693 317.588 42.7929 317.588 43.5546 317.588C44.3164 317.588 45.1399 317.588 46.0252 317.588C46.0252 316.682 46.0252 315.859 46.0252 315.118C46.0252 314.376 46.0252 313.553 46.0252 312.647C45.1399 312.647 44.3164 312.647 43.5546 312.647C42.7929 312.647 41.9693 312.647 41.0841 312.647C41.0841 313.553 41.0841 314.376 41.0841 315.118C41.0841 315.859 41.0841 316.682 41.0841 317.588ZM41.0841 317.588C41.9693 317.588 42.7929 317.588 43.5546 317.588C44.3164 317.588 45.1399 317.588 46.0252 317.588C46.0252 316.682 46.0252 315.859 46.0252 315.118C46.0252 314.376 46.0252 313.553 46.0252 312.647C45.1399 312.647 44.3164 312.647 43.5546 312.647C42.7929 312.647 41.9693 312.647 41.0841 312.647C41.0841 313.553 41.0841 314.376 41.0841 315.118C41.0841 315.859 41.0841 316.682 41.0841 317.588ZM41.0841 317.588C41.9693 317.588 42.7929 317.588 43.5546 317.588C44.3164 317.588 45.1399 317.588 46.0252 317.588C46.0252 316.682 46.0252 315.859 46.0252 315.118C46.0252 314.376 46.0252 313.553 46.0252 312.647C45.1399 312.647 44.3164 312.647 43.5546 312.647C42.7929 312.647 41.9693 312.647 41.0841 312.647C41.0841 313.553 41.0841 314.376 41.0841 315.118C41.0841 315.859 41.0841 316.682 41.0841 317.588ZM41.0841 317.588C41.9693 317.588 42.7929 317.588 43.5546 317.588C44.3164 317.588 45.1399 317.588 46.0252 317.588C46.0252 316.682 46.0252 315.859 46.0252 315.118C46.0252 314.376 46.0252 313.553 46.0252 312.647C45.1399 312.647 44.3164 312.647 43.5546 312.647C42.7929 312.647 41.9693 312.647 41.0841 312.647C41.0841 313.553 41.0841 314.376 41.0841 315.118C41.0841 315.859 41.0841 316.682 41.0841 317.588ZM41.0841 317.588C41.9693 317.588 42.7929 317.588 43.5546 317.588C44.3164 317.588 45.1399 317.588 46.0252 317.588C46.0252 316.682 46.0252 315.859 46.0252 315.118C46.0252 314.376 46.0252 313.553 46.0252 312.647C45.1399 312.647 44.3164 312.647 43.5546 312.647C42.7929 312.647 41.9693 312.647 41.0841 312.647C41.0841 313.553 41.0841 314.376 41.0841 315.118C41.0841 315.859 41.0841 316.682 41.0841 317.588ZM46.0252 317.588C46.9105 317.588 47.7341 317.588 48.4958 317.588C49.2576 317.588 50.0811 317.588 50.9664 317.588C50.9664 316.682 50.9664 315.859 50.9664 315.118C50.9664 314.376 50.9664 313.553 50.9664 312.647C50.0811 312.647 49.2576 312.647 48.4958 312.647C47.7341 312.647 46.9105 312.647 46.0252 312.647C46.0252 313.553 46.0252 314.376 46.0252 315.118C46.0252 315.859 46.0252 316.682 46.0252 317.588ZM46.0252 317.588C46.9105 317.588 47.7341 317.588 48.4958 317.588C49.2576 317.588 50.0811 317.588 50.9664 317.588C50.9664 316.682 50.9664 315.859 50.9664 315.118C50.9664 314.376 50.9664 313.553 50.9664 312.647C50.0811 312.647 49.2576 312.647 48.4958 312.647C47.7341 312.647 46.9105 312.647 46.0252 312.647C46.0252 313.553 46.0252 314.376 46.0252 315.118C46.0252 315.859 46.0252 316.682 46.0252 317.588ZM46.0252 317.588C46.9105 317.588 47.7341 317.588 48.4958 317.588C49.2576 317.588 50.0811 317.588 50.9664 317.588C50.9664 316.682 50.9664 315.859 50.9664 315.118C50.9664 314.376 50.9664 313.553 50.9664 312.647C50.0811 312.647 49.2576 312.647 48.4958 312.647C47.7341 312.647 46.9105 312.647 46.0252 312.647C46.0252 313.553 46.0252 314.376 46.0252 315.118C46.0252 315.859 46.0252 316.682 46.0252 317.588ZM46.0252 317.588C46.9105 317.588 47.7341 317.588 48.4958 317.588C49.2576 317.588 50.0811 317.588 50.9664 317.588C50.9664 316.682 50.9664 315.859 50.9664 315.118C50.9664 314.376 50.9664 313.553 50.9664 312.647C50.0811 312.647 49.2576 312.647 48.4958 312.647C47.7341 312.647 46.9105 312.647 46.0252 312.647C46.0252 313.553 46.0252 314.376 46.0252 315.118C46.0252 315.859 46.0252 316.682 46.0252 317.588ZM46.0252 317.588C46.9105 317.588 47.7341 317.588 48.4958 317.588C49.2576 317.588 50.0811 317.588 50.9664 317.588C50.9664 316.682 50.9664 315.859 50.9664 315.118C50.9664 314.376 50.9664 313.553 50.9664 312.647C50.0811 312.647 49.2576 312.647 48.4958 312.647C47.7341 312.647 46.9105 312.647 46.0252 312.647C46.0252 313.553 46.0252 314.376 46.0252 315.118C46.0252 315.859 46.0252 316.682 46.0252 317.588ZM46.0252 317.588C46.9105 317.588 47.7341 317.588 48.4958 317.588C49.2576 317.588 50.0811 317.588 50.9664 317.588C50.9664 316.682 50.9664 315.859 50.9664 315.118C50.9664 314.376 50.9664 313.553 50.9664 312.647C50.0811 312.647 49.2576 312.647 48.4958 312.647C47.7341 312.647 46.9105 312.647 46.0252 312.647C46.0252 313.553 46.0252 314.376 46.0252 315.118C46.0252 315.859 46.0252 316.682 46.0252 317.588ZM46.0252 317.588C46.9105 317.588 47.7341 317.588 48.4958 317.588C49.2576 317.588 50.0811 317.588 50.9664 317.588C50.9664 316.682 50.9664 315.859 50.9664 315.118C50.9664 314.376 50.9664 313.553 50.9664 312.647C50.0811 312.647 49.2576 312.647 48.4958 312.647C47.7341 312.647 46.9105 312.647 46.0252 312.647C46.0252 313.553 46.0252 314.376 46.0252 315.118C46.0252 315.859 46.0252 316.682 46.0252 317.588ZM46.0252 317.588C46.9105 317.588 47.7341 317.588 48.4958 317.588C49.2576 317.588 50.0811 317.588 50.9664 317.588C50.9664 316.682 50.9664 315.859 50.9664 315.118C50.9664 314.376 50.9664 313.553 50.9664 312.647C50.0811 312.647 49.2576 312.647 48.4958 312.647C47.7341 312.647 46.9105 312.647 46.0252 312.647C46.0252 313.553 46.0252 314.376 46.0252 315.118C46.0252 315.859 46.0252 316.682 46.0252 317.588ZM46.0252 317.588C46.9105 317.588 47.7341 317.588 48.4958 317.588C49.2576 317.588 50.0811 317.588 50.9664 317.588C50.9664 316.682 50.9664 315.859 50.9664 315.118C50.9664 314.376 50.9664 313.553 50.9664 312.647C50.0811 312.647 49.2576 312.647 48.4958 312.647C47.7341 312.647 46.9105 312.647 46.0252 312.647C46.0252 313.553 46.0252 314.376 46.0252 315.118C46.0252 315.859 46.0252 316.682 46.0252 317.588ZM50.9664 317.588C51.8517 317.588 52.6752 317.588 53.437 317.588C54.1988 317.588 55.0223 317.588 55.9076 317.588C55.9076 316.682 55.9076 315.859 55.9076 315.118C55.9076 314.376 55.9076 313.553 55.9076 312.647C55.0223 312.647 54.1988 312.647 53.437 312.647C52.6752 312.647 51.8517 312.647 50.9664 312.647C50.9664 313.553 50.9664 314.376 50.9664 315.118C50.9664 315.859 50.9664 316.682 50.9664 317.588ZM50.9664 317.588C51.8517 317.588 52.6752 317.588 53.437 317.588C54.1988 317.588 55.0223 317.588 55.9076 317.588C55.9076 316.682 55.9076 315.859 55.9076 315.118C55.9076 314.376 55.9076 313.553 55.9076 312.647C55.0223 312.647 54.1988 312.647 53.437 312.647C52.6752 312.647 51.8517 312.647 50.9664 312.647C50.9664 313.553 50.9664 314.376 50.9664 315.118C50.9664 315.859 50.9664 316.682 50.9664 317.588ZM50.9664 317.588C51.8517 317.588 52.6752 317.588 53.437 317.588C54.1988 317.588 55.0223 317.588 55.9076 317.588C55.9076 316.682 55.9076 315.859 55.9076 315.118C55.9076 314.376 55.9076 313.553 55.9076 312.647C55.0223 312.647 54.1988 312.647 53.437 312.647C52.6752 312.647 51.8517 312.647 50.9664 312.647C50.9664 313.553 50.9664 314.376 50.9664 315.118C50.9664 315.859 50.9664 316.682 50.9664 317.588ZM50.9664 317.588C51.8517 317.588 52.6752 317.588 53.437 317.588C54.1988 317.588 55.0223 317.588 55.9076 317.588C55.9076 316.682 55.9076 315.859 55.9076 315.118C55.9076 314.376 55.9076 313.553 55.9076 312.647C55.0223 312.647 54.1988 312.647 53.437 312.647C52.6752 312.647 51.8517 312.647 50.9664 312.647C50.9664 313.553 50.9664 314.376 50.9664 315.118C50.9664 315.859 50.9664 316.682 50.9664 317.588ZM50.9664 317.588C51.8517 317.588 52.6752 317.588 53.437 317.588C54.1988 317.588 55.0223 317.588 55.9076 317.588C55.9076 316.682 55.9076 315.859 55.9076 315.118C55.9076 314.376 55.9076 313.553 55.9076 312.647C55.0223 312.647 54.1988 312.647 53.437 312.647C52.6752 312.647 51.8517 312.647 50.9664 312.647C50.9664 313.553 50.9664 314.376 50.9664 315.118C50.9664 315.859 50.9664 316.682 50.9664 317.588ZM50.9664 317.588C51.8517 317.588 52.6752 317.588 53.437 317.588C54.1988 317.588 55.0223 317.588 55.9076 317.588C55.9076 316.682 55.9076 315.859 55.9076 315.118C55.9076 314.376 55.9076 313.553 55.9076 312.647C55.0223 312.647 54.1988 312.647 53.437 312.647C52.6752 312.647 51.8517 312.647 50.9664 312.647C50.9664 313.553 50.9664 314.376 50.9664 315.118C50.9664 315.859 50.9664 316.682 50.9664 317.588ZM50.9664 317.588C51.8517 317.588 52.6752 317.588 53.437 317.588C54.1988 317.588 55.0223 317.588 55.9076 317.588C55.9076 316.682 55.9076 315.859 55.9076 315.118C55.9076 314.376 55.9076 313.553 55.9076 312.647C55.0223 312.647 54.1988 312.647 53.437 312.647C52.6752 312.647 51.8517 312.647 50.9664 312.647C50.9664 313.553 50.9664 314.376 50.9664 315.118C50.9664 315.859 50.9664 316.682 50.9664 317.588ZM50.9664 317.588C51.8517 317.588 52.6752 317.588 53.437 317.588C54.1988 317.588 55.0223 317.588 55.9076 317.588C55.9076 316.682 55.9076 315.859 55.9076 315.118C55.9076 314.376 55.9076 313.553 55.9076 312.647C55.0223 312.647 54.1988 312.647 53.437 312.647C52.6752 312.647 51.8517 312.647 50.9664 312.647C50.9664 313.553 50.9664 314.376 50.9664 315.118C50.9664 315.859 50.9664 316.682 50.9664 317.588ZM50.9664 317.588C51.8517 317.588 52.6752 317.588 53.437 317.588C54.1988 317.588 55.0223 317.588 55.9076 317.588C55.9076 316.682 55.9076 315.859 55.9076 315.118C55.9076 314.376 55.9076 313.553 55.9076 312.647C55.0223 312.647 54.1988 312.647 53.437 312.647C52.6752 312.647 51.8517 312.647 50.9664 312.647C50.9664 313.553 50.9664 314.376 50.9664 315.118C50.9664 315.859 50.9664 316.682 50.9664 317.588Z" fill="#6D3535"/>
</svg>
