<svg width="300" height="400" viewBox="0 0 300 400" fill="none" xmlns="http://www.w3.org/2000/svg">
<rect x="5" y="5" width="290" height="390" rx="25" fill="#DDFFA6" stroke="#717148" stroke-width="10"/>
<path d="M38.0841 365C38.9693 365 39.7929 365 40.5546 365C41.3164 365 42.1399 365 43.0252 365C43.0252 364.094 43.0252 363.271 43.0252 362.529C43.0252 361.788 43.0252 360.965 43.0252 360.059C42.1399 360.059 41.3164 360.059 40.5546 360.059C39.7929 360.059 38.9693 360.059 38.0841 360.059C38.0841 360.965 38.0841 361.788 38.0841 362.529C38.0841 363.271 38.0841 364.094 38.0841 365ZM38.0841 365C38.9693 365 39.7929 365 40.5546 365C41.3164 365 42.1399 365 43.0252 365C43.0252 364.094 43.0252 363.271 43.0252 362.529C43.0252 361.788 43.0252 360.965 43.0252 360.059C42.1399 360.059 41.3164 360.059 40.5546 360.059C39.7929 360.059 38.9693 360.059 38.0841 360.059C38.0841 360.965 38.0841 361.788 38.0841 362.529C38.0841 363.271 38.0841 364.094 38.0841 365ZM38.0841 365C38.9693 365 39.7929 365 40.5546 365C41.3164 365 42.1399 365 43.0252 365C43.0252 364.094 43.0252 363.271 43.0252 362.529C43.0252 361.788 43.0252 360.965 43.0252 360.059C42.1399 360.059 41.3164 360.059 40.5546 360.059C39.7929 360.059 38.9693 360.059 38.0841 360.059C38.0841 360.965 38.0841 361.788 38.0841 362.529C38.0841 363.271 38.0841 364.094 38.0841 365ZM38.0841 365C38.9693 365 39.7929 365 40.5546 365C41.3164 365 42.1399 365 43.0252 365C43.0252 364.094 43.0252 363.271 43.0252 362.529C43.0252 361.788 43.0252 360.965 43.0252 360.059C42.1399 360.059 41.3164 360.059 40.5546 360.059C39.7929 360.059 38.9693 360.059 38.0841 360.059C38.0841 360.965 38.0841 361.788 38.0841 362.529C38.0841 363.271 38.0841 364.094 38.0841 365ZM38.0841 365C38.9693 365 39.7929 365 40.5546 365C41.3164 365 42.1399 365 43.0252 365C43.0252 364.094 43.0252 363.271 43.0252 362.529C43.0252 361.788 43.0252 360.965 43.0252 360.059C42.1399 360.059 41.3164 360.059 40.5546 360.059C39.7929 360.059 38.9693 360.059 38.0841 360.059C38.0841 360.965 38.0841 361.788 38.0841 362.529C38.0841 363.271 38.0841 364.094 38.0841 365ZM38.0841 365C38.9693 365 39.7929 365 40.5546 365C41.3164 365 42.1399 365 43.0252 365C43.0252 364.094 43.0252 363.271 43.0252 362.529C43.0252 361.788 43.0252 360.965 43.0252 360.059C42.1399 360.059 41.3164 360.059 40.5546 360.059C39.7929 360.059 38.9693 360.059 38.0841 360.059C38.0841 360.965 38.0841 361.788 38.0841 362.529C38.0841 363.271 38.0841 364.094 38.0841 365ZM38.0841 365C38.9693 365 39.7929 365 40.5546 365C41.3164 365 42.1399 365 43.0252 365C43.0252 364.094 43.0252 363.271 43.0252 362.529C43.0252 361.788 43.0252 360.965 43.0252 360.059C42.1399 360.059 41.3164 360.059 40.5546 360.059C39.7929 360.059 38.9693 360.059 38.0841 360.059C38.0841 360.965 38.0841 361.788 38.0841 362.529C38.0841 363.271 38.0841 364.094 38.0841 365ZM38.0841 365C38.9693 365 39.7929 365 40.5546 365C41.3164 365 42.1399 365 43.0252 365C43.0252 364.094 43.0252 363.271 43.0252 362.529C43.0252 361.788 43.0252 360.965 43.0252 360.059C42.1399 360.059 41.3164 360.059 40.5546 360.059C39.7929 360.059 38.9693 360.059 38.0841 360.059C38.0841 360.965 38.0841 361.788 38.0841 362.529C38.0841 363.271 38.0841 364.094 38.0841 365ZM38.0841 365C38.9693 365 39.7929 365 40.5546 365C41.3164 365 42.1399 365 43.0252 365C43.0252 364.094 43.0252 363.271 43.0252 362.529C43.0252 361.788 43.0252 360.965 43.0252 360.059C42.1399 360.059 41.3164 360.059 40.5546 360.059C39.7929 360.059 38.9693 360.059 38.0841 360.059C38.0841 360.965 38.0841 361.788 38.0841 362.529C38.0841 363.271 38.0841 364.094 38.0841 365ZM43.0252 365C43.9105 365 44.7341 365 45.4958 365C46.2576 365 47.0811 365 47.9664 365C47.9664 364.094 47.9664 363.271 47.9664 362.529C47.9664 361.788 47.9664 360.965 47.9664 360.059C47.0811 360.059 46.2576 360.059 45.4958 360.059C44.7341 360.059 43.9105 360.059 43.0252 360.059C43.0252 360.965 43.0252 361.788 43.0252 362.529C43.0252 363.271 43.0252 364.094 43.0252 365ZM43.0252 365C43.9105 365 44.7341 365 45.4958 365C46.2576 365 47.0811 365 47.9664 365C47.9664 364.094 47.9664 363.271 47.9664 362.529C47.9664 361.788 47.9664 360.965 47.9664 360.059C47.0811 360.059 46.2576 360.059 45.4958 360.059C44.7341 360.059 43.9105 360.059 43.0252 360.059C43.0252 360.965 43.0252 361.788 43.0252 362.529C43.0252 363.271 43.0252 364.094 43.0252 365ZM43.0252 365C43.9105 365 44.7341 365 45.4958 365C46.2576 365 47.0811 365 47.9664 365C47.9664 364.094 47.9664 363.271 47.9664 362.529C47.9664 361.788 47.9664 360.965 47.9664 360.059C47.0811 360.059 46.2576 360.059 45.4958 360.059C44.7341 360.059 43.9105 360.059 43.0252 360.059C43.0252 360.965 43.0252 361.788 43.0252 362.529C43.0252 363.271 43.0252 364.094 43.0252 365ZM43.0252 365C43.9105 365 44.7341 365 45.4958 365C46.2576 365 47.0811 365 47.9664 365C47.9664 364.094 47.9664 363.271 47.9664 362.529C47.9664 361.788 47.9664 360.965 47.9664 360.059C47.0811 360.059 46.2576 360.059 45.4958 360.059C44.7341 360.059 43.9105 360.059 43.0252 360.059C43.0252 360.965 43.0252 361.788 43.0252 362.529C43.0252 363.271 43.0252 364.094 43.0252 365ZM43.0252 365C43.9105 365 44.7341 365 45.4958 365C46.2576 365 47.0811 365 47.9664 365C47.9664 364.094 47.9664 363.271 47.9664 362.529C47.9664 361.788 47.9664 360.965 47.9664 360.059C47.0811 360.059 46.2576 360.059 45.4958 360.059C44.7341 360.059 43.9105 360.059 43.0252 360.059C43.0252 360.965 43.0252 361.788 43.0252 362.529C43.0252 363.271 43.0252 364.094 43.0252 365ZM43.0252 365C43.9105 365 44.7341 365 45.4958 365C46.2576 365 47.0811 365 47.9664 365C47.9664 364.094 47.9664 363.271 47.9664 362.529C47.9664 361.788 47.9664 360.965 47.9664 360.059C47.0811 360.059 46.2576 360.059 45.4958 360.059C44.7341 360.059 43.9105 360.059 43.0252 360.059C43.0252 360.965 43.0252 361.788 43.0252 362.529C43.0252 363.271 43.0252 364.094 43.0252 365ZM43.0252 365C43.9105 365 44.7341 365 45.4958 365C46.2576 365 47.0811 365 47.9664 365C47.9664 364.094 47.9664 363.271 47.9664 362.529C47.9664 361.788 47.9664 360.965 47.9664 360.059C47.0811 360.059 46.2576 360.059 45.4958 360.059C44.7341 360.059 43.9105 360.059 43.0252 360.059C43.0252 360.965 43.0252 361.788 43.0252 362.529C43.0252 363.271 43.0252 364.094 43.0252 365ZM43.0252 365C43.9105 365 44.7341 365 45.4958 365C46.2576 365 47.0811 365 47.9664 365C47.9664 364.094 47.9664 363.271 47.9664 362.529C47.9664 361.788 47.9664 360.965 47.9664 360.059C47.0811 360.059 46.2576 360.059 45.4958 360.059C44.7341 360.059 43.9105 360.059 43.0252 360.059C43.0252 360.965 43.0252 361.788 43.0252 362.529C43.0252 363.271 43.0252 364.094 43.0252 365ZM43.0252 365C43.9105 365 44.7341 365 45.4958 365C46.2576 365 47.0811 365 47.9664 365C47.9664 364.094 47.9664 363.271 47.9664 362.529C47.9664 361.788 47.9664 360.965 47.9664 360.059C47.0811 360.059 46.2576 360.059 45.4958 360.059C44.7341 360.059 43.9105 360.059 43.0252 360.059C43.0252 360.965 43.0252 361.788 43.0252 362.529C43.0252 363.271 43.0252 364.094 43.0252 365ZM47.9664 365C48.8517 365 49.6752 365 50.437 365C51.1988 365 52.0223 365 52.9076 365C52.9076 364.094 52.9076 363.271 52.9076 362.529C52.9076 361.788 52.9076 360.965 52.9076 360.059C52.0223 360.059 51.1988 360.059 50.437 360.059C49.6752 360.059 48.8517 360.059 47.9664 360.059C47.9664 360.965 47.9664 361.788 47.9664 362.529C47.9664 363.271 47.9664 364.094 47.9664 365ZM47.9664 365C48.8517 365 49.6752 365 50.437 365C51.1988 365 52.0223 365 52.9076 365C52.9076 364.094 52.9076 363.271 52.9076 362.529C52.9076 361.788 52.9076 360.965 52.9076 360.059C52.0223 360.059 51.1988 360.059 50.437 360.059C49.6752 360.059 48.8517 360.059 47.9664 360.059C47.9664 360.965 47.9664 361.788 47.9664 362.529C47.9664 363.271 47.9664 364.094 47.9664 365ZM47.9664 365C48.8517 365 49.6752 365 50.437 365C51.1988 365 52.0223 365 52.9076 365C52.9076 364.094 52.9076 363.271 52.9076 362.529C52.9076 361.788 52.9076 360.965 52.9076 360.059C52.0223 360.059 51.1988 360.059 50.437 360.059C49.6752 360.059 48.8517 360.059 47.9664 360.059C47.9664 360.965 47.9664 361.788 47.9664 362.529C47.9664 363.271 47.9664 364.094 47.9664 365ZM47.9664 365C48.8517 365 49.6752 365 50.437 365C51.1988 365 52.0223 365 52.9076 365C52.9076 364.094 52.9076 363.271 52.9076 362.529C52.9076 361.788 52.9076 360.965 52.9076 360.059C52.0223 360.059 51.1988 360.059 50.437 360.059C49.6752 360.059 48.8517 360.059 47.9664 360.059C47.9664 360.965 47.9664 361.788 47.9664 362.529C47.9664 363.271 47.9664 364.094 47.9664 365ZM47.9664 365C48.8517 365 49.6752 365 50.437 365C51.1988 365 52.0223 365 52.9076 365C52.9076 364.094 52.9076 363.271 52.9076 362.529C52.9076 361.788 52.9076 360.965 52.9076 360.059C52.0223 360.059 51.1988 360.059 50.437 360.059C49.6752 360.059 48.8517 360.059 47.9664 360.059C47.9664 360.965 47.9664 361.788 47.9664 362.529C47.9664 363.271 47.9664 364.094 47.9664 365ZM47.9664 365C48.8517 365 49.6752 365 50.437 365C51.1988 365 52.0223 365 52.9076 365C52.9076 364.094 52.9076 363.271 52.9076 362.529C52.9076 361.788 52.9076 360.965 52.9076 360.059C52.0223 360.059 51.1988 360.059 50.437 360.059C49.6752 360.059 48.8517 360.059 47.9664 360.059C47.9664 360.965 47.9664 361.788 47.9664 362.529C47.9664 363.271 47.9664 364.094 47.9664 365ZM47.9664 365C48.8517 365 49.6752 365 50.437 365C51.1988 365 52.0223 365 52.9076 365C52.9076 364.094 52.9076 363.271 52.9076 362.529C52.9076 361.788 52.9076 360.965 52.9076 360.059C52.0223 360.059 51.1988 360.059 50.437 360.059C49.6752 360.059 48.8517 360.059 47.9664 360.059C47.9664 360.965 47.9664 361.788 47.9664 362.529C47.9664 363.271 47.9664 364.094 47.9664 365ZM47.9664 365C48.8517 365 49.6752 365 50.437 365C51.1988 365 52.0223 365 52.9076 365C52.9076 364.094 52.9076 363.271 52.9076 362.529C52.9076 361.788 52.9076 360.965 52.9076 360.059C52.0223 360.059 51.1988 360.059 50.437 360.059C49.6752 360.059 48.8517 360.059 47.9664 360.059C47.9664 360.965 47.9664 361.788 47.9664 362.529C47.9664 363.271 47.9664 364.094 47.9664 365ZM47.9664 365C48.8517 365 49.6752 365 50.437 365C51.1988 365 52.0223 365 52.9076 365C52.9076 364.094 52.9076 363.271 52.9076 362.529C52.9076 361.788 52.9076 360.965 52.9076 360.059C52.0223 360.059 51.1988 360.059 50.437 360.059C49.6752 360.059 48.8517 360.059 47.9664 360.059C47.9664 360.965 47.9664 361.788 47.9664 362.529C47.9664 363.271 47.9664 364.094 47.9664 365ZM33.1429 360.059C34.0282 360.059 34.8517 360.059 35.6135 360.059C36.3752 360.059 37.1988 360.059 38.0841 360.059C38.0841 359.153 38.0841 358.329 38.0841 357.588C38.0841 356.847 38.0841 356.024 38.0841 355.118C37.1988 355.118 36.3752 355.118 35.6135 355.118C34.8517 355.118 34.0282 355.118 33.1429 355.118C33.1429 356.024 33.1429 356.847 33.1429 357.588C33.1429 358.329 33.1429 359.153 33.1429 360.059ZM33.1429 360.059C34.0282 360.059 34.8517 360.059 35.6135 360.059C36.3752 360.059 37.1988 360.059 38.0841 360.059C38.0841 359.153 38.0841 358.329 38.0841 357.588C38.0841 356.847 38.0841 356.024 38.0841 355.118C37.1988 355.118 36.3752 355.118 35.6135 355.118C34.8517 355.118 34.0282 355.118 33.1429 355.118C33.1429 356.024 33.1429 356.847 33.1429 357.588C33.1429 358.329 33.1429 359.153 33.1429 360.059ZM33.1429 360.059C34.0282 360.059 34.8517 360.059 35.6135 360.059C36.3752 360.059 37.1988 360.059 38.0841 360.059C38.0841 359.153 38.0841 358.329 38.0841 357.588C38.0841 356.847 38.0841 356.024 38.0841 355.118C37.1988 355.118 36.3752 355.118 35.6135 355.118C34.8517 355.118 34.0282 355.118 33.1429 355.118C33.1429 356.024 33.1429 356.847 33.1429 357.588C33.1429 358.329 33.1429 359.153 33.1429 360.059ZM33.1429 360.059C34.0282 360.059 34.8517 360.059 35.6135 360.059C36.3752 360.059 37.1988 360.059 38.0841 360.059C38.0841 359.153 38.0841 358.329 38.0841 357.588C38.0841 356.847 38.0841 356.024 38.0841 355.118C37.1988 355.118 36.3752 355.118 35.6135 355.118C34.8517 355.118 34.0282 355.118 33.1429 355.118C33.1429 356.024 33.1429 356.847 33.1429 357.588C33.1429 358.329 33.1429 359.153 33.1429 360.059ZM33.1429 360.059C34.0282 360.059 34.8517 360.059 35.6135 360.059C36.3752 360.059 37.1988 360.059 38.0841 360.059C38.0841 359.153 38.0841 358.329 38.0841 357.588C38.0841 356.847 38.0841 356.024 38.0841 355.118C37.1988 355.118 36.3752 355.118 35.6135 355.118C34.8517 355.118 34.0282 355.118 33.1429 355.118C33.1429 356.024 33.1429 356.847 33.1429 357.588C33.1429 358.329 33.1429 359.153 33.1429 360.059ZM33.1429 360.059C34.0282 360.059 34.8517 360.059 35.6135 360.059C36.3752 360.059 37.1988 360.059 38.0841 360.059C38.0841 359.153 38.0841 358.329 38.0841 357.588C38.0841 356.847 38.0841 356.024 38.0841 355.118C37.1988 355.118 36.3752 355.118 35.6135 355.118C34.8517 355.118 34.0282 355.118 33.1429 355.118C33.1429 356.024 33.1429 356.847 33.1429 357.588C33.1429 358.329 33.1429 359.153 33.1429 360.059ZM33.1429 360.059C34.0282 360.059 34.8517 360.059 35.6135 360.059C36.3752 360.059 37.1988 360.059 38.0841 360.059C38.0841 359.153 38.0841 358.329 38.0841 357.588C38.0841 356.847 38.0841 356.024 38.0841 355.118C37.1988 355.118 36.3752 355.118 35.6135 355.118C34.8517 355.118 34.0282 355.118 33.1429 355.118C33.1429 356.024 33.1429 356.847 33.1429 357.588C33.1429 358.329 33.1429 359.153 33.1429 360.059ZM33.1429 360.059C34.0282 360.059 34.8517 360.059 35.6135 360.059C36.3752 360.059 37.1988 360.059 38.0841 360.059C38.0841 359.153 38.0841 358.329 38.0841 357.588C38.0841 356.847 38.0841 356.024 38.0841 355.118C37.1988 355.118 36.3752 355.118 35.6135 355.118C34.8517 355.118 34.0282 355.118 33.1429 355.118C33.1429 356.024 33.1429 356.847 33.1429 357.588C33.1429 358.329 33.1429 359.153 33.1429 360.059ZM33.1429 360.059C34.0282 360.059 34.8517 360.059 35.6135 360.059C36.3752 360.059 37.1988 360.059 38.0841 360.059C38.0841 359.153 38.0841 358.329 38.0841 357.588C38.0841 356.847 38.0841 356.024 38.0841 355.118C37.1988 355.118 36.3752 355.118 35.6135 355.118C34.8517 355.118 34.0282 355.118 33.1429 355.118C33.1429 356.024 33.1429 356.847 33.1429 357.588C33.1429 358.329 33.1429 359.153 33.1429 360.059ZM52.9076 360.059C53.7929 360.059 54.6164 360.059 55.3782 360.059C56.1399 360.059 56.9635 360.059 57.8488 360.059C57.8488 359.153 57.8488 358.329 57.8488 357.588C57.8488 356.847 57.8488 356.024 57.8488 355.118C56.9635 355.118 56.1399 355.118 55.3782 355.118C54.6164 355.118 53.7929 355.118 52.9076 355.118C52.9076 356.024 52.9076 356.847 52.9076 357.588C52.9076 358.329 52.9076 359.153 52.9076 360.059ZM52.9076 360.059C53.7929 360.059 54.6164 360.059 55.3782 360.059C56.1399 360.059 56.9635 360.059 57.8488 360.059C57.8488 359.153 57.8488 358.329 57.8488 357.588C57.8488 356.847 57.8488 356.024 57.8488 355.118C56.9635 355.118 56.1399 355.118 55.3782 355.118C54.6164 355.118 53.7929 355.118 52.9076 355.118C52.9076 356.024 52.9076 356.847 52.9076 357.588C52.9076 358.329 52.9076 359.153 52.9076 360.059ZM52.9076 360.059C53.7929 360.059 54.6164 360.059 55.3782 360.059C56.1399 360.059 56.9635 360.059 57.8488 360.059C57.8488 359.153 57.8488 358.329 57.8488 357.588C57.8488 356.847 57.8488 356.024 57.8488 355.118C56.9635 355.118 56.1399 355.118 55.3782 355.118C54.6164 355.118 53.7929 355.118 52.9076 355.118C52.9076 356.024 52.9076 356.847 52.9076 357.588C52.9076 358.329 52.9076 359.153 52.9076 360.059ZM52.9076 360.059C53.7929 360.059 54.6164 360.059 55.3782 360.059C56.1399 360.059 56.9635 360.059 57.8488 360.059C57.8488 359.153 57.8488 358.329 57.8488 357.588C57.8488 356.847 57.8488 356.024 57.8488 355.118C56.9635 355.118 56.1399 355.118 55.3782 355.118C54.6164 355.118 53.7929 355.118 52.9076 355.118C52.9076 356.024 52.9076 356.847 52.9076 357.588C52.9076 358.329 52.9076 359.153 52.9076 360.059ZM52.9076 360.059C53.7929 360.059 54.6164 360.059 55.3782 360.059C56.1399 360.059 56.9635 360.059 57.8488 360.059C57.8488 359.153 57.8488 358.329 57.8488 357.588C57.8488 356.847 57.8488 356.024 57.8488 355.118C56.9635 355.118 56.1399 355.118 55.3782 355.118C54.6164 355.118 53.7929 355.118 52.9076 355.118C52.9076 356.024 52.9076 356.847 52.9076 357.588C52.9076 358.329 52.9076 359.153 52.9076 360.059ZM52.9076 360.059C53.7929 360.059 54.6164 360.059 55.3782 360.059C56.1399 360.059 56.9635 360.059 57.8488 360.059C57.8488 359.153 57.8488 358.329 57.8488 357.588C57.8488 356.847 57.8488 356.024 57.8488 355.118C56.9635 355.118 56.1399 355.118 55.3782 355.118C54.6164 355.118 53.7929 355.118 52.9076 355.118C52.9076 356.024 52.9076 356.847 52.9076 357.588C52.9076 358.329 52.9076 359.153 52.9076 360.059ZM52.9076 360.059C53.7929 360.059 54.6164 360.059 55.3782 360.059C56.1399 360.059 56.9635 360.059 57.8488 360.059C57.8488 359.153 57.8488 358.329 57.8488 357.588C57.8488 356.847 57.8488 356.024 57.8488 355.118C56.9635 355.118 56.1399 355.118 55.3782 355.118C54.6164 355.118 53.7929 355.118 52.9076 355.118C52.9076 356.024 52.9076 356.847 52.9076 357.588C52.9076 358.329 52.9076 359.153 52.9076 360.059ZM52.9076 360.059C53.7929 360.059 54.6164 360.059 55.3782 360.059C56.1399 360.059 56.9635 360.059 57.8488 360.059C57.8488 359.153 57.8488 358.329 57.8488 357.588C57.8488 356.847 57.8488 356.024 57.8488 355.118C56.9635 355.118 56.1399 355.118 55.3782 355.118C54.6164 355.118 53.7929 355.118 52.9076 355.118C52.9076 356.024 52.9076 356.847 52.9076 357.588C52.9076 358.329 52.9076 359.153 52.9076 360.059ZM52.9076 360.059C53.7929 360.059 54.6164 360.059 55.3782 360.059C56.1399 360.059 56.9635 360.059 57.8488 360.059C57.8488 359.153 57.8488 358.329 57.8488 357.588C57.8488 356.847 57.8488 356.024 57.8488 355.118C56.9635 355.118 56.1399 355.118 55.3782 355.118C54.6164 355.118 53.7929 355.118 52.9076 355.118C52.9076 356.024 52.9076 356.847 52.9076 357.588C52.9076 358.329 52.9076 359.153 52.9076 360.059ZM33.1429 355.118C34.0282 355.118 34.8517 355.118 35.6135 355.118C36.3752 355.118 37.1988 355.118 38.0841 355.118C38.0841 354.212 38.0841 353.388 38.0841 352.647C38.0841 351.906 38.0841 351.082 38.0841 350.176C37.1988 350.176 36.3752 350.176 35.6135 350.176C34.8517 350.176 34.0282 350.176 33.1429 350.176C33.1429 351.082 33.1429 351.906 33.1429 352.647C33.1429 353.388 33.1429 354.212 33.1429 355.118ZM33.1429 355.118C34.0282 355.118 34.8517 355.118 35.6135 355.118C36.3752 355.118 37.1988 355.118 38.0841 355.118C38.0841 354.212 38.0841 353.388 38.0841 352.647C38.0841 351.906 38.0841 351.082 38.0841 350.176C37.1988 350.176 36.3752 350.176 35.6135 350.176C34.8517 350.176 34.0282 350.176 33.1429 350.176C33.1429 351.082 33.1429 351.906 33.1429 352.647C33.1429 353.388 33.1429 354.212 33.1429 355.118ZM33.1429 355.118C34.0282 355.118 34.8517 355.118 35.6135 355.118C36.3752 355.118 37.1988 355.118 38.0841 355.118C38.0841 354.212 38.0841 353.388 38.0841 352.647C38.0841 351.906 38.0841 351.082 38.0841 350.176C37.1988 350.176 36.3752 350.176 35.6135 350.176C34.8517 350.176 34.0282 350.176 33.1429 350.176C33.1429 351.082 33.1429 351.906 33.1429 352.647C33.1429 353.388 33.1429 354.212 33.1429 355.118ZM33.1429 355.118C34.0282 355.118 34.8517 355.118 35.6135 355.118C36.3752 355.118 37.1988 355.118 38.0841 355.118C38.0841 354.212 38.0841 353.388 38.0841 352.647C38.0841 351.906 38.0841 351.082 38.0841 350.176C37.1988 350.176 36.3752 350.176 35.6135 350.176C34.8517 350.176 34.0282 350.176 33.1429 350.176C33.1429 351.082 33.1429 351.906 33.1429 352.647C33.1429 353.388 33.1429 354.212 33.1429 355.118ZM33.1429 355.118C34.0282 355.118 34.8517 355.118 35.6135 355.118C36.3752 355.118 37.1988 355.118 38.0841 355.118C38.0841 354.212 38.0841 353.388 38.0841 352.647C38.0841 351.906 38.0841 351.082 38.0841 350.176C37.1988 350.176 36.3752 350.176 35.6135 350.176C34.8517 350.176 34.0282 350.176 33.1429 350.176C33.1429 351.082 33.1429 351.906 33.1429 352.647C33.1429 353.388 33.1429 354.212 33.1429 355.118ZM33.1429 355.118C34.0282 355.118 34.8517 355.118 35.6135 355.118C36.3752 355.118 37.1988 355.118 38.0841 355.118C38.0841 354.212 38.0841 353.388 38.0841 352.647C38.0841 351.906 38.0841 351.082 38.0841 350.176C37.1988 350.176 36.3752 350.176 35.6135 350.176C34.8517 350.176 34.0282 350.176 33.1429 350.176C33.1429 351.082 33.1429 351.906 33.1429 352.647C33.1429 353.388 33.1429 354.212 33.1429 355.118ZM33.1429 355.118C34.0282 355.118 34.8517 355.118 35.6135 355.118C36.3752 355.118 37.1988 355.118 38.0841 355.118C38.0841 354.212 38.0841 353.388 38.0841 352.647C38.0841 351.906 38.0841 351.082 38.0841 350.176C37.1988 350.176 36.3752 350.176 35.6135 350.176C34.8517 350.176 34.0282 350.176 33.1429 350.176C33.1429 351.082 33.1429 351.906 33.1429 352.647C33.1429 353.388 33.1429 354.212 33.1429 355.118ZM33.1429 355.118C34.0282 355.118 34.8517 355.118 35.6135 355.118C36.3752 355.118 37.1988 355.118 38.0841 355.118C38.0841 354.212 38.0841 353.388 38.0841 352.647C38.0841 351.906 38.0841 351.082 38.0841 350.176C37.1988 350.176 36.3752 350.176 35.6135 350.176C34.8517 350.176 34.0282 350.176 33.1429 350.176C33.1429 351.082 33.1429 351.906 33.1429 352.647C33.1429 353.388 33.1429 354.212 33.1429 355.118ZM33.1429 355.118C34.0282 355.118 34.8517 355.118 35.6135 355.118C36.3752 355.118 37.1988 355.118 38.0841 355.118C38.0841 354.212 38.0841 353.388 38.0841 352.647C38.0841 351.906 38.0841 351.082 38.0841 350.176C37.1988 350.176 36.3752 350.176 35.6135 350.176C34.8517 350.176 34.0282 350.176 33.1429 350.176C33.1429 351.082 33.1429 351.906 33.1429 352.647C33.1429 353.388 33.1429 354.212 33.1429 355.118ZM52.9076 355.118C53.7929 355.118 54.6164 355.118 55.3782 355.118C56.1399 355.118 56.9635 355.118 57.8488 355.118C57.8488 354.212 57.8488 353.388 57.8488 352.647C57.8488 351.906 57.8488 351.082 57.8488 350.176C56.9635 350.176 56.1399 350.176 55.3782 350.176C54.6164 350.176 53.7929 350.176 52.9076 350.176C52.9076 351.082 52.9076 351.906 52.9076 352.647C52.9076 353.388 52.9076 354.212 52.9076 355.118ZM52.9076 355.118C53.7929 355.118 54.6164 355.118 55.3782 355.118C56.1399 355.118 56.9635 355.118 57.8488 355.118C57.8488 354.212 57.8488 353.388 57.8488 352.647C57.8488 351.906 57.8488 351.082 57.8488 350.176C56.9635 350.176 56.1399 350.176 55.3782 350.176C54.6164 350.176 53.7929 350.176 52.9076 350.176C52.9076 351.082 52.9076 351.906 52.9076 352.647C52.9076 353.388 52.9076 354.212 52.9076 355.118ZM52.9076 355.118C53.7929 355.118 54.6164 355.118 55.3782 355.118C56.1399 355.118 56.9635 355.118 57.8488 355.118C57.8488 354.212 57.8488 353.388 57.8488 352.647C57.8488 351.906 57.8488 351.082 57.8488 350.176C56.9635 350.176 56.1399 350.176 55.3782 350.176C54.6164 350.176 53.7929 350.176 52.9076 350.176C52.9076 351.082 52.9076 351.906 52.9076 352.647C52.9076 353.388 52.9076 354.212 52.9076 355.118ZM52.9076 355.118C53.7929 355.118 54.6164 355.118 55.3782 355.118C56.1399 355.118 56.9635 355.118 57.8488 355.118C57.8488 354.212 57.8488 353.388 57.8488 352.647C57.8488 351.906 57.8488 351.082 57.8488 350.176C56.9635 350.176 56.1399 350.176 55.3782 350.176C54.6164 350.176 53.7929 350.176 52.9076 350.176C52.9076 351.082 52.9076 351.906 52.9076 352.647C52.9076 353.388 52.9076 354.212 52.9076 355.118ZM52.9076 355.118C53.7929 355.118 54.6164 355.118 55.3782 355.118C56.1399 355.118 56.9635 355.118 57.8488 355.118C57.8488 354.212 57.8488 353.388 57.8488 352.647C57.8488 351.906 57.8488 351.082 57.8488 350.176C56.9635 350.176 56.1399 350.176 55.3782 350.176C54.6164 350.176 53.7929 350.176 52.9076 350.176C52.9076 351.082 52.9076 351.906 52.9076 352.647C52.9076 353.388 52.9076 354.212 52.9076 355.118ZM52.9076 355.118C53.7929 355.118 54.6164 355.118 55.3782 355.118C56.1399 355.118 56.9635 355.118 57.8488 355.118C57.8488 354.212 57.8488 353.388 57.8488 352.647C57.8488 351.906 57.8488 351.082 57.8488 350.176C56.9635 350.176 56.1399 350.176 55.3782 350.176C54.6164 350.176 53.7929 350.176 52.9076 350.176C52.9076 351.082 52.9076 351.906 52.9076 352.647C52.9076 353.388 52.9076 354.212 52.9076 355.118ZM52.9076 355.118C53.7929 355.118 54.6164 355.118 55.3782 355.118C56.1399 355.118 56.9635 355.118 57.8488 355.118C57.8488 354.212 57.8488 353.388 57.8488 352.647C57.8488 351.906 57.8488 351.082 57.8488 350.176C56.9635 350.176 56.1399 350.176 55.3782 350.176C54.6164 350.176 53.7929 350.176 52.9076 350.176C52.9076 351.082 52.9076 351.906 52.9076 352.647C52.9076 353.388 52.9076 354.212 52.9076 355.118ZM52.9076 355.118C53.7929 355.118 54.6164 355.118 55.3782 355.118C56.1399 355.118 56.9635 355.118 57.8488 355.118C57.8488 354.212 57.8488 353.388 57.8488 352.647C57.8488 351.906 57.8488 351.082 57.8488 350.176C56.9635 350.176 56.1399 350.176 55.3782 350.176C54.6164 350.176 53.7929 350.176 52.9076 350.176C52.9076 351.082 52.9076 351.906 52.9076 352.647C52.9076 353.388 52.9076 354.212 52.9076 355.118ZM52.9076 355.118C53.7929 355.118 54.6164 355.118 55.3782 355.118C56.1399 355.118 56.9635 355.118 57.8488 355.118C57.8488 354.212 57.8488 353.388 57.8488 352.647C57.8488 351.906 57.8488 351.082 57.8488 350.176C56.9635 350.176 56.1399 350.176 55.3782 350.176C54.6164 350.176 53.7929 350.176 52.9076 350.176C52.9076 351.082 52.9076 351.906 52.9076 352.647C52.9076 353.388 52.9076 354.212 52.9076 355.118ZM52.9076 350.176C53.7929 350.176 54.6164 350.176 55.3782 350.176C56.1399 350.176 56.9635 350.176 57.8488 350.176C57.8488 349.271 57.8488 348.447 57.8488 347.706C57.8488 346.965 57.8488 346.141 57.8488 345.235C56.9635 345.235 56.1399 345.235 55.3782 345.235C54.6164 345.235 53.7929 345.235 52.9076 345.235C52.9076 346.141 52.9076 346.965 52.9076 347.706C52.9076 348.447 52.9076 349.271 52.9076 350.176ZM52.9076 350.176C53.7929 350.176 54.6164 350.176 55.3782 350.176C56.1399 350.176 56.9635 350.176 57.8488 350.176C57.8488 349.271 57.8488 348.447 57.8488 347.706C57.8488 346.965 57.8488 346.141 57.8488 345.235C56.9635 345.235 56.1399 345.235 55.3782 345.235C54.6164 345.235 53.7929 345.235 52.9076 345.235C52.9076 346.141 52.9076 346.965 52.9076 347.706C52.9076 348.447 52.9076 349.271 52.9076 350.176ZM52.9076 350.176C53.7929 350.176 54.6164 350.176 55.3782 350.176C56.1399 350.176 56.9635 350.176 57.8488 350.176C57.8488 349.271 57.8488 348.447 57.8488 347.706C57.8488 346.965 57.8488 346.141 57.8488 345.235C56.9635 345.235 56.1399 345.235 55.3782 345.235C54.6164 345.235 53.7929 345.235 52.9076 345.235C52.9076 346.141 52.9076 346.965 52.9076 347.706C52.9076 348.447 52.9076 349.271 52.9076 350.176ZM52.9076 350.176C53.7929 350.176 54.6164 350.176 55.3782 350.176C56.1399 350.176 56.9635 350.176 57.8488 350.176C57.8488 349.271 57.8488 348.447 57.8488 347.706C57.8488 346.965 57.8488 346.141 57.8488 345.235C56.9635 345.235 56.1399 345.235 55.3782 345.235C54.6164 345.235 53.7929 345.235 52.9076 345.235C52.9076 346.141 52.9076 346.965 52.9076 347.706C52.9076 348.447 52.9076 349.271 52.9076 350.176ZM52.9076 350.176C53.7929 350.176 54.6164 350.176 55.3782 350.176C56.1399 350.176 56.9635 350.176 57.8488 350.176C57.8488 349.271 57.8488 348.447 57.8488 347.706C57.8488 346.965 57.8488 346.141 57.8488 345.235C56.9635 345.235 56.1399 345.235 55.3782 345.235C54.6164 345.235 53.7929 345.235 52.9076 345.235C52.9076 346.141 52.9076 346.965 52.9076 347.706C52.9076 348.447 52.9076 349.271 52.9076 350.176ZM52.9076 350.176C53.7929 350.176 54.6164 350.176 55.3782 350.176C56.1399 350.176 56.9635 350.176 57.8488 350.176C57.8488 349.271 57.8488 348.447 57.8488 347.706C57.8488 346.965 57.8488 346.141 57.8488 345.235C56.9635 345.235 56.1399 345.235 55.3782 345.235C54.6164 345.235 53.7929 345.235 52.9076 345.235C52.9076 346.141 52.9076 346.965 52.9076 347.706C52.9076 348.447 52.9076 349.271 52.9076 350.176ZM52.9076 350.176C53.7929 350.176 54.6164 350.176 55.3782 350.176C56.1399 350.176 56.9635 350.176 57.8488 350.176C57.8488 349.271 57.8488 348.447 57.8488 347.706C57.8488 346.965 57.8488 346.141 57.8488 345.235C56.9635 345.235 56.1399 345.235 55.3782 345.235C54.6164 345.235 53.7929 345.235 52.9076 345.235C52.9076 346.141 52.9076 346.965 52.9076 347.706C52.9076 348.447 52.9076 349.271 52.9076 350.176ZM52.9076 350.176C53.7929 350.176 54.6164 350.176 55.3782 350.176C56.1399 350.176 56.9635 350.176 57.8488 350.176C57.8488 349.271 57.8488 348.447 57.8488 347.706C57.8488 346.965 57.8488 346.141 57.8488 345.235C56.9635 345.235 56.1399 345.235 55.3782 345.235C54.6164 345.235 53.7929 345.235 52.9076 345.235C52.9076 346.141 52.9076 346.965 52.9076 347.706C52.9076 348.447 52.9076 349.271 52.9076 350.176ZM52.9076 350.176C53.7929 350.176 54.6164 350.176 55.3782 350.176C56.1399 350.176 56.9635 350.176 57.8488 350.176C57.8488 349.271 57.8488 348.447 57.8488 347.706C57.8488 346.965 57.8488 346.141 57.8488 345.235C56.9635 345.235 56.1399 345.235 55.3782 345.235C54.6164 345.235 53.7929 345.235 52.9076 345.235C52.9076 346.141 52.9076 346.965 52.9076 347.706C52.9076 348.447 52.9076 349.271 52.9076 350.176ZM52.9076 345.235C53.7929 345.235 54.6164 345.235 55.3782 345.235C56.1399 345.235 56.9635 345.235 57.8488 345.235C57.8488 344.329 57.8488 343.506 57.8488 342.765C57.8488 342.024 57.8488 341.2 57.8488 340.294C56.9635 340.294 56.1399 340.294 55.3782 340.294C54.6164 340.294 53.7929 340.294 52.9076 340.294C52.9076 341.2 52.9076 342.024 52.9076 342.765C52.9076 343.506 52.9076 344.329 52.9076 345.235ZM52.9076 345.235C53.7929 345.235 54.6164 345.235 55.3782 345.235C56.1399 345.235 56.9635 345.235 57.8488 345.235C57.8488 344.329 57.8488 343.506 57.8488 342.765C57.8488 342.024 57.8488 341.2 57.8488 340.294C56.9635 340.294 56.1399 340.294 55.3782 340.294C54.6164 340.294 53.7929 340.294 52.9076 340.294C52.9076 341.2 52.9076 342.024 52.9076 342.765C52.9076 343.506 52.9076 344.329 52.9076 345.235ZM52.9076 345.235C53.7929 345.235 54.6164 345.235 55.3782 345.235C56.1399 345.235 56.9635 345.235 57.8488 345.235C57.8488 344.329 57.8488 343.506 57.8488 342.765C57.8488 342.024 57.8488 341.2 57.8488 340.294C56.9635 340.294 56.1399 340.294 55.3782 340.294C54.6164 340.294 53.7929 340.294 52.9076 340.294C52.9076 341.2 52.9076 342.024 52.9076 342.765C52.9076 343.506 52.9076 344.329 52.9076 345.235ZM52.9076 345.235C53.7929 345.235 54.6164 345.235 55.3782 345.235C56.1399 345.235 56.9635 345.235 57.8488 345.235C57.8488 344.329 57.8488 343.506 57.8488 342.765C57.8488 342.024 57.8488 341.2 57.8488 340.294C56.9635 340.294 56.1399 340.294 55.3782 340.294C54.6164 340.294 53.7929 340.294 52.9076 340.294C52.9076 341.2 52.9076 342.024 52.9076 342.765C52.9076 343.506 52.9076 344.329 52.9076 345.235ZM52.9076 345.235C53.7929 345.235 54.6164 345.235 55.3782 345.235C56.1399 345.235 56.9635 345.235 57.8488 345.235C57.8488 344.329 57.8488 343.506 57.8488 342.765C57.8488 342.024 57.8488 341.2 57.8488 340.294C56.9635 340.294 56.1399 340.294 55.3782 340.294C54.6164 340.294 53.7929 340.294 52.9076 340.294C52.9076 341.2 52.9076 342.024 52.9076 342.765C52.9076 343.506 52.9076 344.329 52.9076 345.235ZM52.9076 345.235C53.7929 345.235 54.6164 345.235 55.3782 345.235C56.1399 345.235 56.9635 345.235 57.8488 345.235C57.8488 344.329 57.8488 343.506 57.8488 342.765C57.8488 342.024 57.8488 341.2 57.8488 340.294C56.9635 340.294 56.1399 340.294 55.3782 340.294C54.6164 340.294 53.7929 340.294 52.9076 340.294C52.9076 341.2 52.9076 342.024 52.9076 342.765C52.9076 343.506 52.9076 344.329 52.9076 345.235ZM52.9076 345.235C53.7929 345.235 54.6164 345.235 55.3782 345.235C56.1399 345.235 56.9635 345.235 57.8488 345.235C57.8488 344.329 57.8488 343.506 57.8488 342.765C57.8488 342.024 57.8488 341.2 57.8488 340.294C56.9635 340.294 56.1399 340.294 55.3782 340.294C54.6164 340.294 53.7929 340.294 52.9076 340.294C52.9076 341.2 52.9076 342.024 52.9076 342.765C52.9076 343.506 52.9076 344.329 52.9076 345.235ZM52.9076 345.235C53.7929 345.235 54.6164 345.235 55.3782 345.235C56.1399 345.235 56.9635 345.235 57.8488 345.235C57.8488 344.329 57.8488 343.506 57.8488 342.765C57.8488 342.024 57.8488 341.2 57.8488 340.294C56.9635 340.294 56.1399 340.294 55.3782 340.294C54.6164 340.294 53.7929 340.294 52.9076 340.294C52.9076 341.2 52.9076 342.024 52.9076 342.765C52.9076 343.506 52.9076 344.329 52.9076 345.235ZM52.9076 345.235C53.7929 345.235 54.6164 345.235 55.3782 345.235C56.1399 345.235 56.9635 345.235 57.8488 345.235C57.8488 344.329 57.8488 343.506 57.8488 342.765C57.8488 342.024 57.8488 341.2 57.8488 340.294C56.9635 340.294 56.1399 340.294 55.3782 340.294C54.6164 340.294 53.7929 340.294 52.9076 340.294C52.9076 341.2 52.9076 342.024 52.9076 342.765C52.9076 343.506 52.9076 344.329 52.9076 345.235ZM38.0841 340.294C38.9693 340.294 39.7929 340.294 40.5546 340.294C41.3164 340.294 42.1399 340.294 43.0252 340.294C43.0252 339.388 43.0252 338.565 43.0252 337.824C43.0252 337.082 43.0252 336.259 43.0252 335.353C42.1399 335.353 41.3164 335.353 40.5546 335.353C39.7929 335.353 38.9693 335.353 38.0841 335.353C38.0841 336.259 38.0841 337.082 38.0841 337.824C38.0841 338.565 38.0841 339.388 38.0841 340.294ZM38.0841 340.294C38.9693 340.294 39.7929 340.294 40.5546 340.294C41.3164 340.294 42.1399 340.294 43.0252 340.294C43.0252 339.388 43.0252 338.565 43.0252 337.824C43.0252 337.082 43.0252 336.259 43.0252 335.353C42.1399 335.353 41.3164 335.353 40.5546 335.353C39.7929 335.353 38.9693 335.353 38.0841 335.353C38.0841 336.259 38.0841 337.082 38.0841 337.824C38.0841 338.565 38.0841 339.388 38.0841 340.294ZM38.0841 340.294C38.9693 340.294 39.7929 340.294 40.5546 340.294C41.3164 340.294 42.1399 340.294 43.0252 340.294C43.0252 339.388 43.0252 338.565 43.0252 337.824C43.0252 337.082 43.0252 336.259 43.0252 335.353C42.1399 335.353 41.3164 335.353 40.5546 335.353C39.7929 335.353 38.9693 335.353 38.0841 335.353C38.0841 336.259 38.0841 337.082 38.0841 337.824C38.0841 338.565 38.0841 339.388 38.0841 340.294ZM38.0841 340.294C38.9693 340.294 39.7929 340.294 40.5546 340.294C41.3164 340.294 42.1399 340.294 43.0252 340.294C43.0252 339.388 43.0252 338.565 43.0252 337.824C43.0252 337.082 43.0252 336.259 43.0252 335.353C42.1399 335.353 41.3164 335.353 40.5546 335.353C39.7929 335.353 38.9693 335.353 38.0841 335.353C38.0841 336.259 38.0841 337.082 38.0841 337.824C38.0841 338.565 38.0841 339.388 38.0841 340.294ZM38.0841 340.294C38.9693 340.294 39.7929 340.294 40.5546 340.294C41.3164 340.294 42.1399 340.294 43.0252 340.294C43.0252 339.388 43.0252 338.565 43.0252 337.824C43.0252 337.082 43.0252 336.259 43.0252 335.353C42.1399 335.353 41.3164 335.353 40.5546 335.353C39.7929 335.353 38.9693 335.353 38.0841 335.353C38.0841 336.259 38.0841 337.082 38.0841 337.824C38.0841 338.565 38.0841 339.388 38.0841 340.294ZM38.0841 340.294C38.9693 340.294 39.7929 340.294 40.5546 340.294C41.3164 340.294 42.1399 340.294 43.0252 340.294C43.0252 339.388 43.0252 338.565 43.0252 337.824C43.0252 337.082 43.0252 336.259 43.0252 335.353C42.1399 335.353 41.3164 335.353 40.5546 335.353C39.7929 335.353 38.9693 335.353 38.0841 335.353C38.0841 336.259 38.0841 337.082 38.0841 337.824C38.0841 338.565 38.0841 339.388 38.0841 340.294ZM38.0841 340.294C38.9693 340.294 39.7929 340.294 40.5546 340.294C41.3164 340.294 42.1399 340.294 43.0252 340.294C43.0252 339.388 43.0252 338.565 43.0252 337.824C43.0252 337.082 43.0252 336.259 43.0252 335.353C42.1399 335.353 41.3164 335.353 40.5546 335.353C39.7929 335.353 38.9693 335.353 38.0841 335.353C38.0841 336.259 38.0841 337.082 38.0841 337.824C38.0841 338.565 38.0841 339.388 38.0841 340.294ZM38.0841 340.294C38.9693 340.294 39.7929 340.294 40.5546 340.294C41.3164 340.294 42.1399 340.294 43.0252 340.294C43.0252 339.388 43.0252 338.565 43.0252 337.824C43.0252 337.082 43.0252 336.259 43.0252 335.353C42.1399 335.353 41.3164 335.353 40.5546 335.353C39.7929 335.353 38.9693 335.353 38.0841 335.353C38.0841 336.259 38.0841 337.082 38.0841 337.824C38.0841 338.565 38.0841 339.388 38.0841 340.294ZM38.0841 340.294C38.9693 340.294 39.7929 340.294 40.5546 340.294C41.3164 340.294 42.1399 340.294 43.0252 340.294C43.0252 339.388 43.0252 338.565 43.0252 337.824C43.0252 337.082 43.0252 336.259 43.0252 335.353C42.1399 335.353 41.3164 335.353 40.5546 335.353C39.7929 335.353 38.9693 335.353 38.0841 335.353C38.0841 336.259 38.0841 337.082 38.0841 337.824C38.0841 338.565 38.0841 339.388 38.0841 340.294ZM43.0252 340.294C43.9105 340.294 44.7341 340.294 45.4958 340.294C46.2576 340.294 47.0811 340.294 47.9664 340.294C47.9664 339.388 47.9664 338.565 47.9664 337.824C47.9664 337.082 47.9664 336.259 47.9664 335.353C47.0811 335.353 46.2576 335.353 45.4958 335.353C44.7341 335.353 43.9105 335.353 43.0252 335.353C43.0252 336.259 43.0252 337.082 43.0252 337.824C43.0252 338.565 43.0252 339.388 43.0252 340.294ZM43.0252 340.294C43.9105 340.294 44.7341 340.294 45.4958 340.294C46.2576 340.294 47.0811 340.294 47.9664 340.294C47.9664 339.388 47.9664 338.565 47.9664 337.824C47.9664 337.082 47.9664 336.259 47.9664 335.353C47.0811 335.353 46.2576 335.353 45.4958 335.353C44.7341 335.353 43.9105 335.353 43.0252 335.353C43.0252 336.259 43.0252 337.082 43.0252 337.824C43.0252 338.565 43.0252 339.388 43.0252 340.294ZM43.0252 340.294C43.9105 340.294 44.7341 340.294 45.4958 340.294C46.2576 340.294 47.0811 340.294 47.9664 340.294C47.9664 339.388 47.9664 338.565 47.9664 337.824C47.9664 337.082 47.9664 336.259 47.9664 335.353C47.0811 335.353 46.2576 335.353 45.4958 335.353C44.7341 335.353 43.9105 335.353 43.0252 335.353C43.0252 336.259 43.0252 337.082 43.0252 337.824C43.0252 338.565 43.0252 339.388 43.0252 340.294ZM43.0252 340.294C43.9105 340.294 44.7341 340.294 45.4958 340.294C46.2576 340.294 47.0811 340.294 47.9664 340.294C47.9664 339.388 47.9664 338.565 47.9664 337.824C47.9664 337.082 47.9664 336.259 47.9664 335.353C47.0811 335.353 46.2576 335.353 45.4958 335.353C44.7341 335.353 43.9105 335.353 43.0252 335.353C43.0252 336.259 43.0252 337.082 43.0252 337.824C43.0252 338.565 43.0252 339.388 43.0252 340.294ZM43.0252 340.294C43.9105 340.294 44.7341 340.294 45.4958 340.294C46.2576 340.294 47.0811 340.294 47.9664 340.294C47.9664 339.388 47.9664 338.565 47.9664 337.824C47.9664 337.082 47.9664 336.259 47.9664 335.353C47.0811 335.353 46.2576 335.353 45.4958 335.353C44.7341 335.353 43.9105 335.353 43.0252 335.353C43.0252 336.259 43.0252 337.082 43.0252 337.824C43.0252 338.565 43.0252 339.388 43.0252 340.294ZM43.0252 340.294C43.9105 340.294 44.7341 340.294 45.4958 340.294C46.2576 340.294 47.0811 340.294 47.9664 340.294C47.9664 339.388 47.9664 338.565 47.9664 337.824C47.9664 337.082 47.9664 336.259 47.9664 335.353C47.0811 335.353 46.2576 335.353 45.4958 335.353C44.7341 335.353 43.9105 335.353 43.0252 335.353C43.0252 336.259 43.0252 337.082 43.0252 337.824C43.0252 338.565 43.0252 339.388 43.0252 340.294ZM43.0252 340.294C43.9105 340.294 44.7341 340.294 45.4958 340.294C46.2576 340.294 47.0811 340.294 47.9664 340.294C47.9664 339.388 47.9664 338.565 47.9664 337.824C47.9664 337.082 47.9664 336.259 47.9664 335.353C47.0811 335.353 46.2576 335.353 45.4958 335.353C44.7341 335.353 43.9105 335.353 43.0252 335.353C43.0252 336.259 43.0252 337.082 43.0252 337.824C43.0252 338.565 43.0252 339.388 43.0252 340.294ZM43.0252 340.294C43.9105 340.294 44.7341 340.294 45.4958 340.294C46.2576 340.294 47.0811 340.294 47.9664 340.294C47.9664 339.388 47.9664 338.565 47.9664 337.824C47.9664 337.082 47.9664 336.259 47.9664 335.353C47.0811 335.353 46.2576 335.353 45.4958 335.353C44.7341 335.353 43.9105 335.353 43.0252 335.353C43.0252 336.259 43.0252 337.082 43.0252 337.824C43.0252 338.565 43.0252 339.388 43.0252 340.294ZM43.0252 340.294C43.9105 340.294 44.7341 340.294 45.4958 340.294C46.2576 340.294 47.0811 340.294 47.9664 340.294C47.9664 339.388 47.9664 338.565 47.9664 337.824C47.9664 337.082 47.9664 336.259 47.9664 335.353C47.0811 335.353 46.2576 335.353 45.4958 335.353C44.7341 335.353 43.9105 335.353 43.0252 335.353C43.0252 336.259 43.0252 337.082 43.0252 337.824C43.0252 338.565 43.0252 339.388 43.0252 340.294ZM47.9664 340.294C48.8517 340.294 49.6752 340.294 50.437 340.294C51.1988 340.294 52.0223 340.294 52.9076 340.294C52.9076 339.388 52.9076 338.565 52.9076 337.824C52.9076 337.082 52.9076 336.259 52.9076 335.353C52.0223 335.353 51.1988 335.353 50.437 335.353C49.6752 335.353 48.8517 335.353 47.9664 335.353C47.9664 336.259 47.9664 337.082 47.9664 337.824C47.9664 338.565 47.9664 339.388 47.9664 340.294ZM47.9664 340.294C48.8517 340.294 49.6752 340.294 50.437 340.294C51.1988 340.294 52.0223 340.294 52.9076 340.294C52.9076 339.388 52.9076 338.565 52.9076 337.824C52.9076 337.082 52.9076 336.259 52.9076 335.353C52.0223 335.353 51.1988 335.353 50.437 335.353C49.6752 335.353 48.8517 335.353 47.9664 335.353C47.9664 336.259 47.9664 337.082 47.9664 337.824C47.9664 338.565 47.9664 339.388 47.9664 340.294ZM47.9664 340.294C48.8517 340.294 49.6752 340.294 50.437 340.294C51.1988 340.294 52.0223 340.294 52.9076 340.294C52.9076 339.388 52.9076 338.565 52.9076 337.824C52.9076 337.082 52.9076 336.259 52.9076 335.353C52.0223 335.353 51.1988 335.353 50.437 335.353C49.6752 335.353 48.8517 335.353 47.9664 335.353C47.9664 336.259 47.9664 337.082 47.9664 337.824C47.9664 338.565 47.9664 339.388 47.9664 340.294ZM47.9664 340.294C48.8517 340.294 49.6752 340.294 50.437 340.294C51.1988 340.294 52.0223 340.294 52.9076 340.294C52.9076 339.388 52.9076 338.565 52.9076 337.824C52.9076 337.082 52.9076 336.259 52.9076 335.353C52.0223 335.353 51.1988 335.353 50.437 335.353C49.6752 335.353 48.8517 335.353 47.9664 335.353C47.9664 336.259 47.9664 337.082 47.9664 337.824C47.9664 338.565 47.9664 339.388 47.9664 340.294ZM47.9664 340.294C48.8517 340.294 49.6752 340.294 50.437 340.294C51.1988 340.294 52.0223 340.294 52.9076 340.294C52.9076 339.388 52.9076 338.565 52.9076 337.824C52.9076 337.082 52.9076 336.259 52.9076 335.353C52.0223 335.353 51.1988 335.353 50.437 335.353C49.6752 335.353 48.8517 335.353 47.9664 335.353C47.9664 336.259 47.9664 337.082 47.9664 337.824C47.9664 338.565 47.9664 339.388 47.9664 340.294ZM47.9664 340.294C48.8517 340.294 49.6752 340.294 50.437 340.294C51.1988 340.294 52.0223 340.294 52.9076 340.294C52.9076 339.388 52.9076 338.565 52.9076 337.824C52.9076 337.082 52.9076 336.259 52.9076 335.353C52.0223 335.353 51.1988 335.353 50.437 335.353C49.6752 335.353 48.8517 335.353 47.9664 335.353C47.9664 336.259 47.9664 337.082 47.9664 337.824C47.9664 338.565 47.9664 339.388 47.9664 340.294ZM47.9664 340.294C48.8517 340.294 49.6752 340.294 50.437 340.294C51.1988 340.294 52.0223 340.294 52.9076 340.294C52.9076 339.388 52.9076 338.565 52.9076 337.824C52.9076 337.082 52.9076 336.259 52.9076 335.353C52.0223 335.353 51.1988 335.353 50.437 335.353C49.6752 335.353 48.8517 335.353 47.9664 335.353C47.9664 336.259 47.9664 337.082 47.9664 337.824C47.9664 338.565 47.9664 339.388 47.9664 340.294ZM47.9664 340.294C48.8517 340.294 49.6752 340.294 50.437 340.294C51.1988 340.294 52.0223 340.294 52.9076 340.294C52.9076 339.388 52.9076 338.565 52.9076 337.824C52.9076 337.082 52.9076 336.259 52.9076 335.353C52.0223 335.353 51.1988 335.353 50.437 335.353C49.6752 335.353 48.8517 335.353 47.9664 335.353C47.9664 336.259 47.9664 337.082 47.9664 337.824C47.9664 338.565 47.9664 339.388 47.9664 340.294ZM47.9664 340.294C48.8517 340.294 49.6752 340.294 50.437 340.294C51.1988 340.294 52.0223 340.294 52.9076 340.294C52.9076 339.388 52.9076 338.565 52.9076 337.824C52.9076 337.082 52.9076 336.259 52.9076 335.353C52.0223 335.353 51.1988 335.353 50.437 335.353C49.6752 335.353 48.8517 335.353 47.9664 335.353C47.9664 336.259 47.9664 337.082 47.9664 337.824C47.9664 338.565 47.9664 339.388 47.9664 340.294ZM52.9076 335.353C53.7929 335.353 54.6164 335.353 55.3782 335.353C56.1399 335.353 56.9635 335.353 57.8488 335.353C57.8488 334.447 57.8488 333.624 57.8488 332.882C57.8488 332.141 57.8488 331.318 57.8488 330.412C56.9635 330.412 56.1399 330.412 55.3782 330.412C54.6164 330.412 53.7929 330.412 52.9076 330.412C52.9076 331.318 52.9076 332.141 52.9076 332.882C52.9076 333.624 52.9076 334.447 52.9076 335.353ZM52.9076 335.353C53.7929 335.353 54.6164 335.353 55.3782 335.353C56.1399 335.353 56.9635 335.353 57.8488 335.353C57.8488 334.447 57.8488 333.624 57.8488 332.882C57.8488 332.141 57.8488 331.318 57.8488 330.412C56.9635 330.412 56.1399 330.412 55.3782 330.412C54.6164 330.412 53.7929 330.412 52.9076 330.412C52.9076 331.318 52.9076 332.141 52.9076 332.882C52.9076 333.624 52.9076 334.447 52.9076 335.353ZM52.9076 335.353C53.7929 335.353 54.6164 335.353 55.3782 335.353C56.1399 335.353 56.9635 335.353 57.8488 335.353C57.8488 334.447 57.8488 333.624 57.8488 332.882C57.8488 332.141 57.8488 331.318 57.8488 330.412C56.9635 330.412 56.1399 330.412 55.3782 330.412C54.6164 330.412 53.7929 330.412 52.9076 330.412C52.9076 331.318 52.9076 332.141 52.9076 332.882C52.9076 333.624 52.9076 334.447 52.9076 335.353ZM52.9076 335.353C53.7929 335.353 54.6164 335.353 55.3782 335.353C56.1399 335.353 56.9635 335.353 57.8488 335.353C57.8488 334.447 57.8488 333.624 57.8488 332.882C57.8488 332.141 57.8488 331.318 57.8488 330.412C56.9635 330.412 56.1399 330.412 55.3782 330.412C54.6164 330.412 53.7929 330.412 52.9076 330.412C52.9076 331.318 52.9076 332.141 52.9076 332.882C52.9076 333.624 52.9076 334.447 52.9076 335.353ZM52.9076 335.353C53.7929 335.353 54.6164 335.353 55.3782 335.353C56.1399 335.353 56.9635 335.353 57.8488 335.353C57.8488 334.447 57.8488 333.624 57.8488 332.882C57.8488 332.141 57.8488 331.318 57.8488 330.412C56.9635 330.412 56.1399 330.412 55.3782 330.412C54.6164 330.412 53.7929 330.412 52.9076 330.412C52.9076 331.318 52.9076 332.141 52.9076 332.882C52.9076 333.624 52.9076 334.447 52.9076 335.353ZM52.9076 335.353C53.7929 335.353 54.6164 335.353 55.3782 335.353C56.1399 335.353 56.9635 335.353 57.8488 335.353C57.8488 334.447 57.8488 333.624 57.8488 332.882C57.8488 332.141 57.8488 331.318 57.8488 330.412C56.9635 330.412 56.1399 330.412 55.3782 330.412C54.6164 330.412 53.7929 330.412 52.9076 330.412C52.9076 331.318 52.9076 332.141 52.9076 332.882C52.9076 333.624 52.9076 334.447 52.9076 335.353ZM52.9076 335.353C53.7929 335.353 54.6164 335.353 55.3782 335.353C56.1399 335.353 56.9635 335.353 57.8488 335.353C57.8488 334.447 57.8488 333.624 57.8488 332.882C57.8488 332.141 57.8488 331.318 57.8488 330.412C56.9635 330.412 56.1399 330.412 55.3782 330.412C54.6164 330.412 53.7929 330.412 52.9076 330.412C52.9076 331.318 52.9076 332.141 52.9076 332.882C52.9076 333.624 52.9076 334.447 52.9076 335.353ZM52.9076 335.353C53.7929 335.353 54.6164 335.353 55.3782 335.353C56.1399 335.353 56.9635 335.353 57.8488 335.353C57.8488 334.447 57.8488 333.624 57.8488 332.882C57.8488 332.141 57.8488 331.318 57.8488 330.412C56.9635 330.412 56.1399 330.412 55.3782 330.412C54.6164 330.412 53.7929 330.412 52.9076 330.412C52.9076 331.318 52.9076 332.141 52.9076 332.882C52.9076 333.624 52.9076 334.447 52.9076 335.353ZM52.9076 335.353C53.7929 335.353 54.6164 335.353 55.3782 335.353C56.1399 335.353 56.9635 335.353 57.8488 335.353C57.8488 334.447 57.8488 333.624 57.8488 332.882C57.8488 332.141 57.8488 331.318 57.8488 330.412C56.9635 330.412 56.1399 330.412 55.3782 330.412C54.6164 330.412 53.7929 330.412 52.9076 330.412C52.9076 331.318 52.9076 332.141 52.9076 332.882C52.9076 333.624 52.9076 334.447 52.9076 335.353ZM52.9076 330.412C53.7929 330.412 54.6164 330.412 55.3782 330.412C56.1399 330.412 56.9635 330.412 57.8488 330.412C57.8488 329.506 57.8488 328.682 57.8488 327.941C57.8488 327.2 57.8488 326.376 57.8488 325.471C56.9635 325.471 56.1399 325.471 55.3782 325.471C54.6164 325.471 53.7929 325.471 52.9076 325.471C52.9076 326.376 52.9076 327.2 52.9076 327.941C52.9076 328.682 52.9076 329.506 52.9076 330.412ZM52.9076 330.412C53.7929 330.412 54.6164 330.412 55.3782 330.412C56.1399 330.412 56.9635 330.412 57.8488 330.412C57.8488 329.506 57.8488 328.682 57.8488 327.941C57.8488 327.2 57.8488 326.376 57.8488 325.471C56.9635 325.471 56.1399 325.471 55.3782 325.471C54.6164 325.471 53.7929 325.471 52.9076 325.471C52.9076 326.376 52.9076 327.2 52.9076 327.941C52.9076 328.682 52.9076 329.506 52.9076 330.412ZM52.9076 330.412C53.7929 330.412 54.6164 330.412 55.3782 330.412C56.1399 330.412 56.9635 330.412 57.8488 330.412C57.8488 329.506 57.8488 328.682 57.8488 327.941C57.8488 327.2 57.8488 326.376 57.8488 325.471C56.9635 325.471 56.1399 325.471 55.3782 325.471C54.6164 325.471 53.7929 325.471 52.9076 325.471C52.9076 326.376 52.9076 327.2 52.9076 327.941C52.9076 328.682 52.9076 329.506 52.9076 330.412ZM52.9076 330.412C53.7929 330.412 54.6164 330.412 55.3782 330.412C56.1399 330.412 56.9635 330.412 57.8488 330.412C57.8488 329.506 57.8488 328.682 57.8488 327.941C57.8488 327.2 57.8488 326.376 57.8488 325.471C56.9635 325.471 56.1399 325.471 55.3782 325.471C54.6164 325.471 53.7929 325.471 52.9076 325.471C52.9076 326.376 52.9076 327.2 52.9076 327.941C52.9076 328.682 52.9076 329.506 52.9076 330.412ZM52.9076 330.412C53.7929 330.412 54.6164 330.412 55.3782 330.412C56.1399 330.412 56.9635 330.412 57.8488 330.412C57.8488 329.506 57.8488 328.682 57.8488 327.941C57.8488 327.2 57.8488 326.376 57.8488 325.471C56.9635 325.471 56.1399 325.471 55.3782 325.471C54.6164 325.471 53.7929 325.471 52.9076 325.471C52.9076 326.376 52.9076 327.2 52.9076 327.941C52.9076 328.682 52.9076 329.506 52.9076 330.412ZM52.9076 330.412C53.7929 330.412 54.6164 330.412 55.3782 330.412C56.1399 330.412 56.9635 330.412 57.8488 330.412C57.8488 329.506 57.8488 328.682 57.8488 327.941C57.8488 327.2 57.8488 326.376 57.8488 325.471C56.9635 325.471 56.1399 325.471 55.3782 325.471C54.6164 325.471 53.7929 325.471 52.9076 325.471C52.9076 326.376 52.9076 327.2 52.9076 327.941C52.9076 328.682 52.9076 329.506 52.9076 330.412ZM52.9076 330.412C53.7929 330.412 54.6164 330.412 55.3782 330.412C56.1399 330.412 56.9635 330.412 57.8488 330.412C57.8488 329.506 57.8488 328.682 57.8488 327.941C57.8488 327.2 57.8488 326.376 57.8488 325.471C56.9635 325.471 56.1399 325.471 55.3782 325.471C54.6164 325.471 53.7929 325.471 52.9076 325.471C52.9076 326.376 52.9076 327.2 52.9076 327.941C52.9076 328.682 52.9076 329.506 52.9076 330.412ZM52.9076 330.412C53.7929 330.412 54.6164 330.412 55.3782 330.412C56.1399 330.412 56.9635 330.412 57.8488 330.412C57.8488 329.506 57.8488 328.682 57.8488 327.941C57.8488 327.2 57.8488 326.376 57.8488 325.471C56.9635 325.471 56.1399 325.471 55.3782 325.471C54.6164 325.471 53.7929 325.471 52.9076 325.471C52.9076 326.376 52.9076 327.2 52.9076 327.941C52.9076 328.682 52.9076 329.506 52.9076 330.412ZM52.9076 330.412C53.7929 330.412 54.6164 330.412 55.3782 330.412C56.1399 330.412 56.9635 330.412 57.8488 330.412C57.8488 329.506 57.8488 328.682 57.8488 327.941C57.8488 327.2 57.8488 326.376 57.8488 325.471C56.9635 325.471 56.1399 325.471 55.3782 325.471C54.6164 325.471 53.7929 325.471 52.9076 325.471C52.9076 326.376 52.9076 327.2 52.9076 327.941C52.9076 328.682 52.9076 329.506 52.9076 330.412ZM33.1429 325.471C34.0282 325.471 34.8517 325.471 35.6135 325.471C36.3752 325.471 37.1988 325.471 38.0841 325.471C38.0841 324.565 38.0841 323.741 38.0841 323C38.0841 322.259 38.0841 321.435 38.0841 320.529C37.1988 320.529 36.3752 320.529 35.6135 320.529C34.8517 320.529 34.0282 320.529 33.1429 320.529C33.1429 321.435 33.1429 322.259 33.1429 323C33.1429 323.741 33.1429 324.565 33.1429 325.471ZM33.1429 325.471C34.0282 325.471 34.8517 325.471 35.6135 325.471C36.3752 325.471 37.1988 325.471 38.0841 325.471C38.0841 324.565 38.0841 323.741 38.0841 323C38.0841 322.259 38.0841 321.435 38.0841 320.529C37.1988 320.529 36.3752 320.529 35.6135 320.529C34.8517 320.529 34.0282 320.529 33.1429 320.529C33.1429 321.435 33.1429 322.259 33.1429 323C33.1429 323.741 33.1429 324.565 33.1429 325.471ZM33.1429 325.471C34.0282 325.471 34.8517 325.471 35.6135 325.471C36.3752 325.471 37.1988 325.471 38.0841 325.471C38.0841 324.565 38.0841 323.741 38.0841 323C38.0841 322.259 38.0841 321.435 38.0841 320.529C37.1988 320.529 36.3752 320.529 35.6135 320.529C34.8517 320.529 34.0282 320.529 33.1429 320.529C33.1429 321.435 33.1429 322.259 33.1429 323C33.1429 323.741 33.1429 324.565 33.1429 325.471ZM33.1429 325.471C34.0282 325.471 34.8517 325.471 35.6135 325.471C36.3752 325.471 37.1988 325.471 38.0841 325.471C38.0841 324.565 38.0841 323.741 38.0841 323C38.0841 322.259 38.0841 321.435 38.0841 320.529C37.1988 320.529 36.3752 320.529 35.6135 320.529C34.8517 320.529 34.0282 320.529 33.1429 320.529C33.1429 321.435 33.1429 322.259 33.1429 323C33.1429 323.741 33.1429 324.565 33.1429 325.471ZM33.1429 325.471C34.0282 325.471 34.8517 325.471 35.6135 325.471C36.3752 325.471 37.1988 325.471 38.0841 325.471C38.0841 324.565 38.0841 323.741 38.0841 323C38.0841 322.259 38.0841 321.435 38.0841 320.529C37.1988 320.529 36.3752 320.529 35.6135 320.529C34.8517 320.529 34.0282 320.529 33.1429 320.529C33.1429 321.435 33.1429 322.259 33.1429 323C33.1429 323.741 33.1429 324.565 33.1429 325.471ZM33.1429 325.471C34.0282 325.471 34.8517 325.471 35.6135 325.471C36.3752 325.471 37.1988 325.471 38.0841 325.471C38.0841 324.565 38.0841 323.741 38.0841 323C38.0841 322.259 38.0841 321.435 38.0841 320.529C37.1988 320.529 36.3752 320.529 35.6135 320.529C34.8517 320.529 34.0282 320.529 33.1429 320.529C33.1429 321.435 33.1429 322.259 33.1429 323C33.1429 323.741 33.1429 324.565 33.1429 325.471ZM33.1429 325.471C34.0282 325.471 34.8517 325.471 35.6135 325.471C36.3752 325.471 37.1988 325.471 38.0841 325.471C38.0841 324.565 38.0841 323.741 38.0841 323C38.0841 322.259 38.0841 321.435 38.0841 320.529C37.1988 320.529 36.3752 320.529 35.6135 320.529C34.8517 320.529 34.0282 320.529 33.1429 320.529C33.1429 321.435 33.1429 322.259 33.1429 323C33.1429 323.741 33.1429 324.565 33.1429 325.471ZM33.1429 325.471C34.0282 325.471 34.8517 325.471 35.6135 325.471C36.3752 325.471 37.1988 325.471 38.0841 325.471C38.0841 324.565 38.0841 323.741 38.0841 323C38.0841 322.259 38.0841 321.435 38.0841 320.529C37.1988 320.529 36.3752 320.529 35.6135 320.529C34.8517 320.529 34.0282 320.529 33.1429 320.529C33.1429 321.435 33.1429 322.259 33.1429 323C33.1429 323.741 33.1429 324.565 33.1429 325.471ZM33.1429 325.471C34.0282 325.471 34.8517 325.471 35.6135 325.471C36.3752 325.471 37.1988 325.471 38.0841 325.471C38.0841 324.565 38.0841 323.741 38.0841 323C38.0841 322.259 38.0841 321.435 38.0841 320.529C37.1988 320.529 36.3752 320.529 35.6135 320.529C34.8517 320.529 34.0282 320.529 33.1429 320.529C33.1429 321.435 33.1429 322.259 33.1429 323C33.1429 323.741 33.1429 324.565 33.1429 325.471ZM52.9076 325.471C53.7929 325.471 54.6164 325.471 55.3782 325.471C56.1399 325.471 56.9635 325.471 57.8488 325.471C57.8488 324.565 57.8488 323.741 57.8488 323C57.8488 322.259 57.8488 321.435 57.8488 320.529C56.9635 320.529 56.1399 320.529 55.3782 320.529C54.6164 320.529 53.7929 320.529 52.9076 320.529C52.9076 321.435 52.9076 322.259 52.9076 323C52.9076 323.741 52.9076 324.565 52.9076 325.471ZM52.9076 325.471C53.7929 325.471 54.6164 325.471 55.3782 325.471C56.1399 325.471 56.9635 325.471 57.8488 325.471C57.8488 324.565 57.8488 323.741 57.8488 323C57.8488 322.259 57.8488 321.435 57.8488 320.529C56.9635 320.529 56.1399 320.529 55.3782 320.529C54.6164 320.529 53.7929 320.529 52.9076 320.529C52.9076 321.435 52.9076 322.259 52.9076 323C52.9076 323.741 52.9076 324.565 52.9076 325.471ZM52.9076 325.471C53.7929 325.471 54.6164 325.471 55.3782 325.471C56.1399 325.471 56.9635 325.471 57.8488 325.471C57.8488 324.565 57.8488 323.741 57.8488 323C57.8488 322.259 57.8488 321.435 57.8488 320.529C56.9635 320.529 56.1399 320.529 55.3782 320.529C54.6164 320.529 53.7929 320.529 52.9076 320.529C52.9076 321.435 52.9076 322.259 52.9076 323C52.9076 323.741 52.9076 324.565 52.9076 325.471ZM52.9076 325.471C53.7929 325.471 54.6164 325.471 55.3782 325.471C56.1399 325.471 56.9635 325.471 57.8488 325.471C57.8488 324.565 57.8488 323.741 57.8488 323C57.8488 322.259 57.8488 321.435 57.8488 320.529C56.9635 320.529 56.1399 320.529 55.3782 320.529C54.6164 320.529 53.7929 320.529 52.9076 320.529C52.9076 321.435 52.9076 322.259 52.9076 323C52.9076 323.741 52.9076 324.565 52.9076 325.471ZM52.9076 325.471C53.7929 325.471 54.6164 325.471 55.3782 325.471C56.1399 325.471 56.9635 325.471 57.8488 325.471C57.8488 324.565 57.8488 323.741 57.8488 323C57.8488 322.259 57.8488 321.435 57.8488 320.529C56.9635 320.529 56.1399 320.529 55.3782 320.529C54.6164 320.529 53.7929 320.529 52.9076 320.529C52.9076 321.435 52.9076 322.259 52.9076 323C52.9076 323.741 52.9076 324.565 52.9076 325.471ZM52.9076 325.471C53.7929 325.471 54.6164 325.471 55.3782 325.471C56.1399 325.471 56.9635 325.471 57.8488 325.471C57.8488 324.565 57.8488 323.741 57.8488 323C57.8488 322.259 57.8488 321.435 57.8488 320.529C56.9635 320.529 56.1399 320.529 55.3782 320.529C54.6164 320.529 53.7929 320.529 52.9076 320.529C52.9076 321.435 52.9076 322.259 52.9076 323C52.9076 323.741 52.9076 324.565 52.9076 325.471ZM52.9076 325.471C53.7929 325.471 54.6164 325.471 55.3782 325.471C56.1399 325.471 56.9635 325.471 57.8488 325.471C57.8488 324.565 57.8488 323.741 57.8488 323C57.8488 322.259 57.8488 321.435 57.8488 320.529C56.9635 320.529 56.1399 320.529 55.3782 320.529C54.6164 320.529 53.7929 320.529 52.9076 320.529C52.9076 321.435 52.9076 322.259 52.9076 323C52.9076 323.741 52.9076 324.565 52.9076 325.471ZM52.9076 325.471C53.7929 325.471 54.6164 325.471 55.3782 325.471C56.1399 325.471 56.9635 325.471 57.8488 325.471C57.8488 324.565 57.8488 323.741 57.8488 323C57.8488 322.259 57.8488 321.435 57.8488 320.529C56.9635 320.529 56.1399 320.529 55.3782 320.529C54.6164 320.529 53.7929 320.529 52.9076 320.529C52.9076 321.435 52.9076 322.259 52.9076 323C52.9076 323.741 52.9076 324.565 52.9076 325.471ZM52.9076 325.471C53.7929 325.471 54.6164 325.471 55.3782 325.471C56.1399 325.471 56.9635 325.471 57.8488 325.471C57.8488 324.565 57.8488 323.741 57.8488 323C57.8488 322.259 57.8488 321.435 57.8488 320.529C56.9635 320.529 56.1399 320.529 55.3782 320.529C54.6164 320.529 53.7929 320.529 52.9076 320.529C52.9076 321.435 52.9076 322.259 52.9076 323C52.9076 323.741 52.9076 324.565 52.9076 325.471ZM33.1429 320.529C34.0282 320.529 34.8517 320.529 35.6135 320.529C36.3752 320.529 37.1988 320.529 38.0841 320.529C38.0841 319.624 38.0841 318.8 38.0841 318.059C38.0841 317.318 38.0841 316.494 38.0841 315.588C37.1988 315.588 36.3752 315.588 35.6135 315.588C34.8517 315.588 34.0282 315.588 33.1429 315.588C33.1429 316.494 33.1429 317.318 33.1429 318.059C33.1429 318.8 33.1429 319.624 33.1429 320.529ZM33.1429 320.529C34.0282 320.529 34.8517 320.529 35.6135 320.529C36.3752 320.529 37.1988 320.529 38.0841 320.529C38.0841 319.624 38.0841 318.8 38.0841 318.059C38.0841 317.318 38.0841 316.494 38.0841 315.588C37.1988 315.588 36.3752 315.588 35.6135 315.588C34.8517 315.588 34.0282 315.588 33.1429 315.588C33.1429 316.494 33.1429 317.318 33.1429 318.059C33.1429 318.8 33.1429 319.624 33.1429 320.529ZM33.1429 320.529C34.0282 320.529 34.8517 320.529 35.6135 320.529C36.3752 320.529 37.1988 320.529 38.0841 320.529C38.0841 319.624 38.0841 318.8 38.0841 318.059C38.0841 317.318 38.0841 316.494 38.0841 315.588C37.1988 315.588 36.3752 315.588 35.6135 315.588C34.8517 315.588 34.0282 315.588 33.1429 315.588C33.1429 316.494 33.1429 317.318 33.1429 318.059C33.1429 318.8 33.1429 319.624 33.1429 320.529ZM33.1429 320.529C34.0282 320.529 34.8517 320.529 35.6135 320.529C36.3752 320.529 37.1988 320.529 38.0841 320.529C38.0841 319.624 38.0841 318.8 38.0841 318.059C38.0841 317.318 38.0841 316.494 38.0841 315.588C37.1988 315.588 36.3752 315.588 35.6135 315.588C34.8517 315.588 34.0282 315.588 33.1429 315.588C33.1429 316.494 33.1429 317.318 33.1429 318.059C33.1429 318.8 33.1429 319.624 33.1429 320.529ZM33.1429 320.529C34.0282 320.529 34.8517 320.529 35.6135 320.529C36.3752 320.529 37.1988 320.529 38.0841 320.529C38.0841 319.624 38.0841 318.8 38.0841 318.059C38.0841 317.318 38.0841 316.494 38.0841 315.588C37.1988 315.588 36.3752 315.588 35.6135 315.588C34.8517 315.588 34.0282 315.588 33.1429 315.588C33.1429 316.494 33.1429 317.318 33.1429 318.059C33.1429 318.8 33.1429 319.624 33.1429 320.529ZM33.1429 320.529C34.0282 320.529 34.8517 320.529 35.6135 320.529C36.3752 320.529 37.1988 320.529 38.0841 320.529C38.0841 319.624 38.0841 318.8 38.0841 318.059C38.0841 317.318 38.0841 316.494 38.0841 315.588C37.1988 315.588 36.3752 315.588 35.6135 315.588C34.8517 315.588 34.0282 315.588 33.1429 315.588C33.1429 316.494 33.1429 317.318 33.1429 318.059C33.1429 318.8 33.1429 319.624 33.1429 320.529ZM33.1429 320.529C34.0282 320.529 34.8517 320.529 35.6135 320.529C36.3752 320.529 37.1988 320.529 38.0841 320.529C38.0841 319.624 38.0841 318.8 38.0841 318.059C38.0841 317.318 38.0841 316.494 38.0841 315.588C37.1988 315.588 36.3752 315.588 35.6135 315.588C34.8517 315.588 34.0282 315.588 33.1429 315.588C33.1429 316.494 33.1429 317.318 33.1429 318.059C33.1429 318.8 33.1429 319.624 33.1429 320.529ZM33.1429 320.529C34.0282 320.529 34.8517 320.529 35.6135 320.529C36.3752 320.529 37.1988 320.529 38.0841 320.529C38.0841 319.624 38.0841 318.8 38.0841 318.059C38.0841 317.318 38.0841 316.494 38.0841 315.588C37.1988 315.588 36.3752 315.588 35.6135 315.588C34.8517 315.588 34.0282 315.588 33.1429 315.588C33.1429 316.494 33.1429 317.318 33.1429 318.059C33.1429 318.8 33.1429 319.624 33.1429 320.529ZM33.1429 320.529C34.0282 320.529 34.8517 320.529 35.6135 320.529C36.3752 320.529 37.1988 320.529 38.0841 320.529C38.0841 319.624 38.0841 318.8 38.0841 318.059C38.0841 317.318 38.0841 316.494 38.0841 315.588C37.1988 315.588 36.3752 315.588 35.6135 315.588C34.8517 315.588 34.0282 315.588 33.1429 315.588C33.1429 316.494 33.1429 317.318 33.1429 318.059C33.1429 318.8 33.1429 319.624 33.1429 320.529ZM52.9076 320.529C53.7929 320.529 54.6164 320.529 55.3782 320.529C56.1399 320.529 56.9635 320.529 57.8488 320.529C57.8488 319.624 57.8488 318.8 57.8488 318.059C57.8488 317.318 57.8488 316.494 57.8488 315.588C56.9635 315.588 56.1399 315.588 55.3782 315.588C54.6164 315.588 53.7929 315.588 52.9076 315.588C52.9076 316.494 52.9076 317.318 52.9076 318.059C52.9076 318.8 52.9076 319.624 52.9076 320.529ZM52.9076 320.529C53.7929 320.529 54.6164 320.529 55.3782 320.529C56.1399 320.529 56.9635 320.529 57.8488 320.529C57.8488 319.624 57.8488 318.8 57.8488 318.059C57.8488 317.318 57.8488 316.494 57.8488 315.588C56.9635 315.588 56.1399 315.588 55.3782 315.588C54.6164 315.588 53.7929 315.588 52.9076 315.588C52.9076 316.494 52.9076 317.318 52.9076 318.059C52.9076 318.8 52.9076 319.624 52.9076 320.529ZM52.9076 320.529C53.7929 320.529 54.6164 320.529 55.3782 320.529C56.1399 320.529 56.9635 320.529 57.8488 320.529C57.8488 319.624 57.8488 318.8 57.8488 318.059C57.8488 317.318 57.8488 316.494 57.8488 315.588C56.9635 315.588 56.1399 315.588 55.3782 315.588C54.6164 315.588 53.7929 315.588 52.9076 315.588C52.9076 316.494 52.9076 317.318 52.9076 318.059C52.9076 318.8 52.9076 319.624 52.9076 320.529ZM52.9076 320.529C53.7929 320.529 54.6164 320.529 55.3782 320.529C56.1399 320.529 56.9635 320.529 57.8488 320.529C57.8488 319.624 57.8488 318.8 57.8488 318.059C57.8488 317.318 57.8488 316.494 57.8488 315.588C56.9635 315.588 56.1399 315.588 55.3782 315.588C54.6164 315.588 53.7929 315.588 52.9076 315.588C52.9076 316.494 52.9076 317.318 52.9076 318.059C52.9076 318.8 52.9076 319.624 52.9076 320.529ZM52.9076 320.529C53.7929 320.529 54.6164 320.529 55.3782 320.529C56.1399 320.529 56.9635 320.529 57.8488 320.529C57.8488 319.624 57.8488 318.8 57.8488 318.059C57.8488 317.318 57.8488 316.494 57.8488 315.588C56.9635 315.588 56.1399 315.588 55.3782 315.588C54.6164 315.588 53.7929 315.588 52.9076 315.588C52.9076 316.494 52.9076 317.318 52.9076 318.059C52.9076 318.8 52.9076 319.624 52.9076 320.529ZM52.9076 320.529C53.7929 320.529 54.6164 320.529 55.3782 320.529C56.1399 320.529 56.9635 320.529 57.8488 320.529C57.8488 319.624 57.8488 318.8 57.8488 318.059C57.8488 317.318 57.8488 316.494 57.8488 315.588C56.9635 315.588 56.1399 315.588 55.3782 315.588C54.6164 315.588 53.7929 315.588 52.9076 315.588C52.9076 316.494 52.9076 317.318 52.9076 318.059C52.9076 318.8 52.9076 319.624 52.9076 320.529ZM52.9076 320.529C53.7929 320.529 54.6164 320.529 55.3782 320.529C56.1399 320.529 56.9635 320.529 57.8488 320.529C57.8488 319.624 57.8488 318.8 57.8488 318.059C57.8488 317.318 57.8488 316.494 57.8488 315.588C56.9635 315.588 56.1399 315.588 55.3782 315.588C54.6164 315.588 53.7929 315.588 52.9076 315.588C52.9076 316.494 52.9076 317.318 52.9076 318.059C52.9076 318.8 52.9076 319.624 52.9076 320.529ZM52.9076 320.529C53.7929 320.529 54.6164 320.529 55.3782 320.529C56.1399 320.529 56.9635 320.529 57.8488 320.529C57.8488 319.624 57.8488 318.8 57.8488 318.059C57.8488 317.318 57.8488 316.494 57.8488 315.588C56.9635 315.588 56.1399 315.588 55.3782 315.588C54.6164 315.588 53.7929 315.588 52.9076 315.588C52.9076 316.494 52.9076 317.318 52.9076 318.059C52.9076 318.8 52.9076 319.624 52.9076 320.529ZM52.9076 320.529C53.7929 320.529 54.6164 320.529 55.3782 320.529C56.1399 320.529 56.9635 320.529 57.8488 320.529C57.8488 319.624 57.8488 318.8 57.8488 318.059C57.8488 317.318 57.8488 316.494 57.8488 315.588C56.9635 315.588 56.1399 315.588 55.3782 315.588C54.6164 315.588 53.7929 315.588 52.9076 315.588C52.9076 316.494 52.9076 317.318 52.9076 318.059C52.9076 318.8 52.9076 319.624 52.9076 320.529ZM38.0841 315.588C38.9693 315.588 39.7929 315.588 40.5546 315.588C41.3164 315.588 42.1399 315.588 43.0252 315.588C43.0252 314.682 43.0252 313.859 43.0252 313.118C43.0252 312.376 43.0252 311.553 43.0252 310.647C42.1399 310.647 41.3164 310.647 40.5546 310.647C39.7929 310.647 38.9693 310.647 38.0841 310.647C38.0841 311.553 38.0841 312.376 38.0841 313.118C38.0841 313.859 38.0841 314.682 38.0841 315.588ZM38.0841 315.588C38.9693 315.588 39.7929 315.588 40.5546 315.588C41.3164 315.588 42.1399 315.588 43.0252 315.588C43.0252 314.682 43.0252 313.859 43.0252 313.118C43.0252 312.376 43.0252 311.553 43.0252 310.647C42.1399 310.647 41.3164 310.647 40.5546 310.647C39.7929 310.647 38.9693 310.647 38.0841 310.647C38.0841 311.553 38.0841 312.376 38.0841 313.118C38.0841 313.859 38.0841 314.682 38.0841 315.588ZM38.0841 315.588C38.9693 315.588 39.7929 315.588 40.5546 315.588C41.3164 315.588 42.1399 315.588 43.0252 315.588C43.0252 314.682 43.0252 313.859 43.0252 313.118C43.0252 312.376 43.0252 311.553 43.0252 310.647C42.1399 310.647 41.3164 310.647 40.5546 310.647C39.7929 310.647 38.9693 310.647 38.0841 310.647C38.0841 311.553 38.0841 312.376 38.0841 313.118C38.0841 313.859 38.0841 314.682 38.0841 315.588ZM38.0841 315.588C38.9693 315.588 39.7929 315.588 40.5546 315.588C41.3164 315.588 42.1399 315.588 43.0252 315.588C43.0252 314.682 43.0252 313.859 43.0252 313.118C43.0252 312.376 43.0252 311.553 43.0252 310.647C42.1399 310.647 41.3164 310.647 40.5546 310.647C39.7929 310.647 38.9693 310.647 38.0841 310.647C38.0841 311.553 38.0841 312.376 38.0841 313.118C38.0841 313.859 38.0841 314.682 38.0841 315.588ZM38.0841 315.588C38.9693 315.588 39.7929 315.588 40.5546 315.588C41.3164 315.588 42.1399 315.588 43.0252 315.588C43.0252 314.682 43.0252 313.859 43.0252 313.118C43.0252 312.376 43.0252 311.553 43.0252 310.647C42.1399 310.647 41.3164 310.647 40.5546 310.647C39.7929 310.647 38.9693 310.647 38.0841 310.647C38.0841 311.553 38.0841 312.376 38.0841 313.118C38.0841 313.859 38.0841 314.682 38.0841 315.588ZM38.0841 315.588C38.9693 315.588 39.7929 315.588 40.5546 315.588C41.3164 315.588 42.1399 315.588 43.0252 315.588C43.0252 314.682 43.0252 313.859 43.0252 313.118C43.0252 312.376 43.0252 311.553 43.0252 310.647C42.1399 310.647 41.3164 310.647 40.5546 310.647C39.7929 310.647 38.9693 310.647 38.0841 310.647C38.0841 311.553 38.0841 312.376 38.0841 313.118C38.0841 313.859 38.0841 314.682 38.0841 315.588ZM38.0841 315.588C38.9693 315.588 39.7929 315.588 40.5546 315.588C41.3164 315.588 42.1399 315.588 43.0252 315.588C43.0252 314.682 43.0252 313.859 43.0252 313.118C43.0252 312.376 43.0252 311.553 43.0252 310.647C42.1399 310.647 41.3164 310.647 40.5546 310.647C39.7929 310.647 38.9693 310.647 38.0841 310.647C38.0841 311.553 38.0841 312.376 38.0841 313.118C38.0841 313.859 38.0841 314.682 38.0841 315.588ZM38.0841 315.588C38.9693 315.588 39.7929 315.588 40.5546 315.588C41.3164 315.588 42.1399 315.588 43.0252 315.588C43.0252 314.682 43.0252 313.859 43.0252 313.118C43.0252 312.376 43.0252 311.553 43.0252 310.647C42.1399 310.647 41.3164 310.647 40.5546 310.647C39.7929 310.647 38.9693 310.647 38.0841 310.647C38.0841 311.553 38.0841 312.376 38.0841 313.118C38.0841 313.859 38.0841 314.682 38.0841 315.588ZM38.0841 315.588C38.9693 315.588 39.7929 315.588 40.5546 315.588C41.3164 315.588 42.1399 315.588 43.0252 315.588C43.0252 314.682 43.0252 313.859 43.0252 313.118C43.0252 312.376 43.0252 311.553 43.0252 310.647C42.1399 310.647 41.3164 310.647 40.5546 310.647C39.7929 310.647 38.9693 310.647 38.0841 310.647C38.0841 311.553 38.0841 312.376 38.0841 313.118C38.0841 313.859 38.0841 314.682 38.0841 315.588ZM43.0252 315.588C43.9105 315.588 44.7341 315.588 45.4958 315.588C46.2576 315.588 47.0811 315.588 47.9664 315.588C47.9664 314.682 47.9664 313.859 47.9664 313.118C47.9664 312.376 47.9664 311.553 47.9664 310.647C47.0811 310.647 46.2576 310.647 45.4958 310.647C44.7341 310.647 43.9105 310.647 43.0252 310.647C43.0252 311.553 43.0252 312.376 43.0252 313.118C43.0252 313.859 43.0252 314.682 43.0252 315.588ZM43.0252 315.588C43.9105 315.588 44.7341 315.588 45.4958 315.588C46.2576 315.588 47.0811 315.588 47.9664 315.588C47.9664 314.682 47.9664 313.859 47.9664 313.118C47.9664 312.376 47.9664 311.553 47.9664 310.647C47.0811 310.647 46.2576 310.647 45.4958 310.647C44.7341 310.647 43.9105 310.647 43.0252 310.647C43.0252 311.553 43.0252 312.376 43.0252 313.118C43.0252 313.859 43.0252 314.682 43.0252 315.588ZM43.0252 315.588C43.9105 315.588 44.7341 315.588 45.4958 315.588C46.2576 315.588 47.0811 315.588 47.9664 315.588C47.9664 314.682 47.9664 313.859 47.9664 313.118C47.9664 312.376 47.9664 311.553 47.9664 310.647C47.0811 310.647 46.2576 310.647 45.4958 310.647C44.7341 310.647 43.9105 310.647 43.0252 310.647C43.0252 311.553 43.0252 312.376 43.0252 313.118C43.0252 313.859 43.0252 314.682 43.0252 315.588ZM43.0252 315.588C43.9105 315.588 44.7341 315.588 45.4958 315.588C46.2576 315.588 47.0811 315.588 47.9664 315.588C47.9664 314.682 47.9664 313.859 47.9664 313.118C47.9664 312.376 47.9664 311.553 47.9664 310.647C47.0811 310.647 46.2576 310.647 45.4958 310.647C44.7341 310.647 43.9105 310.647 43.0252 310.647C43.0252 311.553 43.0252 312.376 43.0252 313.118C43.0252 313.859 43.0252 314.682 43.0252 315.588ZM43.0252 315.588C43.9105 315.588 44.7341 315.588 45.4958 315.588C46.2576 315.588 47.0811 315.588 47.9664 315.588C47.9664 314.682 47.9664 313.859 47.9664 313.118C47.9664 312.376 47.9664 311.553 47.9664 310.647C47.0811 310.647 46.2576 310.647 45.4958 310.647C44.7341 310.647 43.9105 310.647 43.0252 310.647C43.0252 311.553 43.0252 312.376 43.0252 313.118C43.0252 313.859 43.0252 314.682 43.0252 315.588ZM43.0252 315.588C43.9105 315.588 44.7341 315.588 45.4958 315.588C46.2576 315.588 47.0811 315.588 47.9664 315.588C47.9664 314.682 47.9664 313.859 47.9664 313.118C47.9664 312.376 47.9664 311.553 47.9664 310.647C47.0811 310.647 46.2576 310.647 45.4958 310.647C44.7341 310.647 43.9105 310.647 43.0252 310.647C43.0252 311.553 43.0252 312.376 43.0252 313.118C43.0252 313.859 43.0252 314.682 43.0252 315.588ZM43.0252 315.588C43.9105 315.588 44.7341 315.588 45.4958 315.588C46.2576 315.588 47.0811 315.588 47.9664 315.588C47.9664 314.682 47.9664 313.859 47.9664 313.118C47.9664 312.376 47.9664 311.553 47.9664 310.647C47.0811 310.647 46.2576 310.647 45.4958 310.647C44.7341 310.647 43.9105 310.647 43.0252 310.647C43.0252 311.553 43.0252 312.376 43.0252 313.118C43.0252 313.859 43.0252 314.682 43.0252 315.588ZM43.0252 315.588C43.9105 315.588 44.7341 315.588 45.4958 315.588C46.2576 315.588 47.0811 315.588 47.9664 315.588C47.9664 314.682 47.9664 313.859 47.9664 313.118C47.9664 312.376 47.9664 311.553 47.9664 310.647C47.0811 310.647 46.2576 310.647 45.4958 310.647C44.7341 310.647 43.9105 310.647 43.0252 310.647C43.0252 311.553 43.0252 312.376 43.0252 313.118C43.0252 313.859 43.0252 314.682 43.0252 315.588ZM43.0252 315.588C43.9105 315.588 44.7341 315.588 45.4958 315.588C46.2576 315.588 47.0811 315.588 47.9664 315.588C47.9664 314.682 47.9664 313.859 47.9664 313.118C47.9664 312.376 47.9664 311.553 47.9664 310.647C47.0811 310.647 46.2576 310.647 45.4958 310.647C44.7341 310.647 43.9105 310.647 43.0252 310.647C43.0252 311.553 43.0252 312.376 43.0252 313.118C43.0252 313.859 43.0252 314.682 43.0252 315.588ZM47.9664 315.588C48.8517 315.588 49.6752 315.588 50.437 315.588C51.1988 315.588 52.0223 315.588 52.9076 315.588C52.9076 314.682 52.9076 313.859 52.9076 313.118C52.9076 312.376 52.9076 311.553 52.9076 310.647C52.0223 310.647 51.1988 310.647 50.437 310.647C49.6752 310.647 48.8517 310.647 47.9664 310.647C47.9664 311.553 47.9664 312.376 47.9664 313.118C47.9664 313.859 47.9664 314.682 47.9664 315.588ZM47.9664 315.588C48.8517 315.588 49.6752 315.588 50.437 315.588C51.1988 315.588 52.0223 315.588 52.9076 315.588C52.9076 314.682 52.9076 313.859 52.9076 313.118C52.9076 312.376 52.9076 311.553 52.9076 310.647C52.0223 310.647 51.1988 310.647 50.437 310.647C49.6752 310.647 48.8517 310.647 47.9664 310.647C47.9664 311.553 47.9664 312.376 47.9664 313.118C47.9664 313.859 47.9664 314.682 47.9664 315.588ZM47.9664 315.588C48.8517 315.588 49.6752 315.588 50.437 315.588C51.1988 315.588 52.0223 315.588 52.9076 315.588C52.9076 314.682 52.9076 313.859 52.9076 313.118C52.9076 312.376 52.9076 311.553 52.9076 310.647C52.0223 310.647 51.1988 310.647 50.437 310.647C49.6752 310.647 48.8517 310.647 47.9664 310.647C47.9664 311.553 47.9664 312.376 47.9664 313.118C47.9664 313.859 47.9664 314.682 47.9664 315.588ZM47.9664 315.588C48.8517 315.588 49.6752 315.588 50.437 315.588C51.1988 315.588 52.0223 315.588 52.9076 315.588C52.9076 314.682 52.9076 313.859 52.9076 313.118C52.9076 312.376 52.9076 311.553 52.9076 310.647C52.0223 310.647 51.1988 310.647 50.437 310.647C49.6752 310.647 48.8517 310.647 47.9664 310.647C47.9664 311.553 47.9664 312.376 47.9664 313.118C47.9664 313.859 47.9664 314.682 47.9664 315.588ZM47.9664 315.588C48.8517 315.588 49.6752 315.588 50.437 315.588C51.1988 315.588 52.0223 315.588 52.9076 315.588C52.9076 314.682 52.9076 313.859 52.9076 313.118C52.9076 312.376 52.9076 311.553 52.9076 310.647C52.0223 310.647 51.1988 310.647 50.437 310.647C49.6752 310.647 48.8517 310.647 47.9664 310.647C47.9664 311.553 47.9664 312.376 47.9664 313.118C47.9664 313.859 47.9664 314.682 47.9664 315.588ZM47.9664 315.588C48.8517 315.588 49.6752 315.588 50.437 315.588C51.1988 315.588 52.0223 315.588 52.9076 315.588C52.9076 314.682 52.9076 313.859 52.9076 313.118C52.9076 312.376 52.9076 311.553 52.9076 310.647C52.0223 310.647 51.1988 310.647 50.437 310.647C49.6752 310.647 48.8517 310.647 47.9664 310.647C47.9664 311.553 47.9664 312.376 47.9664 313.118C47.9664 313.859 47.9664 314.682 47.9664 315.588ZM47.9664 315.588C48.8517 315.588 49.6752 315.588 50.437 315.588C51.1988 315.588 52.0223 315.588 52.9076 315.588C52.9076 314.682 52.9076 313.859 52.9076 313.118C52.9076 312.376 52.9076 311.553 52.9076 310.647C52.0223 310.647 51.1988 310.647 50.437 310.647C49.6752 310.647 48.8517 310.647 47.9664 310.647C47.9664 311.553 47.9664 312.376 47.9664 313.118C47.9664 313.859 47.9664 314.682 47.9664 315.588ZM47.9664 315.588C48.8517 315.588 49.6752 315.588 50.437 315.588C51.1988 315.588 52.0223 315.588 52.9076 315.588C52.9076 314.682 52.9076 313.859 52.9076 313.118C52.9076 312.376 52.9076 311.553 52.9076 310.647C52.0223 310.647 51.1988 310.647 50.437 310.647C49.6752 310.647 48.8517 310.647 47.9664 310.647C47.9664 311.553 47.9664 312.376 47.9664 313.118C47.9664 313.859 47.9664 314.682 47.9664 315.588ZM47.9664 315.588C48.8517 315.588 49.6752 315.588 50.437 315.588C51.1988 315.588 52.0223 315.588 52.9076 315.588C52.9076 314.682 52.9076 313.859 52.9076 313.118C52.9076 312.376 52.9076 311.553 52.9076 310.647C52.0223 310.647 51.1988 310.647 50.437 310.647C49.6752 310.647 48.8517 310.647 47.9664 310.647C47.9664 311.553 47.9664 312.376 47.9664 313.118C47.9664 313.859 47.9664 314.682 47.9664 315.588Z" fill="#6A6A47"/>
<path d="M131.5 76.5H163V322.5L146 240.5L131.5 76.5Z" fill="#36362B"/>
<path d="M173.5 73.5L203 80.5V326.5L178 136L173.5 73.5Z" fill="#36362B"/>
<path d="M148 75.5L177.5 82.5V328.5L152.5 138L148 75.5Z" fill="#36362B"/>
<path d="M166 75.5L195.5 82.5V328.5L170.5 138L166 75.5Z" fill="#36362B"/>
<path d="M139 248.5L169.5 175.5L192 384H133L139 248.5Z" fill="#B9BB69"/>
<path d="M76.5 181.5L84.5 165L79 390H69L76.5 181.5Z" fill="#36362B"/>
<path d="M193.5 53.5L209 73L213 124.5L209 319L184 128.5L193.5 53.5Z" fill="#36362B"/>
<path d="M193.5 53.5L209 73L213 124.5L209 319L184 128.5L193.5 53.5Z" fill="#36362B"/>
<path d="M187 175.5H194.5L195 185H187V175.5Z" fill="#6A6A47"/>
<path d="M169 135.5L184.5 130.5L191.5 198.5L169 225.5V135.5Z" fill="#FEFFD9"/>
<path d="M158 243.5L194.5 175.5L217 384H147L158 243.5Z" fill="#B9BB69"/>
<path d="M158 243.5L194.5 175.5L217 384H147L158 243.5Z" fill="#B9BB69"/>
<path d="M158.537 243.527L194.411 176L218 390H182.617H132L158.537 243.527Z" fill="#B9BB69"/>
<path d="M134 80L198.5 71V127.5L159 160.5L134 80Z" fill="#FEFFD9"/>
<path d="M130.5 63L195.5 57.5L207.5 81L125.5 88.5L130.5 63Z" fill="#36362B"/>
<path d="M163.5 70.5L204 75.5L192 322.5L183.5 133.5L163.5 70.5Z" fill="#36362B"/>
<path d="M163.5 70.5L204 75.5L192 322.5L183.5 133.5L163.5 70.5Z" fill="#36362B"/>
<path d="M164.5 55.5L190 50L196 68L146 69.5L164.5 55.5Z" fill="#36362B"/>
<path d="M145.5 58.5L166 56.5L151 69H135L145.5 58.5Z" fill="#36362B"/>
<path d="M128.727 87L137.5 80.5L133.727 110L131.499 134L127 98.5L128.727 87Z" fill="#36362B"/>
<path d="M160.727 86.5L169.5 80L165.727 109.5L163.499 133.5L159 98L160.727 86.5Z" fill="#36362B"/>
<path d="M173 69.4559L207 60.4559L216 90.4559V243L173 69.4559Z" fill="#36362B"/>
<path d="M77 261.506L85.0816 229L89 390H77V261.506Z" fill="#565631"/>
<path d="M68.5 212H89V257L75 265.5L68.5 212Z" fill="#B9BB69"/>
<path d="M83 215L86 214V217H83V215Z" fill="#36362B"/>
<path d="M83 233L86 232V235H83V233Z" fill="#36362B"/>
<path d="M83 252L86 251V254H83V252Z" fill="#36362B"/>
<path d="M76 256L79 255V258H76V256Z" fill="#36362B"/>
<path d="M74 236L77 235V238H74V236Z" fill="#36362B"/>
<path d="M72 215L75 214V217H72V215Z" fill="#36362B"/>
<path d="M72 276.5L92 270.5V276.5L72 286V276.5Z" fill="#36362B"/>
</svg>
