<svg width="300" height="400" viewBox="0 0 300 400" fill="none" xmlns="http://www.w3.org/2000/svg">
<rect x="5" y="5" width="290" height="390" rx="25" fill="#D8C1EF" stroke="#543878" stroke-width="10"/>
<path d="M132 124H184V148L159.5 235.5L132 148V124Z" fill="#3C3545"/>
<path d="M153.5 143.5H162V243H143L153.5 143.5Z" fill="#F4EDFD"/>
<path d="M162 188.5L192 230.5L216 390H120L162 188.5Z" fill="#7F5FA8"/>
<path d="M148 191.5L161 237.731L168 390H90L113.5 241.249L148 191.5Z" fill="#7F5FA8"/>
<path d="M145.5 251.5L218.5 214.5L246 228L273.5 241.5L218.5 232.5L165 269L126 340L94 388L145.5 251.5Z" fill="#ECE1FB"/>
<path d="M128 268L133 270L145 282.5L133 278.5L128 268Z" fill="#F4EDFD"/>
<path d="M184 246L189 248L201 260.5L189 256.5L184 246Z" fill="#F4EDFD"/>
<path d="M134.5 94L172 69L175 119L164.5 169.5L140 135.5L134.5 94Z" fill="#F4EDFD"/>
<path d="M129.5 75.5L155 78V101.5L122.5 186.5L129.5 75.5Z" fill="#3C3545"/>
<path d="M151.5 100L148.5 80.5L176 62.5L186.5 97.5L195 180.5L151.5 100Z" fill="#3C3545"/>
<path d="M37.1429 370C38.0282 370 38.8517 370 39.6135 370C40.3752 370 41.1988 370 42.0841 370C42.0841 369.094 42.0841 368.271 42.0841 367.529C42.0841 366.788 42.0841 365.965 42.0841 365.059C41.1988 365.059 40.3752 365.059 39.6135 365.059C38.8517 365.059 38.0282 365.059 37.1429 365.059C37.1429 365.965 37.1429 366.788 37.1429 367.529C37.1429 368.271 37.1429 369.094 37.1429 370ZM37.1429 370C38.0282 370 38.8517 370 39.6135 370C40.3752 370 41.1988 370 42.0841 370C42.0841 369.094 42.0841 368.271 42.0841 367.529C42.0841 366.788 42.0841 365.965 42.0841 365.059C41.1988 365.059 40.3752 365.059 39.6135 365.059C38.8517 365.059 38.0282 365.059 37.1429 365.059C37.1429 365.965 37.1429 366.788 37.1429 367.529C37.1429 368.271 37.1429 369.094 37.1429 370ZM37.1429 370C38.0282 370 38.8517 370 39.6135 370C40.3752 370 41.1988 370 42.0841 370C42.0841 369.094 42.0841 368.271 42.0841 367.529C42.0841 366.788 42.0841 365.965 42.0841 365.059C41.1988 365.059 40.3752 365.059 39.6135 365.059C38.8517 365.059 38.0282 365.059 37.1429 365.059C37.1429 365.965 37.1429 366.788 37.1429 367.529C37.1429 368.271 37.1429 369.094 37.1429 370ZM37.1429 370C38.0282 370 38.8517 370 39.6135 370C40.3752 370 41.1988 370 42.0841 370C42.0841 369.094 42.0841 368.271 42.0841 367.529C42.0841 366.788 42.0841 365.965 42.0841 365.059C41.1988 365.059 40.3752 365.059 39.6135 365.059C38.8517 365.059 38.0282 365.059 37.1429 365.059C37.1429 365.965 37.1429 366.788 37.1429 367.529C37.1429 368.271 37.1429 369.094 37.1429 370ZM37.1429 370C38.0282 370 38.8517 370 39.6135 370C40.3752 370 41.1988 370 42.0841 370C42.0841 369.094 42.0841 368.271 42.0841 367.529C42.0841 366.788 42.0841 365.965 42.0841 365.059C41.1988 365.059 40.3752 365.059 39.6135 365.059C38.8517 365.059 38.0282 365.059 37.1429 365.059C37.1429 365.965 37.1429 366.788 37.1429 367.529C37.1429 368.271 37.1429 369.094 37.1429 370ZM37.1429 370C38.0282 370 38.8517 370 39.6135 370C40.3752 370 41.1988 370 42.0841 370C42.0841 369.094 42.0841 368.271 42.0841 367.529C42.0841 366.788 42.0841 365.965 42.0841 365.059C41.1988 365.059 40.3752 365.059 39.6135 365.059C38.8517 365.059 38.0282 365.059 37.1429 365.059C37.1429 365.965 37.1429 366.788 37.1429 367.529C37.1429 368.271 37.1429 369.094 37.1429 370ZM37.1429 370C38.0282 370 38.8517 370 39.6135 370C40.3752 370 41.1988 370 42.0841 370C42.0841 369.094 42.0841 368.271 42.0841 367.529C42.0841 366.788 42.0841 365.965 42.0841 365.059C41.1988 365.059 40.3752 365.059 39.6135 365.059C38.8517 365.059 38.0282 365.059 37.1429 365.059C37.1429 365.965 37.1429 366.788 37.1429 367.529C37.1429 368.271 37.1429 369.094 37.1429 370ZM37.1429 370C38.0282 370 38.8517 370 39.6135 370C40.3752 370 41.1988 370 42.0841 370C42.0841 369.094 42.0841 368.271 42.0841 367.529C42.0841 366.788 42.0841 365.965 42.0841 365.059C41.1988 365.059 40.3752 365.059 39.6135 365.059C38.8517 365.059 38.0282 365.059 37.1429 365.059C37.1429 365.965 37.1429 366.788 37.1429 367.529C37.1429 368.271 37.1429 369.094 37.1429 370ZM37.1429 370C38.0282 370 38.8517 370 39.6135 370C40.3752 370 41.1988 370 42.0841 370C42.0841 369.094 42.0841 368.271 42.0841 367.529C42.0841 366.788 42.0841 365.965 42.0841 365.059C41.1988 365.059 40.3752 365.059 39.6135 365.059C38.8517 365.059 38.0282 365.059 37.1429 365.059C37.1429 365.965 37.1429 366.788 37.1429 367.529C37.1429 368.271 37.1429 369.094 37.1429 370ZM42.0841 370C42.9693 370 43.7929 370 44.5546 370C45.3164 370 46.1399 370 47.0252 370C47.0252 369.094 47.0252 368.271 47.0252 367.529C47.0252 366.788 47.0252 365.965 47.0252 365.059C46.1399 365.059 45.3164 365.059 44.5546 365.059C43.7929 365.059 42.9693 365.059 42.0841 365.059C42.0841 365.965 42.0841 366.788 42.0841 367.529C42.0841 368.271 42.0841 369.094 42.0841 370ZM42.0841 370C42.9693 370 43.7929 370 44.5546 370C45.3164 370 46.1399 370 47.0252 370C47.0252 369.094 47.0252 368.271 47.0252 367.529C47.0252 366.788 47.0252 365.965 47.0252 365.059C46.1399 365.059 45.3164 365.059 44.5546 365.059C43.7929 365.059 42.9693 365.059 42.0841 365.059C42.0841 365.965 42.0841 366.788 42.0841 367.529C42.0841 368.271 42.0841 369.094 42.0841 370ZM42.0841 370C42.9693 370 43.7929 370 44.5546 370C45.3164 370 46.1399 370 47.0252 370C47.0252 369.094 47.0252 368.271 47.0252 367.529C47.0252 366.788 47.0252 365.965 47.0252 365.059C46.1399 365.059 45.3164 365.059 44.5546 365.059C43.7929 365.059 42.9693 365.059 42.0841 365.059C42.0841 365.965 42.0841 366.788 42.0841 367.529C42.0841 368.271 42.0841 369.094 42.0841 370ZM42.0841 370C42.9693 370 43.7929 370 44.5546 370C45.3164 370 46.1399 370 47.0252 370C47.0252 369.094 47.0252 368.271 47.0252 367.529C47.0252 366.788 47.0252 365.965 47.0252 365.059C46.1399 365.059 45.3164 365.059 44.5546 365.059C43.7929 365.059 42.9693 365.059 42.0841 365.059C42.0841 365.965 42.0841 366.788 42.0841 367.529C42.0841 368.271 42.0841 369.094 42.0841 370ZM42.0841 370C42.9693 370 43.7929 370 44.5546 370C45.3164 370 46.1399 370 47.0252 370C47.0252 369.094 47.0252 368.271 47.0252 367.529C47.0252 366.788 47.0252 365.965 47.0252 365.059C46.1399 365.059 45.3164 365.059 44.5546 365.059C43.7929 365.059 42.9693 365.059 42.0841 365.059C42.0841 365.965 42.0841 366.788 42.0841 367.529C42.0841 368.271 42.0841 369.094 42.0841 370ZM42.0841 370C42.9693 370 43.7929 370 44.5546 370C45.3164 370 46.1399 370 47.0252 370C47.0252 369.094 47.0252 368.271 47.0252 367.529C47.0252 366.788 47.0252 365.965 47.0252 365.059C46.1399 365.059 45.3164 365.059 44.5546 365.059C43.7929 365.059 42.9693 365.059 42.0841 365.059C42.0841 365.965 42.0841 366.788 42.0841 367.529C42.0841 368.271 42.0841 369.094 42.0841 370ZM42.0841 370C42.9693 370 43.7929 370 44.5546 370C45.3164 370 46.1399 370 47.0252 370C47.0252 369.094 47.0252 368.271 47.0252 367.529C47.0252 366.788 47.0252 365.965 47.0252 365.059C46.1399 365.059 45.3164 365.059 44.5546 365.059C43.7929 365.059 42.9693 365.059 42.0841 365.059C42.0841 365.965 42.0841 366.788 42.0841 367.529C42.0841 368.271 42.0841 369.094 42.0841 370ZM42.0841 370C42.9693 370 43.7929 370 44.5546 370C45.3164 370 46.1399 370 47.0252 370C47.0252 369.094 47.0252 368.271 47.0252 367.529C47.0252 366.788 47.0252 365.965 47.0252 365.059C46.1399 365.059 45.3164 365.059 44.5546 365.059C43.7929 365.059 42.9693 365.059 42.0841 365.059C42.0841 365.965 42.0841 366.788 42.0841 367.529C42.0841 368.271 42.0841 369.094 42.0841 370ZM42.0841 370C42.9693 370 43.7929 370 44.5546 370C45.3164 370 46.1399 370 47.0252 370C47.0252 369.094 47.0252 368.271 47.0252 367.529C47.0252 366.788 47.0252 365.965 47.0252 365.059C46.1399 365.059 45.3164 365.059 44.5546 365.059C43.7929 365.059 42.9693 365.059 42.0841 365.059C42.0841 365.965 42.0841 366.788 42.0841 367.529C42.0841 368.271 42.0841 369.094 42.0841 370ZM47.0252 370C47.9105 370 48.7341 370 49.4958 370C50.2576 370 51.0811 370 51.9664 370C51.9664 369.094 51.9664 368.271 51.9664 367.529C51.9664 366.788 51.9664 365.965 51.9664 365.059C51.0811 365.059 50.2576 365.059 49.4958 365.059C48.7341 365.059 47.9105 365.059 47.0252 365.059C47.0252 365.965 47.0252 366.788 47.0252 367.529C47.0252 368.271 47.0252 369.094 47.0252 370ZM47.0252 370C47.9105 370 48.7341 370 49.4958 370C50.2576 370 51.0811 370 51.9664 370C51.9664 369.094 51.9664 368.271 51.9664 367.529C51.9664 366.788 51.9664 365.965 51.9664 365.059C51.0811 365.059 50.2576 365.059 49.4958 365.059C48.7341 365.059 47.9105 365.059 47.0252 365.059C47.0252 365.965 47.0252 366.788 47.0252 367.529C47.0252 368.271 47.0252 369.094 47.0252 370ZM47.0252 370C47.9105 370 48.7341 370 49.4958 370C50.2576 370 51.0811 370 51.9664 370C51.9664 369.094 51.9664 368.271 51.9664 367.529C51.9664 366.788 51.9664 365.965 51.9664 365.059C51.0811 365.059 50.2576 365.059 49.4958 365.059C48.7341 365.059 47.9105 365.059 47.0252 365.059C47.0252 365.965 47.0252 366.788 47.0252 367.529C47.0252 368.271 47.0252 369.094 47.0252 370ZM47.0252 370C47.9105 370 48.7341 370 49.4958 370C50.2576 370 51.0811 370 51.9664 370C51.9664 369.094 51.9664 368.271 51.9664 367.529C51.9664 366.788 51.9664 365.965 51.9664 365.059C51.0811 365.059 50.2576 365.059 49.4958 365.059C48.7341 365.059 47.9105 365.059 47.0252 365.059C47.0252 365.965 47.0252 366.788 47.0252 367.529C47.0252 368.271 47.0252 369.094 47.0252 370ZM47.0252 370C47.9105 370 48.7341 370 49.4958 370C50.2576 370 51.0811 370 51.9664 370C51.9664 369.094 51.9664 368.271 51.9664 367.529C51.9664 366.788 51.9664 365.965 51.9664 365.059C51.0811 365.059 50.2576 365.059 49.4958 365.059C48.7341 365.059 47.9105 365.059 47.0252 365.059C47.0252 365.965 47.0252 366.788 47.0252 367.529C47.0252 368.271 47.0252 369.094 47.0252 370ZM47.0252 370C47.9105 370 48.7341 370 49.4958 370C50.2576 370 51.0811 370 51.9664 370C51.9664 369.094 51.9664 368.271 51.9664 367.529C51.9664 366.788 51.9664 365.965 51.9664 365.059C51.0811 365.059 50.2576 365.059 49.4958 365.059C48.7341 365.059 47.9105 365.059 47.0252 365.059C47.0252 365.965 47.0252 366.788 47.0252 367.529C47.0252 368.271 47.0252 369.094 47.0252 370ZM47.0252 370C47.9105 370 48.7341 370 49.4958 370C50.2576 370 51.0811 370 51.9664 370C51.9664 369.094 51.9664 368.271 51.9664 367.529C51.9664 366.788 51.9664 365.965 51.9664 365.059C51.0811 365.059 50.2576 365.059 49.4958 365.059C48.7341 365.059 47.9105 365.059 47.0252 365.059C47.0252 365.965 47.0252 366.788 47.0252 367.529C47.0252 368.271 47.0252 369.094 47.0252 370ZM47.0252 370C47.9105 370 48.7341 370 49.4958 370C50.2576 370 51.0811 370 51.9664 370C51.9664 369.094 51.9664 368.271 51.9664 367.529C51.9664 366.788 51.9664 365.965 51.9664 365.059C51.0811 365.059 50.2576 365.059 49.4958 365.059C48.7341 365.059 47.9105 365.059 47.0252 365.059C47.0252 365.965 47.0252 366.788 47.0252 367.529C47.0252 368.271 47.0252 369.094 47.0252 370ZM47.0252 370C47.9105 370 48.7341 370 49.4958 370C50.2576 370 51.0811 370 51.9664 370C51.9664 369.094 51.9664 368.271 51.9664 367.529C51.9664 366.788 51.9664 365.965 51.9664 365.059C51.0811 365.059 50.2576 365.059 49.4958 365.059C48.7341 365.059 47.9105 365.059 47.0252 365.059C47.0252 365.965 47.0252 366.788 47.0252 367.529C47.0252 368.271 47.0252 369.094 47.0252 370ZM51.9664 370C52.8517 370 53.6752 370 54.437 370C55.1988 370 56.0223 370 56.9076 370C56.9076 369.094 56.9076 368.271 56.9076 367.529C56.9076 366.788 56.9076 365.965 56.9076 365.059C56.0223 365.059 55.1988 365.059 54.437 365.059C53.6752 365.059 52.8517 365.059 51.9664 365.059C51.9664 365.965 51.9664 366.788 51.9664 367.529C51.9664 368.271 51.9664 369.094 51.9664 370ZM51.9664 370C52.8517 370 53.6752 370 54.437 370C55.1988 370 56.0223 370 56.9076 370C56.9076 369.094 56.9076 368.271 56.9076 367.529C56.9076 366.788 56.9076 365.965 56.9076 365.059C56.0223 365.059 55.1988 365.059 54.437 365.059C53.6752 365.059 52.8517 365.059 51.9664 365.059C51.9664 365.965 51.9664 366.788 51.9664 367.529C51.9664 368.271 51.9664 369.094 51.9664 370ZM51.9664 370C52.8517 370 53.6752 370 54.437 370C55.1988 370 56.0223 370 56.9076 370C56.9076 369.094 56.9076 368.271 56.9076 367.529C56.9076 366.788 56.9076 365.965 56.9076 365.059C56.0223 365.059 55.1988 365.059 54.437 365.059C53.6752 365.059 52.8517 365.059 51.9664 365.059C51.9664 365.965 51.9664 366.788 51.9664 367.529C51.9664 368.271 51.9664 369.094 51.9664 370ZM51.9664 370C52.8517 370 53.6752 370 54.437 370C55.1988 370 56.0223 370 56.9076 370C56.9076 369.094 56.9076 368.271 56.9076 367.529C56.9076 366.788 56.9076 365.965 56.9076 365.059C56.0223 365.059 55.1988 365.059 54.437 365.059C53.6752 365.059 52.8517 365.059 51.9664 365.059C51.9664 365.965 51.9664 366.788 51.9664 367.529C51.9664 368.271 51.9664 369.094 51.9664 370ZM51.9664 370C52.8517 370 53.6752 370 54.437 370C55.1988 370 56.0223 370 56.9076 370C56.9076 369.094 56.9076 368.271 56.9076 367.529C56.9076 366.788 56.9076 365.965 56.9076 365.059C56.0223 365.059 55.1988 365.059 54.437 365.059C53.6752 365.059 52.8517 365.059 51.9664 365.059C51.9664 365.965 51.9664 366.788 51.9664 367.529C51.9664 368.271 51.9664 369.094 51.9664 370ZM51.9664 370C52.8517 370 53.6752 370 54.437 370C55.1988 370 56.0223 370 56.9076 370C56.9076 369.094 56.9076 368.271 56.9076 367.529C56.9076 366.788 56.9076 365.965 56.9076 365.059C56.0223 365.059 55.1988 365.059 54.437 365.059C53.6752 365.059 52.8517 365.059 51.9664 365.059C51.9664 365.965 51.9664 366.788 51.9664 367.529C51.9664 368.271 51.9664 369.094 51.9664 370ZM51.9664 370C52.8517 370 53.6752 370 54.437 370C55.1988 370 56.0223 370 56.9076 370C56.9076 369.094 56.9076 368.271 56.9076 367.529C56.9076 366.788 56.9076 365.965 56.9076 365.059C56.0223 365.059 55.1988 365.059 54.437 365.059C53.6752 365.059 52.8517 365.059 51.9664 365.059C51.9664 365.965 51.9664 366.788 51.9664 367.529C51.9664 368.271 51.9664 369.094 51.9664 370ZM51.9664 370C52.8517 370 53.6752 370 54.437 370C55.1988 370 56.0223 370 56.9076 370C56.9076 369.094 56.9076 368.271 56.9076 367.529C56.9076 366.788 56.9076 365.965 56.9076 365.059C56.0223 365.059 55.1988 365.059 54.437 365.059C53.6752 365.059 52.8517 365.059 51.9664 365.059C51.9664 365.965 51.9664 366.788 51.9664 367.529C51.9664 368.271 51.9664 369.094 51.9664 370ZM51.9664 370C52.8517 370 53.6752 370 54.437 370C55.1988 370 56.0223 370 56.9076 370C56.9076 369.094 56.9076 368.271 56.9076 367.529C56.9076 366.788 56.9076 365.965 56.9076 365.059C56.0223 365.059 55.1988 365.059 54.437 365.059C53.6752 365.059 52.8517 365.059 51.9664 365.059C51.9664 365.965 51.9664 366.788 51.9664 367.529C51.9664 368.271 51.9664 369.094 51.9664 370ZM56.9076 370C57.7929 370 58.6164 370 59.3782 370C60.1399 370 60.9635 370 61.8488 370C61.8488 369.094 61.8488 368.271 61.8488 367.529C61.8488 366.788 61.8488 365.965 61.8488 365.059C60.9635 365.059 60.1399 365.059 59.3782 365.059C58.6164 365.059 57.7929 365.059 56.9076 365.059C56.9076 365.965 56.9076 366.788 56.9076 367.529C56.9076 368.271 56.9076 369.094 56.9076 370ZM56.9076 370C57.7929 370 58.6164 370 59.3782 370C60.1399 370 60.9635 370 61.8488 370C61.8488 369.094 61.8488 368.271 61.8488 367.529C61.8488 366.788 61.8488 365.965 61.8488 365.059C60.9635 365.059 60.1399 365.059 59.3782 365.059C58.6164 365.059 57.7929 365.059 56.9076 365.059C56.9076 365.965 56.9076 366.788 56.9076 367.529C56.9076 368.271 56.9076 369.094 56.9076 370ZM56.9076 370C57.7929 370 58.6164 370 59.3782 370C60.1399 370 60.9635 370 61.8488 370C61.8488 369.094 61.8488 368.271 61.8488 367.529C61.8488 366.788 61.8488 365.965 61.8488 365.059C60.9635 365.059 60.1399 365.059 59.3782 365.059C58.6164 365.059 57.7929 365.059 56.9076 365.059C56.9076 365.965 56.9076 366.788 56.9076 367.529C56.9076 368.271 56.9076 369.094 56.9076 370ZM56.9076 370C57.7929 370 58.6164 370 59.3782 370C60.1399 370 60.9635 370 61.8488 370C61.8488 369.094 61.8488 368.271 61.8488 367.529C61.8488 366.788 61.8488 365.965 61.8488 365.059C60.9635 365.059 60.1399 365.059 59.3782 365.059C58.6164 365.059 57.7929 365.059 56.9076 365.059C56.9076 365.965 56.9076 366.788 56.9076 367.529C56.9076 368.271 56.9076 369.094 56.9076 370ZM56.9076 370C57.7929 370 58.6164 370 59.3782 370C60.1399 370 60.9635 370 61.8488 370C61.8488 369.094 61.8488 368.271 61.8488 367.529C61.8488 366.788 61.8488 365.965 61.8488 365.059C60.9635 365.059 60.1399 365.059 59.3782 365.059C58.6164 365.059 57.7929 365.059 56.9076 365.059C56.9076 365.965 56.9076 366.788 56.9076 367.529C56.9076 368.271 56.9076 369.094 56.9076 370ZM56.9076 370C57.7929 370 58.6164 370 59.3782 370C60.1399 370 60.9635 370 61.8488 370C61.8488 369.094 61.8488 368.271 61.8488 367.529C61.8488 366.788 61.8488 365.965 61.8488 365.059C60.9635 365.059 60.1399 365.059 59.3782 365.059C58.6164 365.059 57.7929 365.059 56.9076 365.059C56.9076 365.965 56.9076 366.788 56.9076 367.529C56.9076 368.271 56.9076 369.094 56.9076 370ZM56.9076 370C57.7929 370 58.6164 370 59.3782 370C60.1399 370 60.9635 370 61.8488 370C61.8488 369.094 61.8488 368.271 61.8488 367.529C61.8488 366.788 61.8488 365.965 61.8488 365.059C60.9635 365.059 60.1399 365.059 59.3782 365.059C58.6164 365.059 57.7929 365.059 56.9076 365.059C56.9076 365.965 56.9076 366.788 56.9076 367.529C56.9076 368.271 56.9076 369.094 56.9076 370ZM56.9076 370C57.7929 370 58.6164 370 59.3782 370C60.1399 370 60.9635 370 61.8488 370C61.8488 369.094 61.8488 368.271 61.8488 367.529C61.8488 366.788 61.8488 365.965 61.8488 365.059C60.9635 365.059 60.1399 365.059 59.3782 365.059C58.6164 365.059 57.7929 365.059 56.9076 365.059C56.9076 365.965 56.9076 366.788 56.9076 367.529C56.9076 368.271 56.9076 369.094 56.9076 370ZM56.9076 370C57.7929 370 58.6164 370 59.3782 370C60.1399 370 60.9635 370 61.8488 370C61.8488 369.094 61.8488 368.271 61.8488 367.529C61.8488 366.788 61.8488 365.965 61.8488 365.059C60.9635 365.059 60.1399 365.059 59.3782 365.059C58.6164 365.059 57.7929 365.059 56.9076 365.059C56.9076 365.965 56.9076 366.788 56.9076 367.529C56.9076 368.271 56.9076 369.094 56.9076 370ZM42.0841 365.059C42.9693 365.059 43.7929 365.059 44.5546 365.059C45.3164 365.059 46.1399 365.059 47.0252 365.059C47.0252 364.153 47.0252 363.329 47.0252 362.588C47.0252 361.847 47.0252 361.024 47.0252 360.118C46.1399 360.118 45.3164 360.118 44.5546 360.118C43.7929 360.118 42.9693 360.118 42.0841 360.118C42.0841 361.024 42.0841 361.847 42.0841 362.588C42.0841 363.329 42.0841 364.153 42.0841 365.059ZM42.0841 365.059C42.9693 365.059 43.7929 365.059 44.5546 365.059C45.3164 365.059 46.1399 365.059 47.0252 365.059C47.0252 364.153 47.0252 363.329 47.0252 362.588C47.0252 361.847 47.0252 361.024 47.0252 360.118C46.1399 360.118 45.3164 360.118 44.5546 360.118C43.7929 360.118 42.9693 360.118 42.0841 360.118C42.0841 361.024 42.0841 361.847 42.0841 362.588C42.0841 363.329 42.0841 364.153 42.0841 365.059ZM42.0841 365.059C42.9693 365.059 43.7929 365.059 44.5546 365.059C45.3164 365.059 46.1399 365.059 47.0252 365.059C47.0252 364.153 47.0252 363.329 47.0252 362.588C47.0252 361.847 47.0252 361.024 47.0252 360.118C46.1399 360.118 45.3164 360.118 44.5546 360.118C43.7929 360.118 42.9693 360.118 42.0841 360.118C42.0841 361.024 42.0841 361.847 42.0841 362.588C42.0841 363.329 42.0841 364.153 42.0841 365.059ZM42.0841 365.059C42.9693 365.059 43.7929 365.059 44.5546 365.059C45.3164 365.059 46.1399 365.059 47.0252 365.059C47.0252 364.153 47.0252 363.329 47.0252 362.588C47.0252 361.847 47.0252 361.024 47.0252 360.118C46.1399 360.118 45.3164 360.118 44.5546 360.118C43.7929 360.118 42.9693 360.118 42.0841 360.118C42.0841 361.024 42.0841 361.847 42.0841 362.588C42.0841 363.329 42.0841 364.153 42.0841 365.059ZM42.0841 365.059C42.9693 365.059 43.7929 365.059 44.5546 365.059C45.3164 365.059 46.1399 365.059 47.0252 365.059C47.0252 364.153 47.0252 363.329 47.0252 362.588C47.0252 361.847 47.0252 361.024 47.0252 360.118C46.1399 360.118 45.3164 360.118 44.5546 360.118C43.7929 360.118 42.9693 360.118 42.0841 360.118C42.0841 361.024 42.0841 361.847 42.0841 362.588C42.0841 363.329 42.0841 364.153 42.0841 365.059ZM42.0841 365.059C42.9693 365.059 43.7929 365.059 44.5546 365.059C45.3164 365.059 46.1399 365.059 47.0252 365.059C47.0252 364.153 47.0252 363.329 47.0252 362.588C47.0252 361.847 47.0252 361.024 47.0252 360.118C46.1399 360.118 45.3164 360.118 44.5546 360.118C43.7929 360.118 42.9693 360.118 42.0841 360.118C42.0841 361.024 42.0841 361.847 42.0841 362.588C42.0841 363.329 42.0841 364.153 42.0841 365.059ZM42.0841 365.059C42.9693 365.059 43.7929 365.059 44.5546 365.059C45.3164 365.059 46.1399 365.059 47.0252 365.059C47.0252 364.153 47.0252 363.329 47.0252 362.588C47.0252 361.847 47.0252 361.024 47.0252 360.118C46.1399 360.118 45.3164 360.118 44.5546 360.118C43.7929 360.118 42.9693 360.118 42.0841 360.118C42.0841 361.024 42.0841 361.847 42.0841 362.588C42.0841 363.329 42.0841 364.153 42.0841 365.059ZM42.0841 365.059C42.9693 365.059 43.7929 365.059 44.5546 365.059C45.3164 365.059 46.1399 365.059 47.0252 365.059C47.0252 364.153 47.0252 363.329 47.0252 362.588C47.0252 361.847 47.0252 361.024 47.0252 360.118C46.1399 360.118 45.3164 360.118 44.5546 360.118C43.7929 360.118 42.9693 360.118 42.0841 360.118C42.0841 361.024 42.0841 361.847 42.0841 362.588C42.0841 363.329 42.0841 364.153 42.0841 365.059ZM42.0841 365.059C42.9693 365.059 43.7929 365.059 44.5546 365.059C45.3164 365.059 46.1399 365.059 47.0252 365.059C47.0252 364.153 47.0252 363.329 47.0252 362.588C47.0252 361.847 47.0252 361.024 47.0252 360.118C46.1399 360.118 45.3164 360.118 44.5546 360.118C43.7929 360.118 42.9693 360.118 42.0841 360.118C42.0841 361.024 42.0841 361.847 42.0841 362.588C42.0841 363.329 42.0841 364.153 42.0841 365.059ZM44.5546 360.118C45.4399 360.118 46.2635 360.118 47.0252 360.118C47.787 360.118 48.6105 360.118 49.4958 360.118C49.4958 359.212 49.4958 358.388 49.4958 357.647C49.4958 356.906 49.4958 356.082 49.4958 355.176C48.6105 355.176 47.787 355.176 47.0252 355.176C46.2635 355.176 45.4399 355.176 44.5546 355.176C44.5546 356.082 44.5546 356.906 44.5546 357.647C44.5546 358.388 44.5546 359.212 44.5546 360.118ZM44.5546 360.118C45.4399 360.118 46.2635 360.118 47.0252 360.118C47.787 360.118 48.6105 360.118 49.4958 360.118C49.4958 359.212 49.4958 358.388 49.4958 357.647C49.4958 356.906 49.4958 356.082 49.4958 355.176C48.6105 355.176 47.787 355.176 47.0252 355.176C46.2635 355.176 45.4399 355.176 44.5546 355.176C44.5546 356.082 44.5546 356.906 44.5546 357.647C44.5546 358.388 44.5546 359.212 44.5546 360.118ZM44.5546 360.118C45.4399 360.118 46.2635 360.118 47.0252 360.118C47.787 360.118 48.6105 360.118 49.4958 360.118C49.4958 359.212 49.4958 358.388 49.4958 357.647C49.4958 356.906 49.4958 356.082 49.4958 355.176C48.6105 355.176 47.787 355.176 47.0252 355.176C46.2635 355.176 45.4399 355.176 44.5546 355.176C44.5546 356.082 44.5546 356.906 44.5546 357.647C44.5546 358.388 44.5546 359.212 44.5546 360.118ZM44.5546 360.118C45.4399 360.118 46.2635 360.118 47.0252 360.118C47.787 360.118 48.6105 360.118 49.4958 360.118C49.4958 359.212 49.4958 358.388 49.4958 357.647C49.4958 356.906 49.4958 356.082 49.4958 355.176C48.6105 355.176 47.787 355.176 47.0252 355.176C46.2635 355.176 45.4399 355.176 44.5546 355.176C44.5546 356.082 44.5546 356.906 44.5546 357.647C44.5546 358.388 44.5546 359.212 44.5546 360.118ZM44.5546 360.118C45.4399 360.118 46.2635 360.118 47.0252 360.118C47.787 360.118 48.6105 360.118 49.4958 360.118C49.4958 359.212 49.4958 358.388 49.4958 357.647C49.4958 356.906 49.4958 356.082 49.4958 355.176C48.6105 355.176 47.787 355.176 47.0252 355.176C46.2635 355.176 45.4399 355.176 44.5546 355.176C44.5546 356.082 44.5546 356.906 44.5546 357.647C44.5546 358.388 44.5546 359.212 44.5546 360.118ZM44.5546 360.118C45.4399 360.118 46.2635 360.118 47.0252 360.118C47.787 360.118 48.6105 360.118 49.4958 360.118C49.4958 359.212 49.4958 358.388 49.4958 357.647C49.4958 356.906 49.4958 356.082 49.4958 355.176C48.6105 355.176 47.787 355.176 47.0252 355.176C46.2635 355.176 45.4399 355.176 44.5546 355.176C44.5546 356.082 44.5546 356.906 44.5546 357.647C44.5546 358.388 44.5546 359.212 44.5546 360.118ZM44.5546 360.118C45.4399 360.118 46.2635 360.118 47.0252 360.118C47.787 360.118 48.6105 360.118 49.4958 360.118C49.4958 359.212 49.4958 358.388 49.4958 357.647C49.4958 356.906 49.4958 356.082 49.4958 355.176C48.6105 355.176 47.787 355.176 47.0252 355.176C46.2635 355.176 45.4399 355.176 44.5546 355.176C44.5546 356.082 44.5546 356.906 44.5546 357.647C44.5546 358.388 44.5546 359.212 44.5546 360.118ZM44.5546 360.118C45.4399 360.118 46.2635 360.118 47.0252 360.118C47.787 360.118 48.6105 360.118 49.4958 360.118C49.4958 359.212 49.4958 358.388 49.4958 357.647C49.4958 356.906 49.4958 356.082 49.4958 355.176C48.6105 355.176 47.787 355.176 47.0252 355.176C46.2635 355.176 45.4399 355.176 44.5546 355.176C44.5546 356.082 44.5546 356.906 44.5546 357.647C44.5546 358.388 44.5546 359.212 44.5546 360.118ZM44.5546 360.118C45.4399 360.118 46.2635 360.118 47.0252 360.118C47.787 360.118 48.6105 360.118 49.4958 360.118C49.4958 359.212 49.4958 358.388 49.4958 357.647C49.4958 356.906 49.4958 356.082 49.4958 355.176C48.6105 355.176 47.787 355.176 47.0252 355.176C46.2635 355.176 45.4399 355.176 44.5546 355.176C44.5546 356.082 44.5546 356.906 44.5546 357.647C44.5546 358.388 44.5546 359.212 44.5546 360.118ZM47.0252 355.176C47.9105 355.176 48.7341 355.176 49.4958 355.176C50.2576 355.176 51.0811 355.176 51.9664 355.176C51.9664 354.271 51.9664 353.447 51.9664 352.706C51.9664 351.965 51.9664 351.141 51.9664 350.235C51.0811 350.235 50.2576 350.235 49.4958 350.235C48.7341 350.235 47.9105 350.235 47.0252 350.235C47.0252 351.141 47.0252 351.965 47.0252 352.706C47.0252 353.447 47.0252 354.271 47.0252 355.176ZM47.0252 355.176C47.9105 355.176 48.7341 355.176 49.4958 355.176C50.2576 355.176 51.0811 355.176 51.9664 355.176C51.9664 354.271 51.9664 353.447 51.9664 352.706C51.9664 351.965 51.9664 351.141 51.9664 350.235C51.0811 350.235 50.2576 350.235 49.4958 350.235C48.7341 350.235 47.9105 350.235 47.0252 350.235C47.0252 351.141 47.0252 351.965 47.0252 352.706C47.0252 353.447 47.0252 354.271 47.0252 355.176ZM47.0252 355.176C47.9105 355.176 48.7341 355.176 49.4958 355.176C50.2576 355.176 51.0811 355.176 51.9664 355.176C51.9664 354.271 51.9664 353.447 51.9664 352.706C51.9664 351.965 51.9664 351.141 51.9664 350.235C51.0811 350.235 50.2576 350.235 49.4958 350.235C48.7341 350.235 47.9105 350.235 47.0252 350.235C47.0252 351.141 47.0252 351.965 47.0252 352.706C47.0252 353.447 47.0252 354.271 47.0252 355.176ZM47.0252 355.176C47.9105 355.176 48.7341 355.176 49.4958 355.176C50.2576 355.176 51.0811 355.176 51.9664 355.176C51.9664 354.271 51.9664 353.447 51.9664 352.706C51.9664 351.965 51.9664 351.141 51.9664 350.235C51.0811 350.235 50.2576 350.235 49.4958 350.235C48.7341 350.235 47.9105 350.235 47.0252 350.235C47.0252 351.141 47.0252 351.965 47.0252 352.706C47.0252 353.447 47.0252 354.271 47.0252 355.176ZM47.0252 355.176C47.9105 355.176 48.7341 355.176 49.4958 355.176C50.2576 355.176 51.0811 355.176 51.9664 355.176C51.9664 354.271 51.9664 353.447 51.9664 352.706C51.9664 351.965 51.9664 351.141 51.9664 350.235C51.0811 350.235 50.2576 350.235 49.4958 350.235C48.7341 350.235 47.9105 350.235 47.0252 350.235C47.0252 351.141 47.0252 351.965 47.0252 352.706C47.0252 353.447 47.0252 354.271 47.0252 355.176ZM47.0252 355.176C47.9105 355.176 48.7341 355.176 49.4958 355.176C50.2576 355.176 51.0811 355.176 51.9664 355.176C51.9664 354.271 51.9664 353.447 51.9664 352.706C51.9664 351.965 51.9664 351.141 51.9664 350.235C51.0811 350.235 50.2576 350.235 49.4958 350.235C48.7341 350.235 47.9105 350.235 47.0252 350.235C47.0252 351.141 47.0252 351.965 47.0252 352.706C47.0252 353.447 47.0252 354.271 47.0252 355.176ZM47.0252 355.176C47.9105 355.176 48.7341 355.176 49.4958 355.176C50.2576 355.176 51.0811 355.176 51.9664 355.176C51.9664 354.271 51.9664 353.447 51.9664 352.706C51.9664 351.965 51.9664 351.141 51.9664 350.235C51.0811 350.235 50.2576 350.235 49.4958 350.235C48.7341 350.235 47.9105 350.235 47.0252 350.235C47.0252 351.141 47.0252 351.965 47.0252 352.706C47.0252 353.447 47.0252 354.271 47.0252 355.176ZM47.0252 355.176C47.9105 355.176 48.7341 355.176 49.4958 355.176C50.2576 355.176 51.0811 355.176 51.9664 355.176C51.9664 354.271 51.9664 353.447 51.9664 352.706C51.9664 351.965 51.9664 351.141 51.9664 350.235C51.0811 350.235 50.2576 350.235 49.4958 350.235C48.7341 350.235 47.9105 350.235 47.0252 350.235C47.0252 351.141 47.0252 351.965 47.0252 352.706C47.0252 353.447 47.0252 354.271 47.0252 355.176ZM47.0252 355.176C47.9105 355.176 48.7341 355.176 49.4958 355.176C50.2576 355.176 51.0811 355.176 51.9664 355.176C51.9664 354.271 51.9664 353.447 51.9664 352.706C51.9664 351.965 51.9664 351.141 51.9664 350.235C51.0811 350.235 50.2576 350.235 49.4958 350.235C48.7341 350.235 47.9105 350.235 47.0252 350.235C47.0252 351.141 47.0252 351.965 47.0252 352.706C47.0252 353.447 47.0252 354.271 47.0252 355.176ZM49.4958 350.235C50.3811 350.235 51.2046 350.235 51.9664 350.235C52.7282 350.235 53.5517 350.235 54.437 350.235C54.437 349.329 54.437 348.506 54.437 347.765C54.437 347.024 54.437 346.2 54.437 345.294C53.5517 345.294 52.7282 345.294 51.9664 345.294C51.2046 345.294 50.3811 345.294 49.4958 345.294C49.4958 346.2 49.4958 347.024 49.4958 347.765C49.4958 348.506 49.4958 349.329 49.4958 350.235ZM49.4958 350.235C50.3811 350.235 51.2046 350.235 51.9664 350.235C52.7282 350.235 53.5517 350.235 54.437 350.235C54.437 349.329 54.437 348.506 54.437 347.765C54.437 347.024 54.437 346.2 54.437 345.294C53.5517 345.294 52.7282 345.294 51.9664 345.294C51.2046 345.294 50.3811 345.294 49.4958 345.294C49.4958 346.2 49.4958 347.024 49.4958 347.765C49.4958 348.506 49.4958 349.329 49.4958 350.235ZM49.4958 350.235C50.3811 350.235 51.2046 350.235 51.9664 350.235C52.7282 350.235 53.5517 350.235 54.437 350.235C54.437 349.329 54.437 348.506 54.437 347.765C54.437 347.024 54.437 346.2 54.437 345.294C53.5517 345.294 52.7282 345.294 51.9664 345.294C51.2046 345.294 50.3811 345.294 49.4958 345.294C49.4958 346.2 49.4958 347.024 49.4958 347.765C49.4958 348.506 49.4958 349.329 49.4958 350.235ZM49.4958 350.235C50.3811 350.235 51.2046 350.235 51.9664 350.235C52.7282 350.235 53.5517 350.235 54.437 350.235C54.437 349.329 54.437 348.506 54.437 347.765C54.437 347.024 54.437 346.2 54.437 345.294C53.5517 345.294 52.7282 345.294 51.9664 345.294C51.2046 345.294 50.3811 345.294 49.4958 345.294C49.4958 346.2 49.4958 347.024 49.4958 347.765C49.4958 348.506 49.4958 349.329 49.4958 350.235ZM49.4958 350.235C50.3811 350.235 51.2046 350.235 51.9664 350.235C52.7282 350.235 53.5517 350.235 54.437 350.235C54.437 349.329 54.437 348.506 54.437 347.765C54.437 347.024 54.437 346.2 54.437 345.294C53.5517 345.294 52.7282 345.294 51.9664 345.294C51.2046 345.294 50.3811 345.294 49.4958 345.294C49.4958 346.2 49.4958 347.024 49.4958 347.765C49.4958 348.506 49.4958 349.329 49.4958 350.235ZM49.4958 350.235C50.3811 350.235 51.2046 350.235 51.9664 350.235C52.7282 350.235 53.5517 350.235 54.437 350.235C54.437 349.329 54.437 348.506 54.437 347.765C54.437 347.024 54.437 346.2 54.437 345.294C53.5517 345.294 52.7282 345.294 51.9664 345.294C51.2046 345.294 50.3811 345.294 49.4958 345.294C49.4958 346.2 49.4958 347.024 49.4958 347.765C49.4958 348.506 49.4958 349.329 49.4958 350.235ZM49.4958 350.235C50.3811 350.235 51.2046 350.235 51.9664 350.235C52.7282 350.235 53.5517 350.235 54.437 350.235C54.437 349.329 54.437 348.506 54.437 347.765C54.437 347.024 54.437 346.2 54.437 345.294C53.5517 345.294 52.7282 345.294 51.9664 345.294C51.2046 345.294 50.3811 345.294 49.4958 345.294C49.4958 346.2 49.4958 347.024 49.4958 347.765C49.4958 348.506 49.4958 349.329 49.4958 350.235ZM49.4958 350.235C50.3811 350.235 51.2046 350.235 51.9664 350.235C52.7282 350.235 53.5517 350.235 54.437 350.235C54.437 349.329 54.437 348.506 54.437 347.765C54.437 347.024 54.437 346.2 54.437 345.294C53.5517 345.294 52.7282 345.294 51.9664 345.294C51.2046 345.294 50.3811 345.294 49.4958 345.294C49.4958 346.2 49.4958 347.024 49.4958 347.765C49.4958 348.506 49.4958 349.329 49.4958 350.235ZM49.4958 350.235C50.3811 350.235 51.2046 350.235 51.9664 350.235C52.7282 350.235 53.5517 350.235 54.437 350.235C54.437 349.329 54.437 348.506 54.437 347.765C54.437 347.024 54.437 346.2 54.437 345.294C53.5517 345.294 52.7282 345.294 51.9664 345.294C51.2046 345.294 50.3811 345.294 49.4958 345.294C49.4958 346.2 49.4958 347.024 49.4958 347.765C49.4958 348.506 49.4958 349.329 49.4958 350.235ZM51.9664 345.294C52.8517 345.294 53.6752 345.294 54.437 345.294C55.1988 345.294 56.0223 345.294 56.9076 345.294C56.9076 344.388 56.9076 343.565 56.9076 342.824C56.9076 342.082 56.9076 341.259 56.9076 340.353C56.0223 340.353 55.1988 340.353 54.437 340.353C53.6752 340.353 52.8517 340.353 51.9664 340.353C51.9664 341.259 51.9664 342.082 51.9664 342.824C51.9664 343.565 51.9664 344.388 51.9664 345.294ZM51.9664 345.294C52.8517 345.294 53.6752 345.294 54.437 345.294C55.1988 345.294 56.0223 345.294 56.9076 345.294C56.9076 344.388 56.9076 343.565 56.9076 342.824C56.9076 342.082 56.9076 341.259 56.9076 340.353C56.0223 340.353 55.1988 340.353 54.437 340.353C53.6752 340.353 52.8517 340.353 51.9664 340.353C51.9664 341.259 51.9664 342.082 51.9664 342.824C51.9664 343.565 51.9664 344.388 51.9664 345.294ZM51.9664 345.294C52.8517 345.294 53.6752 345.294 54.437 345.294C55.1988 345.294 56.0223 345.294 56.9076 345.294C56.9076 344.388 56.9076 343.565 56.9076 342.824C56.9076 342.082 56.9076 341.259 56.9076 340.353C56.0223 340.353 55.1988 340.353 54.437 340.353C53.6752 340.353 52.8517 340.353 51.9664 340.353C51.9664 341.259 51.9664 342.082 51.9664 342.824C51.9664 343.565 51.9664 344.388 51.9664 345.294ZM51.9664 345.294C52.8517 345.294 53.6752 345.294 54.437 345.294C55.1988 345.294 56.0223 345.294 56.9076 345.294C56.9076 344.388 56.9076 343.565 56.9076 342.824C56.9076 342.082 56.9076 341.259 56.9076 340.353C56.0223 340.353 55.1988 340.353 54.437 340.353C53.6752 340.353 52.8517 340.353 51.9664 340.353C51.9664 341.259 51.9664 342.082 51.9664 342.824C51.9664 343.565 51.9664 344.388 51.9664 345.294ZM51.9664 345.294C52.8517 345.294 53.6752 345.294 54.437 345.294C55.1988 345.294 56.0223 345.294 56.9076 345.294C56.9076 344.388 56.9076 343.565 56.9076 342.824C56.9076 342.082 56.9076 341.259 56.9076 340.353C56.0223 340.353 55.1988 340.353 54.437 340.353C53.6752 340.353 52.8517 340.353 51.9664 340.353C51.9664 341.259 51.9664 342.082 51.9664 342.824C51.9664 343.565 51.9664 344.388 51.9664 345.294ZM51.9664 345.294C52.8517 345.294 53.6752 345.294 54.437 345.294C55.1988 345.294 56.0223 345.294 56.9076 345.294C56.9076 344.388 56.9076 343.565 56.9076 342.824C56.9076 342.082 56.9076 341.259 56.9076 340.353C56.0223 340.353 55.1988 340.353 54.437 340.353C53.6752 340.353 52.8517 340.353 51.9664 340.353C51.9664 341.259 51.9664 342.082 51.9664 342.824C51.9664 343.565 51.9664 344.388 51.9664 345.294ZM51.9664 345.294C52.8517 345.294 53.6752 345.294 54.437 345.294C55.1988 345.294 56.0223 345.294 56.9076 345.294C56.9076 344.388 56.9076 343.565 56.9076 342.824C56.9076 342.082 56.9076 341.259 56.9076 340.353C56.0223 340.353 55.1988 340.353 54.437 340.353C53.6752 340.353 52.8517 340.353 51.9664 340.353C51.9664 341.259 51.9664 342.082 51.9664 342.824C51.9664 343.565 51.9664 344.388 51.9664 345.294ZM51.9664 345.294C52.8517 345.294 53.6752 345.294 54.437 345.294C55.1988 345.294 56.0223 345.294 56.9076 345.294C56.9076 344.388 56.9076 343.565 56.9076 342.824C56.9076 342.082 56.9076 341.259 56.9076 340.353C56.0223 340.353 55.1988 340.353 54.437 340.353C53.6752 340.353 52.8517 340.353 51.9664 340.353C51.9664 341.259 51.9664 342.082 51.9664 342.824C51.9664 343.565 51.9664 344.388 51.9664 345.294ZM51.9664 345.294C52.8517 345.294 53.6752 345.294 54.437 345.294C55.1988 345.294 56.0223 345.294 56.9076 345.294C56.9076 344.388 56.9076 343.565 56.9076 342.824C56.9076 342.082 56.9076 341.259 56.9076 340.353C56.0223 340.353 55.1988 340.353 54.437 340.353C53.6752 340.353 52.8517 340.353 51.9664 340.353C51.9664 341.259 51.9664 342.082 51.9664 342.824C51.9664 343.565 51.9664 344.388 51.9664 345.294ZM54.437 340.353C55.3223 340.353 56.1458 340.353 56.9076 340.353C57.6693 340.353 58.4929 340.353 59.3782 340.353C59.3782 339.447 59.3782 338.624 59.3782 337.882C59.3782 337.141 59.3782 336.318 59.3782 335.412C58.4929 335.412 57.6693 335.412 56.9076 335.412C56.1458 335.412 55.3223 335.412 54.437 335.412C54.437 336.318 54.437 337.141 54.437 337.882C54.437 338.624 54.437 339.447 54.437 340.353ZM54.437 340.353C55.3223 340.353 56.1458 340.353 56.9076 340.353C57.6693 340.353 58.4929 340.353 59.3782 340.353C59.3782 339.447 59.3782 338.624 59.3782 337.882C59.3782 337.141 59.3782 336.318 59.3782 335.412C58.4929 335.412 57.6693 335.412 56.9076 335.412C56.1458 335.412 55.3223 335.412 54.437 335.412C54.437 336.318 54.437 337.141 54.437 337.882C54.437 338.624 54.437 339.447 54.437 340.353ZM54.437 340.353C55.3223 340.353 56.1458 340.353 56.9076 340.353C57.6693 340.353 58.4929 340.353 59.3782 340.353C59.3782 339.447 59.3782 338.624 59.3782 337.882C59.3782 337.141 59.3782 336.318 59.3782 335.412C58.4929 335.412 57.6693 335.412 56.9076 335.412C56.1458 335.412 55.3223 335.412 54.437 335.412C54.437 336.318 54.437 337.141 54.437 337.882C54.437 338.624 54.437 339.447 54.437 340.353ZM54.437 340.353C55.3223 340.353 56.1458 340.353 56.9076 340.353C57.6693 340.353 58.4929 340.353 59.3782 340.353C59.3782 339.447 59.3782 338.624 59.3782 337.882C59.3782 337.141 59.3782 336.318 59.3782 335.412C58.4929 335.412 57.6693 335.412 56.9076 335.412C56.1458 335.412 55.3223 335.412 54.437 335.412C54.437 336.318 54.437 337.141 54.437 337.882C54.437 338.624 54.437 339.447 54.437 340.353ZM54.437 340.353C55.3223 340.353 56.1458 340.353 56.9076 340.353C57.6693 340.353 58.4929 340.353 59.3782 340.353C59.3782 339.447 59.3782 338.624 59.3782 337.882C59.3782 337.141 59.3782 336.318 59.3782 335.412C58.4929 335.412 57.6693 335.412 56.9076 335.412C56.1458 335.412 55.3223 335.412 54.437 335.412C54.437 336.318 54.437 337.141 54.437 337.882C54.437 338.624 54.437 339.447 54.437 340.353ZM54.437 340.353C55.3223 340.353 56.1458 340.353 56.9076 340.353C57.6693 340.353 58.4929 340.353 59.3782 340.353C59.3782 339.447 59.3782 338.624 59.3782 337.882C59.3782 337.141 59.3782 336.318 59.3782 335.412C58.4929 335.412 57.6693 335.412 56.9076 335.412C56.1458 335.412 55.3223 335.412 54.437 335.412C54.437 336.318 54.437 337.141 54.437 337.882C54.437 338.624 54.437 339.447 54.437 340.353ZM54.437 340.353C55.3223 340.353 56.1458 340.353 56.9076 340.353C57.6693 340.353 58.4929 340.353 59.3782 340.353C59.3782 339.447 59.3782 338.624 59.3782 337.882C59.3782 337.141 59.3782 336.318 59.3782 335.412C58.4929 335.412 57.6693 335.412 56.9076 335.412C56.1458 335.412 55.3223 335.412 54.437 335.412C54.437 336.318 54.437 337.141 54.437 337.882C54.437 338.624 54.437 339.447 54.437 340.353ZM54.437 340.353C55.3223 340.353 56.1458 340.353 56.9076 340.353C57.6693 340.353 58.4929 340.353 59.3782 340.353C59.3782 339.447 59.3782 338.624 59.3782 337.882C59.3782 337.141 59.3782 336.318 59.3782 335.412C58.4929 335.412 57.6693 335.412 56.9076 335.412C56.1458 335.412 55.3223 335.412 54.437 335.412C54.437 336.318 54.437 337.141 54.437 337.882C54.437 338.624 54.437 339.447 54.437 340.353ZM54.437 340.353C55.3223 340.353 56.1458 340.353 56.9076 340.353C57.6693 340.353 58.4929 340.353 59.3782 340.353C59.3782 339.447 59.3782 338.624 59.3782 337.882C59.3782 337.141 59.3782 336.318 59.3782 335.412C58.4929 335.412 57.6693 335.412 56.9076 335.412C56.1458 335.412 55.3223 335.412 54.437 335.412C54.437 336.318 54.437 337.141 54.437 337.882C54.437 338.624 54.437 339.447 54.437 340.353ZM37.1429 335.412C38.0282 335.412 38.8517 335.412 39.6135 335.412C40.3752 335.412 41.1988 335.412 42.0841 335.412C42.0841 334.506 42.0841 333.682 42.0841 332.941C42.0841 332.2 42.0841 331.376 42.0841 330.471C41.1988 330.471 40.3752 330.471 39.6135 330.471C38.8517 330.471 38.0282 330.471 37.1429 330.471C37.1429 331.376 37.1429 332.2 37.1429 332.941C37.1429 333.682 37.1429 334.506 37.1429 335.412ZM37.1429 335.412C38.0282 335.412 38.8517 335.412 39.6135 335.412C40.3752 335.412 41.1988 335.412 42.0841 335.412C42.0841 334.506 42.0841 333.682 42.0841 332.941C42.0841 332.2 42.0841 331.376 42.0841 330.471C41.1988 330.471 40.3752 330.471 39.6135 330.471C38.8517 330.471 38.0282 330.471 37.1429 330.471C37.1429 331.376 37.1429 332.2 37.1429 332.941C37.1429 333.682 37.1429 334.506 37.1429 335.412ZM37.1429 335.412C38.0282 335.412 38.8517 335.412 39.6135 335.412C40.3752 335.412 41.1988 335.412 42.0841 335.412C42.0841 334.506 42.0841 333.682 42.0841 332.941C42.0841 332.2 42.0841 331.376 42.0841 330.471C41.1988 330.471 40.3752 330.471 39.6135 330.471C38.8517 330.471 38.0282 330.471 37.1429 330.471C37.1429 331.376 37.1429 332.2 37.1429 332.941C37.1429 333.682 37.1429 334.506 37.1429 335.412ZM37.1429 335.412C38.0282 335.412 38.8517 335.412 39.6135 335.412C40.3752 335.412 41.1988 335.412 42.0841 335.412C42.0841 334.506 42.0841 333.682 42.0841 332.941C42.0841 332.2 42.0841 331.376 42.0841 330.471C41.1988 330.471 40.3752 330.471 39.6135 330.471C38.8517 330.471 38.0282 330.471 37.1429 330.471C37.1429 331.376 37.1429 332.2 37.1429 332.941C37.1429 333.682 37.1429 334.506 37.1429 335.412ZM37.1429 335.412C38.0282 335.412 38.8517 335.412 39.6135 335.412C40.3752 335.412 41.1988 335.412 42.0841 335.412C42.0841 334.506 42.0841 333.682 42.0841 332.941C42.0841 332.2 42.0841 331.376 42.0841 330.471C41.1988 330.471 40.3752 330.471 39.6135 330.471C38.8517 330.471 38.0282 330.471 37.1429 330.471C37.1429 331.376 37.1429 332.2 37.1429 332.941C37.1429 333.682 37.1429 334.506 37.1429 335.412ZM37.1429 335.412C38.0282 335.412 38.8517 335.412 39.6135 335.412C40.3752 335.412 41.1988 335.412 42.0841 335.412C42.0841 334.506 42.0841 333.682 42.0841 332.941C42.0841 332.2 42.0841 331.376 42.0841 330.471C41.1988 330.471 40.3752 330.471 39.6135 330.471C38.8517 330.471 38.0282 330.471 37.1429 330.471C37.1429 331.376 37.1429 332.2 37.1429 332.941C37.1429 333.682 37.1429 334.506 37.1429 335.412ZM37.1429 335.412C38.0282 335.412 38.8517 335.412 39.6135 335.412C40.3752 335.412 41.1988 335.412 42.0841 335.412C42.0841 334.506 42.0841 333.682 42.0841 332.941C42.0841 332.2 42.0841 331.376 42.0841 330.471C41.1988 330.471 40.3752 330.471 39.6135 330.471C38.8517 330.471 38.0282 330.471 37.1429 330.471C37.1429 331.376 37.1429 332.2 37.1429 332.941C37.1429 333.682 37.1429 334.506 37.1429 335.412ZM37.1429 335.412C38.0282 335.412 38.8517 335.412 39.6135 335.412C40.3752 335.412 41.1988 335.412 42.0841 335.412C42.0841 334.506 42.0841 333.682 42.0841 332.941C42.0841 332.2 42.0841 331.376 42.0841 330.471C41.1988 330.471 40.3752 330.471 39.6135 330.471C38.8517 330.471 38.0282 330.471 37.1429 330.471C37.1429 331.376 37.1429 332.2 37.1429 332.941C37.1429 333.682 37.1429 334.506 37.1429 335.412ZM37.1429 335.412C38.0282 335.412 38.8517 335.412 39.6135 335.412C40.3752 335.412 41.1988 335.412 42.0841 335.412C42.0841 334.506 42.0841 333.682 42.0841 332.941C42.0841 332.2 42.0841 331.376 42.0841 330.471C41.1988 330.471 40.3752 330.471 39.6135 330.471C38.8517 330.471 38.0282 330.471 37.1429 330.471C37.1429 331.376 37.1429 332.2 37.1429 332.941C37.1429 333.682 37.1429 334.506 37.1429 335.412ZM56.9076 335.412C57.7929 335.412 58.6164 335.412 59.3782 335.412C60.1399 335.412 60.9635 335.412 61.8488 335.412C61.8488 334.506 61.8488 333.682 61.8488 332.941C61.8488 332.2 61.8488 331.376 61.8488 330.471C60.9635 330.471 60.1399 330.471 59.3782 330.471C58.6164 330.471 57.7929 330.471 56.9076 330.471C56.9076 331.376 56.9076 332.2 56.9076 332.941C56.9076 333.682 56.9076 334.506 56.9076 335.412ZM56.9076 335.412C57.7929 335.412 58.6164 335.412 59.3782 335.412C60.1399 335.412 60.9635 335.412 61.8488 335.412C61.8488 334.506 61.8488 333.682 61.8488 332.941C61.8488 332.2 61.8488 331.376 61.8488 330.471C60.9635 330.471 60.1399 330.471 59.3782 330.471C58.6164 330.471 57.7929 330.471 56.9076 330.471C56.9076 331.376 56.9076 332.2 56.9076 332.941C56.9076 333.682 56.9076 334.506 56.9076 335.412ZM56.9076 335.412C57.7929 335.412 58.6164 335.412 59.3782 335.412C60.1399 335.412 60.9635 335.412 61.8488 335.412C61.8488 334.506 61.8488 333.682 61.8488 332.941C61.8488 332.2 61.8488 331.376 61.8488 330.471C60.9635 330.471 60.1399 330.471 59.3782 330.471C58.6164 330.471 57.7929 330.471 56.9076 330.471C56.9076 331.376 56.9076 332.2 56.9076 332.941C56.9076 333.682 56.9076 334.506 56.9076 335.412ZM56.9076 335.412C57.7929 335.412 58.6164 335.412 59.3782 335.412C60.1399 335.412 60.9635 335.412 61.8488 335.412C61.8488 334.506 61.8488 333.682 61.8488 332.941C61.8488 332.2 61.8488 331.376 61.8488 330.471C60.9635 330.471 60.1399 330.471 59.3782 330.471C58.6164 330.471 57.7929 330.471 56.9076 330.471C56.9076 331.376 56.9076 332.2 56.9076 332.941C56.9076 333.682 56.9076 334.506 56.9076 335.412ZM56.9076 335.412C57.7929 335.412 58.6164 335.412 59.3782 335.412C60.1399 335.412 60.9635 335.412 61.8488 335.412C61.8488 334.506 61.8488 333.682 61.8488 332.941C61.8488 332.2 61.8488 331.376 61.8488 330.471C60.9635 330.471 60.1399 330.471 59.3782 330.471C58.6164 330.471 57.7929 330.471 56.9076 330.471C56.9076 331.376 56.9076 332.2 56.9076 332.941C56.9076 333.682 56.9076 334.506 56.9076 335.412ZM56.9076 335.412C57.7929 335.412 58.6164 335.412 59.3782 335.412C60.1399 335.412 60.9635 335.412 61.8488 335.412C61.8488 334.506 61.8488 333.682 61.8488 332.941C61.8488 332.2 61.8488 331.376 61.8488 330.471C60.9635 330.471 60.1399 330.471 59.3782 330.471C58.6164 330.471 57.7929 330.471 56.9076 330.471C56.9076 331.376 56.9076 332.2 56.9076 332.941C56.9076 333.682 56.9076 334.506 56.9076 335.412ZM56.9076 335.412C57.7929 335.412 58.6164 335.412 59.3782 335.412C60.1399 335.412 60.9635 335.412 61.8488 335.412C61.8488 334.506 61.8488 333.682 61.8488 332.941C61.8488 332.2 61.8488 331.376 61.8488 330.471C60.9635 330.471 60.1399 330.471 59.3782 330.471C58.6164 330.471 57.7929 330.471 56.9076 330.471C56.9076 331.376 56.9076 332.2 56.9076 332.941C56.9076 333.682 56.9076 334.506 56.9076 335.412ZM56.9076 335.412C57.7929 335.412 58.6164 335.412 59.3782 335.412C60.1399 335.412 60.9635 335.412 61.8488 335.412C61.8488 334.506 61.8488 333.682 61.8488 332.941C61.8488 332.2 61.8488 331.376 61.8488 330.471C60.9635 330.471 60.1399 330.471 59.3782 330.471C58.6164 330.471 57.7929 330.471 56.9076 330.471C56.9076 331.376 56.9076 332.2 56.9076 332.941C56.9076 333.682 56.9076 334.506 56.9076 335.412ZM56.9076 335.412C57.7929 335.412 58.6164 335.412 59.3782 335.412C60.1399 335.412 60.9635 335.412 61.8488 335.412C61.8488 334.506 61.8488 333.682 61.8488 332.941C61.8488 332.2 61.8488 331.376 61.8488 330.471C60.9635 330.471 60.1399 330.471 59.3782 330.471C58.6164 330.471 57.7929 330.471 56.9076 330.471C56.9076 331.376 56.9076 332.2 56.9076 332.941C56.9076 333.682 56.9076 334.506 56.9076 335.412ZM37.1429 330.471C38.0282 330.471 38.8517 330.471 39.6135 330.471C40.3752 330.471 41.1988 330.471 42.0841 330.471C42.0841 329.565 42.0841 328.741 42.0841 328C42.0841 327.259 42.0841 326.435 42.0841 325.529C41.1988 325.529 40.3752 325.529 39.6135 325.529C38.8517 325.529 38.0282 325.529 37.1429 325.529C37.1429 326.435 37.1429 327.259 37.1429 328C37.1429 328.741 37.1429 329.565 37.1429 330.471ZM37.1429 330.471C38.0282 330.471 38.8517 330.471 39.6135 330.471C40.3752 330.471 41.1988 330.471 42.0841 330.471C42.0841 329.565 42.0841 328.741 42.0841 328C42.0841 327.259 42.0841 326.435 42.0841 325.529C41.1988 325.529 40.3752 325.529 39.6135 325.529C38.8517 325.529 38.0282 325.529 37.1429 325.529C37.1429 326.435 37.1429 327.259 37.1429 328C37.1429 328.741 37.1429 329.565 37.1429 330.471ZM37.1429 330.471C38.0282 330.471 38.8517 330.471 39.6135 330.471C40.3752 330.471 41.1988 330.471 42.0841 330.471C42.0841 329.565 42.0841 328.741 42.0841 328C42.0841 327.259 42.0841 326.435 42.0841 325.529C41.1988 325.529 40.3752 325.529 39.6135 325.529C38.8517 325.529 38.0282 325.529 37.1429 325.529C37.1429 326.435 37.1429 327.259 37.1429 328C37.1429 328.741 37.1429 329.565 37.1429 330.471ZM37.1429 330.471C38.0282 330.471 38.8517 330.471 39.6135 330.471C40.3752 330.471 41.1988 330.471 42.0841 330.471C42.0841 329.565 42.0841 328.741 42.0841 328C42.0841 327.259 42.0841 326.435 42.0841 325.529C41.1988 325.529 40.3752 325.529 39.6135 325.529C38.8517 325.529 38.0282 325.529 37.1429 325.529C37.1429 326.435 37.1429 327.259 37.1429 328C37.1429 328.741 37.1429 329.565 37.1429 330.471ZM37.1429 330.471C38.0282 330.471 38.8517 330.471 39.6135 330.471C40.3752 330.471 41.1988 330.471 42.0841 330.471C42.0841 329.565 42.0841 328.741 42.0841 328C42.0841 327.259 42.0841 326.435 42.0841 325.529C41.1988 325.529 40.3752 325.529 39.6135 325.529C38.8517 325.529 38.0282 325.529 37.1429 325.529C37.1429 326.435 37.1429 327.259 37.1429 328C37.1429 328.741 37.1429 329.565 37.1429 330.471ZM37.1429 330.471C38.0282 330.471 38.8517 330.471 39.6135 330.471C40.3752 330.471 41.1988 330.471 42.0841 330.471C42.0841 329.565 42.0841 328.741 42.0841 328C42.0841 327.259 42.0841 326.435 42.0841 325.529C41.1988 325.529 40.3752 325.529 39.6135 325.529C38.8517 325.529 38.0282 325.529 37.1429 325.529C37.1429 326.435 37.1429 327.259 37.1429 328C37.1429 328.741 37.1429 329.565 37.1429 330.471ZM37.1429 330.471C38.0282 330.471 38.8517 330.471 39.6135 330.471C40.3752 330.471 41.1988 330.471 42.0841 330.471C42.0841 329.565 42.0841 328.741 42.0841 328C42.0841 327.259 42.0841 326.435 42.0841 325.529C41.1988 325.529 40.3752 325.529 39.6135 325.529C38.8517 325.529 38.0282 325.529 37.1429 325.529C37.1429 326.435 37.1429 327.259 37.1429 328C37.1429 328.741 37.1429 329.565 37.1429 330.471ZM37.1429 330.471C38.0282 330.471 38.8517 330.471 39.6135 330.471C40.3752 330.471 41.1988 330.471 42.0841 330.471C42.0841 329.565 42.0841 328.741 42.0841 328C42.0841 327.259 42.0841 326.435 42.0841 325.529C41.1988 325.529 40.3752 325.529 39.6135 325.529C38.8517 325.529 38.0282 325.529 37.1429 325.529C37.1429 326.435 37.1429 327.259 37.1429 328C37.1429 328.741 37.1429 329.565 37.1429 330.471ZM37.1429 330.471C38.0282 330.471 38.8517 330.471 39.6135 330.471C40.3752 330.471 41.1988 330.471 42.0841 330.471C42.0841 329.565 42.0841 328.741 42.0841 328C42.0841 327.259 42.0841 326.435 42.0841 325.529C41.1988 325.529 40.3752 325.529 39.6135 325.529C38.8517 325.529 38.0282 325.529 37.1429 325.529C37.1429 326.435 37.1429 327.259 37.1429 328C37.1429 328.741 37.1429 329.565 37.1429 330.471ZM56.9076 330.471C57.7929 330.471 58.6164 330.471 59.3782 330.471C60.1399 330.471 60.9635 330.471 61.8488 330.471C61.8488 329.565 61.8488 328.741 61.8488 328C61.8488 327.259 61.8488 326.435 61.8488 325.529C60.9635 325.529 60.1399 325.529 59.3782 325.529C58.6164 325.529 57.7929 325.529 56.9076 325.529C56.9076 326.435 56.9076 327.259 56.9076 328C56.9076 328.741 56.9076 329.565 56.9076 330.471ZM56.9076 330.471C57.7929 330.471 58.6164 330.471 59.3782 330.471C60.1399 330.471 60.9635 330.471 61.8488 330.471C61.8488 329.565 61.8488 328.741 61.8488 328C61.8488 327.259 61.8488 326.435 61.8488 325.529C60.9635 325.529 60.1399 325.529 59.3782 325.529C58.6164 325.529 57.7929 325.529 56.9076 325.529C56.9076 326.435 56.9076 327.259 56.9076 328C56.9076 328.741 56.9076 329.565 56.9076 330.471ZM56.9076 330.471C57.7929 330.471 58.6164 330.471 59.3782 330.471C60.1399 330.471 60.9635 330.471 61.8488 330.471C61.8488 329.565 61.8488 328.741 61.8488 328C61.8488 327.259 61.8488 326.435 61.8488 325.529C60.9635 325.529 60.1399 325.529 59.3782 325.529C58.6164 325.529 57.7929 325.529 56.9076 325.529C56.9076 326.435 56.9076 327.259 56.9076 328C56.9076 328.741 56.9076 329.565 56.9076 330.471ZM56.9076 330.471C57.7929 330.471 58.6164 330.471 59.3782 330.471C60.1399 330.471 60.9635 330.471 61.8488 330.471C61.8488 329.565 61.8488 328.741 61.8488 328C61.8488 327.259 61.8488 326.435 61.8488 325.529C60.9635 325.529 60.1399 325.529 59.3782 325.529C58.6164 325.529 57.7929 325.529 56.9076 325.529C56.9076 326.435 56.9076 327.259 56.9076 328C56.9076 328.741 56.9076 329.565 56.9076 330.471ZM56.9076 330.471C57.7929 330.471 58.6164 330.471 59.3782 330.471C60.1399 330.471 60.9635 330.471 61.8488 330.471C61.8488 329.565 61.8488 328.741 61.8488 328C61.8488 327.259 61.8488 326.435 61.8488 325.529C60.9635 325.529 60.1399 325.529 59.3782 325.529C58.6164 325.529 57.7929 325.529 56.9076 325.529C56.9076 326.435 56.9076 327.259 56.9076 328C56.9076 328.741 56.9076 329.565 56.9076 330.471ZM56.9076 330.471C57.7929 330.471 58.6164 330.471 59.3782 330.471C60.1399 330.471 60.9635 330.471 61.8488 330.471C61.8488 329.565 61.8488 328.741 61.8488 328C61.8488 327.259 61.8488 326.435 61.8488 325.529C60.9635 325.529 60.1399 325.529 59.3782 325.529C58.6164 325.529 57.7929 325.529 56.9076 325.529C56.9076 326.435 56.9076 327.259 56.9076 328C56.9076 328.741 56.9076 329.565 56.9076 330.471ZM56.9076 330.471C57.7929 330.471 58.6164 330.471 59.3782 330.471C60.1399 330.471 60.9635 330.471 61.8488 330.471C61.8488 329.565 61.8488 328.741 61.8488 328C61.8488 327.259 61.8488 326.435 61.8488 325.529C60.9635 325.529 60.1399 325.529 59.3782 325.529C58.6164 325.529 57.7929 325.529 56.9076 325.529C56.9076 326.435 56.9076 327.259 56.9076 328C56.9076 328.741 56.9076 329.565 56.9076 330.471ZM56.9076 330.471C57.7929 330.471 58.6164 330.471 59.3782 330.471C60.1399 330.471 60.9635 330.471 61.8488 330.471C61.8488 329.565 61.8488 328.741 61.8488 328C61.8488 327.259 61.8488 326.435 61.8488 325.529C60.9635 325.529 60.1399 325.529 59.3782 325.529C58.6164 325.529 57.7929 325.529 56.9076 325.529C56.9076 326.435 56.9076 327.259 56.9076 328C56.9076 328.741 56.9076 329.565 56.9076 330.471ZM56.9076 330.471C57.7929 330.471 58.6164 330.471 59.3782 330.471C60.1399 330.471 60.9635 330.471 61.8488 330.471C61.8488 329.565 61.8488 328.741 61.8488 328C61.8488 327.259 61.8488 326.435 61.8488 325.529C60.9635 325.529 60.1399 325.529 59.3782 325.529C58.6164 325.529 57.7929 325.529 56.9076 325.529C56.9076 326.435 56.9076 327.259 56.9076 328C56.9076 328.741 56.9076 329.565 56.9076 330.471ZM37.1429 325.529C38.0282 325.529 38.8517 325.529 39.6135 325.529C40.3752 325.529 41.1988 325.529 42.0841 325.529C42.0841 324.624 42.0841 323.8 42.0841 323.059C42.0841 322.318 42.0841 321.494 42.0841 320.588C41.1988 320.588 40.3752 320.588 39.6135 320.588C38.8517 320.588 38.0282 320.588 37.1429 320.588C37.1429 321.494 37.1429 322.318 37.1429 323.059C37.1429 323.8 37.1429 324.624 37.1429 325.529ZM37.1429 325.529C38.0282 325.529 38.8517 325.529 39.6135 325.529C40.3752 325.529 41.1988 325.529 42.0841 325.529C42.0841 324.624 42.0841 323.8 42.0841 323.059C42.0841 322.318 42.0841 321.494 42.0841 320.588C41.1988 320.588 40.3752 320.588 39.6135 320.588C38.8517 320.588 38.0282 320.588 37.1429 320.588C37.1429 321.494 37.1429 322.318 37.1429 323.059C37.1429 323.8 37.1429 324.624 37.1429 325.529ZM37.1429 325.529C38.0282 325.529 38.8517 325.529 39.6135 325.529C40.3752 325.529 41.1988 325.529 42.0841 325.529C42.0841 324.624 42.0841 323.8 42.0841 323.059C42.0841 322.318 42.0841 321.494 42.0841 320.588C41.1988 320.588 40.3752 320.588 39.6135 320.588C38.8517 320.588 38.0282 320.588 37.1429 320.588C37.1429 321.494 37.1429 322.318 37.1429 323.059C37.1429 323.8 37.1429 324.624 37.1429 325.529ZM37.1429 325.529C38.0282 325.529 38.8517 325.529 39.6135 325.529C40.3752 325.529 41.1988 325.529 42.0841 325.529C42.0841 324.624 42.0841 323.8 42.0841 323.059C42.0841 322.318 42.0841 321.494 42.0841 320.588C41.1988 320.588 40.3752 320.588 39.6135 320.588C38.8517 320.588 38.0282 320.588 37.1429 320.588C37.1429 321.494 37.1429 322.318 37.1429 323.059C37.1429 323.8 37.1429 324.624 37.1429 325.529ZM37.1429 325.529C38.0282 325.529 38.8517 325.529 39.6135 325.529C40.3752 325.529 41.1988 325.529 42.0841 325.529C42.0841 324.624 42.0841 323.8 42.0841 323.059C42.0841 322.318 42.0841 321.494 42.0841 320.588C41.1988 320.588 40.3752 320.588 39.6135 320.588C38.8517 320.588 38.0282 320.588 37.1429 320.588C37.1429 321.494 37.1429 322.318 37.1429 323.059C37.1429 323.8 37.1429 324.624 37.1429 325.529ZM37.1429 325.529C38.0282 325.529 38.8517 325.529 39.6135 325.529C40.3752 325.529 41.1988 325.529 42.0841 325.529C42.0841 324.624 42.0841 323.8 42.0841 323.059C42.0841 322.318 42.0841 321.494 42.0841 320.588C41.1988 320.588 40.3752 320.588 39.6135 320.588C38.8517 320.588 38.0282 320.588 37.1429 320.588C37.1429 321.494 37.1429 322.318 37.1429 323.059C37.1429 323.8 37.1429 324.624 37.1429 325.529ZM37.1429 325.529C38.0282 325.529 38.8517 325.529 39.6135 325.529C40.3752 325.529 41.1988 325.529 42.0841 325.529C42.0841 324.624 42.0841 323.8 42.0841 323.059C42.0841 322.318 42.0841 321.494 42.0841 320.588C41.1988 320.588 40.3752 320.588 39.6135 320.588C38.8517 320.588 38.0282 320.588 37.1429 320.588C37.1429 321.494 37.1429 322.318 37.1429 323.059C37.1429 323.8 37.1429 324.624 37.1429 325.529ZM37.1429 325.529C38.0282 325.529 38.8517 325.529 39.6135 325.529C40.3752 325.529 41.1988 325.529 42.0841 325.529C42.0841 324.624 42.0841 323.8 42.0841 323.059C42.0841 322.318 42.0841 321.494 42.0841 320.588C41.1988 320.588 40.3752 320.588 39.6135 320.588C38.8517 320.588 38.0282 320.588 37.1429 320.588C37.1429 321.494 37.1429 322.318 37.1429 323.059C37.1429 323.8 37.1429 324.624 37.1429 325.529ZM37.1429 325.529C38.0282 325.529 38.8517 325.529 39.6135 325.529C40.3752 325.529 41.1988 325.529 42.0841 325.529C42.0841 324.624 42.0841 323.8 42.0841 323.059C42.0841 322.318 42.0841 321.494 42.0841 320.588C41.1988 320.588 40.3752 320.588 39.6135 320.588C38.8517 320.588 38.0282 320.588 37.1429 320.588C37.1429 321.494 37.1429 322.318 37.1429 323.059C37.1429 323.8 37.1429 324.624 37.1429 325.529ZM56.9076 325.529C57.7929 325.529 58.6164 325.529 59.3782 325.529C60.1399 325.529 60.9635 325.529 61.8488 325.529C61.8488 324.624 61.8488 323.8 61.8488 323.059C61.8488 322.318 61.8488 321.494 61.8488 320.588C60.9635 320.588 60.1399 320.588 59.3782 320.588C58.6164 320.588 57.7929 320.588 56.9076 320.588C56.9076 321.494 56.9076 322.318 56.9076 323.059C56.9076 323.8 56.9076 324.624 56.9076 325.529ZM56.9076 325.529C57.7929 325.529 58.6164 325.529 59.3782 325.529C60.1399 325.529 60.9635 325.529 61.8488 325.529C61.8488 324.624 61.8488 323.8 61.8488 323.059C61.8488 322.318 61.8488 321.494 61.8488 320.588C60.9635 320.588 60.1399 320.588 59.3782 320.588C58.6164 320.588 57.7929 320.588 56.9076 320.588C56.9076 321.494 56.9076 322.318 56.9076 323.059C56.9076 323.8 56.9076 324.624 56.9076 325.529ZM56.9076 325.529C57.7929 325.529 58.6164 325.529 59.3782 325.529C60.1399 325.529 60.9635 325.529 61.8488 325.529C61.8488 324.624 61.8488 323.8 61.8488 323.059C61.8488 322.318 61.8488 321.494 61.8488 320.588C60.9635 320.588 60.1399 320.588 59.3782 320.588C58.6164 320.588 57.7929 320.588 56.9076 320.588C56.9076 321.494 56.9076 322.318 56.9076 323.059C56.9076 323.8 56.9076 324.624 56.9076 325.529ZM56.9076 325.529C57.7929 325.529 58.6164 325.529 59.3782 325.529C60.1399 325.529 60.9635 325.529 61.8488 325.529C61.8488 324.624 61.8488 323.8 61.8488 323.059C61.8488 322.318 61.8488 321.494 61.8488 320.588C60.9635 320.588 60.1399 320.588 59.3782 320.588C58.6164 320.588 57.7929 320.588 56.9076 320.588C56.9076 321.494 56.9076 322.318 56.9076 323.059C56.9076 323.8 56.9076 324.624 56.9076 325.529ZM56.9076 325.529C57.7929 325.529 58.6164 325.529 59.3782 325.529C60.1399 325.529 60.9635 325.529 61.8488 325.529C61.8488 324.624 61.8488 323.8 61.8488 323.059C61.8488 322.318 61.8488 321.494 61.8488 320.588C60.9635 320.588 60.1399 320.588 59.3782 320.588C58.6164 320.588 57.7929 320.588 56.9076 320.588C56.9076 321.494 56.9076 322.318 56.9076 323.059C56.9076 323.8 56.9076 324.624 56.9076 325.529ZM56.9076 325.529C57.7929 325.529 58.6164 325.529 59.3782 325.529C60.1399 325.529 60.9635 325.529 61.8488 325.529C61.8488 324.624 61.8488 323.8 61.8488 323.059C61.8488 322.318 61.8488 321.494 61.8488 320.588C60.9635 320.588 60.1399 320.588 59.3782 320.588C58.6164 320.588 57.7929 320.588 56.9076 320.588C56.9076 321.494 56.9076 322.318 56.9076 323.059C56.9076 323.8 56.9076 324.624 56.9076 325.529ZM56.9076 325.529C57.7929 325.529 58.6164 325.529 59.3782 325.529C60.1399 325.529 60.9635 325.529 61.8488 325.529C61.8488 324.624 61.8488 323.8 61.8488 323.059C61.8488 322.318 61.8488 321.494 61.8488 320.588C60.9635 320.588 60.1399 320.588 59.3782 320.588C58.6164 320.588 57.7929 320.588 56.9076 320.588C56.9076 321.494 56.9076 322.318 56.9076 323.059C56.9076 323.8 56.9076 324.624 56.9076 325.529ZM56.9076 325.529C57.7929 325.529 58.6164 325.529 59.3782 325.529C60.1399 325.529 60.9635 325.529 61.8488 325.529C61.8488 324.624 61.8488 323.8 61.8488 323.059C61.8488 322.318 61.8488 321.494 61.8488 320.588C60.9635 320.588 60.1399 320.588 59.3782 320.588C58.6164 320.588 57.7929 320.588 56.9076 320.588C56.9076 321.494 56.9076 322.318 56.9076 323.059C56.9076 323.8 56.9076 324.624 56.9076 325.529ZM56.9076 325.529C57.7929 325.529 58.6164 325.529 59.3782 325.529C60.1399 325.529 60.9635 325.529 61.8488 325.529C61.8488 324.624 61.8488 323.8 61.8488 323.059C61.8488 322.318 61.8488 321.494 61.8488 320.588C60.9635 320.588 60.1399 320.588 59.3782 320.588C58.6164 320.588 57.7929 320.588 56.9076 320.588C56.9076 321.494 56.9076 322.318 56.9076 323.059C56.9076 323.8 56.9076 324.624 56.9076 325.529ZM42.0841 320.588C42.9693 320.588 43.7929 320.588 44.5546 320.588C45.3164 320.588 46.1399 320.588 47.0252 320.588C47.0252 319.682 47.0252 318.859 47.0252 318.118C47.0252 317.376 47.0252 316.553 47.0252 315.647C46.1399 315.647 45.3164 315.647 44.5546 315.647C43.7929 315.647 42.9693 315.647 42.0841 315.647C42.0841 316.553 42.0841 317.376 42.0841 318.118C42.0841 318.859 42.0841 319.682 42.0841 320.588ZM42.0841 320.588C42.9693 320.588 43.7929 320.588 44.5546 320.588C45.3164 320.588 46.1399 320.588 47.0252 320.588C47.0252 319.682 47.0252 318.859 47.0252 318.118C47.0252 317.376 47.0252 316.553 47.0252 315.647C46.1399 315.647 45.3164 315.647 44.5546 315.647C43.7929 315.647 42.9693 315.647 42.0841 315.647C42.0841 316.553 42.0841 317.376 42.0841 318.118C42.0841 318.859 42.0841 319.682 42.0841 320.588ZM42.0841 320.588C42.9693 320.588 43.7929 320.588 44.5546 320.588C45.3164 320.588 46.1399 320.588 47.0252 320.588C47.0252 319.682 47.0252 318.859 47.0252 318.118C47.0252 317.376 47.0252 316.553 47.0252 315.647C46.1399 315.647 45.3164 315.647 44.5546 315.647C43.7929 315.647 42.9693 315.647 42.0841 315.647C42.0841 316.553 42.0841 317.376 42.0841 318.118C42.0841 318.859 42.0841 319.682 42.0841 320.588ZM42.0841 320.588C42.9693 320.588 43.7929 320.588 44.5546 320.588C45.3164 320.588 46.1399 320.588 47.0252 320.588C47.0252 319.682 47.0252 318.859 47.0252 318.118C47.0252 317.376 47.0252 316.553 47.0252 315.647C46.1399 315.647 45.3164 315.647 44.5546 315.647C43.7929 315.647 42.9693 315.647 42.0841 315.647C42.0841 316.553 42.0841 317.376 42.0841 318.118C42.0841 318.859 42.0841 319.682 42.0841 320.588ZM42.0841 320.588C42.9693 320.588 43.7929 320.588 44.5546 320.588C45.3164 320.588 46.1399 320.588 47.0252 320.588C47.0252 319.682 47.0252 318.859 47.0252 318.118C47.0252 317.376 47.0252 316.553 47.0252 315.647C46.1399 315.647 45.3164 315.647 44.5546 315.647C43.7929 315.647 42.9693 315.647 42.0841 315.647C42.0841 316.553 42.0841 317.376 42.0841 318.118C42.0841 318.859 42.0841 319.682 42.0841 320.588ZM42.0841 320.588C42.9693 320.588 43.7929 320.588 44.5546 320.588C45.3164 320.588 46.1399 320.588 47.0252 320.588C47.0252 319.682 47.0252 318.859 47.0252 318.118C47.0252 317.376 47.0252 316.553 47.0252 315.647C46.1399 315.647 45.3164 315.647 44.5546 315.647C43.7929 315.647 42.9693 315.647 42.0841 315.647C42.0841 316.553 42.0841 317.376 42.0841 318.118C42.0841 318.859 42.0841 319.682 42.0841 320.588ZM42.0841 320.588C42.9693 320.588 43.7929 320.588 44.5546 320.588C45.3164 320.588 46.1399 320.588 47.0252 320.588C47.0252 319.682 47.0252 318.859 47.0252 318.118C47.0252 317.376 47.0252 316.553 47.0252 315.647C46.1399 315.647 45.3164 315.647 44.5546 315.647C43.7929 315.647 42.9693 315.647 42.0841 315.647C42.0841 316.553 42.0841 317.376 42.0841 318.118C42.0841 318.859 42.0841 319.682 42.0841 320.588ZM42.0841 320.588C42.9693 320.588 43.7929 320.588 44.5546 320.588C45.3164 320.588 46.1399 320.588 47.0252 320.588C47.0252 319.682 47.0252 318.859 47.0252 318.118C47.0252 317.376 47.0252 316.553 47.0252 315.647C46.1399 315.647 45.3164 315.647 44.5546 315.647C43.7929 315.647 42.9693 315.647 42.0841 315.647C42.0841 316.553 42.0841 317.376 42.0841 318.118C42.0841 318.859 42.0841 319.682 42.0841 320.588ZM42.0841 320.588C42.9693 320.588 43.7929 320.588 44.5546 320.588C45.3164 320.588 46.1399 320.588 47.0252 320.588C47.0252 319.682 47.0252 318.859 47.0252 318.118C47.0252 317.376 47.0252 316.553 47.0252 315.647C46.1399 315.647 45.3164 315.647 44.5546 315.647C43.7929 315.647 42.9693 315.647 42.0841 315.647C42.0841 316.553 42.0841 317.376 42.0841 318.118C42.0841 318.859 42.0841 319.682 42.0841 320.588ZM47.0252 320.588C47.9105 320.588 48.7341 320.588 49.4958 320.588C50.2576 320.588 51.0811 320.588 51.9664 320.588C51.9664 319.682 51.9664 318.859 51.9664 318.118C51.9664 317.376 51.9664 316.553 51.9664 315.647C51.0811 315.647 50.2576 315.647 49.4958 315.647C48.7341 315.647 47.9105 315.647 47.0252 315.647C47.0252 316.553 47.0252 317.376 47.0252 318.118C47.0252 318.859 47.0252 319.682 47.0252 320.588ZM47.0252 320.588C47.9105 320.588 48.7341 320.588 49.4958 320.588C50.2576 320.588 51.0811 320.588 51.9664 320.588C51.9664 319.682 51.9664 318.859 51.9664 318.118C51.9664 317.376 51.9664 316.553 51.9664 315.647C51.0811 315.647 50.2576 315.647 49.4958 315.647C48.7341 315.647 47.9105 315.647 47.0252 315.647C47.0252 316.553 47.0252 317.376 47.0252 318.118C47.0252 318.859 47.0252 319.682 47.0252 320.588ZM47.0252 320.588C47.9105 320.588 48.7341 320.588 49.4958 320.588C50.2576 320.588 51.0811 320.588 51.9664 320.588C51.9664 319.682 51.9664 318.859 51.9664 318.118C51.9664 317.376 51.9664 316.553 51.9664 315.647C51.0811 315.647 50.2576 315.647 49.4958 315.647C48.7341 315.647 47.9105 315.647 47.0252 315.647C47.0252 316.553 47.0252 317.376 47.0252 318.118C47.0252 318.859 47.0252 319.682 47.0252 320.588ZM47.0252 320.588C47.9105 320.588 48.7341 320.588 49.4958 320.588C50.2576 320.588 51.0811 320.588 51.9664 320.588C51.9664 319.682 51.9664 318.859 51.9664 318.118C51.9664 317.376 51.9664 316.553 51.9664 315.647C51.0811 315.647 50.2576 315.647 49.4958 315.647C48.7341 315.647 47.9105 315.647 47.0252 315.647C47.0252 316.553 47.0252 317.376 47.0252 318.118C47.0252 318.859 47.0252 319.682 47.0252 320.588ZM47.0252 320.588C47.9105 320.588 48.7341 320.588 49.4958 320.588C50.2576 320.588 51.0811 320.588 51.9664 320.588C51.9664 319.682 51.9664 318.859 51.9664 318.118C51.9664 317.376 51.9664 316.553 51.9664 315.647C51.0811 315.647 50.2576 315.647 49.4958 315.647C48.7341 315.647 47.9105 315.647 47.0252 315.647C47.0252 316.553 47.0252 317.376 47.0252 318.118C47.0252 318.859 47.0252 319.682 47.0252 320.588ZM47.0252 320.588C47.9105 320.588 48.7341 320.588 49.4958 320.588C50.2576 320.588 51.0811 320.588 51.9664 320.588C51.9664 319.682 51.9664 318.859 51.9664 318.118C51.9664 317.376 51.9664 316.553 51.9664 315.647C51.0811 315.647 50.2576 315.647 49.4958 315.647C48.7341 315.647 47.9105 315.647 47.0252 315.647C47.0252 316.553 47.0252 317.376 47.0252 318.118C47.0252 318.859 47.0252 319.682 47.0252 320.588ZM47.0252 320.588C47.9105 320.588 48.7341 320.588 49.4958 320.588C50.2576 320.588 51.0811 320.588 51.9664 320.588C51.9664 319.682 51.9664 318.859 51.9664 318.118C51.9664 317.376 51.9664 316.553 51.9664 315.647C51.0811 315.647 50.2576 315.647 49.4958 315.647C48.7341 315.647 47.9105 315.647 47.0252 315.647C47.0252 316.553 47.0252 317.376 47.0252 318.118C47.0252 318.859 47.0252 319.682 47.0252 320.588ZM47.0252 320.588C47.9105 320.588 48.7341 320.588 49.4958 320.588C50.2576 320.588 51.0811 320.588 51.9664 320.588C51.9664 319.682 51.9664 318.859 51.9664 318.118C51.9664 317.376 51.9664 316.553 51.9664 315.647C51.0811 315.647 50.2576 315.647 49.4958 315.647C48.7341 315.647 47.9105 315.647 47.0252 315.647C47.0252 316.553 47.0252 317.376 47.0252 318.118C47.0252 318.859 47.0252 319.682 47.0252 320.588ZM47.0252 320.588C47.9105 320.588 48.7341 320.588 49.4958 320.588C50.2576 320.588 51.0811 320.588 51.9664 320.588C51.9664 319.682 51.9664 318.859 51.9664 318.118C51.9664 317.376 51.9664 316.553 51.9664 315.647C51.0811 315.647 50.2576 315.647 49.4958 315.647C48.7341 315.647 47.9105 315.647 47.0252 315.647C47.0252 316.553 47.0252 317.376 47.0252 318.118C47.0252 318.859 47.0252 319.682 47.0252 320.588ZM51.9664 320.588C52.8517 320.588 53.6752 320.588 54.437 320.588C55.1988 320.588 56.0223 320.588 56.9076 320.588C56.9076 319.682 56.9076 318.859 56.9076 318.118C56.9076 317.376 56.9076 316.553 56.9076 315.647C56.0223 315.647 55.1988 315.647 54.437 315.647C53.6752 315.647 52.8517 315.647 51.9664 315.647C51.9664 316.553 51.9664 317.376 51.9664 318.118C51.9664 318.859 51.9664 319.682 51.9664 320.588ZM51.9664 320.588C52.8517 320.588 53.6752 320.588 54.437 320.588C55.1988 320.588 56.0223 320.588 56.9076 320.588C56.9076 319.682 56.9076 318.859 56.9076 318.118C56.9076 317.376 56.9076 316.553 56.9076 315.647C56.0223 315.647 55.1988 315.647 54.437 315.647C53.6752 315.647 52.8517 315.647 51.9664 315.647C51.9664 316.553 51.9664 317.376 51.9664 318.118C51.9664 318.859 51.9664 319.682 51.9664 320.588ZM51.9664 320.588C52.8517 320.588 53.6752 320.588 54.437 320.588C55.1988 320.588 56.0223 320.588 56.9076 320.588C56.9076 319.682 56.9076 318.859 56.9076 318.118C56.9076 317.376 56.9076 316.553 56.9076 315.647C56.0223 315.647 55.1988 315.647 54.437 315.647C53.6752 315.647 52.8517 315.647 51.9664 315.647C51.9664 316.553 51.9664 317.376 51.9664 318.118C51.9664 318.859 51.9664 319.682 51.9664 320.588ZM51.9664 320.588C52.8517 320.588 53.6752 320.588 54.437 320.588C55.1988 320.588 56.0223 320.588 56.9076 320.588C56.9076 319.682 56.9076 318.859 56.9076 318.118C56.9076 317.376 56.9076 316.553 56.9076 315.647C56.0223 315.647 55.1988 315.647 54.437 315.647C53.6752 315.647 52.8517 315.647 51.9664 315.647C51.9664 316.553 51.9664 317.376 51.9664 318.118C51.9664 318.859 51.9664 319.682 51.9664 320.588ZM51.9664 320.588C52.8517 320.588 53.6752 320.588 54.437 320.588C55.1988 320.588 56.0223 320.588 56.9076 320.588C56.9076 319.682 56.9076 318.859 56.9076 318.118C56.9076 317.376 56.9076 316.553 56.9076 315.647C56.0223 315.647 55.1988 315.647 54.437 315.647C53.6752 315.647 52.8517 315.647 51.9664 315.647C51.9664 316.553 51.9664 317.376 51.9664 318.118C51.9664 318.859 51.9664 319.682 51.9664 320.588ZM51.9664 320.588C52.8517 320.588 53.6752 320.588 54.437 320.588C55.1988 320.588 56.0223 320.588 56.9076 320.588C56.9076 319.682 56.9076 318.859 56.9076 318.118C56.9076 317.376 56.9076 316.553 56.9076 315.647C56.0223 315.647 55.1988 315.647 54.437 315.647C53.6752 315.647 52.8517 315.647 51.9664 315.647C51.9664 316.553 51.9664 317.376 51.9664 318.118C51.9664 318.859 51.9664 319.682 51.9664 320.588ZM51.9664 320.588C52.8517 320.588 53.6752 320.588 54.437 320.588C55.1988 320.588 56.0223 320.588 56.9076 320.588C56.9076 319.682 56.9076 318.859 56.9076 318.118C56.9076 317.376 56.9076 316.553 56.9076 315.647C56.0223 315.647 55.1988 315.647 54.437 315.647C53.6752 315.647 52.8517 315.647 51.9664 315.647C51.9664 316.553 51.9664 317.376 51.9664 318.118C51.9664 318.859 51.9664 319.682 51.9664 320.588ZM51.9664 320.588C52.8517 320.588 53.6752 320.588 54.437 320.588C55.1988 320.588 56.0223 320.588 56.9076 320.588C56.9076 319.682 56.9076 318.859 56.9076 318.118C56.9076 317.376 56.9076 316.553 56.9076 315.647C56.0223 315.647 55.1988 315.647 54.437 315.647C53.6752 315.647 52.8517 315.647 51.9664 315.647C51.9664 316.553 51.9664 317.376 51.9664 318.118C51.9664 318.859 51.9664 319.682 51.9664 320.588ZM51.9664 320.588C52.8517 320.588 53.6752 320.588 54.437 320.588C55.1988 320.588 56.0223 320.588 56.9076 320.588C56.9076 319.682 56.9076 318.859 56.9076 318.118C56.9076 317.376 56.9076 316.553 56.9076 315.647C56.0223 315.647 55.1988 315.647 54.437 315.647C53.6752 315.647 52.8517 315.647 51.9664 315.647C51.9664 316.553 51.9664 317.376 51.9664 318.118C51.9664 318.859 51.9664 319.682 51.9664 320.588Z" fill="#543878"/>
</svg>
