<svg width="300" height="400" viewBox="0 0 300 400" fill="none" xmlns="http://www.w3.org/2000/svg">
<rect x="5" y="5" width="290" height="390" rx="25" fill="#D0DDFF" stroke="#2F4989" stroke-width="10"/>
<path d="M92.5 86L129.5 62L154 111L118.5 256.5L92.5 86Z" fill="#283043"/>
<path d="M140 166L155.5 165L155 188H140V166Z" fill="#273761"/>
<path d="M160.5 42.5L290 25.5V150.5L204.5 143L160.5 42.5Z" fill="#3D5AA5"/>
<path d="M229.361 134.911L210.927 125.817L219.255 104.483L222.046 122.88L245.797 130.57L229.361 134.911Z" fill="#253764"/>
<path d="M86.5 259.423L125.5 182L140 390H68L86.5 259.423Z" fill="#374F8C"/>
<path d="M129 140.5L142 99.5L149.5 201L116 290L129 140.5Z" fill="#DAE4FC"/>
<path d="M271.955 49.5432L282.672 54.1023L285.188 68.2914L278.644 56.7311L266 53.4294L271.955 49.5432Z" fill="#253764"/>
<path d="M110 234L155.5 165L194 390H122L110 234Z" fill="#374F8C"/>
<path d="M99 88L155.5 62L151.5 129L120.5 158.5L99 88Z" fill="#DAE4FC"/>
<path d="M99 278L243 87L181.827 178.134L99 278Z" fill="#2E364A"/>
<path d="M119.5 61H163L187.5 110L152 255.5L119.5 61Z" fill="#283043"/>
<path d="M114.5 76H135V91L97 106L93 88.5L114.5 76Z" fill="#283043"/>
<path d="M245.5 79L247.5 82L238 97V91L245.5 79Z" fill="#1C2333"/>
<path d="M194 62L207.5 46.5L226 60L207.5 58L194 79V62Z" fill="#253764"/>
<path d="M43.0841 368C43.9693 368 44.7929 368 45.5546 368C46.3164 368 47.1399 368 48.0252 368C48.0252 367.094 48.0252 366.271 48.0252 365.529C48.0252 364.788 48.0252 363.965 48.0252 363.059C47.1399 363.059 46.3164 363.059 45.5546 363.059C44.7929 363.059 43.9693 363.059 43.0841 363.059C43.0841 363.965 43.0841 364.788 43.0841 365.529C43.0841 366.271 43.0841 367.094 43.0841 368ZM43.0841 368C43.9693 368 44.7929 368 45.5546 368C46.3164 368 47.1399 368 48.0252 368C48.0252 367.094 48.0252 366.271 48.0252 365.529C48.0252 364.788 48.0252 363.965 48.0252 363.059C47.1399 363.059 46.3164 363.059 45.5546 363.059C44.7929 363.059 43.9693 363.059 43.0841 363.059C43.0841 363.965 43.0841 364.788 43.0841 365.529C43.0841 366.271 43.0841 367.094 43.0841 368ZM43.0841 368C43.9693 368 44.7929 368 45.5546 368C46.3164 368 47.1399 368 48.0252 368C48.0252 367.094 48.0252 366.271 48.0252 365.529C48.0252 364.788 48.0252 363.965 48.0252 363.059C47.1399 363.059 46.3164 363.059 45.5546 363.059C44.7929 363.059 43.9693 363.059 43.0841 363.059C43.0841 363.965 43.0841 364.788 43.0841 365.529C43.0841 366.271 43.0841 367.094 43.0841 368ZM43.0841 368C43.9693 368 44.7929 368 45.5546 368C46.3164 368 47.1399 368 48.0252 368C48.0252 367.094 48.0252 366.271 48.0252 365.529C48.0252 364.788 48.0252 363.965 48.0252 363.059C47.1399 363.059 46.3164 363.059 45.5546 363.059C44.7929 363.059 43.9693 363.059 43.0841 363.059C43.0841 363.965 43.0841 364.788 43.0841 365.529C43.0841 366.271 43.0841 367.094 43.0841 368ZM43.0841 368C43.9693 368 44.7929 368 45.5546 368C46.3164 368 47.1399 368 48.0252 368C48.0252 367.094 48.0252 366.271 48.0252 365.529C48.0252 364.788 48.0252 363.965 48.0252 363.059C47.1399 363.059 46.3164 363.059 45.5546 363.059C44.7929 363.059 43.9693 363.059 43.0841 363.059C43.0841 363.965 43.0841 364.788 43.0841 365.529C43.0841 366.271 43.0841 367.094 43.0841 368ZM43.0841 368C43.9693 368 44.7929 368 45.5546 368C46.3164 368 47.1399 368 48.0252 368C48.0252 367.094 48.0252 366.271 48.0252 365.529C48.0252 364.788 48.0252 363.965 48.0252 363.059C47.1399 363.059 46.3164 363.059 45.5546 363.059C44.7929 363.059 43.9693 363.059 43.0841 363.059C43.0841 363.965 43.0841 364.788 43.0841 365.529C43.0841 366.271 43.0841 367.094 43.0841 368ZM43.0841 368C43.9693 368 44.7929 368 45.5546 368C46.3164 368 47.1399 368 48.0252 368C48.0252 367.094 48.0252 366.271 48.0252 365.529C48.0252 364.788 48.0252 363.965 48.0252 363.059C47.1399 363.059 46.3164 363.059 45.5546 363.059C44.7929 363.059 43.9693 363.059 43.0841 363.059C43.0841 363.965 43.0841 364.788 43.0841 365.529C43.0841 366.271 43.0841 367.094 43.0841 368ZM43.0841 368C43.9693 368 44.7929 368 45.5546 368C46.3164 368 47.1399 368 48.0252 368C48.0252 367.094 48.0252 366.271 48.0252 365.529C48.0252 364.788 48.0252 363.965 48.0252 363.059C47.1399 363.059 46.3164 363.059 45.5546 363.059C44.7929 363.059 43.9693 363.059 43.0841 363.059C43.0841 363.965 43.0841 364.788 43.0841 365.529C43.0841 366.271 43.0841 367.094 43.0841 368ZM43.0841 368C43.9693 368 44.7929 368 45.5546 368C46.3164 368 47.1399 368 48.0252 368C48.0252 367.094 48.0252 366.271 48.0252 365.529C48.0252 364.788 48.0252 363.965 48.0252 363.059C47.1399 363.059 46.3164 363.059 45.5546 363.059C44.7929 363.059 43.9693 363.059 43.0841 363.059C43.0841 363.965 43.0841 364.788 43.0841 365.529C43.0841 366.271 43.0841 367.094 43.0841 368ZM48.0252 368C48.9105 368 49.7341 368 50.4958 368C51.2576 368 52.0811 368 52.9664 368C52.9664 367.094 52.9664 366.271 52.9664 365.529C52.9664 364.788 52.9664 363.965 52.9664 363.059C52.0811 363.059 51.2576 363.059 50.4958 363.059C49.7341 363.059 48.9105 363.059 48.0252 363.059C48.0252 363.965 48.0252 364.788 48.0252 365.529C48.0252 366.271 48.0252 367.094 48.0252 368ZM48.0252 368C48.9105 368 49.7341 368 50.4958 368C51.2576 368 52.0811 368 52.9664 368C52.9664 367.094 52.9664 366.271 52.9664 365.529C52.9664 364.788 52.9664 363.965 52.9664 363.059C52.0811 363.059 51.2576 363.059 50.4958 363.059C49.7341 363.059 48.9105 363.059 48.0252 363.059C48.0252 363.965 48.0252 364.788 48.0252 365.529C48.0252 366.271 48.0252 367.094 48.0252 368ZM48.0252 368C48.9105 368 49.7341 368 50.4958 368C51.2576 368 52.0811 368 52.9664 368C52.9664 367.094 52.9664 366.271 52.9664 365.529C52.9664 364.788 52.9664 363.965 52.9664 363.059C52.0811 363.059 51.2576 363.059 50.4958 363.059C49.7341 363.059 48.9105 363.059 48.0252 363.059C48.0252 363.965 48.0252 364.788 48.0252 365.529C48.0252 366.271 48.0252 367.094 48.0252 368ZM48.0252 368C48.9105 368 49.7341 368 50.4958 368C51.2576 368 52.0811 368 52.9664 368C52.9664 367.094 52.9664 366.271 52.9664 365.529C52.9664 364.788 52.9664 363.965 52.9664 363.059C52.0811 363.059 51.2576 363.059 50.4958 363.059C49.7341 363.059 48.9105 363.059 48.0252 363.059C48.0252 363.965 48.0252 364.788 48.0252 365.529C48.0252 366.271 48.0252 367.094 48.0252 368ZM48.0252 368C48.9105 368 49.7341 368 50.4958 368C51.2576 368 52.0811 368 52.9664 368C52.9664 367.094 52.9664 366.271 52.9664 365.529C52.9664 364.788 52.9664 363.965 52.9664 363.059C52.0811 363.059 51.2576 363.059 50.4958 363.059C49.7341 363.059 48.9105 363.059 48.0252 363.059C48.0252 363.965 48.0252 364.788 48.0252 365.529C48.0252 366.271 48.0252 367.094 48.0252 368ZM48.0252 368C48.9105 368 49.7341 368 50.4958 368C51.2576 368 52.0811 368 52.9664 368C52.9664 367.094 52.9664 366.271 52.9664 365.529C52.9664 364.788 52.9664 363.965 52.9664 363.059C52.0811 363.059 51.2576 363.059 50.4958 363.059C49.7341 363.059 48.9105 363.059 48.0252 363.059C48.0252 363.965 48.0252 364.788 48.0252 365.529C48.0252 366.271 48.0252 367.094 48.0252 368ZM48.0252 368C48.9105 368 49.7341 368 50.4958 368C51.2576 368 52.0811 368 52.9664 368C52.9664 367.094 52.9664 366.271 52.9664 365.529C52.9664 364.788 52.9664 363.965 52.9664 363.059C52.0811 363.059 51.2576 363.059 50.4958 363.059C49.7341 363.059 48.9105 363.059 48.0252 363.059C48.0252 363.965 48.0252 364.788 48.0252 365.529C48.0252 366.271 48.0252 367.094 48.0252 368ZM48.0252 368C48.9105 368 49.7341 368 50.4958 368C51.2576 368 52.0811 368 52.9664 368C52.9664 367.094 52.9664 366.271 52.9664 365.529C52.9664 364.788 52.9664 363.965 52.9664 363.059C52.0811 363.059 51.2576 363.059 50.4958 363.059C49.7341 363.059 48.9105 363.059 48.0252 363.059C48.0252 363.965 48.0252 364.788 48.0252 365.529C48.0252 366.271 48.0252 367.094 48.0252 368ZM48.0252 368C48.9105 368 49.7341 368 50.4958 368C51.2576 368 52.0811 368 52.9664 368C52.9664 367.094 52.9664 366.271 52.9664 365.529C52.9664 364.788 52.9664 363.965 52.9664 363.059C52.0811 363.059 51.2576 363.059 50.4958 363.059C49.7341 363.059 48.9105 363.059 48.0252 363.059C48.0252 363.965 48.0252 364.788 48.0252 365.529C48.0252 366.271 48.0252 367.094 48.0252 368ZM52.9664 368C53.8517 368 54.6752 368 55.437 368C56.1988 368 57.0223 368 57.9076 368C57.9076 367.094 57.9076 366.271 57.9076 365.529C57.9076 364.788 57.9076 363.965 57.9076 363.059C57.0223 363.059 56.1988 363.059 55.437 363.059C54.6752 363.059 53.8517 363.059 52.9664 363.059C52.9664 363.965 52.9664 364.788 52.9664 365.529C52.9664 366.271 52.9664 367.094 52.9664 368ZM52.9664 368C53.8517 368 54.6752 368 55.437 368C56.1988 368 57.0223 368 57.9076 368C57.9076 367.094 57.9076 366.271 57.9076 365.529C57.9076 364.788 57.9076 363.965 57.9076 363.059C57.0223 363.059 56.1988 363.059 55.437 363.059C54.6752 363.059 53.8517 363.059 52.9664 363.059C52.9664 363.965 52.9664 364.788 52.9664 365.529C52.9664 366.271 52.9664 367.094 52.9664 368ZM52.9664 368C53.8517 368 54.6752 368 55.437 368C56.1988 368 57.0223 368 57.9076 368C57.9076 367.094 57.9076 366.271 57.9076 365.529C57.9076 364.788 57.9076 363.965 57.9076 363.059C57.0223 363.059 56.1988 363.059 55.437 363.059C54.6752 363.059 53.8517 363.059 52.9664 363.059C52.9664 363.965 52.9664 364.788 52.9664 365.529C52.9664 366.271 52.9664 367.094 52.9664 368ZM52.9664 368C53.8517 368 54.6752 368 55.437 368C56.1988 368 57.0223 368 57.9076 368C57.9076 367.094 57.9076 366.271 57.9076 365.529C57.9076 364.788 57.9076 363.965 57.9076 363.059C57.0223 363.059 56.1988 363.059 55.437 363.059C54.6752 363.059 53.8517 363.059 52.9664 363.059C52.9664 363.965 52.9664 364.788 52.9664 365.529C52.9664 366.271 52.9664 367.094 52.9664 368ZM52.9664 368C53.8517 368 54.6752 368 55.437 368C56.1988 368 57.0223 368 57.9076 368C57.9076 367.094 57.9076 366.271 57.9076 365.529C57.9076 364.788 57.9076 363.965 57.9076 363.059C57.0223 363.059 56.1988 363.059 55.437 363.059C54.6752 363.059 53.8517 363.059 52.9664 363.059C52.9664 363.965 52.9664 364.788 52.9664 365.529C52.9664 366.271 52.9664 367.094 52.9664 368ZM52.9664 368C53.8517 368 54.6752 368 55.437 368C56.1988 368 57.0223 368 57.9076 368C57.9076 367.094 57.9076 366.271 57.9076 365.529C57.9076 364.788 57.9076 363.965 57.9076 363.059C57.0223 363.059 56.1988 363.059 55.437 363.059C54.6752 363.059 53.8517 363.059 52.9664 363.059C52.9664 363.965 52.9664 364.788 52.9664 365.529C52.9664 366.271 52.9664 367.094 52.9664 368ZM52.9664 368C53.8517 368 54.6752 368 55.437 368C56.1988 368 57.0223 368 57.9076 368C57.9076 367.094 57.9076 366.271 57.9076 365.529C57.9076 364.788 57.9076 363.965 57.9076 363.059C57.0223 363.059 56.1988 363.059 55.437 363.059C54.6752 363.059 53.8517 363.059 52.9664 363.059C52.9664 363.965 52.9664 364.788 52.9664 365.529C52.9664 366.271 52.9664 367.094 52.9664 368ZM52.9664 368C53.8517 368 54.6752 368 55.437 368C56.1988 368 57.0223 368 57.9076 368C57.9076 367.094 57.9076 366.271 57.9076 365.529C57.9076 364.788 57.9076 363.965 57.9076 363.059C57.0223 363.059 56.1988 363.059 55.437 363.059C54.6752 363.059 53.8517 363.059 52.9664 363.059C52.9664 363.965 52.9664 364.788 52.9664 365.529C52.9664 366.271 52.9664 367.094 52.9664 368ZM52.9664 368C53.8517 368 54.6752 368 55.437 368C56.1988 368 57.0223 368 57.9076 368C57.9076 367.094 57.9076 366.271 57.9076 365.529C57.9076 364.788 57.9076 363.965 57.9076 363.059C57.0223 363.059 56.1988 363.059 55.437 363.059C54.6752 363.059 53.8517 363.059 52.9664 363.059C52.9664 363.965 52.9664 364.788 52.9664 365.529C52.9664 366.271 52.9664 367.094 52.9664 368ZM38.1429 363.059C39.0282 363.059 39.8517 363.059 40.6135 363.059C41.3752 363.059 42.1988 363.059 43.0841 363.059C43.0841 362.153 43.0841 361.329 43.0841 360.588C43.0841 359.847 43.0841 359.024 43.0841 358.118C42.1988 358.118 41.3752 358.118 40.6135 358.118C39.8517 358.118 39.0282 358.118 38.1429 358.118C38.1429 359.024 38.1429 359.847 38.1429 360.588C38.1429 361.329 38.1429 362.153 38.1429 363.059ZM38.1429 363.059C39.0282 363.059 39.8517 363.059 40.6135 363.059C41.3752 363.059 42.1988 363.059 43.0841 363.059C43.0841 362.153 43.0841 361.329 43.0841 360.588C43.0841 359.847 43.0841 359.024 43.0841 358.118C42.1988 358.118 41.3752 358.118 40.6135 358.118C39.8517 358.118 39.0282 358.118 38.1429 358.118C38.1429 359.024 38.1429 359.847 38.1429 360.588C38.1429 361.329 38.1429 362.153 38.1429 363.059ZM38.1429 363.059C39.0282 363.059 39.8517 363.059 40.6135 363.059C41.3752 363.059 42.1988 363.059 43.0841 363.059C43.0841 362.153 43.0841 361.329 43.0841 360.588C43.0841 359.847 43.0841 359.024 43.0841 358.118C42.1988 358.118 41.3752 358.118 40.6135 358.118C39.8517 358.118 39.0282 358.118 38.1429 358.118C38.1429 359.024 38.1429 359.847 38.1429 360.588C38.1429 361.329 38.1429 362.153 38.1429 363.059ZM38.1429 363.059C39.0282 363.059 39.8517 363.059 40.6135 363.059C41.3752 363.059 42.1988 363.059 43.0841 363.059C43.0841 362.153 43.0841 361.329 43.0841 360.588C43.0841 359.847 43.0841 359.024 43.0841 358.118C42.1988 358.118 41.3752 358.118 40.6135 358.118C39.8517 358.118 39.0282 358.118 38.1429 358.118C38.1429 359.024 38.1429 359.847 38.1429 360.588C38.1429 361.329 38.1429 362.153 38.1429 363.059ZM38.1429 363.059C39.0282 363.059 39.8517 363.059 40.6135 363.059C41.3752 363.059 42.1988 363.059 43.0841 363.059C43.0841 362.153 43.0841 361.329 43.0841 360.588C43.0841 359.847 43.0841 359.024 43.0841 358.118C42.1988 358.118 41.3752 358.118 40.6135 358.118C39.8517 358.118 39.0282 358.118 38.1429 358.118C38.1429 359.024 38.1429 359.847 38.1429 360.588C38.1429 361.329 38.1429 362.153 38.1429 363.059ZM38.1429 363.059C39.0282 363.059 39.8517 363.059 40.6135 363.059C41.3752 363.059 42.1988 363.059 43.0841 363.059C43.0841 362.153 43.0841 361.329 43.0841 360.588C43.0841 359.847 43.0841 359.024 43.0841 358.118C42.1988 358.118 41.3752 358.118 40.6135 358.118C39.8517 358.118 39.0282 358.118 38.1429 358.118C38.1429 359.024 38.1429 359.847 38.1429 360.588C38.1429 361.329 38.1429 362.153 38.1429 363.059ZM38.1429 363.059C39.0282 363.059 39.8517 363.059 40.6135 363.059C41.3752 363.059 42.1988 363.059 43.0841 363.059C43.0841 362.153 43.0841 361.329 43.0841 360.588C43.0841 359.847 43.0841 359.024 43.0841 358.118C42.1988 358.118 41.3752 358.118 40.6135 358.118C39.8517 358.118 39.0282 358.118 38.1429 358.118C38.1429 359.024 38.1429 359.847 38.1429 360.588C38.1429 361.329 38.1429 362.153 38.1429 363.059ZM38.1429 363.059C39.0282 363.059 39.8517 363.059 40.6135 363.059C41.3752 363.059 42.1988 363.059 43.0841 363.059C43.0841 362.153 43.0841 361.329 43.0841 360.588C43.0841 359.847 43.0841 359.024 43.0841 358.118C42.1988 358.118 41.3752 358.118 40.6135 358.118C39.8517 358.118 39.0282 358.118 38.1429 358.118C38.1429 359.024 38.1429 359.847 38.1429 360.588C38.1429 361.329 38.1429 362.153 38.1429 363.059ZM38.1429 363.059C39.0282 363.059 39.8517 363.059 40.6135 363.059C41.3752 363.059 42.1988 363.059 43.0841 363.059C43.0841 362.153 43.0841 361.329 43.0841 360.588C43.0841 359.847 43.0841 359.024 43.0841 358.118C42.1988 358.118 41.3752 358.118 40.6135 358.118C39.8517 358.118 39.0282 358.118 38.1429 358.118C38.1429 359.024 38.1429 359.847 38.1429 360.588C38.1429 361.329 38.1429 362.153 38.1429 363.059ZM57.9076 363.059C58.7929 363.059 59.6164 363.059 60.3782 363.059C61.1399 363.059 61.9635 363.059 62.8488 363.059C62.8488 362.153 62.8488 361.329 62.8488 360.588C62.8488 359.847 62.8488 359.024 62.8488 358.118C61.9635 358.118 61.1399 358.118 60.3782 358.118C59.6164 358.118 58.7929 358.118 57.9076 358.118C57.9076 359.024 57.9076 359.847 57.9076 360.588C57.9076 361.329 57.9076 362.153 57.9076 363.059ZM57.9076 363.059C58.7929 363.059 59.6164 363.059 60.3782 363.059C61.1399 363.059 61.9635 363.059 62.8488 363.059C62.8488 362.153 62.8488 361.329 62.8488 360.588C62.8488 359.847 62.8488 359.024 62.8488 358.118C61.9635 358.118 61.1399 358.118 60.3782 358.118C59.6164 358.118 58.7929 358.118 57.9076 358.118C57.9076 359.024 57.9076 359.847 57.9076 360.588C57.9076 361.329 57.9076 362.153 57.9076 363.059ZM57.9076 363.059C58.7929 363.059 59.6164 363.059 60.3782 363.059C61.1399 363.059 61.9635 363.059 62.8488 363.059C62.8488 362.153 62.8488 361.329 62.8488 360.588C62.8488 359.847 62.8488 359.024 62.8488 358.118C61.9635 358.118 61.1399 358.118 60.3782 358.118C59.6164 358.118 58.7929 358.118 57.9076 358.118C57.9076 359.024 57.9076 359.847 57.9076 360.588C57.9076 361.329 57.9076 362.153 57.9076 363.059ZM57.9076 363.059C58.7929 363.059 59.6164 363.059 60.3782 363.059C61.1399 363.059 61.9635 363.059 62.8488 363.059C62.8488 362.153 62.8488 361.329 62.8488 360.588C62.8488 359.847 62.8488 359.024 62.8488 358.118C61.9635 358.118 61.1399 358.118 60.3782 358.118C59.6164 358.118 58.7929 358.118 57.9076 358.118C57.9076 359.024 57.9076 359.847 57.9076 360.588C57.9076 361.329 57.9076 362.153 57.9076 363.059ZM57.9076 363.059C58.7929 363.059 59.6164 363.059 60.3782 363.059C61.1399 363.059 61.9635 363.059 62.8488 363.059C62.8488 362.153 62.8488 361.329 62.8488 360.588C62.8488 359.847 62.8488 359.024 62.8488 358.118C61.9635 358.118 61.1399 358.118 60.3782 358.118C59.6164 358.118 58.7929 358.118 57.9076 358.118C57.9076 359.024 57.9076 359.847 57.9076 360.588C57.9076 361.329 57.9076 362.153 57.9076 363.059ZM57.9076 363.059C58.7929 363.059 59.6164 363.059 60.3782 363.059C61.1399 363.059 61.9635 363.059 62.8488 363.059C62.8488 362.153 62.8488 361.329 62.8488 360.588C62.8488 359.847 62.8488 359.024 62.8488 358.118C61.9635 358.118 61.1399 358.118 60.3782 358.118C59.6164 358.118 58.7929 358.118 57.9076 358.118C57.9076 359.024 57.9076 359.847 57.9076 360.588C57.9076 361.329 57.9076 362.153 57.9076 363.059ZM57.9076 363.059C58.7929 363.059 59.6164 363.059 60.3782 363.059C61.1399 363.059 61.9635 363.059 62.8488 363.059C62.8488 362.153 62.8488 361.329 62.8488 360.588C62.8488 359.847 62.8488 359.024 62.8488 358.118C61.9635 358.118 61.1399 358.118 60.3782 358.118C59.6164 358.118 58.7929 358.118 57.9076 358.118C57.9076 359.024 57.9076 359.847 57.9076 360.588C57.9076 361.329 57.9076 362.153 57.9076 363.059ZM57.9076 363.059C58.7929 363.059 59.6164 363.059 60.3782 363.059C61.1399 363.059 61.9635 363.059 62.8488 363.059C62.8488 362.153 62.8488 361.329 62.8488 360.588C62.8488 359.847 62.8488 359.024 62.8488 358.118C61.9635 358.118 61.1399 358.118 60.3782 358.118C59.6164 358.118 58.7929 358.118 57.9076 358.118C57.9076 359.024 57.9076 359.847 57.9076 360.588C57.9076 361.329 57.9076 362.153 57.9076 363.059ZM57.9076 363.059C58.7929 363.059 59.6164 363.059 60.3782 363.059C61.1399 363.059 61.9635 363.059 62.8488 363.059C62.8488 362.153 62.8488 361.329 62.8488 360.588C62.8488 359.847 62.8488 359.024 62.8488 358.118C61.9635 358.118 61.1399 358.118 60.3782 358.118C59.6164 358.118 58.7929 358.118 57.9076 358.118C57.9076 359.024 57.9076 359.847 57.9076 360.588C57.9076 361.329 57.9076 362.153 57.9076 363.059ZM38.1429 358.118C39.0282 358.118 39.8517 358.118 40.6135 358.118C41.3752 358.118 42.1988 358.118 43.0841 358.118C43.0841 357.212 43.0841 356.388 43.0841 355.647C43.0841 354.906 43.0841 354.082 43.0841 353.176C42.1988 353.176 41.3752 353.176 40.6135 353.176C39.8517 353.176 39.0282 353.176 38.1429 353.176C38.1429 354.082 38.1429 354.906 38.1429 355.647C38.1429 356.388 38.1429 357.212 38.1429 358.118ZM38.1429 358.118C39.0282 358.118 39.8517 358.118 40.6135 358.118C41.3752 358.118 42.1988 358.118 43.0841 358.118C43.0841 357.212 43.0841 356.388 43.0841 355.647C43.0841 354.906 43.0841 354.082 43.0841 353.176C42.1988 353.176 41.3752 353.176 40.6135 353.176C39.8517 353.176 39.0282 353.176 38.1429 353.176C38.1429 354.082 38.1429 354.906 38.1429 355.647C38.1429 356.388 38.1429 357.212 38.1429 358.118ZM38.1429 358.118C39.0282 358.118 39.8517 358.118 40.6135 358.118C41.3752 358.118 42.1988 358.118 43.0841 358.118C43.0841 357.212 43.0841 356.388 43.0841 355.647C43.0841 354.906 43.0841 354.082 43.0841 353.176C42.1988 353.176 41.3752 353.176 40.6135 353.176C39.8517 353.176 39.0282 353.176 38.1429 353.176C38.1429 354.082 38.1429 354.906 38.1429 355.647C38.1429 356.388 38.1429 357.212 38.1429 358.118ZM38.1429 358.118C39.0282 358.118 39.8517 358.118 40.6135 358.118C41.3752 358.118 42.1988 358.118 43.0841 358.118C43.0841 357.212 43.0841 356.388 43.0841 355.647C43.0841 354.906 43.0841 354.082 43.0841 353.176C42.1988 353.176 41.3752 353.176 40.6135 353.176C39.8517 353.176 39.0282 353.176 38.1429 353.176C38.1429 354.082 38.1429 354.906 38.1429 355.647C38.1429 356.388 38.1429 357.212 38.1429 358.118ZM38.1429 358.118C39.0282 358.118 39.8517 358.118 40.6135 358.118C41.3752 358.118 42.1988 358.118 43.0841 358.118C43.0841 357.212 43.0841 356.388 43.0841 355.647C43.0841 354.906 43.0841 354.082 43.0841 353.176C42.1988 353.176 41.3752 353.176 40.6135 353.176C39.8517 353.176 39.0282 353.176 38.1429 353.176C38.1429 354.082 38.1429 354.906 38.1429 355.647C38.1429 356.388 38.1429 357.212 38.1429 358.118ZM38.1429 358.118C39.0282 358.118 39.8517 358.118 40.6135 358.118C41.3752 358.118 42.1988 358.118 43.0841 358.118C43.0841 357.212 43.0841 356.388 43.0841 355.647C43.0841 354.906 43.0841 354.082 43.0841 353.176C42.1988 353.176 41.3752 353.176 40.6135 353.176C39.8517 353.176 39.0282 353.176 38.1429 353.176C38.1429 354.082 38.1429 354.906 38.1429 355.647C38.1429 356.388 38.1429 357.212 38.1429 358.118ZM38.1429 358.118C39.0282 358.118 39.8517 358.118 40.6135 358.118C41.3752 358.118 42.1988 358.118 43.0841 358.118C43.0841 357.212 43.0841 356.388 43.0841 355.647C43.0841 354.906 43.0841 354.082 43.0841 353.176C42.1988 353.176 41.3752 353.176 40.6135 353.176C39.8517 353.176 39.0282 353.176 38.1429 353.176C38.1429 354.082 38.1429 354.906 38.1429 355.647C38.1429 356.388 38.1429 357.212 38.1429 358.118ZM38.1429 358.118C39.0282 358.118 39.8517 358.118 40.6135 358.118C41.3752 358.118 42.1988 358.118 43.0841 358.118C43.0841 357.212 43.0841 356.388 43.0841 355.647C43.0841 354.906 43.0841 354.082 43.0841 353.176C42.1988 353.176 41.3752 353.176 40.6135 353.176C39.8517 353.176 39.0282 353.176 38.1429 353.176C38.1429 354.082 38.1429 354.906 38.1429 355.647C38.1429 356.388 38.1429 357.212 38.1429 358.118ZM38.1429 358.118C39.0282 358.118 39.8517 358.118 40.6135 358.118C41.3752 358.118 42.1988 358.118 43.0841 358.118C43.0841 357.212 43.0841 356.388 43.0841 355.647C43.0841 354.906 43.0841 354.082 43.0841 353.176C42.1988 353.176 41.3752 353.176 40.6135 353.176C39.8517 353.176 39.0282 353.176 38.1429 353.176C38.1429 354.082 38.1429 354.906 38.1429 355.647C38.1429 356.388 38.1429 357.212 38.1429 358.118ZM57.9076 358.118C58.7929 358.118 59.6164 358.118 60.3782 358.118C61.1399 358.118 61.9635 358.118 62.8488 358.118C62.8488 357.212 62.8488 356.388 62.8488 355.647C62.8488 354.906 62.8488 354.082 62.8488 353.176C61.9635 353.176 61.1399 353.176 60.3782 353.176C59.6164 353.176 58.7929 353.176 57.9076 353.176C57.9076 354.082 57.9076 354.906 57.9076 355.647C57.9076 356.388 57.9076 357.212 57.9076 358.118ZM57.9076 358.118C58.7929 358.118 59.6164 358.118 60.3782 358.118C61.1399 358.118 61.9635 358.118 62.8488 358.118C62.8488 357.212 62.8488 356.388 62.8488 355.647C62.8488 354.906 62.8488 354.082 62.8488 353.176C61.9635 353.176 61.1399 353.176 60.3782 353.176C59.6164 353.176 58.7929 353.176 57.9076 353.176C57.9076 354.082 57.9076 354.906 57.9076 355.647C57.9076 356.388 57.9076 357.212 57.9076 358.118ZM57.9076 358.118C58.7929 358.118 59.6164 358.118 60.3782 358.118C61.1399 358.118 61.9635 358.118 62.8488 358.118C62.8488 357.212 62.8488 356.388 62.8488 355.647C62.8488 354.906 62.8488 354.082 62.8488 353.176C61.9635 353.176 61.1399 353.176 60.3782 353.176C59.6164 353.176 58.7929 353.176 57.9076 353.176C57.9076 354.082 57.9076 354.906 57.9076 355.647C57.9076 356.388 57.9076 357.212 57.9076 358.118ZM57.9076 358.118C58.7929 358.118 59.6164 358.118 60.3782 358.118C61.1399 358.118 61.9635 358.118 62.8488 358.118C62.8488 357.212 62.8488 356.388 62.8488 355.647C62.8488 354.906 62.8488 354.082 62.8488 353.176C61.9635 353.176 61.1399 353.176 60.3782 353.176C59.6164 353.176 58.7929 353.176 57.9076 353.176C57.9076 354.082 57.9076 354.906 57.9076 355.647C57.9076 356.388 57.9076 357.212 57.9076 358.118ZM57.9076 358.118C58.7929 358.118 59.6164 358.118 60.3782 358.118C61.1399 358.118 61.9635 358.118 62.8488 358.118C62.8488 357.212 62.8488 356.388 62.8488 355.647C62.8488 354.906 62.8488 354.082 62.8488 353.176C61.9635 353.176 61.1399 353.176 60.3782 353.176C59.6164 353.176 58.7929 353.176 57.9076 353.176C57.9076 354.082 57.9076 354.906 57.9076 355.647C57.9076 356.388 57.9076 357.212 57.9076 358.118ZM57.9076 358.118C58.7929 358.118 59.6164 358.118 60.3782 358.118C61.1399 358.118 61.9635 358.118 62.8488 358.118C62.8488 357.212 62.8488 356.388 62.8488 355.647C62.8488 354.906 62.8488 354.082 62.8488 353.176C61.9635 353.176 61.1399 353.176 60.3782 353.176C59.6164 353.176 58.7929 353.176 57.9076 353.176C57.9076 354.082 57.9076 354.906 57.9076 355.647C57.9076 356.388 57.9076 357.212 57.9076 358.118ZM57.9076 358.118C58.7929 358.118 59.6164 358.118 60.3782 358.118C61.1399 358.118 61.9635 358.118 62.8488 358.118C62.8488 357.212 62.8488 356.388 62.8488 355.647C62.8488 354.906 62.8488 354.082 62.8488 353.176C61.9635 353.176 61.1399 353.176 60.3782 353.176C59.6164 353.176 58.7929 353.176 57.9076 353.176C57.9076 354.082 57.9076 354.906 57.9076 355.647C57.9076 356.388 57.9076 357.212 57.9076 358.118ZM57.9076 358.118C58.7929 358.118 59.6164 358.118 60.3782 358.118C61.1399 358.118 61.9635 358.118 62.8488 358.118C62.8488 357.212 62.8488 356.388 62.8488 355.647C62.8488 354.906 62.8488 354.082 62.8488 353.176C61.9635 353.176 61.1399 353.176 60.3782 353.176C59.6164 353.176 58.7929 353.176 57.9076 353.176C57.9076 354.082 57.9076 354.906 57.9076 355.647C57.9076 356.388 57.9076 357.212 57.9076 358.118ZM57.9076 358.118C58.7929 358.118 59.6164 358.118 60.3782 358.118C61.1399 358.118 61.9635 358.118 62.8488 358.118C62.8488 357.212 62.8488 356.388 62.8488 355.647C62.8488 354.906 62.8488 354.082 62.8488 353.176C61.9635 353.176 61.1399 353.176 60.3782 353.176C59.6164 353.176 58.7929 353.176 57.9076 353.176C57.9076 354.082 57.9076 354.906 57.9076 355.647C57.9076 356.388 57.9076 357.212 57.9076 358.118ZM57.9076 353.176C58.7929 353.176 59.6164 353.176 60.3782 353.176C61.1399 353.176 61.9635 353.176 62.8488 353.176C62.8488 352.271 62.8488 351.447 62.8488 350.706C62.8488 349.965 62.8488 349.141 62.8488 348.235C61.9635 348.235 61.1399 348.235 60.3782 348.235C59.6164 348.235 58.7929 348.235 57.9076 348.235C57.9076 349.141 57.9076 349.965 57.9076 350.706C57.9076 351.447 57.9076 352.271 57.9076 353.176ZM57.9076 353.176C58.7929 353.176 59.6164 353.176 60.3782 353.176C61.1399 353.176 61.9635 353.176 62.8488 353.176C62.8488 352.271 62.8488 351.447 62.8488 350.706C62.8488 349.965 62.8488 349.141 62.8488 348.235C61.9635 348.235 61.1399 348.235 60.3782 348.235C59.6164 348.235 58.7929 348.235 57.9076 348.235C57.9076 349.141 57.9076 349.965 57.9076 350.706C57.9076 351.447 57.9076 352.271 57.9076 353.176ZM57.9076 353.176C58.7929 353.176 59.6164 353.176 60.3782 353.176C61.1399 353.176 61.9635 353.176 62.8488 353.176C62.8488 352.271 62.8488 351.447 62.8488 350.706C62.8488 349.965 62.8488 349.141 62.8488 348.235C61.9635 348.235 61.1399 348.235 60.3782 348.235C59.6164 348.235 58.7929 348.235 57.9076 348.235C57.9076 349.141 57.9076 349.965 57.9076 350.706C57.9076 351.447 57.9076 352.271 57.9076 353.176ZM57.9076 353.176C58.7929 353.176 59.6164 353.176 60.3782 353.176C61.1399 353.176 61.9635 353.176 62.8488 353.176C62.8488 352.271 62.8488 351.447 62.8488 350.706C62.8488 349.965 62.8488 349.141 62.8488 348.235C61.9635 348.235 61.1399 348.235 60.3782 348.235C59.6164 348.235 58.7929 348.235 57.9076 348.235C57.9076 349.141 57.9076 349.965 57.9076 350.706C57.9076 351.447 57.9076 352.271 57.9076 353.176ZM57.9076 353.176C58.7929 353.176 59.6164 353.176 60.3782 353.176C61.1399 353.176 61.9635 353.176 62.8488 353.176C62.8488 352.271 62.8488 351.447 62.8488 350.706C62.8488 349.965 62.8488 349.141 62.8488 348.235C61.9635 348.235 61.1399 348.235 60.3782 348.235C59.6164 348.235 58.7929 348.235 57.9076 348.235C57.9076 349.141 57.9076 349.965 57.9076 350.706C57.9076 351.447 57.9076 352.271 57.9076 353.176ZM57.9076 353.176C58.7929 353.176 59.6164 353.176 60.3782 353.176C61.1399 353.176 61.9635 353.176 62.8488 353.176C62.8488 352.271 62.8488 351.447 62.8488 350.706C62.8488 349.965 62.8488 349.141 62.8488 348.235C61.9635 348.235 61.1399 348.235 60.3782 348.235C59.6164 348.235 58.7929 348.235 57.9076 348.235C57.9076 349.141 57.9076 349.965 57.9076 350.706C57.9076 351.447 57.9076 352.271 57.9076 353.176ZM57.9076 353.176C58.7929 353.176 59.6164 353.176 60.3782 353.176C61.1399 353.176 61.9635 353.176 62.8488 353.176C62.8488 352.271 62.8488 351.447 62.8488 350.706C62.8488 349.965 62.8488 349.141 62.8488 348.235C61.9635 348.235 61.1399 348.235 60.3782 348.235C59.6164 348.235 58.7929 348.235 57.9076 348.235C57.9076 349.141 57.9076 349.965 57.9076 350.706C57.9076 351.447 57.9076 352.271 57.9076 353.176ZM57.9076 353.176C58.7929 353.176 59.6164 353.176 60.3782 353.176C61.1399 353.176 61.9635 353.176 62.8488 353.176C62.8488 352.271 62.8488 351.447 62.8488 350.706C62.8488 349.965 62.8488 349.141 62.8488 348.235C61.9635 348.235 61.1399 348.235 60.3782 348.235C59.6164 348.235 58.7929 348.235 57.9076 348.235C57.9076 349.141 57.9076 349.965 57.9076 350.706C57.9076 351.447 57.9076 352.271 57.9076 353.176ZM57.9076 353.176C58.7929 353.176 59.6164 353.176 60.3782 353.176C61.1399 353.176 61.9635 353.176 62.8488 353.176C62.8488 352.271 62.8488 351.447 62.8488 350.706C62.8488 349.965 62.8488 349.141 62.8488 348.235C61.9635 348.235 61.1399 348.235 60.3782 348.235C59.6164 348.235 58.7929 348.235 57.9076 348.235C57.9076 349.141 57.9076 349.965 57.9076 350.706C57.9076 351.447 57.9076 352.271 57.9076 353.176ZM57.9076 348.235C58.7929 348.235 59.6164 348.235 60.3782 348.235C61.1399 348.235 61.9635 348.235 62.8488 348.235C62.8488 347.329 62.8488 346.506 62.8488 345.765C62.8488 345.024 62.8488 344.2 62.8488 343.294C61.9635 343.294 61.1399 343.294 60.3782 343.294C59.6164 343.294 58.7929 343.294 57.9076 343.294C57.9076 344.2 57.9076 345.024 57.9076 345.765C57.9076 346.506 57.9076 347.329 57.9076 348.235ZM57.9076 348.235C58.7929 348.235 59.6164 348.235 60.3782 348.235C61.1399 348.235 61.9635 348.235 62.8488 348.235C62.8488 347.329 62.8488 346.506 62.8488 345.765C62.8488 345.024 62.8488 344.2 62.8488 343.294C61.9635 343.294 61.1399 343.294 60.3782 343.294C59.6164 343.294 58.7929 343.294 57.9076 343.294C57.9076 344.2 57.9076 345.024 57.9076 345.765C57.9076 346.506 57.9076 347.329 57.9076 348.235ZM57.9076 348.235C58.7929 348.235 59.6164 348.235 60.3782 348.235C61.1399 348.235 61.9635 348.235 62.8488 348.235C62.8488 347.329 62.8488 346.506 62.8488 345.765C62.8488 345.024 62.8488 344.2 62.8488 343.294C61.9635 343.294 61.1399 343.294 60.3782 343.294C59.6164 343.294 58.7929 343.294 57.9076 343.294C57.9076 344.2 57.9076 345.024 57.9076 345.765C57.9076 346.506 57.9076 347.329 57.9076 348.235ZM57.9076 348.235C58.7929 348.235 59.6164 348.235 60.3782 348.235C61.1399 348.235 61.9635 348.235 62.8488 348.235C62.8488 347.329 62.8488 346.506 62.8488 345.765C62.8488 345.024 62.8488 344.2 62.8488 343.294C61.9635 343.294 61.1399 343.294 60.3782 343.294C59.6164 343.294 58.7929 343.294 57.9076 343.294C57.9076 344.2 57.9076 345.024 57.9076 345.765C57.9076 346.506 57.9076 347.329 57.9076 348.235ZM57.9076 348.235C58.7929 348.235 59.6164 348.235 60.3782 348.235C61.1399 348.235 61.9635 348.235 62.8488 348.235C62.8488 347.329 62.8488 346.506 62.8488 345.765C62.8488 345.024 62.8488 344.2 62.8488 343.294C61.9635 343.294 61.1399 343.294 60.3782 343.294C59.6164 343.294 58.7929 343.294 57.9076 343.294C57.9076 344.2 57.9076 345.024 57.9076 345.765C57.9076 346.506 57.9076 347.329 57.9076 348.235ZM57.9076 348.235C58.7929 348.235 59.6164 348.235 60.3782 348.235C61.1399 348.235 61.9635 348.235 62.8488 348.235C62.8488 347.329 62.8488 346.506 62.8488 345.765C62.8488 345.024 62.8488 344.2 62.8488 343.294C61.9635 343.294 61.1399 343.294 60.3782 343.294C59.6164 343.294 58.7929 343.294 57.9076 343.294C57.9076 344.2 57.9076 345.024 57.9076 345.765C57.9076 346.506 57.9076 347.329 57.9076 348.235ZM57.9076 348.235C58.7929 348.235 59.6164 348.235 60.3782 348.235C61.1399 348.235 61.9635 348.235 62.8488 348.235C62.8488 347.329 62.8488 346.506 62.8488 345.765C62.8488 345.024 62.8488 344.2 62.8488 343.294C61.9635 343.294 61.1399 343.294 60.3782 343.294C59.6164 343.294 58.7929 343.294 57.9076 343.294C57.9076 344.2 57.9076 345.024 57.9076 345.765C57.9076 346.506 57.9076 347.329 57.9076 348.235ZM57.9076 348.235C58.7929 348.235 59.6164 348.235 60.3782 348.235C61.1399 348.235 61.9635 348.235 62.8488 348.235C62.8488 347.329 62.8488 346.506 62.8488 345.765C62.8488 345.024 62.8488 344.2 62.8488 343.294C61.9635 343.294 61.1399 343.294 60.3782 343.294C59.6164 343.294 58.7929 343.294 57.9076 343.294C57.9076 344.2 57.9076 345.024 57.9076 345.765C57.9076 346.506 57.9076 347.329 57.9076 348.235ZM57.9076 348.235C58.7929 348.235 59.6164 348.235 60.3782 348.235C61.1399 348.235 61.9635 348.235 62.8488 348.235C62.8488 347.329 62.8488 346.506 62.8488 345.765C62.8488 345.024 62.8488 344.2 62.8488 343.294C61.9635 343.294 61.1399 343.294 60.3782 343.294C59.6164 343.294 58.7929 343.294 57.9076 343.294C57.9076 344.2 57.9076 345.024 57.9076 345.765C57.9076 346.506 57.9076 347.329 57.9076 348.235ZM43.0841 343.294C43.9693 343.294 44.7929 343.294 45.5546 343.294C46.3164 343.294 47.1399 343.294 48.0252 343.294C48.0252 342.388 48.0252 341.565 48.0252 340.824C48.0252 340.082 48.0252 339.259 48.0252 338.353C47.1399 338.353 46.3164 338.353 45.5546 338.353C44.7929 338.353 43.9693 338.353 43.0841 338.353C43.0841 339.259 43.0841 340.082 43.0841 340.824C43.0841 341.565 43.0841 342.388 43.0841 343.294ZM43.0841 343.294C43.9693 343.294 44.7929 343.294 45.5546 343.294C46.3164 343.294 47.1399 343.294 48.0252 343.294C48.0252 342.388 48.0252 341.565 48.0252 340.824C48.0252 340.082 48.0252 339.259 48.0252 338.353C47.1399 338.353 46.3164 338.353 45.5546 338.353C44.7929 338.353 43.9693 338.353 43.0841 338.353C43.0841 339.259 43.0841 340.082 43.0841 340.824C43.0841 341.565 43.0841 342.388 43.0841 343.294ZM43.0841 343.294C43.9693 343.294 44.7929 343.294 45.5546 343.294C46.3164 343.294 47.1399 343.294 48.0252 343.294C48.0252 342.388 48.0252 341.565 48.0252 340.824C48.0252 340.082 48.0252 339.259 48.0252 338.353C47.1399 338.353 46.3164 338.353 45.5546 338.353C44.7929 338.353 43.9693 338.353 43.0841 338.353C43.0841 339.259 43.0841 340.082 43.0841 340.824C43.0841 341.565 43.0841 342.388 43.0841 343.294ZM43.0841 343.294C43.9693 343.294 44.7929 343.294 45.5546 343.294C46.3164 343.294 47.1399 343.294 48.0252 343.294C48.0252 342.388 48.0252 341.565 48.0252 340.824C48.0252 340.082 48.0252 339.259 48.0252 338.353C47.1399 338.353 46.3164 338.353 45.5546 338.353C44.7929 338.353 43.9693 338.353 43.0841 338.353C43.0841 339.259 43.0841 340.082 43.0841 340.824C43.0841 341.565 43.0841 342.388 43.0841 343.294ZM43.0841 343.294C43.9693 343.294 44.7929 343.294 45.5546 343.294C46.3164 343.294 47.1399 343.294 48.0252 343.294C48.0252 342.388 48.0252 341.565 48.0252 340.824C48.0252 340.082 48.0252 339.259 48.0252 338.353C47.1399 338.353 46.3164 338.353 45.5546 338.353C44.7929 338.353 43.9693 338.353 43.0841 338.353C43.0841 339.259 43.0841 340.082 43.0841 340.824C43.0841 341.565 43.0841 342.388 43.0841 343.294ZM43.0841 343.294C43.9693 343.294 44.7929 343.294 45.5546 343.294C46.3164 343.294 47.1399 343.294 48.0252 343.294C48.0252 342.388 48.0252 341.565 48.0252 340.824C48.0252 340.082 48.0252 339.259 48.0252 338.353C47.1399 338.353 46.3164 338.353 45.5546 338.353C44.7929 338.353 43.9693 338.353 43.0841 338.353C43.0841 339.259 43.0841 340.082 43.0841 340.824C43.0841 341.565 43.0841 342.388 43.0841 343.294ZM43.0841 343.294C43.9693 343.294 44.7929 343.294 45.5546 343.294C46.3164 343.294 47.1399 343.294 48.0252 343.294C48.0252 342.388 48.0252 341.565 48.0252 340.824C48.0252 340.082 48.0252 339.259 48.0252 338.353C47.1399 338.353 46.3164 338.353 45.5546 338.353C44.7929 338.353 43.9693 338.353 43.0841 338.353C43.0841 339.259 43.0841 340.082 43.0841 340.824C43.0841 341.565 43.0841 342.388 43.0841 343.294ZM43.0841 343.294C43.9693 343.294 44.7929 343.294 45.5546 343.294C46.3164 343.294 47.1399 343.294 48.0252 343.294C48.0252 342.388 48.0252 341.565 48.0252 340.824C48.0252 340.082 48.0252 339.259 48.0252 338.353C47.1399 338.353 46.3164 338.353 45.5546 338.353C44.7929 338.353 43.9693 338.353 43.0841 338.353C43.0841 339.259 43.0841 340.082 43.0841 340.824C43.0841 341.565 43.0841 342.388 43.0841 343.294ZM43.0841 343.294C43.9693 343.294 44.7929 343.294 45.5546 343.294C46.3164 343.294 47.1399 343.294 48.0252 343.294C48.0252 342.388 48.0252 341.565 48.0252 340.824C48.0252 340.082 48.0252 339.259 48.0252 338.353C47.1399 338.353 46.3164 338.353 45.5546 338.353C44.7929 338.353 43.9693 338.353 43.0841 338.353C43.0841 339.259 43.0841 340.082 43.0841 340.824C43.0841 341.565 43.0841 342.388 43.0841 343.294ZM48.0252 343.294C48.9105 343.294 49.7341 343.294 50.4958 343.294C51.2576 343.294 52.0811 343.294 52.9664 343.294C52.9664 342.388 52.9664 341.565 52.9664 340.824C52.9664 340.082 52.9664 339.259 52.9664 338.353C52.0811 338.353 51.2576 338.353 50.4958 338.353C49.7341 338.353 48.9105 338.353 48.0252 338.353C48.0252 339.259 48.0252 340.082 48.0252 340.824C48.0252 341.565 48.0252 342.388 48.0252 343.294ZM48.0252 343.294C48.9105 343.294 49.7341 343.294 50.4958 343.294C51.2576 343.294 52.0811 343.294 52.9664 343.294C52.9664 342.388 52.9664 341.565 52.9664 340.824C52.9664 340.082 52.9664 339.259 52.9664 338.353C52.0811 338.353 51.2576 338.353 50.4958 338.353C49.7341 338.353 48.9105 338.353 48.0252 338.353C48.0252 339.259 48.0252 340.082 48.0252 340.824C48.0252 341.565 48.0252 342.388 48.0252 343.294ZM48.0252 343.294C48.9105 343.294 49.7341 343.294 50.4958 343.294C51.2576 343.294 52.0811 343.294 52.9664 343.294C52.9664 342.388 52.9664 341.565 52.9664 340.824C52.9664 340.082 52.9664 339.259 52.9664 338.353C52.0811 338.353 51.2576 338.353 50.4958 338.353C49.7341 338.353 48.9105 338.353 48.0252 338.353C48.0252 339.259 48.0252 340.082 48.0252 340.824C48.0252 341.565 48.0252 342.388 48.0252 343.294ZM48.0252 343.294C48.9105 343.294 49.7341 343.294 50.4958 343.294C51.2576 343.294 52.0811 343.294 52.9664 343.294C52.9664 342.388 52.9664 341.565 52.9664 340.824C52.9664 340.082 52.9664 339.259 52.9664 338.353C52.0811 338.353 51.2576 338.353 50.4958 338.353C49.7341 338.353 48.9105 338.353 48.0252 338.353C48.0252 339.259 48.0252 340.082 48.0252 340.824C48.0252 341.565 48.0252 342.388 48.0252 343.294ZM48.0252 343.294C48.9105 343.294 49.7341 343.294 50.4958 343.294C51.2576 343.294 52.0811 343.294 52.9664 343.294C52.9664 342.388 52.9664 341.565 52.9664 340.824C52.9664 340.082 52.9664 339.259 52.9664 338.353C52.0811 338.353 51.2576 338.353 50.4958 338.353C49.7341 338.353 48.9105 338.353 48.0252 338.353C48.0252 339.259 48.0252 340.082 48.0252 340.824C48.0252 341.565 48.0252 342.388 48.0252 343.294ZM48.0252 343.294C48.9105 343.294 49.7341 343.294 50.4958 343.294C51.2576 343.294 52.0811 343.294 52.9664 343.294C52.9664 342.388 52.9664 341.565 52.9664 340.824C52.9664 340.082 52.9664 339.259 52.9664 338.353C52.0811 338.353 51.2576 338.353 50.4958 338.353C49.7341 338.353 48.9105 338.353 48.0252 338.353C48.0252 339.259 48.0252 340.082 48.0252 340.824C48.0252 341.565 48.0252 342.388 48.0252 343.294ZM48.0252 343.294C48.9105 343.294 49.7341 343.294 50.4958 343.294C51.2576 343.294 52.0811 343.294 52.9664 343.294C52.9664 342.388 52.9664 341.565 52.9664 340.824C52.9664 340.082 52.9664 339.259 52.9664 338.353C52.0811 338.353 51.2576 338.353 50.4958 338.353C49.7341 338.353 48.9105 338.353 48.0252 338.353C48.0252 339.259 48.0252 340.082 48.0252 340.824C48.0252 341.565 48.0252 342.388 48.0252 343.294ZM48.0252 343.294C48.9105 343.294 49.7341 343.294 50.4958 343.294C51.2576 343.294 52.0811 343.294 52.9664 343.294C52.9664 342.388 52.9664 341.565 52.9664 340.824C52.9664 340.082 52.9664 339.259 52.9664 338.353C52.0811 338.353 51.2576 338.353 50.4958 338.353C49.7341 338.353 48.9105 338.353 48.0252 338.353C48.0252 339.259 48.0252 340.082 48.0252 340.824C48.0252 341.565 48.0252 342.388 48.0252 343.294ZM48.0252 343.294C48.9105 343.294 49.7341 343.294 50.4958 343.294C51.2576 343.294 52.0811 343.294 52.9664 343.294C52.9664 342.388 52.9664 341.565 52.9664 340.824C52.9664 340.082 52.9664 339.259 52.9664 338.353C52.0811 338.353 51.2576 338.353 50.4958 338.353C49.7341 338.353 48.9105 338.353 48.0252 338.353C48.0252 339.259 48.0252 340.082 48.0252 340.824C48.0252 341.565 48.0252 342.388 48.0252 343.294ZM52.9664 343.294C53.8517 343.294 54.6752 343.294 55.437 343.294C56.1988 343.294 57.0223 343.294 57.9076 343.294C57.9076 342.388 57.9076 341.565 57.9076 340.824C57.9076 340.082 57.9076 339.259 57.9076 338.353C57.0223 338.353 56.1988 338.353 55.437 338.353C54.6752 338.353 53.8517 338.353 52.9664 338.353C52.9664 339.259 52.9664 340.082 52.9664 340.824C52.9664 341.565 52.9664 342.388 52.9664 343.294ZM52.9664 343.294C53.8517 343.294 54.6752 343.294 55.437 343.294C56.1988 343.294 57.0223 343.294 57.9076 343.294C57.9076 342.388 57.9076 341.565 57.9076 340.824C57.9076 340.082 57.9076 339.259 57.9076 338.353C57.0223 338.353 56.1988 338.353 55.437 338.353C54.6752 338.353 53.8517 338.353 52.9664 338.353C52.9664 339.259 52.9664 340.082 52.9664 340.824C52.9664 341.565 52.9664 342.388 52.9664 343.294ZM52.9664 343.294C53.8517 343.294 54.6752 343.294 55.437 343.294C56.1988 343.294 57.0223 343.294 57.9076 343.294C57.9076 342.388 57.9076 341.565 57.9076 340.824C57.9076 340.082 57.9076 339.259 57.9076 338.353C57.0223 338.353 56.1988 338.353 55.437 338.353C54.6752 338.353 53.8517 338.353 52.9664 338.353C52.9664 339.259 52.9664 340.082 52.9664 340.824C52.9664 341.565 52.9664 342.388 52.9664 343.294ZM52.9664 343.294C53.8517 343.294 54.6752 343.294 55.437 343.294C56.1988 343.294 57.0223 343.294 57.9076 343.294C57.9076 342.388 57.9076 341.565 57.9076 340.824C57.9076 340.082 57.9076 339.259 57.9076 338.353C57.0223 338.353 56.1988 338.353 55.437 338.353C54.6752 338.353 53.8517 338.353 52.9664 338.353C52.9664 339.259 52.9664 340.082 52.9664 340.824C52.9664 341.565 52.9664 342.388 52.9664 343.294ZM52.9664 343.294C53.8517 343.294 54.6752 343.294 55.437 343.294C56.1988 343.294 57.0223 343.294 57.9076 343.294C57.9076 342.388 57.9076 341.565 57.9076 340.824C57.9076 340.082 57.9076 339.259 57.9076 338.353C57.0223 338.353 56.1988 338.353 55.437 338.353C54.6752 338.353 53.8517 338.353 52.9664 338.353C52.9664 339.259 52.9664 340.082 52.9664 340.824C52.9664 341.565 52.9664 342.388 52.9664 343.294ZM52.9664 343.294C53.8517 343.294 54.6752 343.294 55.437 343.294C56.1988 343.294 57.0223 343.294 57.9076 343.294C57.9076 342.388 57.9076 341.565 57.9076 340.824C57.9076 340.082 57.9076 339.259 57.9076 338.353C57.0223 338.353 56.1988 338.353 55.437 338.353C54.6752 338.353 53.8517 338.353 52.9664 338.353C52.9664 339.259 52.9664 340.082 52.9664 340.824C52.9664 341.565 52.9664 342.388 52.9664 343.294ZM52.9664 343.294C53.8517 343.294 54.6752 343.294 55.437 343.294C56.1988 343.294 57.0223 343.294 57.9076 343.294C57.9076 342.388 57.9076 341.565 57.9076 340.824C57.9076 340.082 57.9076 339.259 57.9076 338.353C57.0223 338.353 56.1988 338.353 55.437 338.353C54.6752 338.353 53.8517 338.353 52.9664 338.353C52.9664 339.259 52.9664 340.082 52.9664 340.824C52.9664 341.565 52.9664 342.388 52.9664 343.294ZM52.9664 343.294C53.8517 343.294 54.6752 343.294 55.437 343.294C56.1988 343.294 57.0223 343.294 57.9076 343.294C57.9076 342.388 57.9076 341.565 57.9076 340.824C57.9076 340.082 57.9076 339.259 57.9076 338.353C57.0223 338.353 56.1988 338.353 55.437 338.353C54.6752 338.353 53.8517 338.353 52.9664 338.353C52.9664 339.259 52.9664 340.082 52.9664 340.824C52.9664 341.565 52.9664 342.388 52.9664 343.294ZM52.9664 343.294C53.8517 343.294 54.6752 343.294 55.437 343.294C56.1988 343.294 57.0223 343.294 57.9076 343.294C57.9076 342.388 57.9076 341.565 57.9076 340.824C57.9076 340.082 57.9076 339.259 57.9076 338.353C57.0223 338.353 56.1988 338.353 55.437 338.353C54.6752 338.353 53.8517 338.353 52.9664 338.353C52.9664 339.259 52.9664 340.082 52.9664 340.824C52.9664 341.565 52.9664 342.388 52.9664 343.294ZM57.9076 338.353C58.7929 338.353 59.6164 338.353 60.3782 338.353C61.1399 338.353 61.9635 338.353 62.8488 338.353C62.8488 337.447 62.8488 336.624 62.8488 335.882C62.8488 335.141 62.8488 334.318 62.8488 333.412C61.9635 333.412 61.1399 333.412 60.3782 333.412C59.6164 333.412 58.7929 333.412 57.9076 333.412C57.9076 334.318 57.9076 335.141 57.9076 335.882C57.9076 336.624 57.9076 337.447 57.9076 338.353ZM57.9076 338.353C58.7929 338.353 59.6164 338.353 60.3782 338.353C61.1399 338.353 61.9635 338.353 62.8488 338.353C62.8488 337.447 62.8488 336.624 62.8488 335.882C62.8488 335.141 62.8488 334.318 62.8488 333.412C61.9635 333.412 61.1399 333.412 60.3782 333.412C59.6164 333.412 58.7929 333.412 57.9076 333.412C57.9076 334.318 57.9076 335.141 57.9076 335.882C57.9076 336.624 57.9076 337.447 57.9076 338.353ZM57.9076 338.353C58.7929 338.353 59.6164 338.353 60.3782 338.353C61.1399 338.353 61.9635 338.353 62.8488 338.353C62.8488 337.447 62.8488 336.624 62.8488 335.882C62.8488 335.141 62.8488 334.318 62.8488 333.412C61.9635 333.412 61.1399 333.412 60.3782 333.412C59.6164 333.412 58.7929 333.412 57.9076 333.412C57.9076 334.318 57.9076 335.141 57.9076 335.882C57.9076 336.624 57.9076 337.447 57.9076 338.353ZM57.9076 338.353C58.7929 338.353 59.6164 338.353 60.3782 338.353C61.1399 338.353 61.9635 338.353 62.8488 338.353C62.8488 337.447 62.8488 336.624 62.8488 335.882C62.8488 335.141 62.8488 334.318 62.8488 333.412C61.9635 333.412 61.1399 333.412 60.3782 333.412C59.6164 333.412 58.7929 333.412 57.9076 333.412C57.9076 334.318 57.9076 335.141 57.9076 335.882C57.9076 336.624 57.9076 337.447 57.9076 338.353ZM57.9076 338.353C58.7929 338.353 59.6164 338.353 60.3782 338.353C61.1399 338.353 61.9635 338.353 62.8488 338.353C62.8488 337.447 62.8488 336.624 62.8488 335.882C62.8488 335.141 62.8488 334.318 62.8488 333.412C61.9635 333.412 61.1399 333.412 60.3782 333.412C59.6164 333.412 58.7929 333.412 57.9076 333.412C57.9076 334.318 57.9076 335.141 57.9076 335.882C57.9076 336.624 57.9076 337.447 57.9076 338.353ZM57.9076 338.353C58.7929 338.353 59.6164 338.353 60.3782 338.353C61.1399 338.353 61.9635 338.353 62.8488 338.353C62.8488 337.447 62.8488 336.624 62.8488 335.882C62.8488 335.141 62.8488 334.318 62.8488 333.412C61.9635 333.412 61.1399 333.412 60.3782 333.412C59.6164 333.412 58.7929 333.412 57.9076 333.412C57.9076 334.318 57.9076 335.141 57.9076 335.882C57.9076 336.624 57.9076 337.447 57.9076 338.353ZM57.9076 338.353C58.7929 338.353 59.6164 338.353 60.3782 338.353C61.1399 338.353 61.9635 338.353 62.8488 338.353C62.8488 337.447 62.8488 336.624 62.8488 335.882C62.8488 335.141 62.8488 334.318 62.8488 333.412C61.9635 333.412 61.1399 333.412 60.3782 333.412C59.6164 333.412 58.7929 333.412 57.9076 333.412C57.9076 334.318 57.9076 335.141 57.9076 335.882C57.9076 336.624 57.9076 337.447 57.9076 338.353ZM57.9076 338.353C58.7929 338.353 59.6164 338.353 60.3782 338.353C61.1399 338.353 61.9635 338.353 62.8488 338.353C62.8488 337.447 62.8488 336.624 62.8488 335.882C62.8488 335.141 62.8488 334.318 62.8488 333.412C61.9635 333.412 61.1399 333.412 60.3782 333.412C59.6164 333.412 58.7929 333.412 57.9076 333.412C57.9076 334.318 57.9076 335.141 57.9076 335.882C57.9076 336.624 57.9076 337.447 57.9076 338.353ZM57.9076 338.353C58.7929 338.353 59.6164 338.353 60.3782 338.353C61.1399 338.353 61.9635 338.353 62.8488 338.353C62.8488 337.447 62.8488 336.624 62.8488 335.882C62.8488 335.141 62.8488 334.318 62.8488 333.412C61.9635 333.412 61.1399 333.412 60.3782 333.412C59.6164 333.412 58.7929 333.412 57.9076 333.412C57.9076 334.318 57.9076 335.141 57.9076 335.882C57.9076 336.624 57.9076 337.447 57.9076 338.353ZM57.9076 333.412C58.7929 333.412 59.6164 333.412 60.3782 333.412C61.1399 333.412 61.9635 333.412 62.8488 333.412C62.8488 332.506 62.8488 331.682 62.8488 330.941C62.8488 330.2 62.8488 329.376 62.8488 328.471C61.9635 328.471 61.1399 328.471 60.3782 328.471C59.6164 328.471 58.7929 328.471 57.9076 328.471C57.9076 329.376 57.9076 330.2 57.9076 330.941C57.9076 331.682 57.9076 332.506 57.9076 333.412ZM57.9076 333.412C58.7929 333.412 59.6164 333.412 60.3782 333.412C61.1399 333.412 61.9635 333.412 62.8488 333.412C62.8488 332.506 62.8488 331.682 62.8488 330.941C62.8488 330.2 62.8488 329.376 62.8488 328.471C61.9635 328.471 61.1399 328.471 60.3782 328.471C59.6164 328.471 58.7929 328.471 57.9076 328.471C57.9076 329.376 57.9076 330.2 57.9076 330.941C57.9076 331.682 57.9076 332.506 57.9076 333.412ZM57.9076 333.412C58.7929 333.412 59.6164 333.412 60.3782 333.412C61.1399 333.412 61.9635 333.412 62.8488 333.412C62.8488 332.506 62.8488 331.682 62.8488 330.941C62.8488 330.2 62.8488 329.376 62.8488 328.471C61.9635 328.471 61.1399 328.471 60.3782 328.471C59.6164 328.471 58.7929 328.471 57.9076 328.471C57.9076 329.376 57.9076 330.2 57.9076 330.941C57.9076 331.682 57.9076 332.506 57.9076 333.412ZM57.9076 333.412C58.7929 333.412 59.6164 333.412 60.3782 333.412C61.1399 333.412 61.9635 333.412 62.8488 333.412C62.8488 332.506 62.8488 331.682 62.8488 330.941C62.8488 330.2 62.8488 329.376 62.8488 328.471C61.9635 328.471 61.1399 328.471 60.3782 328.471C59.6164 328.471 58.7929 328.471 57.9076 328.471C57.9076 329.376 57.9076 330.2 57.9076 330.941C57.9076 331.682 57.9076 332.506 57.9076 333.412ZM57.9076 333.412C58.7929 333.412 59.6164 333.412 60.3782 333.412C61.1399 333.412 61.9635 333.412 62.8488 333.412C62.8488 332.506 62.8488 331.682 62.8488 330.941C62.8488 330.2 62.8488 329.376 62.8488 328.471C61.9635 328.471 61.1399 328.471 60.3782 328.471C59.6164 328.471 58.7929 328.471 57.9076 328.471C57.9076 329.376 57.9076 330.2 57.9076 330.941C57.9076 331.682 57.9076 332.506 57.9076 333.412ZM57.9076 333.412C58.7929 333.412 59.6164 333.412 60.3782 333.412C61.1399 333.412 61.9635 333.412 62.8488 333.412C62.8488 332.506 62.8488 331.682 62.8488 330.941C62.8488 330.2 62.8488 329.376 62.8488 328.471C61.9635 328.471 61.1399 328.471 60.3782 328.471C59.6164 328.471 58.7929 328.471 57.9076 328.471C57.9076 329.376 57.9076 330.2 57.9076 330.941C57.9076 331.682 57.9076 332.506 57.9076 333.412ZM57.9076 333.412C58.7929 333.412 59.6164 333.412 60.3782 333.412C61.1399 333.412 61.9635 333.412 62.8488 333.412C62.8488 332.506 62.8488 331.682 62.8488 330.941C62.8488 330.2 62.8488 329.376 62.8488 328.471C61.9635 328.471 61.1399 328.471 60.3782 328.471C59.6164 328.471 58.7929 328.471 57.9076 328.471C57.9076 329.376 57.9076 330.2 57.9076 330.941C57.9076 331.682 57.9076 332.506 57.9076 333.412ZM57.9076 333.412C58.7929 333.412 59.6164 333.412 60.3782 333.412C61.1399 333.412 61.9635 333.412 62.8488 333.412C62.8488 332.506 62.8488 331.682 62.8488 330.941C62.8488 330.2 62.8488 329.376 62.8488 328.471C61.9635 328.471 61.1399 328.471 60.3782 328.471C59.6164 328.471 58.7929 328.471 57.9076 328.471C57.9076 329.376 57.9076 330.2 57.9076 330.941C57.9076 331.682 57.9076 332.506 57.9076 333.412ZM57.9076 333.412C58.7929 333.412 59.6164 333.412 60.3782 333.412C61.1399 333.412 61.9635 333.412 62.8488 333.412C62.8488 332.506 62.8488 331.682 62.8488 330.941C62.8488 330.2 62.8488 329.376 62.8488 328.471C61.9635 328.471 61.1399 328.471 60.3782 328.471C59.6164 328.471 58.7929 328.471 57.9076 328.471C57.9076 329.376 57.9076 330.2 57.9076 330.941C57.9076 331.682 57.9076 332.506 57.9076 333.412ZM38.1429 328.471C39.0282 328.471 39.8517 328.471 40.6135 328.471C41.3752 328.471 42.1988 328.471 43.0841 328.471C43.0841 327.565 43.0841 326.741 43.0841 326C43.0841 325.259 43.0841 324.435 43.0841 323.529C42.1988 323.529 41.3752 323.529 40.6135 323.529C39.8517 323.529 39.0282 323.529 38.1429 323.529C38.1429 324.435 38.1429 325.259 38.1429 326C38.1429 326.741 38.1429 327.565 38.1429 328.471ZM38.1429 328.471C39.0282 328.471 39.8517 328.471 40.6135 328.471C41.3752 328.471 42.1988 328.471 43.0841 328.471C43.0841 327.565 43.0841 326.741 43.0841 326C43.0841 325.259 43.0841 324.435 43.0841 323.529C42.1988 323.529 41.3752 323.529 40.6135 323.529C39.8517 323.529 39.0282 323.529 38.1429 323.529C38.1429 324.435 38.1429 325.259 38.1429 326C38.1429 326.741 38.1429 327.565 38.1429 328.471ZM38.1429 328.471C39.0282 328.471 39.8517 328.471 40.6135 328.471C41.3752 328.471 42.1988 328.471 43.0841 328.471C43.0841 327.565 43.0841 326.741 43.0841 326C43.0841 325.259 43.0841 324.435 43.0841 323.529C42.1988 323.529 41.3752 323.529 40.6135 323.529C39.8517 323.529 39.0282 323.529 38.1429 323.529C38.1429 324.435 38.1429 325.259 38.1429 326C38.1429 326.741 38.1429 327.565 38.1429 328.471ZM38.1429 328.471C39.0282 328.471 39.8517 328.471 40.6135 328.471C41.3752 328.471 42.1988 328.471 43.0841 328.471C43.0841 327.565 43.0841 326.741 43.0841 326C43.0841 325.259 43.0841 324.435 43.0841 323.529C42.1988 323.529 41.3752 323.529 40.6135 323.529C39.8517 323.529 39.0282 323.529 38.1429 323.529C38.1429 324.435 38.1429 325.259 38.1429 326C38.1429 326.741 38.1429 327.565 38.1429 328.471ZM38.1429 328.471C39.0282 328.471 39.8517 328.471 40.6135 328.471C41.3752 328.471 42.1988 328.471 43.0841 328.471C43.0841 327.565 43.0841 326.741 43.0841 326C43.0841 325.259 43.0841 324.435 43.0841 323.529C42.1988 323.529 41.3752 323.529 40.6135 323.529C39.8517 323.529 39.0282 323.529 38.1429 323.529C38.1429 324.435 38.1429 325.259 38.1429 326C38.1429 326.741 38.1429 327.565 38.1429 328.471ZM38.1429 328.471C39.0282 328.471 39.8517 328.471 40.6135 328.471C41.3752 328.471 42.1988 328.471 43.0841 328.471C43.0841 327.565 43.0841 326.741 43.0841 326C43.0841 325.259 43.0841 324.435 43.0841 323.529C42.1988 323.529 41.3752 323.529 40.6135 323.529C39.8517 323.529 39.0282 323.529 38.1429 323.529C38.1429 324.435 38.1429 325.259 38.1429 326C38.1429 326.741 38.1429 327.565 38.1429 328.471ZM38.1429 328.471C39.0282 328.471 39.8517 328.471 40.6135 328.471C41.3752 328.471 42.1988 328.471 43.0841 328.471C43.0841 327.565 43.0841 326.741 43.0841 326C43.0841 325.259 43.0841 324.435 43.0841 323.529C42.1988 323.529 41.3752 323.529 40.6135 323.529C39.8517 323.529 39.0282 323.529 38.1429 323.529C38.1429 324.435 38.1429 325.259 38.1429 326C38.1429 326.741 38.1429 327.565 38.1429 328.471ZM38.1429 328.471C39.0282 328.471 39.8517 328.471 40.6135 328.471C41.3752 328.471 42.1988 328.471 43.0841 328.471C43.0841 327.565 43.0841 326.741 43.0841 326C43.0841 325.259 43.0841 324.435 43.0841 323.529C42.1988 323.529 41.3752 323.529 40.6135 323.529C39.8517 323.529 39.0282 323.529 38.1429 323.529C38.1429 324.435 38.1429 325.259 38.1429 326C38.1429 326.741 38.1429 327.565 38.1429 328.471ZM38.1429 328.471C39.0282 328.471 39.8517 328.471 40.6135 328.471C41.3752 328.471 42.1988 328.471 43.0841 328.471C43.0841 327.565 43.0841 326.741 43.0841 326C43.0841 325.259 43.0841 324.435 43.0841 323.529C42.1988 323.529 41.3752 323.529 40.6135 323.529C39.8517 323.529 39.0282 323.529 38.1429 323.529C38.1429 324.435 38.1429 325.259 38.1429 326C38.1429 326.741 38.1429 327.565 38.1429 328.471ZM57.9076 328.471C58.7929 328.471 59.6164 328.471 60.3782 328.471C61.1399 328.471 61.9635 328.471 62.8488 328.471C62.8488 327.565 62.8488 326.741 62.8488 326C62.8488 325.259 62.8488 324.435 62.8488 323.529C61.9635 323.529 61.1399 323.529 60.3782 323.529C59.6164 323.529 58.7929 323.529 57.9076 323.529C57.9076 324.435 57.9076 325.259 57.9076 326C57.9076 326.741 57.9076 327.565 57.9076 328.471ZM57.9076 328.471C58.7929 328.471 59.6164 328.471 60.3782 328.471C61.1399 328.471 61.9635 328.471 62.8488 328.471C62.8488 327.565 62.8488 326.741 62.8488 326C62.8488 325.259 62.8488 324.435 62.8488 323.529C61.9635 323.529 61.1399 323.529 60.3782 323.529C59.6164 323.529 58.7929 323.529 57.9076 323.529C57.9076 324.435 57.9076 325.259 57.9076 326C57.9076 326.741 57.9076 327.565 57.9076 328.471ZM57.9076 328.471C58.7929 328.471 59.6164 328.471 60.3782 328.471C61.1399 328.471 61.9635 328.471 62.8488 328.471C62.8488 327.565 62.8488 326.741 62.8488 326C62.8488 325.259 62.8488 324.435 62.8488 323.529C61.9635 323.529 61.1399 323.529 60.3782 323.529C59.6164 323.529 58.7929 323.529 57.9076 323.529C57.9076 324.435 57.9076 325.259 57.9076 326C57.9076 326.741 57.9076 327.565 57.9076 328.471ZM57.9076 328.471C58.7929 328.471 59.6164 328.471 60.3782 328.471C61.1399 328.471 61.9635 328.471 62.8488 328.471C62.8488 327.565 62.8488 326.741 62.8488 326C62.8488 325.259 62.8488 324.435 62.8488 323.529C61.9635 323.529 61.1399 323.529 60.3782 323.529C59.6164 323.529 58.7929 323.529 57.9076 323.529C57.9076 324.435 57.9076 325.259 57.9076 326C57.9076 326.741 57.9076 327.565 57.9076 328.471ZM57.9076 328.471C58.7929 328.471 59.6164 328.471 60.3782 328.471C61.1399 328.471 61.9635 328.471 62.8488 328.471C62.8488 327.565 62.8488 326.741 62.8488 326C62.8488 325.259 62.8488 324.435 62.8488 323.529C61.9635 323.529 61.1399 323.529 60.3782 323.529C59.6164 323.529 58.7929 323.529 57.9076 323.529C57.9076 324.435 57.9076 325.259 57.9076 326C57.9076 326.741 57.9076 327.565 57.9076 328.471ZM57.9076 328.471C58.7929 328.471 59.6164 328.471 60.3782 328.471C61.1399 328.471 61.9635 328.471 62.8488 328.471C62.8488 327.565 62.8488 326.741 62.8488 326C62.8488 325.259 62.8488 324.435 62.8488 323.529C61.9635 323.529 61.1399 323.529 60.3782 323.529C59.6164 323.529 58.7929 323.529 57.9076 323.529C57.9076 324.435 57.9076 325.259 57.9076 326C57.9076 326.741 57.9076 327.565 57.9076 328.471ZM57.9076 328.471C58.7929 328.471 59.6164 328.471 60.3782 328.471C61.1399 328.471 61.9635 328.471 62.8488 328.471C62.8488 327.565 62.8488 326.741 62.8488 326C62.8488 325.259 62.8488 324.435 62.8488 323.529C61.9635 323.529 61.1399 323.529 60.3782 323.529C59.6164 323.529 58.7929 323.529 57.9076 323.529C57.9076 324.435 57.9076 325.259 57.9076 326C57.9076 326.741 57.9076 327.565 57.9076 328.471ZM57.9076 328.471C58.7929 328.471 59.6164 328.471 60.3782 328.471C61.1399 328.471 61.9635 328.471 62.8488 328.471C62.8488 327.565 62.8488 326.741 62.8488 326C62.8488 325.259 62.8488 324.435 62.8488 323.529C61.9635 323.529 61.1399 323.529 60.3782 323.529C59.6164 323.529 58.7929 323.529 57.9076 323.529C57.9076 324.435 57.9076 325.259 57.9076 326C57.9076 326.741 57.9076 327.565 57.9076 328.471ZM57.9076 328.471C58.7929 328.471 59.6164 328.471 60.3782 328.471C61.1399 328.471 61.9635 328.471 62.8488 328.471C62.8488 327.565 62.8488 326.741 62.8488 326C62.8488 325.259 62.8488 324.435 62.8488 323.529C61.9635 323.529 61.1399 323.529 60.3782 323.529C59.6164 323.529 58.7929 323.529 57.9076 323.529C57.9076 324.435 57.9076 325.259 57.9076 326C57.9076 326.741 57.9076 327.565 57.9076 328.471ZM38.1429 323.529C39.0282 323.529 39.8517 323.529 40.6135 323.529C41.3752 323.529 42.1988 323.529 43.0841 323.529C43.0841 322.624 43.0841 321.8 43.0841 321.059C43.0841 320.318 43.0841 319.494 43.0841 318.588C42.1988 318.588 41.3752 318.588 40.6135 318.588C39.8517 318.588 39.0282 318.588 38.1429 318.588C38.1429 319.494 38.1429 320.318 38.1429 321.059C38.1429 321.8 38.1429 322.624 38.1429 323.529ZM38.1429 323.529C39.0282 323.529 39.8517 323.529 40.6135 323.529C41.3752 323.529 42.1988 323.529 43.0841 323.529C43.0841 322.624 43.0841 321.8 43.0841 321.059C43.0841 320.318 43.0841 319.494 43.0841 318.588C42.1988 318.588 41.3752 318.588 40.6135 318.588C39.8517 318.588 39.0282 318.588 38.1429 318.588C38.1429 319.494 38.1429 320.318 38.1429 321.059C38.1429 321.8 38.1429 322.624 38.1429 323.529ZM38.1429 323.529C39.0282 323.529 39.8517 323.529 40.6135 323.529C41.3752 323.529 42.1988 323.529 43.0841 323.529C43.0841 322.624 43.0841 321.8 43.0841 321.059C43.0841 320.318 43.0841 319.494 43.0841 318.588C42.1988 318.588 41.3752 318.588 40.6135 318.588C39.8517 318.588 39.0282 318.588 38.1429 318.588C38.1429 319.494 38.1429 320.318 38.1429 321.059C38.1429 321.8 38.1429 322.624 38.1429 323.529ZM38.1429 323.529C39.0282 323.529 39.8517 323.529 40.6135 323.529C41.3752 323.529 42.1988 323.529 43.0841 323.529C43.0841 322.624 43.0841 321.8 43.0841 321.059C43.0841 320.318 43.0841 319.494 43.0841 318.588C42.1988 318.588 41.3752 318.588 40.6135 318.588C39.8517 318.588 39.0282 318.588 38.1429 318.588C38.1429 319.494 38.1429 320.318 38.1429 321.059C38.1429 321.8 38.1429 322.624 38.1429 323.529ZM38.1429 323.529C39.0282 323.529 39.8517 323.529 40.6135 323.529C41.3752 323.529 42.1988 323.529 43.0841 323.529C43.0841 322.624 43.0841 321.8 43.0841 321.059C43.0841 320.318 43.0841 319.494 43.0841 318.588C42.1988 318.588 41.3752 318.588 40.6135 318.588C39.8517 318.588 39.0282 318.588 38.1429 318.588C38.1429 319.494 38.1429 320.318 38.1429 321.059C38.1429 321.8 38.1429 322.624 38.1429 323.529ZM38.1429 323.529C39.0282 323.529 39.8517 323.529 40.6135 323.529C41.3752 323.529 42.1988 323.529 43.0841 323.529C43.0841 322.624 43.0841 321.8 43.0841 321.059C43.0841 320.318 43.0841 319.494 43.0841 318.588C42.1988 318.588 41.3752 318.588 40.6135 318.588C39.8517 318.588 39.0282 318.588 38.1429 318.588C38.1429 319.494 38.1429 320.318 38.1429 321.059C38.1429 321.8 38.1429 322.624 38.1429 323.529ZM38.1429 323.529C39.0282 323.529 39.8517 323.529 40.6135 323.529C41.3752 323.529 42.1988 323.529 43.0841 323.529C43.0841 322.624 43.0841 321.8 43.0841 321.059C43.0841 320.318 43.0841 319.494 43.0841 318.588C42.1988 318.588 41.3752 318.588 40.6135 318.588C39.8517 318.588 39.0282 318.588 38.1429 318.588C38.1429 319.494 38.1429 320.318 38.1429 321.059C38.1429 321.8 38.1429 322.624 38.1429 323.529ZM38.1429 323.529C39.0282 323.529 39.8517 323.529 40.6135 323.529C41.3752 323.529 42.1988 323.529 43.0841 323.529C43.0841 322.624 43.0841 321.8 43.0841 321.059C43.0841 320.318 43.0841 319.494 43.0841 318.588C42.1988 318.588 41.3752 318.588 40.6135 318.588C39.8517 318.588 39.0282 318.588 38.1429 318.588C38.1429 319.494 38.1429 320.318 38.1429 321.059C38.1429 321.8 38.1429 322.624 38.1429 323.529ZM38.1429 323.529C39.0282 323.529 39.8517 323.529 40.6135 323.529C41.3752 323.529 42.1988 323.529 43.0841 323.529C43.0841 322.624 43.0841 321.8 43.0841 321.059C43.0841 320.318 43.0841 319.494 43.0841 318.588C42.1988 318.588 41.3752 318.588 40.6135 318.588C39.8517 318.588 39.0282 318.588 38.1429 318.588C38.1429 319.494 38.1429 320.318 38.1429 321.059C38.1429 321.8 38.1429 322.624 38.1429 323.529ZM57.9076 323.529C58.7929 323.529 59.6164 323.529 60.3782 323.529C61.1399 323.529 61.9635 323.529 62.8488 323.529C62.8488 322.624 62.8488 321.8 62.8488 321.059C62.8488 320.318 62.8488 319.494 62.8488 318.588C61.9635 318.588 61.1399 318.588 60.3782 318.588C59.6164 318.588 58.7929 318.588 57.9076 318.588C57.9076 319.494 57.9076 320.318 57.9076 321.059C57.9076 321.8 57.9076 322.624 57.9076 323.529ZM57.9076 323.529C58.7929 323.529 59.6164 323.529 60.3782 323.529C61.1399 323.529 61.9635 323.529 62.8488 323.529C62.8488 322.624 62.8488 321.8 62.8488 321.059C62.8488 320.318 62.8488 319.494 62.8488 318.588C61.9635 318.588 61.1399 318.588 60.3782 318.588C59.6164 318.588 58.7929 318.588 57.9076 318.588C57.9076 319.494 57.9076 320.318 57.9076 321.059C57.9076 321.8 57.9076 322.624 57.9076 323.529ZM57.9076 323.529C58.7929 323.529 59.6164 323.529 60.3782 323.529C61.1399 323.529 61.9635 323.529 62.8488 323.529C62.8488 322.624 62.8488 321.8 62.8488 321.059C62.8488 320.318 62.8488 319.494 62.8488 318.588C61.9635 318.588 61.1399 318.588 60.3782 318.588C59.6164 318.588 58.7929 318.588 57.9076 318.588C57.9076 319.494 57.9076 320.318 57.9076 321.059C57.9076 321.8 57.9076 322.624 57.9076 323.529ZM57.9076 323.529C58.7929 323.529 59.6164 323.529 60.3782 323.529C61.1399 323.529 61.9635 323.529 62.8488 323.529C62.8488 322.624 62.8488 321.8 62.8488 321.059C62.8488 320.318 62.8488 319.494 62.8488 318.588C61.9635 318.588 61.1399 318.588 60.3782 318.588C59.6164 318.588 58.7929 318.588 57.9076 318.588C57.9076 319.494 57.9076 320.318 57.9076 321.059C57.9076 321.8 57.9076 322.624 57.9076 323.529ZM57.9076 323.529C58.7929 323.529 59.6164 323.529 60.3782 323.529C61.1399 323.529 61.9635 323.529 62.8488 323.529C62.8488 322.624 62.8488 321.8 62.8488 321.059C62.8488 320.318 62.8488 319.494 62.8488 318.588C61.9635 318.588 61.1399 318.588 60.3782 318.588C59.6164 318.588 58.7929 318.588 57.9076 318.588C57.9076 319.494 57.9076 320.318 57.9076 321.059C57.9076 321.8 57.9076 322.624 57.9076 323.529ZM57.9076 323.529C58.7929 323.529 59.6164 323.529 60.3782 323.529C61.1399 323.529 61.9635 323.529 62.8488 323.529C62.8488 322.624 62.8488 321.8 62.8488 321.059C62.8488 320.318 62.8488 319.494 62.8488 318.588C61.9635 318.588 61.1399 318.588 60.3782 318.588C59.6164 318.588 58.7929 318.588 57.9076 318.588C57.9076 319.494 57.9076 320.318 57.9076 321.059C57.9076 321.8 57.9076 322.624 57.9076 323.529ZM57.9076 323.529C58.7929 323.529 59.6164 323.529 60.3782 323.529C61.1399 323.529 61.9635 323.529 62.8488 323.529C62.8488 322.624 62.8488 321.8 62.8488 321.059C62.8488 320.318 62.8488 319.494 62.8488 318.588C61.9635 318.588 61.1399 318.588 60.3782 318.588C59.6164 318.588 58.7929 318.588 57.9076 318.588C57.9076 319.494 57.9076 320.318 57.9076 321.059C57.9076 321.8 57.9076 322.624 57.9076 323.529ZM57.9076 323.529C58.7929 323.529 59.6164 323.529 60.3782 323.529C61.1399 323.529 61.9635 323.529 62.8488 323.529C62.8488 322.624 62.8488 321.8 62.8488 321.059C62.8488 320.318 62.8488 319.494 62.8488 318.588C61.9635 318.588 61.1399 318.588 60.3782 318.588C59.6164 318.588 58.7929 318.588 57.9076 318.588C57.9076 319.494 57.9076 320.318 57.9076 321.059C57.9076 321.8 57.9076 322.624 57.9076 323.529ZM57.9076 323.529C58.7929 323.529 59.6164 323.529 60.3782 323.529C61.1399 323.529 61.9635 323.529 62.8488 323.529C62.8488 322.624 62.8488 321.8 62.8488 321.059C62.8488 320.318 62.8488 319.494 62.8488 318.588C61.9635 318.588 61.1399 318.588 60.3782 318.588C59.6164 318.588 58.7929 318.588 57.9076 318.588C57.9076 319.494 57.9076 320.318 57.9076 321.059C57.9076 321.8 57.9076 322.624 57.9076 323.529ZM43.0841 318.588C43.9693 318.588 44.7929 318.588 45.5546 318.588C46.3164 318.588 47.1399 318.588 48.0252 318.588C48.0252 317.682 48.0252 316.859 48.0252 316.118C48.0252 315.376 48.0252 314.553 48.0252 313.647C47.1399 313.647 46.3164 313.647 45.5546 313.647C44.7929 313.647 43.9693 313.647 43.0841 313.647C43.0841 314.553 43.0841 315.376 43.0841 316.118C43.0841 316.859 43.0841 317.682 43.0841 318.588ZM43.0841 318.588C43.9693 318.588 44.7929 318.588 45.5546 318.588C46.3164 318.588 47.1399 318.588 48.0252 318.588C48.0252 317.682 48.0252 316.859 48.0252 316.118C48.0252 315.376 48.0252 314.553 48.0252 313.647C47.1399 313.647 46.3164 313.647 45.5546 313.647C44.7929 313.647 43.9693 313.647 43.0841 313.647C43.0841 314.553 43.0841 315.376 43.0841 316.118C43.0841 316.859 43.0841 317.682 43.0841 318.588ZM43.0841 318.588C43.9693 318.588 44.7929 318.588 45.5546 318.588C46.3164 318.588 47.1399 318.588 48.0252 318.588C48.0252 317.682 48.0252 316.859 48.0252 316.118C48.0252 315.376 48.0252 314.553 48.0252 313.647C47.1399 313.647 46.3164 313.647 45.5546 313.647C44.7929 313.647 43.9693 313.647 43.0841 313.647C43.0841 314.553 43.0841 315.376 43.0841 316.118C43.0841 316.859 43.0841 317.682 43.0841 318.588ZM43.0841 318.588C43.9693 318.588 44.7929 318.588 45.5546 318.588C46.3164 318.588 47.1399 318.588 48.0252 318.588C48.0252 317.682 48.0252 316.859 48.0252 316.118C48.0252 315.376 48.0252 314.553 48.0252 313.647C47.1399 313.647 46.3164 313.647 45.5546 313.647C44.7929 313.647 43.9693 313.647 43.0841 313.647C43.0841 314.553 43.0841 315.376 43.0841 316.118C43.0841 316.859 43.0841 317.682 43.0841 318.588ZM43.0841 318.588C43.9693 318.588 44.7929 318.588 45.5546 318.588C46.3164 318.588 47.1399 318.588 48.0252 318.588C48.0252 317.682 48.0252 316.859 48.0252 316.118C48.0252 315.376 48.0252 314.553 48.0252 313.647C47.1399 313.647 46.3164 313.647 45.5546 313.647C44.7929 313.647 43.9693 313.647 43.0841 313.647C43.0841 314.553 43.0841 315.376 43.0841 316.118C43.0841 316.859 43.0841 317.682 43.0841 318.588ZM43.0841 318.588C43.9693 318.588 44.7929 318.588 45.5546 318.588C46.3164 318.588 47.1399 318.588 48.0252 318.588C48.0252 317.682 48.0252 316.859 48.0252 316.118C48.0252 315.376 48.0252 314.553 48.0252 313.647C47.1399 313.647 46.3164 313.647 45.5546 313.647C44.7929 313.647 43.9693 313.647 43.0841 313.647C43.0841 314.553 43.0841 315.376 43.0841 316.118C43.0841 316.859 43.0841 317.682 43.0841 318.588ZM43.0841 318.588C43.9693 318.588 44.7929 318.588 45.5546 318.588C46.3164 318.588 47.1399 318.588 48.0252 318.588C48.0252 317.682 48.0252 316.859 48.0252 316.118C48.0252 315.376 48.0252 314.553 48.0252 313.647C47.1399 313.647 46.3164 313.647 45.5546 313.647C44.7929 313.647 43.9693 313.647 43.0841 313.647C43.0841 314.553 43.0841 315.376 43.0841 316.118C43.0841 316.859 43.0841 317.682 43.0841 318.588ZM43.0841 318.588C43.9693 318.588 44.7929 318.588 45.5546 318.588C46.3164 318.588 47.1399 318.588 48.0252 318.588C48.0252 317.682 48.0252 316.859 48.0252 316.118C48.0252 315.376 48.0252 314.553 48.0252 313.647C47.1399 313.647 46.3164 313.647 45.5546 313.647C44.7929 313.647 43.9693 313.647 43.0841 313.647C43.0841 314.553 43.0841 315.376 43.0841 316.118C43.0841 316.859 43.0841 317.682 43.0841 318.588ZM43.0841 318.588C43.9693 318.588 44.7929 318.588 45.5546 318.588C46.3164 318.588 47.1399 318.588 48.0252 318.588C48.0252 317.682 48.0252 316.859 48.0252 316.118C48.0252 315.376 48.0252 314.553 48.0252 313.647C47.1399 313.647 46.3164 313.647 45.5546 313.647C44.7929 313.647 43.9693 313.647 43.0841 313.647C43.0841 314.553 43.0841 315.376 43.0841 316.118C43.0841 316.859 43.0841 317.682 43.0841 318.588ZM48.0252 318.588C48.9105 318.588 49.7341 318.588 50.4958 318.588C51.2576 318.588 52.0811 318.588 52.9664 318.588C52.9664 317.682 52.9664 316.859 52.9664 316.118C52.9664 315.376 52.9664 314.553 52.9664 313.647C52.0811 313.647 51.2576 313.647 50.4958 313.647C49.7341 313.647 48.9105 313.647 48.0252 313.647C48.0252 314.553 48.0252 315.376 48.0252 316.118C48.0252 316.859 48.0252 317.682 48.0252 318.588ZM48.0252 318.588C48.9105 318.588 49.7341 318.588 50.4958 318.588C51.2576 318.588 52.0811 318.588 52.9664 318.588C52.9664 317.682 52.9664 316.859 52.9664 316.118C52.9664 315.376 52.9664 314.553 52.9664 313.647C52.0811 313.647 51.2576 313.647 50.4958 313.647C49.7341 313.647 48.9105 313.647 48.0252 313.647C48.0252 314.553 48.0252 315.376 48.0252 316.118C48.0252 316.859 48.0252 317.682 48.0252 318.588ZM48.0252 318.588C48.9105 318.588 49.7341 318.588 50.4958 318.588C51.2576 318.588 52.0811 318.588 52.9664 318.588C52.9664 317.682 52.9664 316.859 52.9664 316.118C52.9664 315.376 52.9664 314.553 52.9664 313.647C52.0811 313.647 51.2576 313.647 50.4958 313.647C49.7341 313.647 48.9105 313.647 48.0252 313.647C48.0252 314.553 48.0252 315.376 48.0252 316.118C48.0252 316.859 48.0252 317.682 48.0252 318.588ZM48.0252 318.588C48.9105 318.588 49.7341 318.588 50.4958 318.588C51.2576 318.588 52.0811 318.588 52.9664 318.588C52.9664 317.682 52.9664 316.859 52.9664 316.118C52.9664 315.376 52.9664 314.553 52.9664 313.647C52.0811 313.647 51.2576 313.647 50.4958 313.647C49.7341 313.647 48.9105 313.647 48.0252 313.647C48.0252 314.553 48.0252 315.376 48.0252 316.118C48.0252 316.859 48.0252 317.682 48.0252 318.588ZM48.0252 318.588C48.9105 318.588 49.7341 318.588 50.4958 318.588C51.2576 318.588 52.0811 318.588 52.9664 318.588C52.9664 317.682 52.9664 316.859 52.9664 316.118C52.9664 315.376 52.9664 314.553 52.9664 313.647C52.0811 313.647 51.2576 313.647 50.4958 313.647C49.7341 313.647 48.9105 313.647 48.0252 313.647C48.0252 314.553 48.0252 315.376 48.0252 316.118C48.0252 316.859 48.0252 317.682 48.0252 318.588ZM48.0252 318.588C48.9105 318.588 49.7341 318.588 50.4958 318.588C51.2576 318.588 52.0811 318.588 52.9664 318.588C52.9664 317.682 52.9664 316.859 52.9664 316.118C52.9664 315.376 52.9664 314.553 52.9664 313.647C52.0811 313.647 51.2576 313.647 50.4958 313.647C49.7341 313.647 48.9105 313.647 48.0252 313.647C48.0252 314.553 48.0252 315.376 48.0252 316.118C48.0252 316.859 48.0252 317.682 48.0252 318.588ZM48.0252 318.588C48.9105 318.588 49.7341 318.588 50.4958 318.588C51.2576 318.588 52.0811 318.588 52.9664 318.588C52.9664 317.682 52.9664 316.859 52.9664 316.118C52.9664 315.376 52.9664 314.553 52.9664 313.647C52.0811 313.647 51.2576 313.647 50.4958 313.647C49.7341 313.647 48.9105 313.647 48.0252 313.647C48.0252 314.553 48.0252 315.376 48.0252 316.118C48.0252 316.859 48.0252 317.682 48.0252 318.588ZM48.0252 318.588C48.9105 318.588 49.7341 318.588 50.4958 318.588C51.2576 318.588 52.0811 318.588 52.9664 318.588C52.9664 317.682 52.9664 316.859 52.9664 316.118C52.9664 315.376 52.9664 314.553 52.9664 313.647C52.0811 313.647 51.2576 313.647 50.4958 313.647C49.7341 313.647 48.9105 313.647 48.0252 313.647C48.0252 314.553 48.0252 315.376 48.0252 316.118C48.0252 316.859 48.0252 317.682 48.0252 318.588ZM48.0252 318.588C48.9105 318.588 49.7341 318.588 50.4958 318.588C51.2576 318.588 52.0811 318.588 52.9664 318.588C52.9664 317.682 52.9664 316.859 52.9664 316.118C52.9664 315.376 52.9664 314.553 52.9664 313.647C52.0811 313.647 51.2576 313.647 50.4958 313.647C49.7341 313.647 48.9105 313.647 48.0252 313.647C48.0252 314.553 48.0252 315.376 48.0252 316.118C48.0252 316.859 48.0252 317.682 48.0252 318.588ZM52.9664 318.588C53.8517 318.588 54.6752 318.588 55.437 318.588C56.1988 318.588 57.0223 318.588 57.9076 318.588C57.9076 317.682 57.9076 316.859 57.9076 316.118C57.9076 315.376 57.9076 314.553 57.9076 313.647C57.0223 313.647 56.1988 313.647 55.437 313.647C54.6752 313.647 53.8517 313.647 52.9664 313.647C52.9664 314.553 52.9664 315.376 52.9664 316.118C52.9664 316.859 52.9664 317.682 52.9664 318.588ZM52.9664 318.588C53.8517 318.588 54.6752 318.588 55.437 318.588C56.1988 318.588 57.0223 318.588 57.9076 318.588C57.9076 317.682 57.9076 316.859 57.9076 316.118C57.9076 315.376 57.9076 314.553 57.9076 313.647C57.0223 313.647 56.1988 313.647 55.437 313.647C54.6752 313.647 53.8517 313.647 52.9664 313.647C52.9664 314.553 52.9664 315.376 52.9664 316.118C52.9664 316.859 52.9664 317.682 52.9664 318.588ZM52.9664 318.588C53.8517 318.588 54.6752 318.588 55.437 318.588C56.1988 318.588 57.0223 318.588 57.9076 318.588C57.9076 317.682 57.9076 316.859 57.9076 316.118C57.9076 315.376 57.9076 314.553 57.9076 313.647C57.0223 313.647 56.1988 313.647 55.437 313.647C54.6752 313.647 53.8517 313.647 52.9664 313.647C52.9664 314.553 52.9664 315.376 52.9664 316.118C52.9664 316.859 52.9664 317.682 52.9664 318.588ZM52.9664 318.588C53.8517 318.588 54.6752 318.588 55.437 318.588C56.1988 318.588 57.0223 318.588 57.9076 318.588C57.9076 317.682 57.9076 316.859 57.9076 316.118C57.9076 315.376 57.9076 314.553 57.9076 313.647C57.0223 313.647 56.1988 313.647 55.437 313.647C54.6752 313.647 53.8517 313.647 52.9664 313.647C52.9664 314.553 52.9664 315.376 52.9664 316.118C52.9664 316.859 52.9664 317.682 52.9664 318.588ZM52.9664 318.588C53.8517 318.588 54.6752 318.588 55.437 318.588C56.1988 318.588 57.0223 318.588 57.9076 318.588C57.9076 317.682 57.9076 316.859 57.9076 316.118C57.9076 315.376 57.9076 314.553 57.9076 313.647C57.0223 313.647 56.1988 313.647 55.437 313.647C54.6752 313.647 53.8517 313.647 52.9664 313.647C52.9664 314.553 52.9664 315.376 52.9664 316.118C52.9664 316.859 52.9664 317.682 52.9664 318.588ZM52.9664 318.588C53.8517 318.588 54.6752 318.588 55.437 318.588C56.1988 318.588 57.0223 318.588 57.9076 318.588C57.9076 317.682 57.9076 316.859 57.9076 316.118C57.9076 315.376 57.9076 314.553 57.9076 313.647C57.0223 313.647 56.1988 313.647 55.437 313.647C54.6752 313.647 53.8517 313.647 52.9664 313.647C52.9664 314.553 52.9664 315.376 52.9664 316.118C52.9664 316.859 52.9664 317.682 52.9664 318.588ZM52.9664 318.588C53.8517 318.588 54.6752 318.588 55.437 318.588C56.1988 318.588 57.0223 318.588 57.9076 318.588C57.9076 317.682 57.9076 316.859 57.9076 316.118C57.9076 315.376 57.9076 314.553 57.9076 313.647C57.0223 313.647 56.1988 313.647 55.437 313.647C54.6752 313.647 53.8517 313.647 52.9664 313.647C52.9664 314.553 52.9664 315.376 52.9664 316.118C52.9664 316.859 52.9664 317.682 52.9664 318.588ZM52.9664 318.588C53.8517 318.588 54.6752 318.588 55.437 318.588C56.1988 318.588 57.0223 318.588 57.9076 318.588C57.9076 317.682 57.9076 316.859 57.9076 316.118C57.9076 315.376 57.9076 314.553 57.9076 313.647C57.0223 313.647 56.1988 313.647 55.437 313.647C54.6752 313.647 53.8517 313.647 52.9664 313.647C52.9664 314.553 52.9664 315.376 52.9664 316.118C52.9664 316.859 52.9664 317.682 52.9664 318.588ZM52.9664 318.588C53.8517 318.588 54.6752 318.588 55.437 318.588C56.1988 318.588 57.0223 318.588 57.9076 318.588C57.9076 317.682 57.9076 316.859 57.9076 316.118C57.9076 315.376 57.9076 314.553 57.9076 313.647C57.0223 313.647 56.1988 313.647 55.437 313.647C54.6752 313.647 53.8517 313.647 52.9664 313.647C52.9664 314.553 52.9664 315.376 52.9664 316.118C52.9664 316.859 52.9664 317.682 52.9664 318.588Z" fill="#253764"/>
</svg>
