<svg width="300" height="400" viewBox="0 0 300 400" fill="none" xmlns="http://www.w3.org/2000/svg">
<rect x="5" y="5" width="290" height="390" rx="25" fill="#CFFFCE" stroke="#39794F" stroke-width="10"/>
<path d="M144.5 184L163.5 154.5L159 254L124 246L144.5 184Z" fill="#39794F"/>
<path d="M157 187.5L180 153.5L211.5 266L152.5 252.5L157 187.5Z" fill="#39794F"/>
<path d="M10 218L290 283.515V371C290 382.046 281.046 391 270 391H30C18.9543 391 10 382.046 10 371V218Z" fill="#272E2A"/>
<path d="M30 244.5L243 287L195 310.5L52 299L30 244.5Z" fill="#445F43"/>
<path d="M53.4958 367C54.3811 367 55.2046 367 55.9664 367C56.7282 367 57.5517 367 58.437 367C58.437 366.094 58.437 365.271 58.437 364.529C58.437 363.788 58.437 362.965 58.437 362.059C57.5517 362.059 56.7282 362.059 55.9664 362.059C55.2046 362.059 54.3811 362.059 53.4958 362.059C53.4958 362.965 53.4958 363.788 53.4958 364.529C53.4958 365.271 53.4958 366.094 53.4958 367ZM53.4958 367C54.3811 367 55.2046 367 55.9664 367C56.7282 367 57.5517 367 58.437 367C58.437 366.094 58.437 365.271 58.437 364.529C58.437 363.788 58.437 362.965 58.437 362.059C57.5517 362.059 56.7282 362.059 55.9664 362.059C55.2046 362.059 54.3811 362.059 53.4958 362.059C53.4958 362.965 53.4958 363.788 53.4958 364.529C53.4958 365.271 53.4958 366.094 53.4958 367ZM53.4958 367C54.3811 367 55.2046 367 55.9664 367C56.7282 367 57.5517 367 58.437 367C58.437 366.094 58.437 365.271 58.437 364.529C58.437 363.788 58.437 362.965 58.437 362.059C57.5517 362.059 56.7282 362.059 55.9664 362.059C55.2046 362.059 54.3811 362.059 53.4958 362.059C53.4958 362.965 53.4958 363.788 53.4958 364.529C53.4958 365.271 53.4958 366.094 53.4958 367ZM53.4958 367C54.3811 367 55.2046 367 55.9664 367C56.7282 367 57.5517 367 58.437 367C58.437 366.094 58.437 365.271 58.437 364.529C58.437 363.788 58.437 362.965 58.437 362.059C57.5517 362.059 56.7282 362.059 55.9664 362.059C55.2046 362.059 54.3811 362.059 53.4958 362.059C53.4958 362.965 53.4958 363.788 53.4958 364.529C53.4958 365.271 53.4958 366.094 53.4958 367ZM53.4958 367C54.3811 367 55.2046 367 55.9664 367C56.7282 367 57.5517 367 58.437 367C58.437 366.094 58.437 365.271 58.437 364.529C58.437 363.788 58.437 362.965 58.437 362.059C57.5517 362.059 56.7282 362.059 55.9664 362.059C55.2046 362.059 54.3811 362.059 53.4958 362.059C53.4958 362.965 53.4958 363.788 53.4958 364.529C53.4958 365.271 53.4958 366.094 53.4958 367ZM53.4958 367C54.3811 367 55.2046 367 55.9664 367C56.7282 367 57.5517 367 58.437 367C58.437 366.094 58.437 365.271 58.437 364.529C58.437 363.788 58.437 362.965 58.437 362.059C57.5517 362.059 56.7282 362.059 55.9664 362.059C55.2046 362.059 54.3811 362.059 53.4958 362.059C53.4958 362.965 53.4958 363.788 53.4958 364.529C53.4958 365.271 53.4958 366.094 53.4958 367ZM53.4958 367C54.3811 367 55.2046 367 55.9664 367C56.7282 367 57.5517 367 58.437 367C58.437 366.094 58.437 365.271 58.437 364.529C58.437 363.788 58.437 362.965 58.437 362.059C57.5517 362.059 56.7282 362.059 55.9664 362.059C55.2046 362.059 54.3811 362.059 53.4958 362.059C53.4958 362.965 53.4958 363.788 53.4958 364.529C53.4958 365.271 53.4958 366.094 53.4958 367ZM53.4958 367C54.3811 367 55.2046 367 55.9664 367C56.7282 367 57.5517 367 58.437 367C58.437 366.094 58.437 365.271 58.437 364.529C58.437 363.788 58.437 362.965 58.437 362.059C57.5517 362.059 56.7282 362.059 55.9664 362.059C55.2046 362.059 54.3811 362.059 53.4958 362.059C53.4958 362.965 53.4958 363.788 53.4958 364.529C53.4958 365.271 53.4958 366.094 53.4958 367ZM53.4958 367C54.3811 367 55.2046 367 55.9664 367C56.7282 367 57.5517 367 58.437 367C58.437 366.094 58.437 365.271 58.437 364.529C58.437 363.788 58.437 362.965 58.437 362.059C57.5517 362.059 56.7282 362.059 55.9664 362.059C55.2046 362.059 54.3811 362.059 53.4958 362.059C53.4958 362.965 53.4958 363.788 53.4958 364.529C53.4958 365.271 53.4958 366.094 53.4958 367ZM53.4958 362.059C54.3811 362.059 55.2046 362.059 55.9664 362.059C56.7282 362.059 57.5517 362.059 58.437 362.059C58.437 361.153 58.437 360.329 58.437 359.588C58.437 358.847 58.437 358.024 58.437 357.118C57.5517 357.118 56.7282 357.118 55.9664 357.118C55.2046 357.118 54.3811 357.118 53.4958 357.118C53.4958 358.024 53.4958 358.847 53.4958 359.588C53.4958 360.329 53.4958 361.153 53.4958 362.059ZM53.4958 362.059C54.3811 362.059 55.2046 362.059 55.9664 362.059C56.7282 362.059 57.5517 362.059 58.437 362.059C58.437 361.153 58.437 360.329 58.437 359.588C58.437 358.847 58.437 358.024 58.437 357.118C57.5517 357.118 56.7282 357.118 55.9664 357.118C55.2046 357.118 54.3811 357.118 53.4958 357.118C53.4958 358.024 53.4958 358.847 53.4958 359.588C53.4958 360.329 53.4958 361.153 53.4958 362.059ZM53.4958 362.059C54.3811 362.059 55.2046 362.059 55.9664 362.059C56.7282 362.059 57.5517 362.059 58.437 362.059C58.437 361.153 58.437 360.329 58.437 359.588C58.437 358.847 58.437 358.024 58.437 357.118C57.5517 357.118 56.7282 357.118 55.9664 357.118C55.2046 357.118 54.3811 357.118 53.4958 357.118C53.4958 358.024 53.4958 358.847 53.4958 359.588C53.4958 360.329 53.4958 361.153 53.4958 362.059ZM53.4958 362.059C54.3811 362.059 55.2046 362.059 55.9664 362.059C56.7282 362.059 57.5517 362.059 58.437 362.059C58.437 361.153 58.437 360.329 58.437 359.588C58.437 358.847 58.437 358.024 58.437 357.118C57.5517 357.118 56.7282 357.118 55.9664 357.118C55.2046 357.118 54.3811 357.118 53.4958 357.118C53.4958 358.024 53.4958 358.847 53.4958 359.588C53.4958 360.329 53.4958 361.153 53.4958 362.059ZM53.4958 362.059C54.3811 362.059 55.2046 362.059 55.9664 362.059C56.7282 362.059 57.5517 362.059 58.437 362.059C58.437 361.153 58.437 360.329 58.437 359.588C58.437 358.847 58.437 358.024 58.437 357.118C57.5517 357.118 56.7282 357.118 55.9664 357.118C55.2046 357.118 54.3811 357.118 53.4958 357.118C53.4958 358.024 53.4958 358.847 53.4958 359.588C53.4958 360.329 53.4958 361.153 53.4958 362.059ZM53.4958 362.059C54.3811 362.059 55.2046 362.059 55.9664 362.059C56.7282 362.059 57.5517 362.059 58.437 362.059C58.437 361.153 58.437 360.329 58.437 359.588C58.437 358.847 58.437 358.024 58.437 357.118C57.5517 357.118 56.7282 357.118 55.9664 357.118C55.2046 357.118 54.3811 357.118 53.4958 357.118C53.4958 358.024 53.4958 358.847 53.4958 359.588C53.4958 360.329 53.4958 361.153 53.4958 362.059ZM53.4958 362.059C54.3811 362.059 55.2046 362.059 55.9664 362.059C56.7282 362.059 57.5517 362.059 58.437 362.059C58.437 361.153 58.437 360.329 58.437 359.588C58.437 358.847 58.437 358.024 58.437 357.118C57.5517 357.118 56.7282 357.118 55.9664 357.118C55.2046 357.118 54.3811 357.118 53.4958 357.118C53.4958 358.024 53.4958 358.847 53.4958 359.588C53.4958 360.329 53.4958 361.153 53.4958 362.059ZM53.4958 362.059C54.3811 362.059 55.2046 362.059 55.9664 362.059C56.7282 362.059 57.5517 362.059 58.437 362.059C58.437 361.153 58.437 360.329 58.437 359.588C58.437 358.847 58.437 358.024 58.437 357.118C57.5517 357.118 56.7282 357.118 55.9664 357.118C55.2046 357.118 54.3811 357.118 53.4958 357.118C53.4958 358.024 53.4958 358.847 53.4958 359.588C53.4958 360.329 53.4958 361.153 53.4958 362.059ZM53.4958 362.059C54.3811 362.059 55.2046 362.059 55.9664 362.059C56.7282 362.059 57.5517 362.059 58.437 362.059C58.437 361.153 58.437 360.329 58.437 359.588C58.437 358.847 58.437 358.024 58.437 357.118C57.5517 357.118 56.7282 357.118 55.9664 357.118C55.2046 357.118 54.3811 357.118 53.4958 357.118C53.4958 358.024 53.4958 358.847 53.4958 359.588C53.4958 360.329 53.4958 361.153 53.4958 362.059ZM38.6723 357.118C39.5576 357.118 40.3811 357.118 41.1429 357.118C41.9046 357.118 42.7282 357.118 43.6135 357.118C43.6135 356.212 43.6135 355.388 43.6135 354.647C43.6135 353.906 43.6135 353.082 43.6135 352.176C42.7282 352.176 41.9046 352.176 41.1429 352.176C40.3811 352.176 39.5576 352.176 38.6723 352.176C38.6723 353.082 38.6723 353.906 38.6723 354.647C38.6723 355.388 38.6723 356.212 38.6723 357.118ZM38.6723 357.118C39.5576 357.118 40.3811 357.118 41.1429 357.118C41.9046 357.118 42.7282 357.118 43.6135 357.118C43.6135 356.212 43.6135 355.388 43.6135 354.647C43.6135 353.906 43.6135 353.082 43.6135 352.176C42.7282 352.176 41.9046 352.176 41.1429 352.176C40.3811 352.176 39.5576 352.176 38.6723 352.176C38.6723 353.082 38.6723 353.906 38.6723 354.647C38.6723 355.388 38.6723 356.212 38.6723 357.118ZM38.6723 357.118C39.5576 357.118 40.3811 357.118 41.1429 357.118C41.9046 357.118 42.7282 357.118 43.6135 357.118C43.6135 356.212 43.6135 355.388 43.6135 354.647C43.6135 353.906 43.6135 353.082 43.6135 352.176C42.7282 352.176 41.9046 352.176 41.1429 352.176C40.3811 352.176 39.5576 352.176 38.6723 352.176C38.6723 353.082 38.6723 353.906 38.6723 354.647C38.6723 355.388 38.6723 356.212 38.6723 357.118ZM38.6723 357.118C39.5576 357.118 40.3811 357.118 41.1429 357.118C41.9046 357.118 42.7282 357.118 43.6135 357.118C43.6135 356.212 43.6135 355.388 43.6135 354.647C43.6135 353.906 43.6135 353.082 43.6135 352.176C42.7282 352.176 41.9046 352.176 41.1429 352.176C40.3811 352.176 39.5576 352.176 38.6723 352.176C38.6723 353.082 38.6723 353.906 38.6723 354.647C38.6723 355.388 38.6723 356.212 38.6723 357.118ZM38.6723 357.118C39.5576 357.118 40.3811 357.118 41.1429 357.118C41.9046 357.118 42.7282 357.118 43.6135 357.118C43.6135 356.212 43.6135 355.388 43.6135 354.647C43.6135 353.906 43.6135 353.082 43.6135 352.176C42.7282 352.176 41.9046 352.176 41.1429 352.176C40.3811 352.176 39.5576 352.176 38.6723 352.176C38.6723 353.082 38.6723 353.906 38.6723 354.647C38.6723 355.388 38.6723 356.212 38.6723 357.118ZM38.6723 357.118C39.5576 357.118 40.3811 357.118 41.1429 357.118C41.9046 357.118 42.7282 357.118 43.6135 357.118C43.6135 356.212 43.6135 355.388 43.6135 354.647C43.6135 353.906 43.6135 353.082 43.6135 352.176C42.7282 352.176 41.9046 352.176 41.1429 352.176C40.3811 352.176 39.5576 352.176 38.6723 352.176C38.6723 353.082 38.6723 353.906 38.6723 354.647C38.6723 355.388 38.6723 356.212 38.6723 357.118ZM38.6723 357.118C39.5576 357.118 40.3811 357.118 41.1429 357.118C41.9046 357.118 42.7282 357.118 43.6135 357.118C43.6135 356.212 43.6135 355.388 43.6135 354.647C43.6135 353.906 43.6135 353.082 43.6135 352.176C42.7282 352.176 41.9046 352.176 41.1429 352.176C40.3811 352.176 39.5576 352.176 38.6723 352.176C38.6723 353.082 38.6723 353.906 38.6723 354.647C38.6723 355.388 38.6723 356.212 38.6723 357.118ZM38.6723 357.118C39.5576 357.118 40.3811 357.118 41.1429 357.118C41.9046 357.118 42.7282 357.118 43.6135 357.118C43.6135 356.212 43.6135 355.388 43.6135 354.647C43.6135 353.906 43.6135 353.082 43.6135 352.176C42.7282 352.176 41.9046 352.176 41.1429 352.176C40.3811 352.176 39.5576 352.176 38.6723 352.176C38.6723 353.082 38.6723 353.906 38.6723 354.647C38.6723 355.388 38.6723 356.212 38.6723 357.118ZM38.6723 357.118C39.5576 357.118 40.3811 357.118 41.1429 357.118C41.9046 357.118 42.7282 357.118 43.6135 357.118C43.6135 356.212 43.6135 355.388 43.6135 354.647C43.6135 353.906 43.6135 353.082 43.6135 352.176C42.7282 352.176 41.9046 352.176 41.1429 352.176C40.3811 352.176 39.5576 352.176 38.6723 352.176C38.6723 353.082 38.6723 353.906 38.6723 354.647C38.6723 355.388 38.6723 356.212 38.6723 357.118ZM43.6135 357.118C44.4988 357.118 45.3223 357.118 46.0841 357.118C46.8458 357.118 47.6693 357.118 48.5546 357.118C48.5546 356.212 48.5546 355.388 48.5546 354.647C48.5546 353.906 48.5546 353.082 48.5546 352.176C47.6693 352.176 46.8458 352.176 46.0841 352.176C45.3223 352.176 44.4988 352.176 43.6135 352.176C43.6135 353.082 43.6135 353.906 43.6135 354.647C43.6135 355.388 43.6135 356.212 43.6135 357.118ZM43.6135 357.118C44.4988 357.118 45.3223 357.118 46.0841 357.118C46.8458 357.118 47.6693 357.118 48.5546 357.118C48.5546 356.212 48.5546 355.388 48.5546 354.647C48.5546 353.906 48.5546 353.082 48.5546 352.176C47.6693 352.176 46.8458 352.176 46.0841 352.176C45.3223 352.176 44.4988 352.176 43.6135 352.176C43.6135 353.082 43.6135 353.906 43.6135 354.647C43.6135 355.388 43.6135 356.212 43.6135 357.118ZM43.6135 357.118C44.4988 357.118 45.3223 357.118 46.0841 357.118C46.8458 357.118 47.6693 357.118 48.5546 357.118C48.5546 356.212 48.5546 355.388 48.5546 354.647C48.5546 353.906 48.5546 353.082 48.5546 352.176C47.6693 352.176 46.8458 352.176 46.0841 352.176C45.3223 352.176 44.4988 352.176 43.6135 352.176C43.6135 353.082 43.6135 353.906 43.6135 354.647C43.6135 355.388 43.6135 356.212 43.6135 357.118ZM43.6135 357.118C44.4988 357.118 45.3223 357.118 46.0841 357.118C46.8458 357.118 47.6693 357.118 48.5546 357.118C48.5546 356.212 48.5546 355.388 48.5546 354.647C48.5546 353.906 48.5546 353.082 48.5546 352.176C47.6693 352.176 46.8458 352.176 46.0841 352.176C45.3223 352.176 44.4988 352.176 43.6135 352.176C43.6135 353.082 43.6135 353.906 43.6135 354.647C43.6135 355.388 43.6135 356.212 43.6135 357.118ZM43.6135 357.118C44.4988 357.118 45.3223 357.118 46.0841 357.118C46.8458 357.118 47.6693 357.118 48.5546 357.118C48.5546 356.212 48.5546 355.388 48.5546 354.647C48.5546 353.906 48.5546 353.082 48.5546 352.176C47.6693 352.176 46.8458 352.176 46.0841 352.176C45.3223 352.176 44.4988 352.176 43.6135 352.176C43.6135 353.082 43.6135 353.906 43.6135 354.647C43.6135 355.388 43.6135 356.212 43.6135 357.118ZM43.6135 357.118C44.4988 357.118 45.3223 357.118 46.0841 357.118C46.8458 357.118 47.6693 357.118 48.5546 357.118C48.5546 356.212 48.5546 355.388 48.5546 354.647C48.5546 353.906 48.5546 353.082 48.5546 352.176C47.6693 352.176 46.8458 352.176 46.0841 352.176C45.3223 352.176 44.4988 352.176 43.6135 352.176C43.6135 353.082 43.6135 353.906 43.6135 354.647C43.6135 355.388 43.6135 356.212 43.6135 357.118ZM43.6135 357.118C44.4988 357.118 45.3223 357.118 46.0841 357.118C46.8458 357.118 47.6693 357.118 48.5546 357.118C48.5546 356.212 48.5546 355.388 48.5546 354.647C48.5546 353.906 48.5546 353.082 48.5546 352.176C47.6693 352.176 46.8458 352.176 46.0841 352.176C45.3223 352.176 44.4988 352.176 43.6135 352.176C43.6135 353.082 43.6135 353.906 43.6135 354.647C43.6135 355.388 43.6135 356.212 43.6135 357.118ZM43.6135 357.118C44.4988 357.118 45.3223 357.118 46.0841 357.118C46.8458 357.118 47.6693 357.118 48.5546 357.118C48.5546 356.212 48.5546 355.388 48.5546 354.647C48.5546 353.906 48.5546 353.082 48.5546 352.176C47.6693 352.176 46.8458 352.176 46.0841 352.176C45.3223 352.176 44.4988 352.176 43.6135 352.176C43.6135 353.082 43.6135 353.906 43.6135 354.647C43.6135 355.388 43.6135 356.212 43.6135 357.118ZM43.6135 357.118C44.4988 357.118 45.3223 357.118 46.0841 357.118C46.8458 357.118 47.6693 357.118 48.5546 357.118C48.5546 356.212 48.5546 355.388 48.5546 354.647C48.5546 353.906 48.5546 353.082 48.5546 352.176C47.6693 352.176 46.8458 352.176 46.0841 352.176C45.3223 352.176 44.4988 352.176 43.6135 352.176C43.6135 353.082 43.6135 353.906 43.6135 354.647C43.6135 355.388 43.6135 356.212 43.6135 357.118ZM48.5546 357.118C49.4399 357.118 50.2635 357.118 51.0252 357.118C51.787 357.118 52.6105 357.118 53.4958 357.118C53.4958 356.212 53.4958 355.388 53.4958 354.647C53.4958 353.906 53.4958 353.082 53.4958 352.176C52.6105 352.176 51.787 352.176 51.0252 352.176C50.2635 352.176 49.4399 352.176 48.5546 352.176C48.5546 353.082 48.5546 353.906 48.5546 354.647C48.5546 355.388 48.5546 356.212 48.5546 357.118ZM48.5546 357.118C49.4399 357.118 50.2635 357.118 51.0252 357.118C51.787 357.118 52.6105 357.118 53.4958 357.118C53.4958 356.212 53.4958 355.388 53.4958 354.647C53.4958 353.906 53.4958 353.082 53.4958 352.176C52.6105 352.176 51.787 352.176 51.0252 352.176C50.2635 352.176 49.4399 352.176 48.5546 352.176C48.5546 353.082 48.5546 353.906 48.5546 354.647C48.5546 355.388 48.5546 356.212 48.5546 357.118ZM48.5546 357.118C49.4399 357.118 50.2635 357.118 51.0252 357.118C51.787 357.118 52.6105 357.118 53.4958 357.118C53.4958 356.212 53.4958 355.388 53.4958 354.647C53.4958 353.906 53.4958 353.082 53.4958 352.176C52.6105 352.176 51.787 352.176 51.0252 352.176C50.2635 352.176 49.4399 352.176 48.5546 352.176C48.5546 353.082 48.5546 353.906 48.5546 354.647C48.5546 355.388 48.5546 356.212 48.5546 357.118ZM48.5546 357.118C49.4399 357.118 50.2635 357.118 51.0252 357.118C51.787 357.118 52.6105 357.118 53.4958 357.118C53.4958 356.212 53.4958 355.388 53.4958 354.647C53.4958 353.906 53.4958 353.082 53.4958 352.176C52.6105 352.176 51.787 352.176 51.0252 352.176C50.2635 352.176 49.4399 352.176 48.5546 352.176C48.5546 353.082 48.5546 353.906 48.5546 354.647C48.5546 355.388 48.5546 356.212 48.5546 357.118ZM48.5546 357.118C49.4399 357.118 50.2635 357.118 51.0252 357.118C51.787 357.118 52.6105 357.118 53.4958 357.118C53.4958 356.212 53.4958 355.388 53.4958 354.647C53.4958 353.906 53.4958 353.082 53.4958 352.176C52.6105 352.176 51.787 352.176 51.0252 352.176C50.2635 352.176 49.4399 352.176 48.5546 352.176C48.5546 353.082 48.5546 353.906 48.5546 354.647C48.5546 355.388 48.5546 356.212 48.5546 357.118ZM48.5546 357.118C49.4399 357.118 50.2635 357.118 51.0252 357.118C51.787 357.118 52.6105 357.118 53.4958 357.118C53.4958 356.212 53.4958 355.388 53.4958 354.647C53.4958 353.906 53.4958 353.082 53.4958 352.176C52.6105 352.176 51.787 352.176 51.0252 352.176C50.2635 352.176 49.4399 352.176 48.5546 352.176C48.5546 353.082 48.5546 353.906 48.5546 354.647C48.5546 355.388 48.5546 356.212 48.5546 357.118ZM48.5546 357.118C49.4399 357.118 50.2635 357.118 51.0252 357.118C51.787 357.118 52.6105 357.118 53.4958 357.118C53.4958 356.212 53.4958 355.388 53.4958 354.647C53.4958 353.906 53.4958 353.082 53.4958 352.176C52.6105 352.176 51.787 352.176 51.0252 352.176C50.2635 352.176 49.4399 352.176 48.5546 352.176C48.5546 353.082 48.5546 353.906 48.5546 354.647C48.5546 355.388 48.5546 356.212 48.5546 357.118ZM48.5546 357.118C49.4399 357.118 50.2635 357.118 51.0252 357.118C51.787 357.118 52.6105 357.118 53.4958 357.118C53.4958 356.212 53.4958 355.388 53.4958 354.647C53.4958 353.906 53.4958 353.082 53.4958 352.176C52.6105 352.176 51.787 352.176 51.0252 352.176C50.2635 352.176 49.4399 352.176 48.5546 352.176C48.5546 353.082 48.5546 353.906 48.5546 354.647C48.5546 355.388 48.5546 356.212 48.5546 357.118ZM48.5546 357.118C49.4399 357.118 50.2635 357.118 51.0252 357.118C51.787 357.118 52.6105 357.118 53.4958 357.118C53.4958 356.212 53.4958 355.388 53.4958 354.647C53.4958 353.906 53.4958 353.082 53.4958 352.176C52.6105 352.176 51.787 352.176 51.0252 352.176C50.2635 352.176 49.4399 352.176 48.5546 352.176C48.5546 353.082 48.5546 353.906 48.5546 354.647C48.5546 355.388 48.5546 356.212 48.5546 357.118ZM53.4958 357.118C54.3811 357.118 55.2046 357.118 55.9664 357.118C56.7282 357.118 57.5517 357.118 58.437 357.118C58.437 356.212 58.437 355.388 58.437 354.647C58.437 353.906 58.437 353.082 58.437 352.176C57.5517 352.176 56.7282 352.176 55.9664 352.176C55.2046 352.176 54.3811 352.176 53.4958 352.176C53.4958 353.082 53.4958 353.906 53.4958 354.647C53.4958 355.388 53.4958 356.212 53.4958 357.118ZM53.4958 357.118C54.3811 357.118 55.2046 357.118 55.9664 357.118C56.7282 357.118 57.5517 357.118 58.437 357.118C58.437 356.212 58.437 355.388 58.437 354.647C58.437 353.906 58.437 353.082 58.437 352.176C57.5517 352.176 56.7282 352.176 55.9664 352.176C55.2046 352.176 54.3811 352.176 53.4958 352.176C53.4958 353.082 53.4958 353.906 53.4958 354.647C53.4958 355.388 53.4958 356.212 53.4958 357.118ZM53.4958 357.118C54.3811 357.118 55.2046 357.118 55.9664 357.118C56.7282 357.118 57.5517 357.118 58.437 357.118C58.437 356.212 58.437 355.388 58.437 354.647C58.437 353.906 58.437 353.082 58.437 352.176C57.5517 352.176 56.7282 352.176 55.9664 352.176C55.2046 352.176 54.3811 352.176 53.4958 352.176C53.4958 353.082 53.4958 353.906 53.4958 354.647C53.4958 355.388 53.4958 356.212 53.4958 357.118ZM53.4958 357.118C54.3811 357.118 55.2046 357.118 55.9664 357.118C56.7282 357.118 57.5517 357.118 58.437 357.118C58.437 356.212 58.437 355.388 58.437 354.647C58.437 353.906 58.437 353.082 58.437 352.176C57.5517 352.176 56.7282 352.176 55.9664 352.176C55.2046 352.176 54.3811 352.176 53.4958 352.176C53.4958 353.082 53.4958 353.906 53.4958 354.647C53.4958 355.388 53.4958 356.212 53.4958 357.118ZM53.4958 357.118C54.3811 357.118 55.2046 357.118 55.9664 357.118C56.7282 357.118 57.5517 357.118 58.437 357.118C58.437 356.212 58.437 355.388 58.437 354.647C58.437 353.906 58.437 353.082 58.437 352.176C57.5517 352.176 56.7282 352.176 55.9664 352.176C55.2046 352.176 54.3811 352.176 53.4958 352.176C53.4958 353.082 53.4958 353.906 53.4958 354.647C53.4958 355.388 53.4958 356.212 53.4958 357.118ZM53.4958 357.118C54.3811 357.118 55.2046 357.118 55.9664 357.118C56.7282 357.118 57.5517 357.118 58.437 357.118C58.437 356.212 58.437 355.388 58.437 354.647C58.437 353.906 58.437 353.082 58.437 352.176C57.5517 352.176 56.7282 352.176 55.9664 352.176C55.2046 352.176 54.3811 352.176 53.4958 352.176C53.4958 353.082 53.4958 353.906 53.4958 354.647C53.4958 355.388 53.4958 356.212 53.4958 357.118ZM53.4958 357.118C54.3811 357.118 55.2046 357.118 55.9664 357.118C56.7282 357.118 57.5517 357.118 58.437 357.118C58.437 356.212 58.437 355.388 58.437 354.647C58.437 353.906 58.437 353.082 58.437 352.176C57.5517 352.176 56.7282 352.176 55.9664 352.176C55.2046 352.176 54.3811 352.176 53.4958 352.176C53.4958 353.082 53.4958 353.906 53.4958 354.647C53.4958 355.388 53.4958 356.212 53.4958 357.118ZM53.4958 357.118C54.3811 357.118 55.2046 357.118 55.9664 357.118C56.7282 357.118 57.5517 357.118 58.437 357.118C58.437 356.212 58.437 355.388 58.437 354.647C58.437 353.906 58.437 353.082 58.437 352.176C57.5517 352.176 56.7282 352.176 55.9664 352.176C55.2046 352.176 54.3811 352.176 53.4958 352.176C53.4958 353.082 53.4958 353.906 53.4958 354.647C53.4958 355.388 53.4958 356.212 53.4958 357.118ZM53.4958 357.118C54.3811 357.118 55.2046 357.118 55.9664 357.118C56.7282 357.118 57.5517 357.118 58.437 357.118C58.437 356.212 58.437 355.388 58.437 354.647C58.437 353.906 58.437 353.082 58.437 352.176C57.5517 352.176 56.7282 352.176 55.9664 352.176C55.2046 352.176 54.3811 352.176 53.4958 352.176C53.4958 353.082 53.4958 353.906 53.4958 354.647C53.4958 355.388 53.4958 356.212 53.4958 357.118ZM58.437 357.118C59.3223 357.118 60.1458 357.118 60.9076 357.118C61.6693 357.118 62.4929 357.118 63.3782 357.118C63.3782 356.212 63.3782 355.388 63.3782 354.647C63.3782 353.906 63.3782 353.082 63.3782 352.176C62.4929 352.176 61.6693 352.176 60.9076 352.176C60.1458 352.176 59.3223 352.176 58.437 352.176C58.437 353.082 58.437 353.906 58.437 354.647C58.437 355.388 58.437 356.212 58.437 357.118ZM58.437 357.118C59.3223 357.118 60.1458 357.118 60.9076 357.118C61.6693 357.118 62.4929 357.118 63.3782 357.118C63.3782 356.212 63.3782 355.388 63.3782 354.647C63.3782 353.906 63.3782 353.082 63.3782 352.176C62.4929 352.176 61.6693 352.176 60.9076 352.176C60.1458 352.176 59.3223 352.176 58.437 352.176C58.437 353.082 58.437 353.906 58.437 354.647C58.437 355.388 58.437 356.212 58.437 357.118ZM58.437 357.118C59.3223 357.118 60.1458 357.118 60.9076 357.118C61.6693 357.118 62.4929 357.118 63.3782 357.118C63.3782 356.212 63.3782 355.388 63.3782 354.647C63.3782 353.906 63.3782 353.082 63.3782 352.176C62.4929 352.176 61.6693 352.176 60.9076 352.176C60.1458 352.176 59.3223 352.176 58.437 352.176C58.437 353.082 58.437 353.906 58.437 354.647C58.437 355.388 58.437 356.212 58.437 357.118ZM58.437 357.118C59.3223 357.118 60.1458 357.118 60.9076 357.118C61.6693 357.118 62.4929 357.118 63.3782 357.118C63.3782 356.212 63.3782 355.388 63.3782 354.647C63.3782 353.906 63.3782 353.082 63.3782 352.176C62.4929 352.176 61.6693 352.176 60.9076 352.176C60.1458 352.176 59.3223 352.176 58.437 352.176C58.437 353.082 58.437 353.906 58.437 354.647C58.437 355.388 58.437 356.212 58.437 357.118ZM58.437 357.118C59.3223 357.118 60.1458 357.118 60.9076 357.118C61.6693 357.118 62.4929 357.118 63.3782 357.118C63.3782 356.212 63.3782 355.388 63.3782 354.647C63.3782 353.906 63.3782 353.082 63.3782 352.176C62.4929 352.176 61.6693 352.176 60.9076 352.176C60.1458 352.176 59.3223 352.176 58.437 352.176C58.437 353.082 58.437 353.906 58.437 354.647C58.437 355.388 58.437 356.212 58.437 357.118ZM58.437 357.118C59.3223 357.118 60.1458 357.118 60.9076 357.118C61.6693 357.118 62.4929 357.118 63.3782 357.118C63.3782 356.212 63.3782 355.388 63.3782 354.647C63.3782 353.906 63.3782 353.082 63.3782 352.176C62.4929 352.176 61.6693 352.176 60.9076 352.176C60.1458 352.176 59.3223 352.176 58.437 352.176C58.437 353.082 58.437 353.906 58.437 354.647C58.437 355.388 58.437 356.212 58.437 357.118ZM58.437 357.118C59.3223 357.118 60.1458 357.118 60.9076 357.118C61.6693 357.118 62.4929 357.118 63.3782 357.118C63.3782 356.212 63.3782 355.388 63.3782 354.647C63.3782 353.906 63.3782 353.082 63.3782 352.176C62.4929 352.176 61.6693 352.176 60.9076 352.176C60.1458 352.176 59.3223 352.176 58.437 352.176C58.437 353.082 58.437 353.906 58.437 354.647C58.437 355.388 58.437 356.212 58.437 357.118ZM58.437 357.118C59.3223 357.118 60.1458 357.118 60.9076 357.118C61.6693 357.118 62.4929 357.118 63.3782 357.118C63.3782 356.212 63.3782 355.388 63.3782 354.647C63.3782 353.906 63.3782 353.082 63.3782 352.176C62.4929 352.176 61.6693 352.176 60.9076 352.176C60.1458 352.176 59.3223 352.176 58.437 352.176C58.437 353.082 58.437 353.906 58.437 354.647C58.437 355.388 58.437 356.212 58.437 357.118ZM58.437 357.118C59.3223 357.118 60.1458 357.118 60.9076 357.118C61.6693 357.118 62.4929 357.118 63.3782 357.118C63.3782 356.212 63.3782 355.388 63.3782 354.647C63.3782 353.906 63.3782 353.082 63.3782 352.176C62.4929 352.176 61.6693 352.176 60.9076 352.176C60.1458 352.176 59.3223 352.176 58.437 352.176C58.437 353.082 58.437 353.906 58.437 354.647C58.437 355.388 58.437 356.212 58.437 357.118ZM63.3782 357.118C64.2635 357.118 65.087 357.118 65.8488 357.118C66.6105 357.118 67.4341 357.118 68.3194 357.118C68.3194 356.212 68.3194 355.388 68.3194 354.647C68.3194 353.906 68.3194 353.082 68.3194 352.176C67.4341 352.176 66.6105 352.176 65.8488 352.176C65.087 352.176 64.2635 352.176 63.3782 352.176C63.3782 353.082 63.3782 353.906 63.3782 354.647C63.3782 355.388 63.3782 356.212 63.3782 357.118ZM63.3782 357.118C64.2635 357.118 65.087 357.118 65.8488 357.118C66.6105 357.118 67.4341 357.118 68.3194 357.118C68.3194 356.212 68.3194 355.388 68.3194 354.647C68.3194 353.906 68.3194 353.082 68.3194 352.176C67.4341 352.176 66.6105 352.176 65.8488 352.176C65.087 352.176 64.2635 352.176 63.3782 352.176C63.3782 353.082 63.3782 353.906 63.3782 354.647C63.3782 355.388 63.3782 356.212 63.3782 357.118ZM63.3782 357.118C64.2635 357.118 65.087 357.118 65.8488 357.118C66.6105 357.118 67.4341 357.118 68.3194 357.118C68.3194 356.212 68.3194 355.388 68.3194 354.647C68.3194 353.906 68.3194 353.082 68.3194 352.176C67.4341 352.176 66.6105 352.176 65.8488 352.176C65.087 352.176 64.2635 352.176 63.3782 352.176C63.3782 353.082 63.3782 353.906 63.3782 354.647C63.3782 355.388 63.3782 356.212 63.3782 357.118ZM63.3782 357.118C64.2635 357.118 65.087 357.118 65.8488 357.118C66.6105 357.118 67.4341 357.118 68.3194 357.118C68.3194 356.212 68.3194 355.388 68.3194 354.647C68.3194 353.906 68.3194 353.082 68.3194 352.176C67.4341 352.176 66.6105 352.176 65.8488 352.176C65.087 352.176 64.2635 352.176 63.3782 352.176C63.3782 353.082 63.3782 353.906 63.3782 354.647C63.3782 355.388 63.3782 356.212 63.3782 357.118ZM63.3782 357.118C64.2635 357.118 65.087 357.118 65.8488 357.118C66.6105 357.118 67.4341 357.118 68.3194 357.118C68.3194 356.212 68.3194 355.388 68.3194 354.647C68.3194 353.906 68.3194 353.082 68.3194 352.176C67.4341 352.176 66.6105 352.176 65.8488 352.176C65.087 352.176 64.2635 352.176 63.3782 352.176C63.3782 353.082 63.3782 353.906 63.3782 354.647C63.3782 355.388 63.3782 356.212 63.3782 357.118ZM63.3782 357.118C64.2635 357.118 65.087 357.118 65.8488 357.118C66.6105 357.118 67.4341 357.118 68.3194 357.118C68.3194 356.212 68.3194 355.388 68.3194 354.647C68.3194 353.906 68.3194 353.082 68.3194 352.176C67.4341 352.176 66.6105 352.176 65.8488 352.176C65.087 352.176 64.2635 352.176 63.3782 352.176C63.3782 353.082 63.3782 353.906 63.3782 354.647C63.3782 355.388 63.3782 356.212 63.3782 357.118ZM63.3782 357.118C64.2635 357.118 65.087 357.118 65.8488 357.118C66.6105 357.118 67.4341 357.118 68.3194 357.118C68.3194 356.212 68.3194 355.388 68.3194 354.647C68.3194 353.906 68.3194 353.082 68.3194 352.176C67.4341 352.176 66.6105 352.176 65.8488 352.176C65.087 352.176 64.2635 352.176 63.3782 352.176C63.3782 353.082 63.3782 353.906 63.3782 354.647C63.3782 355.388 63.3782 356.212 63.3782 357.118ZM63.3782 357.118C64.2635 357.118 65.087 357.118 65.8488 357.118C66.6105 357.118 67.4341 357.118 68.3194 357.118C68.3194 356.212 68.3194 355.388 68.3194 354.647C68.3194 353.906 68.3194 353.082 68.3194 352.176C67.4341 352.176 66.6105 352.176 65.8488 352.176C65.087 352.176 64.2635 352.176 63.3782 352.176C63.3782 353.082 63.3782 353.906 63.3782 354.647C63.3782 355.388 63.3782 356.212 63.3782 357.118ZM63.3782 357.118C64.2635 357.118 65.087 357.118 65.8488 357.118C66.6105 357.118 67.4341 357.118 68.3194 357.118C68.3194 356.212 68.3194 355.388 68.3194 354.647C68.3194 353.906 68.3194 353.082 68.3194 352.176C67.4341 352.176 66.6105 352.176 65.8488 352.176C65.087 352.176 64.2635 352.176 63.3782 352.176C63.3782 353.082 63.3782 353.906 63.3782 354.647C63.3782 355.388 63.3782 356.212 63.3782 357.118ZM38.6723 352.176C39.5576 352.176 40.3811 352.176 41.1429 352.176C41.9046 352.176 42.7282 352.176 43.6135 352.176C43.6135 351.271 43.6135 350.447 43.6135 349.706C43.6135 348.965 43.6135 348.141 43.6135 347.235C42.7282 347.235 41.9046 347.235 41.1429 347.235C40.3811 347.235 39.5576 347.235 38.6723 347.235C38.6723 348.141 38.6723 348.965 38.6723 349.706C38.6723 350.447 38.6723 351.271 38.6723 352.176ZM38.6723 352.176C39.5576 352.176 40.3811 352.176 41.1429 352.176C41.9046 352.176 42.7282 352.176 43.6135 352.176C43.6135 351.271 43.6135 350.447 43.6135 349.706C43.6135 348.965 43.6135 348.141 43.6135 347.235C42.7282 347.235 41.9046 347.235 41.1429 347.235C40.3811 347.235 39.5576 347.235 38.6723 347.235C38.6723 348.141 38.6723 348.965 38.6723 349.706C38.6723 350.447 38.6723 351.271 38.6723 352.176ZM38.6723 352.176C39.5576 352.176 40.3811 352.176 41.1429 352.176C41.9046 352.176 42.7282 352.176 43.6135 352.176C43.6135 351.271 43.6135 350.447 43.6135 349.706C43.6135 348.965 43.6135 348.141 43.6135 347.235C42.7282 347.235 41.9046 347.235 41.1429 347.235C40.3811 347.235 39.5576 347.235 38.6723 347.235C38.6723 348.141 38.6723 348.965 38.6723 349.706C38.6723 350.447 38.6723 351.271 38.6723 352.176ZM38.6723 352.176C39.5576 352.176 40.3811 352.176 41.1429 352.176C41.9046 352.176 42.7282 352.176 43.6135 352.176C43.6135 351.271 43.6135 350.447 43.6135 349.706C43.6135 348.965 43.6135 348.141 43.6135 347.235C42.7282 347.235 41.9046 347.235 41.1429 347.235C40.3811 347.235 39.5576 347.235 38.6723 347.235C38.6723 348.141 38.6723 348.965 38.6723 349.706C38.6723 350.447 38.6723 351.271 38.6723 352.176ZM38.6723 352.176C39.5576 352.176 40.3811 352.176 41.1429 352.176C41.9046 352.176 42.7282 352.176 43.6135 352.176C43.6135 351.271 43.6135 350.447 43.6135 349.706C43.6135 348.965 43.6135 348.141 43.6135 347.235C42.7282 347.235 41.9046 347.235 41.1429 347.235C40.3811 347.235 39.5576 347.235 38.6723 347.235C38.6723 348.141 38.6723 348.965 38.6723 349.706C38.6723 350.447 38.6723 351.271 38.6723 352.176ZM38.6723 352.176C39.5576 352.176 40.3811 352.176 41.1429 352.176C41.9046 352.176 42.7282 352.176 43.6135 352.176C43.6135 351.271 43.6135 350.447 43.6135 349.706C43.6135 348.965 43.6135 348.141 43.6135 347.235C42.7282 347.235 41.9046 347.235 41.1429 347.235C40.3811 347.235 39.5576 347.235 38.6723 347.235C38.6723 348.141 38.6723 348.965 38.6723 349.706C38.6723 350.447 38.6723 351.271 38.6723 352.176ZM38.6723 352.176C39.5576 352.176 40.3811 352.176 41.1429 352.176C41.9046 352.176 42.7282 352.176 43.6135 352.176C43.6135 351.271 43.6135 350.447 43.6135 349.706C43.6135 348.965 43.6135 348.141 43.6135 347.235C42.7282 347.235 41.9046 347.235 41.1429 347.235C40.3811 347.235 39.5576 347.235 38.6723 347.235C38.6723 348.141 38.6723 348.965 38.6723 349.706C38.6723 350.447 38.6723 351.271 38.6723 352.176ZM38.6723 352.176C39.5576 352.176 40.3811 352.176 41.1429 352.176C41.9046 352.176 42.7282 352.176 43.6135 352.176C43.6135 351.271 43.6135 350.447 43.6135 349.706C43.6135 348.965 43.6135 348.141 43.6135 347.235C42.7282 347.235 41.9046 347.235 41.1429 347.235C40.3811 347.235 39.5576 347.235 38.6723 347.235C38.6723 348.141 38.6723 348.965 38.6723 349.706C38.6723 350.447 38.6723 351.271 38.6723 352.176ZM38.6723 352.176C39.5576 352.176 40.3811 352.176 41.1429 352.176C41.9046 352.176 42.7282 352.176 43.6135 352.176C43.6135 351.271 43.6135 350.447 43.6135 349.706C43.6135 348.965 43.6135 348.141 43.6135 347.235C42.7282 347.235 41.9046 347.235 41.1429 347.235C40.3811 347.235 39.5576 347.235 38.6723 347.235C38.6723 348.141 38.6723 348.965 38.6723 349.706C38.6723 350.447 38.6723 351.271 38.6723 352.176ZM53.4958 352.176C54.3811 352.176 55.2046 352.176 55.9664 352.176C56.7282 352.176 57.5517 352.176 58.437 352.176C58.437 351.271 58.437 350.447 58.437 349.706C58.437 348.965 58.437 348.141 58.437 347.235C57.5517 347.235 56.7282 347.235 55.9664 347.235C55.2046 347.235 54.3811 347.235 53.4958 347.235C53.4958 348.141 53.4958 348.965 53.4958 349.706C53.4958 350.447 53.4958 351.271 53.4958 352.176ZM53.4958 352.176C54.3811 352.176 55.2046 352.176 55.9664 352.176C56.7282 352.176 57.5517 352.176 58.437 352.176C58.437 351.271 58.437 350.447 58.437 349.706C58.437 348.965 58.437 348.141 58.437 347.235C57.5517 347.235 56.7282 347.235 55.9664 347.235C55.2046 347.235 54.3811 347.235 53.4958 347.235C53.4958 348.141 53.4958 348.965 53.4958 349.706C53.4958 350.447 53.4958 351.271 53.4958 352.176ZM53.4958 352.176C54.3811 352.176 55.2046 352.176 55.9664 352.176C56.7282 352.176 57.5517 352.176 58.437 352.176C58.437 351.271 58.437 350.447 58.437 349.706C58.437 348.965 58.437 348.141 58.437 347.235C57.5517 347.235 56.7282 347.235 55.9664 347.235C55.2046 347.235 54.3811 347.235 53.4958 347.235C53.4958 348.141 53.4958 348.965 53.4958 349.706C53.4958 350.447 53.4958 351.271 53.4958 352.176ZM53.4958 352.176C54.3811 352.176 55.2046 352.176 55.9664 352.176C56.7282 352.176 57.5517 352.176 58.437 352.176C58.437 351.271 58.437 350.447 58.437 349.706C58.437 348.965 58.437 348.141 58.437 347.235C57.5517 347.235 56.7282 347.235 55.9664 347.235C55.2046 347.235 54.3811 347.235 53.4958 347.235C53.4958 348.141 53.4958 348.965 53.4958 349.706C53.4958 350.447 53.4958 351.271 53.4958 352.176ZM53.4958 352.176C54.3811 352.176 55.2046 352.176 55.9664 352.176C56.7282 352.176 57.5517 352.176 58.437 352.176C58.437 351.271 58.437 350.447 58.437 349.706C58.437 348.965 58.437 348.141 58.437 347.235C57.5517 347.235 56.7282 347.235 55.9664 347.235C55.2046 347.235 54.3811 347.235 53.4958 347.235C53.4958 348.141 53.4958 348.965 53.4958 349.706C53.4958 350.447 53.4958 351.271 53.4958 352.176ZM53.4958 352.176C54.3811 352.176 55.2046 352.176 55.9664 352.176C56.7282 352.176 57.5517 352.176 58.437 352.176C58.437 351.271 58.437 350.447 58.437 349.706C58.437 348.965 58.437 348.141 58.437 347.235C57.5517 347.235 56.7282 347.235 55.9664 347.235C55.2046 347.235 54.3811 347.235 53.4958 347.235C53.4958 348.141 53.4958 348.965 53.4958 349.706C53.4958 350.447 53.4958 351.271 53.4958 352.176ZM53.4958 352.176C54.3811 352.176 55.2046 352.176 55.9664 352.176C56.7282 352.176 57.5517 352.176 58.437 352.176C58.437 351.271 58.437 350.447 58.437 349.706C58.437 348.965 58.437 348.141 58.437 347.235C57.5517 347.235 56.7282 347.235 55.9664 347.235C55.2046 347.235 54.3811 347.235 53.4958 347.235C53.4958 348.141 53.4958 348.965 53.4958 349.706C53.4958 350.447 53.4958 351.271 53.4958 352.176ZM53.4958 352.176C54.3811 352.176 55.2046 352.176 55.9664 352.176C56.7282 352.176 57.5517 352.176 58.437 352.176C58.437 351.271 58.437 350.447 58.437 349.706C58.437 348.965 58.437 348.141 58.437 347.235C57.5517 347.235 56.7282 347.235 55.9664 347.235C55.2046 347.235 54.3811 347.235 53.4958 347.235C53.4958 348.141 53.4958 348.965 53.4958 349.706C53.4958 350.447 53.4958 351.271 53.4958 352.176ZM53.4958 352.176C54.3811 352.176 55.2046 352.176 55.9664 352.176C56.7282 352.176 57.5517 352.176 58.437 352.176C58.437 351.271 58.437 350.447 58.437 349.706C58.437 348.965 58.437 348.141 58.437 347.235C57.5517 347.235 56.7282 347.235 55.9664 347.235C55.2046 347.235 54.3811 347.235 53.4958 347.235C53.4958 348.141 53.4958 348.965 53.4958 349.706C53.4958 350.447 53.4958 351.271 53.4958 352.176ZM38.6723 347.235C39.5576 347.235 40.3811 347.235 41.1429 347.235C41.9046 347.235 42.7282 347.235 43.6135 347.235C43.6135 346.329 43.6135 345.506 43.6135 344.765C43.6135 344.024 43.6135 343.2 43.6135 342.294C42.7282 342.294 41.9046 342.294 41.1429 342.294C40.3811 342.294 39.5576 342.294 38.6723 342.294C38.6723 343.2 38.6723 344.024 38.6723 344.765C38.6723 345.506 38.6723 346.329 38.6723 347.235ZM38.6723 347.235C39.5576 347.235 40.3811 347.235 41.1429 347.235C41.9046 347.235 42.7282 347.235 43.6135 347.235C43.6135 346.329 43.6135 345.506 43.6135 344.765C43.6135 344.024 43.6135 343.2 43.6135 342.294C42.7282 342.294 41.9046 342.294 41.1429 342.294C40.3811 342.294 39.5576 342.294 38.6723 342.294C38.6723 343.2 38.6723 344.024 38.6723 344.765C38.6723 345.506 38.6723 346.329 38.6723 347.235ZM38.6723 347.235C39.5576 347.235 40.3811 347.235 41.1429 347.235C41.9046 347.235 42.7282 347.235 43.6135 347.235C43.6135 346.329 43.6135 345.506 43.6135 344.765C43.6135 344.024 43.6135 343.2 43.6135 342.294C42.7282 342.294 41.9046 342.294 41.1429 342.294C40.3811 342.294 39.5576 342.294 38.6723 342.294C38.6723 343.2 38.6723 344.024 38.6723 344.765C38.6723 345.506 38.6723 346.329 38.6723 347.235ZM38.6723 347.235C39.5576 347.235 40.3811 347.235 41.1429 347.235C41.9046 347.235 42.7282 347.235 43.6135 347.235C43.6135 346.329 43.6135 345.506 43.6135 344.765C43.6135 344.024 43.6135 343.2 43.6135 342.294C42.7282 342.294 41.9046 342.294 41.1429 342.294C40.3811 342.294 39.5576 342.294 38.6723 342.294C38.6723 343.2 38.6723 344.024 38.6723 344.765C38.6723 345.506 38.6723 346.329 38.6723 347.235ZM38.6723 347.235C39.5576 347.235 40.3811 347.235 41.1429 347.235C41.9046 347.235 42.7282 347.235 43.6135 347.235C43.6135 346.329 43.6135 345.506 43.6135 344.765C43.6135 344.024 43.6135 343.2 43.6135 342.294C42.7282 342.294 41.9046 342.294 41.1429 342.294C40.3811 342.294 39.5576 342.294 38.6723 342.294C38.6723 343.2 38.6723 344.024 38.6723 344.765C38.6723 345.506 38.6723 346.329 38.6723 347.235ZM38.6723 347.235C39.5576 347.235 40.3811 347.235 41.1429 347.235C41.9046 347.235 42.7282 347.235 43.6135 347.235C43.6135 346.329 43.6135 345.506 43.6135 344.765C43.6135 344.024 43.6135 343.2 43.6135 342.294C42.7282 342.294 41.9046 342.294 41.1429 342.294C40.3811 342.294 39.5576 342.294 38.6723 342.294C38.6723 343.2 38.6723 344.024 38.6723 344.765C38.6723 345.506 38.6723 346.329 38.6723 347.235ZM38.6723 347.235C39.5576 347.235 40.3811 347.235 41.1429 347.235C41.9046 347.235 42.7282 347.235 43.6135 347.235C43.6135 346.329 43.6135 345.506 43.6135 344.765C43.6135 344.024 43.6135 343.2 43.6135 342.294C42.7282 342.294 41.9046 342.294 41.1429 342.294C40.3811 342.294 39.5576 342.294 38.6723 342.294C38.6723 343.2 38.6723 344.024 38.6723 344.765C38.6723 345.506 38.6723 346.329 38.6723 347.235ZM38.6723 347.235C39.5576 347.235 40.3811 347.235 41.1429 347.235C41.9046 347.235 42.7282 347.235 43.6135 347.235C43.6135 346.329 43.6135 345.506 43.6135 344.765C43.6135 344.024 43.6135 343.2 43.6135 342.294C42.7282 342.294 41.9046 342.294 41.1429 342.294C40.3811 342.294 39.5576 342.294 38.6723 342.294C38.6723 343.2 38.6723 344.024 38.6723 344.765C38.6723 345.506 38.6723 346.329 38.6723 347.235ZM38.6723 347.235C39.5576 347.235 40.3811 347.235 41.1429 347.235C41.9046 347.235 42.7282 347.235 43.6135 347.235C43.6135 346.329 43.6135 345.506 43.6135 344.765C43.6135 344.024 43.6135 343.2 43.6135 342.294C42.7282 342.294 41.9046 342.294 41.1429 342.294C40.3811 342.294 39.5576 342.294 38.6723 342.294C38.6723 343.2 38.6723 344.024 38.6723 344.765C38.6723 345.506 38.6723 346.329 38.6723 347.235ZM53.4958 347.235C54.3811 347.235 55.2046 347.235 55.9664 347.235C56.7282 347.235 57.5517 347.235 58.437 347.235C58.437 346.329 58.437 345.506 58.437 344.765C58.437 344.024 58.437 343.2 58.437 342.294C57.5517 342.294 56.7282 342.294 55.9664 342.294C55.2046 342.294 54.3811 342.294 53.4958 342.294C53.4958 343.2 53.4958 344.024 53.4958 344.765C53.4958 345.506 53.4958 346.329 53.4958 347.235ZM53.4958 347.235C54.3811 347.235 55.2046 347.235 55.9664 347.235C56.7282 347.235 57.5517 347.235 58.437 347.235C58.437 346.329 58.437 345.506 58.437 344.765C58.437 344.024 58.437 343.2 58.437 342.294C57.5517 342.294 56.7282 342.294 55.9664 342.294C55.2046 342.294 54.3811 342.294 53.4958 342.294C53.4958 343.2 53.4958 344.024 53.4958 344.765C53.4958 345.506 53.4958 346.329 53.4958 347.235ZM53.4958 347.235C54.3811 347.235 55.2046 347.235 55.9664 347.235C56.7282 347.235 57.5517 347.235 58.437 347.235C58.437 346.329 58.437 345.506 58.437 344.765C58.437 344.024 58.437 343.2 58.437 342.294C57.5517 342.294 56.7282 342.294 55.9664 342.294C55.2046 342.294 54.3811 342.294 53.4958 342.294C53.4958 343.2 53.4958 344.024 53.4958 344.765C53.4958 345.506 53.4958 346.329 53.4958 347.235ZM53.4958 347.235C54.3811 347.235 55.2046 347.235 55.9664 347.235C56.7282 347.235 57.5517 347.235 58.437 347.235C58.437 346.329 58.437 345.506 58.437 344.765C58.437 344.024 58.437 343.2 58.437 342.294C57.5517 342.294 56.7282 342.294 55.9664 342.294C55.2046 342.294 54.3811 342.294 53.4958 342.294C53.4958 343.2 53.4958 344.024 53.4958 344.765C53.4958 345.506 53.4958 346.329 53.4958 347.235ZM53.4958 347.235C54.3811 347.235 55.2046 347.235 55.9664 347.235C56.7282 347.235 57.5517 347.235 58.437 347.235C58.437 346.329 58.437 345.506 58.437 344.765C58.437 344.024 58.437 343.2 58.437 342.294C57.5517 342.294 56.7282 342.294 55.9664 342.294C55.2046 342.294 54.3811 342.294 53.4958 342.294C53.4958 343.2 53.4958 344.024 53.4958 344.765C53.4958 345.506 53.4958 346.329 53.4958 347.235ZM53.4958 347.235C54.3811 347.235 55.2046 347.235 55.9664 347.235C56.7282 347.235 57.5517 347.235 58.437 347.235C58.437 346.329 58.437 345.506 58.437 344.765C58.437 344.024 58.437 343.2 58.437 342.294C57.5517 342.294 56.7282 342.294 55.9664 342.294C55.2046 342.294 54.3811 342.294 53.4958 342.294C53.4958 343.2 53.4958 344.024 53.4958 344.765C53.4958 345.506 53.4958 346.329 53.4958 347.235ZM53.4958 347.235C54.3811 347.235 55.2046 347.235 55.9664 347.235C56.7282 347.235 57.5517 347.235 58.437 347.235C58.437 346.329 58.437 345.506 58.437 344.765C58.437 344.024 58.437 343.2 58.437 342.294C57.5517 342.294 56.7282 342.294 55.9664 342.294C55.2046 342.294 54.3811 342.294 53.4958 342.294C53.4958 343.2 53.4958 344.024 53.4958 344.765C53.4958 345.506 53.4958 346.329 53.4958 347.235ZM53.4958 347.235C54.3811 347.235 55.2046 347.235 55.9664 347.235C56.7282 347.235 57.5517 347.235 58.437 347.235C58.437 346.329 58.437 345.506 58.437 344.765C58.437 344.024 58.437 343.2 58.437 342.294C57.5517 342.294 56.7282 342.294 55.9664 342.294C55.2046 342.294 54.3811 342.294 53.4958 342.294C53.4958 343.2 53.4958 344.024 53.4958 344.765C53.4958 345.506 53.4958 346.329 53.4958 347.235ZM53.4958 347.235C54.3811 347.235 55.2046 347.235 55.9664 347.235C56.7282 347.235 57.5517 347.235 58.437 347.235C58.437 346.329 58.437 345.506 58.437 344.765C58.437 344.024 58.437 343.2 58.437 342.294C57.5517 342.294 56.7282 342.294 55.9664 342.294C55.2046 342.294 54.3811 342.294 53.4958 342.294C53.4958 343.2 53.4958 344.024 53.4958 344.765C53.4958 345.506 53.4958 346.329 53.4958 347.235ZM41.1429 342.294C42.0282 342.294 42.8517 342.294 43.6135 342.294C44.3752 342.294 45.1988 342.294 46.0841 342.294C46.0841 341.388 46.0841 340.565 46.0841 339.824C46.0841 339.082 46.0841 338.259 46.0841 337.353C45.1988 337.353 44.3752 337.353 43.6135 337.353C42.8517 337.353 42.0282 337.353 41.1429 337.353C41.1429 338.259 41.1429 339.082 41.1429 339.824C41.1429 340.565 41.1429 341.388 41.1429 342.294ZM41.1429 342.294C42.0282 342.294 42.8517 342.294 43.6135 342.294C44.3752 342.294 45.1988 342.294 46.0841 342.294C46.0841 341.388 46.0841 340.565 46.0841 339.824C46.0841 339.082 46.0841 338.259 46.0841 337.353C45.1988 337.353 44.3752 337.353 43.6135 337.353C42.8517 337.353 42.0282 337.353 41.1429 337.353C41.1429 338.259 41.1429 339.082 41.1429 339.824C41.1429 340.565 41.1429 341.388 41.1429 342.294ZM41.1429 342.294C42.0282 342.294 42.8517 342.294 43.6135 342.294C44.3752 342.294 45.1988 342.294 46.0841 342.294C46.0841 341.388 46.0841 340.565 46.0841 339.824C46.0841 339.082 46.0841 338.259 46.0841 337.353C45.1988 337.353 44.3752 337.353 43.6135 337.353C42.8517 337.353 42.0282 337.353 41.1429 337.353C41.1429 338.259 41.1429 339.082 41.1429 339.824C41.1429 340.565 41.1429 341.388 41.1429 342.294ZM41.1429 342.294C42.0282 342.294 42.8517 342.294 43.6135 342.294C44.3752 342.294 45.1988 342.294 46.0841 342.294C46.0841 341.388 46.0841 340.565 46.0841 339.824C46.0841 339.082 46.0841 338.259 46.0841 337.353C45.1988 337.353 44.3752 337.353 43.6135 337.353C42.8517 337.353 42.0282 337.353 41.1429 337.353C41.1429 338.259 41.1429 339.082 41.1429 339.824C41.1429 340.565 41.1429 341.388 41.1429 342.294ZM41.1429 342.294C42.0282 342.294 42.8517 342.294 43.6135 342.294C44.3752 342.294 45.1988 342.294 46.0841 342.294C46.0841 341.388 46.0841 340.565 46.0841 339.824C46.0841 339.082 46.0841 338.259 46.0841 337.353C45.1988 337.353 44.3752 337.353 43.6135 337.353C42.8517 337.353 42.0282 337.353 41.1429 337.353C41.1429 338.259 41.1429 339.082 41.1429 339.824C41.1429 340.565 41.1429 341.388 41.1429 342.294ZM41.1429 342.294C42.0282 342.294 42.8517 342.294 43.6135 342.294C44.3752 342.294 45.1988 342.294 46.0841 342.294C46.0841 341.388 46.0841 340.565 46.0841 339.824C46.0841 339.082 46.0841 338.259 46.0841 337.353C45.1988 337.353 44.3752 337.353 43.6135 337.353C42.8517 337.353 42.0282 337.353 41.1429 337.353C41.1429 338.259 41.1429 339.082 41.1429 339.824C41.1429 340.565 41.1429 341.388 41.1429 342.294ZM41.1429 342.294C42.0282 342.294 42.8517 342.294 43.6135 342.294C44.3752 342.294 45.1988 342.294 46.0841 342.294C46.0841 341.388 46.0841 340.565 46.0841 339.824C46.0841 339.082 46.0841 338.259 46.0841 337.353C45.1988 337.353 44.3752 337.353 43.6135 337.353C42.8517 337.353 42.0282 337.353 41.1429 337.353C41.1429 338.259 41.1429 339.082 41.1429 339.824C41.1429 340.565 41.1429 341.388 41.1429 342.294ZM41.1429 342.294C42.0282 342.294 42.8517 342.294 43.6135 342.294C44.3752 342.294 45.1988 342.294 46.0841 342.294C46.0841 341.388 46.0841 340.565 46.0841 339.824C46.0841 339.082 46.0841 338.259 46.0841 337.353C45.1988 337.353 44.3752 337.353 43.6135 337.353C42.8517 337.353 42.0282 337.353 41.1429 337.353C41.1429 338.259 41.1429 339.082 41.1429 339.824C41.1429 340.565 41.1429 341.388 41.1429 342.294ZM41.1429 342.294C42.0282 342.294 42.8517 342.294 43.6135 342.294C44.3752 342.294 45.1988 342.294 46.0841 342.294C46.0841 341.388 46.0841 340.565 46.0841 339.824C46.0841 339.082 46.0841 338.259 46.0841 337.353C45.1988 337.353 44.3752 337.353 43.6135 337.353C42.8517 337.353 42.0282 337.353 41.1429 337.353C41.1429 338.259 41.1429 339.082 41.1429 339.824C41.1429 340.565 41.1429 341.388 41.1429 342.294ZM43.6135 337.353C44.4988 337.353 45.3223 337.353 46.0841 337.353C46.8458 337.353 47.6693 337.353 48.5546 337.353C48.5546 336.447 48.5546 335.624 48.5546 334.882C48.5546 334.141 48.5546 333.318 48.5546 332.412C47.6693 332.412 46.8458 332.412 46.0841 332.412C45.3223 332.412 44.4988 332.412 43.6135 332.412C43.6135 333.318 43.6135 334.141 43.6135 334.882C43.6135 335.624 43.6135 336.447 43.6135 337.353ZM43.6135 337.353C44.4988 337.353 45.3223 337.353 46.0841 337.353C46.8458 337.353 47.6693 337.353 48.5546 337.353C48.5546 336.447 48.5546 335.624 48.5546 334.882C48.5546 334.141 48.5546 333.318 48.5546 332.412C47.6693 332.412 46.8458 332.412 46.0841 332.412C45.3223 332.412 44.4988 332.412 43.6135 332.412C43.6135 333.318 43.6135 334.141 43.6135 334.882C43.6135 335.624 43.6135 336.447 43.6135 337.353ZM43.6135 337.353C44.4988 337.353 45.3223 337.353 46.0841 337.353C46.8458 337.353 47.6693 337.353 48.5546 337.353C48.5546 336.447 48.5546 335.624 48.5546 334.882C48.5546 334.141 48.5546 333.318 48.5546 332.412C47.6693 332.412 46.8458 332.412 46.0841 332.412C45.3223 332.412 44.4988 332.412 43.6135 332.412C43.6135 333.318 43.6135 334.141 43.6135 334.882C43.6135 335.624 43.6135 336.447 43.6135 337.353ZM43.6135 337.353C44.4988 337.353 45.3223 337.353 46.0841 337.353C46.8458 337.353 47.6693 337.353 48.5546 337.353C48.5546 336.447 48.5546 335.624 48.5546 334.882C48.5546 334.141 48.5546 333.318 48.5546 332.412C47.6693 332.412 46.8458 332.412 46.0841 332.412C45.3223 332.412 44.4988 332.412 43.6135 332.412C43.6135 333.318 43.6135 334.141 43.6135 334.882C43.6135 335.624 43.6135 336.447 43.6135 337.353ZM43.6135 337.353C44.4988 337.353 45.3223 337.353 46.0841 337.353C46.8458 337.353 47.6693 337.353 48.5546 337.353C48.5546 336.447 48.5546 335.624 48.5546 334.882C48.5546 334.141 48.5546 333.318 48.5546 332.412C47.6693 332.412 46.8458 332.412 46.0841 332.412C45.3223 332.412 44.4988 332.412 43.6135 332.412C43.6135 333.318 43.6135 334.141 43.6135 334.882C43.6135 335.624 43.6135 336.447 43.6135 337.353ZM43.6135 337.353C44.4988 337.353 45.3223 337.353 46.0841 337.353C46.8458 337.353 47.6693 337.353 48.5546 337.353C48.5546 336.447 48.5546 335.624 48.5546 334.882C48.5546 334.141 48.5546 333.318 48.5546 332.412C47.6693 332.412 46.8458 332.412 46.0841 332.412C45.3223 332.412 44.4988 332.412 43.6135 332.412C43.6135 333.318 43.6135 334.141 43.6135 334.882C43.6135 335.624 43.6135 336.447 43.6135 337.353ZM43.6135 337.353C44.4988 337.353 45.3223 337.353 46.0841 337.353C46.8458 337.353 47.6693 337.353 48.5546 337.353C48.5546 336.447 48.5546 335.624 48.5546 334.882C48.5546 334.141 48.5546 333.318 48.5546 332.412C47.6693 332.412 46.8458 332.412 46.0841 332.412C45.3223 332.412 44.4988 332.412 43.6135 332.412C43.6135 333.318 43.6135 334.141 43.6135 334.882C43.6135 335.624 43.6135 336.447 43.6135 337.353ZM43.6135 337.353C44.4988 337.353 45.3223 337.353 46.0841 337.353C46.8458 337.353 47.6693 337.353 48.5546 337.353C48.5546 336.447 48.5546 335.624 48.5546 334.882C48.5546 334.141 48.5546 333.318 48.5546 332.412C47.6693 332.412 46.8458 332.412 46.0841 332.412C45.3223 332.412 44.4988 332.412 43.6135 332.412C43.6135 333.318 43.6135 334.141 43.6135 334.882C43.6135 335.624 43.6135 336.447 43.6135 337.353ZM43.6135 337.353C44.4988 337.353 45.3223 337.353 46.0841 337.353C46.8458 337.353 47.6693 337.353 48.5546 337.353C48.5546 336.447 48.5546 335.624 48.5546 334.882C48.5546 334.141 48.5546 333.318 48.5546 332.412C47.6693 332.412 46.8458 332.412 46.0841 332.412C45.3223 332.412 44.4988 332.412 43.6135 332.412C43.6135 333.318 43.6135 334.141 43.6135 334.882C43.6135 335.624 43.6135 336.447 43.6135 337.353ZM46.0841 332.412C46.9693 332.412 47.7929 332.412 48.5546 332.412C49.3164 332.412 50.1399 332.412 51.0252 332.412C51.0252 331.506 51.0252 330.682 51.0252 329.941C51.0252 329.2 51.0252 328.376 51.0252 327.471C50.1399 327.471 49.3164 327.471 48.5546 327.471C47.7929 327.471 46.9693 327.471 46.0841 327.471C46.0841 328.376 46.0841 329.2 46.0841 329.941C46.0841 330.682 46.0841 331.506 46.0841 332.412ZM46.0841 332.412C46.9693 332.412 47.7929 332.412 48.5546 332.412C49.3164 332.412 50.1399 332.412 51.0252 332.412C51.0252 331.506 51.0252 330.682 51.0252 329.941C51.0252 329.2 51.0252 328.376 51.0252 327.471C50.1399 327.471 49.3164 327.471 48.5546 327.471C47.7929 327.471 46.9693 327.471 46.0841 327.471C46.0841 328.376 46.0841 329.2 46.0841 329.941C46.0841 330.682 46.0841 331.506 46.0841 332.412ZM46.0841 332.412C46.9693 332.412 47.7929 332.412 48.5546 332.412C49.3164 332.412 50.1399 332.412 51.0252 332.412C51.0252 331.506 51.0252 330.682 51.0252 329.941C51.0252 329.2 51.0252 328.376 51.0252 327.471C50.1399 327.471 49.3164 327.471 48.5546 327.471C47.7929 327.471 46.9693 327.471 46.0841 327.471C46.0841 328.376 46.0841 329.2 46.0841 329.941C46.0841 330.682 46.0841 331.506 46.0841 332.412ZM46.0841 332.412C46.9693 332.412 47.7929 332.412 48.5546 332.412C49.3164 332.412 50.1399 332.412 51.0252 332.412C51.0252 331.506 51.0252 330.682 51.0252 329.941C51.0252 329.2 51.0252 328.376 51.0252 327.471C50.1399 327.471 49.3164 327.471 48.5546 327.471C47.7929 327.471 46.9693 327.471 46.0841 327.471C46.0841 328.376 46.0841 329.2 46.0841 329.941C46.0841 330.682 46.0841 331.506 46.0841 332.412ZM46.0841 332.412C46.9693 332.412 47.7929 332.412 48.5546 332.412C49.3164 332.412 50.1399 332.412 51.0252 332.412C51.0252 331.506 51.0252 330.682 51.0252 329.941C51.0252 329.2 51.0252 328.376 51.0252 327.471C50.1399 327.471 49.3164 327.471 48.5546 327.471C47.7929 327.471 46.9693 327.471 46.0841 327.471C46.0841 328.376 46.0841 329.2 46.0841 329.941C46.0841 330.682 46.0841 331.506 46.0841 332.412ZM46.0841 332.412C46.9693 332.412 47.7929 332.412 48.5546 332.412C49.3164 332.412 50.1399 332.412 51.0252 332.412C51.0252 331.506 51.0252 330.682 51.0252 329.941C51.0252 329.2 51.0252 328.376 51.0252 327.471C50.1399 327.471 49.3164 327.471 48.5546 327.471C47.7929 327.471 46.9693 327.471 46.0841 327.471C46.0841 328.376 46.0841 329.2 46.0841 329.941C46.0841 330.682 46.0841 331.506 46.0841 332.412ZM46.0841 332.412C46.9693 332.412 47.7929 332.412 48.5546 332.412C49.3164 332.412 50.1399 332.412 51.0252 332.412C51.0252 331.506 51.0252 330.682 51.0252 329.941C51.0252 329.2 51.0252 328.376 51.0252 327.471C50.1399 327.471 49.3164 327.471 48.5546 327.471C47.7929 327.471 46.9693 327.471 46.0841 327.471C46.0841 328.376 46.0841 329.2 46.0841 329.941C46.0841 330.682 46.0841 331.506 46.0841 332.412ZM46.0841 332.412C46.9693 332.412 47.7929 332.412 48.5546 332.412C49.3164 332.412 50.1399 332.412 51.0252 332.412C51.0252 331.506 51.0252 330.682 51.0252 329.941C51.0252 329.2 51.0252 328.376 51.0252 327.471C50.1399 327.471 49.3164 327.471 48.5546 327.471C47.7929 327.471 46.9693 327.471 46.0841 327.471C46.0841 328.376 46.0841 329.2 46.0841 329.941C46.0841 330.682 46.0841 331.506 46.0841 332.412ZM46.0841 332.412C46.9693 332.412 47.7929 332.412 48.5546 332.412C49.3164 332.412 50.1399 332.412 51.0252 332.412C51.0252 331.506 51.0252 330.682 51.0252 329.941C51.0252 329.2 51.0252 328.376 51.0252 327.471C50.1399 327.471 49.3164 327.471 48.5546 327.471C47.7929 327.471 46.9693 327.471 46.0841 327.471C46.0841 328.376 46.0841 329.2 46.0841 329.941C46.0841 330.682 46.0841 331.506 46.0841 332.412ZM48.5546 327.471C49.4399 327.471 50.2635 327.471 51.0252 327.471C51.787 327.471 52.6105 327.471 53.4958 327.471C53.4958 326.565 53.4958 325.741 53.4958 325C53.4958 324.259 53.4958 323.435 53.4958 322.529C52.6105 322.529 51.787 322.529 51.0252 322.529C50.2635 322.529 49.4399 322.529 48.5546 322.529C48.5546 323.435 48.5546 324.259 48.5546 325C48.5546 325.741 48.5546 326.565 48.5546 327.471ZM48.5546 327.471C49.4399 327.471 50.2635 327.471 51.0252 327.471C51.787 327.471 52.6105 327.471 53.4958 327.471C53.4958 326.565 53.4958 325.741 53.4958 325C53.4958 324.259 53.4958 323.435 53.4958 322.529C52.6105 322.529 51.787 322.529 51.0252 322.529C50.2635 322.529 49.4399 322.529 48.5546 322.529C48.5546 323.435 48.5546 324.259 48.5546 325C48.5546 325.741 48.5546 326.565 48.5546 327.471ZM48.5546 327.471C49.4399 327.471 50.2635 327.471 51.0252 327.471C51.787 327.471 52.6105 327.471 53.4958 327.471C53.4958 326.565 53.4958 325.741 53.4958 325C53.4958 324.259 53.4958 323.435 53.4958 322.529C52.6105 322.529 51.787 322.529 51.0252 322.529C50.2635 322.529 49.4399 322.529 48.5546 322.529C48.5546 323.435 48.5546 324.259 48.5546 325C48.5546 325.741 48.5546 326.565 48.5546 327.471ZM48.5546 327.471C49.4399 327.471 50.2635 327.471 51.0252 327.471C51.787 327.471 52.6105 327.471 53.4958 327.471C53.4958 326.565 53.4958 325.741 53.4958 325C53.4958 324.259 53.4958 323.435 53.4958 322.529C52.6105 322.529 51.787 322.529 51.0252 322.529C50.2635 322.529 49.4399 322.529 48.5546 322.529C48.5546 323.435 48.5546 324.259 48.5546 325C48.5546 325.741 48.5546 326.565 48.5546 327.471ZM48.5546 327.471C49.4399 327.471 50.2635 327.471 51.0252 327.471C51.787 327.471 52.6105 327.471 53.4958 327.471C53.4958 326.565 53.4958 325.741 53.4958 325C53.4958 324.259 53.4958 323.435 53.4958 322.529C52.6105 322.529 51.787 322.529 51.0252 322.529C50.2635 322.529 49.4399 322.529 48.5546 322.529C48.5546 323.435 48.5546 324.259 48.5546 325C48.5546 325.741 48.5546 326.565 48.5546 327.471ZM48.5546 327.471C49.4399 327.471 50.2635 327.471 51.0252 327.471C51.787 327.471 52.6105 327.471 53.4958 327.471C53.4958 326.565 53.4958 325.741 53.4958 325C53.4958 324.259 53.4958 323.435 53.4958 322.529C52.6105 322.529 51.787 322.529 51.0252 322.529C50.2635 322.529 49.4399 322.529 48.5546 322.529C48.5546 323.435 48.5546 324.259 48.5546 325C48.5546 325.741 48.5546 326.565 48.5546 327.471ZM48.5546 327.471C49.4399 327.471 50.2635 327.471 51.0252 327.471C51.787 327.471 52.6105 327.471 53.4958 327.471C53.4958 326.565 53.4958 325.741 53.4958 325C53.4958 324.259 53.4958 323.435 53.4958 322.529C52.6105 322.529 51.787 322.529 51.0252 322.529C50.2635 322.529 49.4399 322.529 48.5546 322.529C48.5546 323.435 48.5546 324.259 48.5546 325C48.5546 325.741 48.5546 326.565 48.5546 327.471ZM48.5546 327.471C49.4399 327.471 50.2635 327.471 51.0252 327.471C51.787 327.471 52.6105 327.471 53.4958 327.471C53.4958 326.565 53.4958 325.741 53.4958 325C53.4958 324.259 53.4958 323.435 53.4958 322.529C52.6105 322.529 51.787 322.529 51.0252 322.529C50.2635 322.529 49.4399 322.529 48.5546 322.529C48.5546 323.435 48.5546 324.259 48.5546 325C48.5546 325.741 48.5546 326.565 48.5546 327.471ZM48.5546 327.471C49.4399 327.471 50.2635 327.471 51.0252 327.471C51.787 327.471 52.6105 327.471 53.4958 327.471C53.4958 326.565 53.4958 325.741 53.4958 325C53.4958 324.259 53.4958 323.435 53.4958 322.529C52.6105 322.529 51.787 322.529 51.0252 322.529C50.2635 322.529 49.4399 322.529 48.5546 322.529C48.5546 323.435 48.5546 324.259 48.5546 325C48.5546 325.741 48.5546 326.565 48.5546 327.471ZM51.0252 322.529C51.9105 322.529 52.7341 322.529 53.4958 322.529C54.2576 322.529 55.0811 322.529 55.9664 322.529C55.9664 321.624 55.9664 320.8 55.9664 320.059C55.9664 319.318 55.9664 318.494 55.9664 317.588C55.0811 317.588 54.2576 317.588 53.4958 317.588C52.7341 317.588 51.9105 317.588 51.0252 317.588C51.0252 318.494 51.0252 319.318 51.0252 320.059C51.0252 320.8 51.0252 321.624 51.0252 322.529ZM51.0252 322.529C51.9105 322.529 52.7341 322.529 53.4958 322.529C54.2576 322.529 55.0811 322.529 55.9664 322.529C55.9664 321.624 55.9664 320.8 55.9664 320.059C55.9664 319.318 55.9664 318.494 55.9664 317.588C55.0811 317.588 54.2576 317.588 53.4958 317.588C52.7341 317.588 51.9105 317.588 51.0252 317.588C51.0252 318.494 51.0252 319.318 51.0252 320.059C51.0252 320.8 51.0252 321.624 51.0252 322.529ZM51.0252 322.529C51.9105 322.529 52.7341 322.529 53.4958 322.529C54.2576 322.529 55.0811 322.529 55.9664 322.529C55.9664 321.624 55.9664 320.8 55.9664 320.059C55.9664 319.318 55.9664 318.494 55.9664 317.588C55.0811 317.588 54.2576 317.588 53.4958 317.588C52.7341 317.588 51.9105 317.588 51.0252 317.588C51.0252 318.494 51.0252 319.318 51.0252 320.059C51.0252 320.8 51.0252 321.624 51.0252 322.529ZM51.0252 322.529C51.9105 322.529 52.7341 322.529 53.4958 322.529C54.2576 322.529 55.0811 322.529 55.9664 322.529C55.9664 321.624 55.9664 320.8 55.9664 320.059C55.9664 319.318 55.9664 318.494 55.9664 317.588C55.0811 317.588 54.2576 317.588 53.4958 317.588C52.7341 317.588 51.9105 317.588 51.0252 317.588C51.0252 318.494 51.0252 319.318 51.0252 320.059C51.0252 320.8 51.0252 321.624 51.0252 322.529ZM51.0252 322.529C51.9105 322.529 52.7341 322.529 53.4958 322.529C54.2576 322.529 55.0811 322.529 55.9664 322.529C55.9664 321.624 55.9664 320.8 55.9664 320.059C55.9664 319.318 55.9664 318.494 55.9664 317.588C55.0811 317.588 54.2576 317.588 53.4958 317.588C52.7341 317.588 51.9105 317.588 51.0252 317.588C51.0252 318.494 51.0252 319.318 51.0252 320.059C51.0252 320.8 51.0252 321.624 51.0252 322.529ZM51.0252 322.529C51.9105 322.529 52.7341 322.529 53.4958 322.529C54.2576 322.529 55.0811 322.529 55.9664 322.529C55.9664 321.624 55.9664 320.8 55.9664 320.059C55.9664 319.318 55.9664 318.494 55.9664 317.588C55.0811 317.588 54.2576 317.588 53.4958 317.588C52.7341 317.588 51.9105 317.588 51.0252 317.588C51.0252 318.494 51.0252 319.318 51.0252 320.059C51.0252 320.8 51.0252 321.624 51.0252 322.529ZM51.0252 322.529C51.9105 322.529 52.7341 322.529 53.4958 322.529C54.2576 322.529 55.0811 322.529 55.9664 322.529C55.9664 321.624 55.9664 320.8 55.9664 320.059C55.9664 319.318 55.9664 318.494 55.9664 317.588C55.0811 317.588 54.2576 317.588 53.4958 317.588C52.7341 317.588 51.9105 317.588 51.0252 317.588C51.0252 318.494 51.0252 319.318 51.0252 320.059C51.0252 320.8 51.0252 321.624 51.0252 322.529ZM51.0252 322.529C51.9105 322.529 52.7341 322.529 53.4958 322.529C54.2576 322.529 55.0811 322.529 55.9664 322.529C55.9664 321.624 55.9664 320.8 55.9664 320.059C55.9664 319.318 55.9664 318.494 55.9664 317.588C55.0811 317.588 54.2576 317.588 53.4958 317.588C52.7341 317.588 51.9105 317.588 51.0252 317.588C51.0252 318.494 51.0252 319.318 51.0252 320.059C51.0252 320.8 51.0252 321.624 51.0252 322.529ZM51.0252 322.529C51.9105 322.529 52.7341 322.529 53.4958 322.529C54.2576 322.529 55.0811 322.529 55.9664 322.529C55.9664 321.624 55.9664 320.8 55.9664 320.059C55.9664 319.318 55.9664 318.494 55.9664 317.588C55.0811 317.588 54.2576 317.588 53.4958 317.588C52.7341 317.588 51.9105 317.588 51.0252 317.588C51.0252 318.494 51.0252 319.318 51.0252 320.059C51.0252 320.8 51.0252 321.624 51.0252 322.529ZM53.4958 317.588C54.3811 317.588 55.2046 317.588 55.9664 317.588C56.7282 317.588 57.5517 317.588 58.437 317.588C58.437 316.682 58.437 315.859 58.437 315.118C58.437 314.376 58.437 313.553 58.437 312.647C57.5517 312.647 56.7282 312.647 55.9664 312.647C55.2046 312.647 54.3811 312.647 53.4958 312.647C53.4958 313.553 53.4958 314.376 53.4958 315.118C53.4958 315.859 53.4958 316.682 53.4958 317.588ZM53.4958 317.588C54.3811 317.588 55.2046 317.588 55.9664 317.588C56.7282 317.588 57.5517 317.588 58.437 317.588C58.437 316.682 58.437 315.859 58.437 315.118C58.437 314.376 58.437 313.553 58.437 312.647C57.5517 312.647 56.7282 312.647 55.9664 312.647C55.2046 312.647 54.3811 312.647 53.4958 312.647C53.4958 313.553 53.4958 314.376 53.4958 315.118C53.4958 315.859 53.4958 316.682 53.4958 317.588ZM53.4958 317.588C54.3811 317.588 55.2046 317.588 55.9664 317.588C56.7282 317.588 57.5517 317.588 58.437 317.588C58.437 316.682 58.437 315.859 58.437 315.118C58.437 314.376 58.437 313.553 58.437 312.647C57.5517 312.647 56.7282 312.647 55.9664 312.647C55.2046 312.647 54.3811 312.647 53.4958 312.647C53.4958 313.553 53.4958 314.376 53.4958 315.118C53.4958 315.859 53.4958 316.682 53.4958 317.588ZM53.4958 317.588C54.3811 317.588 55.2046 317.588 55.9664 317.588C56.7282 317.588 57.5517 317.588 58.437 317.588C58.437 316.682 58.437 315.859 58.437 315.118C58.437 314.376 58.437 313.553 58.437 312.647C57.5517 312.647 56.7282 312.647 55.9664 312.647C55.2046 312.647 54.3811 312.647 53.4958 312.647C53.4958 313.553 53.4958 314.376 53.4958 315.118C53.4958 315.859 53.4958 316.682 53.4958 317.588ZM53.4958 317.588C54.3811 317.588 55.2046 317.588 55.9664 317.588C56.7282 317.588 57.5517 317.588 58.437 317.588C58.437 316.682 58.437 315.859 58.437 315.118C58.437 314.376 58.437 313.553 58.437 312.647C57.5517 312.647 56.7282 312.647 55.9664 312.647C55.2046 312.647 54.3811 312.647 53.4958 312.647C53.4958 313.553 53.4958 314.376 53.4958 315.118C53.4958 315.859 53.4958 316.682 53.4958 317.588ZM53.4958 317.588C54.3811 317.588 55.2046 317.588 55.9664 317.588C56.7282 317.588 57.5517 317.588 58.437 317.588C58.437 316.682 58.437 315.859 58.437 315.118C58.437 314.376 58.437 313.553 58.437 312.647C57.5517 312.647 56.7282 312.647 55.9664 312.647C55.2046 312.647 54.3811 312.647 53.4958 312.647C53.4958 313.553 53.4958 314.376 53.4958 315.118C53.4958 315.859 53.4958 316.682 53.4958 317.588ZM53.4958 317.588C54.3811 317.588 55.2046 317.588 55.9664 317.588C56.7282 317.588 57.5517 317.588 58.437 317.588C58.437 316.682 58.437 315.859 58.437 315.118C58.437 314.376 58.437 313.553 58.437 312.647C57.5517 312.647 56.7282 312.647 55.9664 312.647C55.2046 312.647 54.3811 312.647 53.4958 312.647C53.4958 313.553 53.4958 314.376 53.4958 315.118C53.4958 315.859 53.4958 316.682 53.4958 317.588ZM53.4958 317.588C54.3811 317.588 55.2046 317.588 55.9664 317.588C56.7282 317.588 57.5517 317.588 58.437 317.588C58.437 316.682 58.437 315.859 58.437 315.118C58.437 314.376 58.437 313.553 58.437 312.647C57.5517 312.647 56.7282 312.647 55.9664 312.647C55.2046 312.647 54.3811 312.647 53.4958 312.647C53.4958 313.553 53.4958 314.376 53.4958 315.118C53.4958 315.859 53.4958 316.682 53.4958 317.588ZM53.4958 317.588C54.3811 317.588 55.2046 317.588 55.9664 317.588C56.7282 317.588 57.5517 317.588 58.437 317.588C58.437 316.682 58.437 315.859 58.437 315.118C58.437 314.376 58.437 313.553 58.437 312.647C57.5517 312.647 56.7282 312.647 55.9664 312.647C55.2046 312.647 54.3811 312.647 53.4958 312.647C53.4958 313.553 53.4958 314.376 53.4958 315.118C53.4958 315.859 53.4958 316.682 53.4958 317.588Z" fill="#39794F"/>
<path d="M113.024 258L139.024 256L136.524 276.5L117.024 278.5L113.024 258Z" fill="#39794F"/>
<path d="M109.5 252L113 258L117 278.5L111 272L109.5 252Z" fill="#2C5038"/>
<path d="M109.5 252L139 256L131 257L113 258L109.5 252Z" fill="#1A3F27"/>
<path d="M110 253L130.5 257L123 257.5L113 258L110 253Z" fill="#4E3B3B"/>
<path d="M41 246L76 250.5L64.5 270.5L48.5 269L41 246Z" fill="#39794F"/>
<path d="M129.5 90.8161L184 97L180.5 137.816L137 172.816L129.5 90.8161Z" fill="#232A25"/>
<path d="M75.5 250.5L84.5 245L78 260.5L64.5 270.5L75.5 250.5Z" fill="#2C5038"/>
<path d="M175.5 153.5H180L179.5 157.5H175.5V153.5Z" fill="#2C5038"/>
<path d="M54 243H66L84.5 245L75.5 250.5L41 246L54 243Z" fill="#39794F"/>
<path d="M62.5 233L73 232L74.5 246.5L73 247L70.5 234H65.5L56 245H54L62.5 233Z" fill="#245C38"/>
<path d="M75.5 258L93 253L94 250.5L85.5 253L76 254L75.5 258Z" fill="#39794F"/>
<path d="M164.5 136L173 125L178 159L162 187L164.5 136Z" fill="#E1FAE1"/>
<path d="M127.5 86.5L186 95L180 127L157 141.5L127.5 86.5Z" fill="#E1FAE1"/>
<path d="M128 78.5L151 72.5L174.5 75L168.5 98L147 90L130 103L128 78.5Z" fill="#232B25"/>
<path d="M167 78L180 71.5L191.5 86.5L189 110L170 117L167 78Z" fill="#232A25"/>
<path d="M163 92.1839L190 87V131L169 175L163 92.1839Z" fill="#232A25"/>
</svg>
